<svg width="36" height="32" viewBox="0 0 36 32" fill="none" xmlns="http://www.w3.org/2000/svg">
<path d="M32.8135 11.4544C31.907 10.8781 30.7743 10.459 29.5268 10.2287C29.3165 10.1884 29.1227 10.0873 28.9694 9.93801C28.816 9.78867 28.7099 9.59762 28.6641 9.38853C28.1268 7.02945 26.9824 5.00464 25.3042 3.46997C23.3423 1.67554 20.7487 0.687744 18 0.687744C15.5835 0.687744 13.3516 1.44517 11.5489 2.87525C10.3314 3.84593 9.3508 5.08091 8.68125 6.48667C8.60677 6.64519 8.49542 6.78357 8.35651 6.89025C8.21761 6.99692 8.05518 7.0688 7.88281 7.09986C6.02822 7.43482 4.42861 8.10337 3.20635 9.06177C1.43652 10.4515 0.5 12.4155 0.5 14.7424C0.5 19.3499 4.32334 22.5628 9.79688 22.5628H16.9062V13.8435C16.9062 13.2549 17.3588 12.7498 17.9474 12.7204C18.0952 12.7132 18.243 12.7362 18.3818 12.7879C18.5205 12.8396 18.6473 12.9189 18.7545 13.021C18.8617 13.1232 18.947 13.246 19.0054 13.3821C19.0637 13.5182 19.0937 13.6647 19.0938 13.8127V22.5628H27.5703C32.5359 22.5628 35.5 20.2221 35.5 16.301C35.5 14.2468 34.571 12.5707 32.8135 11.4544ZM16.9062 27.5817L14.3975 25.077C14.1911 24.8771 13.9144 24.7663 13.6271 24.7687C13.3398 24.7711 13.065 24.8865 12.862 25.0899C12.6591 25.2933 12.5443 25.5684 12.5426 25.8557C12.5408 26.143 12.6521 26.4195 12.8525 26.6254L17.2275 30.9928C17.4326 31.1974 17.7104 31.3123 18 31.3123C18.2896 31.3123 18.5674 31.1974 18.7725 30.9928L23.1475 26.6254C23.3479 26.4195 23.4592 26.143 23.4574 25.8557C23.4557 25.5684 23.3409 25.2933 23.138 25.0899C22.935 24.8865 22.6602 24.7711 22.3729 24.7687C22.0856 24.7663 21.8089 24.8771 21.6025 25.077L19.0938 27.5817V22.5628H16.9062V27.5817Z" fill="#FFC2A8"/>
</svg>
