<svg width="100" height="101" viewBox="0 0 100 101" fill="none" xmlns="http://www.w3.org/2000/svg">
<path d="M67.8572 68.3571H85.7144V86.2143H67.8572V68.3571ZM53.5715 54.0714H67.8572V68.3571H53.5715V54.0714ZM85.7144 86.2143H100V100.5H85.7144V86.2143ZM89.2858 54.0714H100V64.7857H89.2858V54.0714ZM53.5715 89.7857H64.2858V100.5H53.5715V89.7857ZM67.8572 14.7857H85.7144V32.6428H67.8572V14.7857Z" fill="black"/>
<path d="M99.9999 46.9286H53.5714V0.5H99.9999V46.9286ZM63.3928 37.1071H90.1785V10.3214H63.3928V37.1071ZM14.2856 14.7857H32.1428V32.6429H14.2856V14.7857Z" fill="black"/>
<path d="M46.4286 46.9286H0V0.5H46.4286V46.9286ZM9.82143 37.1071H36.6071V10.3214H9.82143V37.1071ZM14.2857 68.3571H32.1429V86.2143H14.2857V68.3571Z" fill="black"/>
<path d="M46.4286 100.5H0V54.0714H46.4286V100.5ZM9.82143 90.6786H36.6071V63.8928H9.82143V90.6786Z" fill="black"/>
</svg>
