<svg width="350" height="370" viewBox="0 0 350 370" fill="none" xmlns="http://www.w3.org/2000/svg">
<path d="M350 282.976H0V283.161H350V282.976Z" fill="#EBEBEB"/>
<path d="M314.93 294.883H291.746V295.068H314.93V294.883Z" fill="#EBEBEB"/>
<path d="M211.008 294.979H204.925V295.164H211.008V294.979Z" fill="#EBEBEB"/>
<path d="M291.039 288.016H248.031V288.201H291.039V288.016Z" fill="#EBEBEB"/>
<path d="M157.598 292.381H148.715V292.566H157.598V292.381Z" fill="#EBEBEB"/>
<path d="M142.485 292.381H116.704V292.566H142.485V292.381Z" fill="#EBEBEB"/>
<path d="M54.5232 289.259H36.7222V289.444H54.5232V289.259Z" fill="#EBEBEB"/>
<path d="M111.146 289.259H58.7231V289.444H111.146V289.259Z" fill="#EBEBEB"/>
<path d="M165.9 249.972H30.7371C29.6782 249.97 28.6634 249.524 27.9153 248.732C27.1672 247.94 26.7471 246.866 26.7471 245.747V44.8886C26.7563 43.7757 27.1805 42.7115 27.9276 41.9273C28.6747 41.1431 29.6842 40.7021 30.7371 40.7002H165.9C166.96 40.7002 167.977 41.1454 168.726 41.9378C169.476 42.7302 169.897 43.8049 169.897 44.9256V245.747C169.897 246.867 169.476 247.942 168.726 248.735C167.977 249.527 166.96 249.972 165.9 249.972ZM30.7371 40.8482C29.7246 40.8502 28.7543 41.2767 28.039 42.0342C27.3238 42.7917 26.9221 43.8183 26.9221 44.8886V245.747C26.9221 246.817 27.3238 247.844 28.039 248.601C28.7543 249.359 29.7246 249.785 30.7371 249.787H165.9C166.913 249.785 167.884 249.359 168.601 248.602C169.317 247.844 169.72 246.818 169.722 245.747V44.8886C169.72 43.8176 169.317 42.7911 168.601 42.0338C167.884 41.2765 166.913 40.8502 165.9 40.8482H30.7371Z" fill="#EBEBEB"/>
<path d="M317.317 249.972H182.147C181.087 249.97 180.072 249.524 179.323 248.732C178.573 247.94 178.152 246.867 178.15 245.747V44.8886C178.161 43.775 178.587 42.7108 179.335 41.9268C180.083 41.1428 181.093 40.7021 182.147 40.7002H317.317C318.368 40.704 319.376 41.1459 320.122 41.9299C320.867 42.7139 321.291 43.7769 321.3 44.8886V245.747C321.3 246.865 320.881 247.937 320.134 248.729C319.388 249.521 318.375 249.968 317.317 249.972ZM182.147 40.8482C181.134 40.8502 180.163 41.2765 179.446 42.0338C178.73 42.7911 178.327 43.8176 178.325 44.8886V245.747C178.327 246.818 178.73 247.844 179.446 248.602C180.163 249.359 181.134 249.785 182.147 249.787H317.317C318.33 249.785 319.301 249.359 320.017 248.602C320.734 247.844 321.137 246.818 321.139 245.747V44.8886C321.137 43.8176 320.734 42.7911 320.017 42.0338C319.301 41.2765 318.33 40.8502 317.317 40.8482H182.147Z" fill="#EBEBEB"/>
<path d="M133.546 184.638L303.674 184.638V53.2655L133.546 53.2655L133.546 184.638Z" fill="#E6E6E6"/>
<path d="M126.028 184.638L301.931 184.638V53.2655L126.028 53.2655L126.028 184.638Z" fill="#F0F0F0"/>
<path d="M291.396 173.508V64.395L136.549 64.395V173.508H291.396Z" fill="#FAFAFA"/>
<path d="M253.757 173.501L218.505 64.395H184.842L220.094 173.501H253.757Z" fill="white"/>
<path d="M212.863 173.501L177.611 64.395H164.493L199.745 173.501H212.863Z" fill="white"/>
<path d="M137.893 173.508V64.395H136.556V173.508H137.893Z" fill="#E6E6E6"/>
<path d="M45.1989 148.903H105.273L105.273 58.867L45.1989 58.867L45.1989 148.903Z" fill="#E0E0E0"/>
<path d="M40.9501 148.903H102.872L102.872 58.867L40.9501 58.867L40.9501 148.903Z" fill="#F5F5F5"/>
<path d="M96.7612 141.799V65.9565H47.0612L47.0612 141.799H96.7612Z" fill="white"/>
<path d="M68.5508 211.936C73.0098 200.303 83.6148 195.974 87.2828 188.626C92.0778 179.006 92.0498 164.569 87.9828 159.366C84.4268 154.838 72.6668 185.444 71.3438 188.863C67.7141 198.09 65.4431 207.85 64.6098 217.804C64.7078 210.619 64.7988 204.018 64.8758 198.927C65.1278 182.321 65.4358 176.978 65.5758 175.336C66.0658 174.529 66.6468 173.597 66.9758 173.116C69.8248 168.875 76.1388 163.821 79.2958 157.657C83.9018 148.651 83.1598 137.877 79.9258 133.866C76.5448 129.67 70.5738 139.586 67.4028 149.406C64.2318 159.226 65.5828 168.646 64.6938 176.786C64.5118 178.384 64.3158 184.46 64.1408 192.896C63.1748 183.823 61.2568 177.748 57.7078 172.08C53.3398 165.116 49.5668 156.636 45.9688 157.731C42.3708 158.826 44.3028 170.052 47.1518 177.926C49.6998 184.941 62.1948 191.941 64.0358 197.58C63.8188 209.006 63.6228 223.48 63.4898 236.97C62.5028 230.007 63.1818 229.422 59.1358 218.759C56.7348 212.424 46.8998 204.61 45.7098 208.961C44.5198 213.312 46.3188 221.541 50.0358 227.313C53.0388 231.96 59.6958 231.953 61.2358 234.839C61.5928 235.512 62.7828 238.095 63.4618 239.575C63.3008 256.033 63.2308 270.566 63.3078 275.517L63.9518 275.569C63.9518 274.288 64.0008 265.949 64.1268 254.849C65.7438 248.929 76.6288 245.517 79.9888 239.383C83.4888 232.967 86.0368 225.478 84.5248 220.468C83.2648 216.287 73.3248 221.948 69.3278 228.897C66.6468 233.514 65.0088 238.435 64.2458 245.051C64.3368 237.503 64.4418 229.393 64.5398 221.741C65.3588 219.817 67.1998 215.421 68.5508 211.936Z" fill="#E6E6E6"/>
<path d="M74.942 282.976H52.066C51.4615 282.976 50.8757 282.754 50.4077 282.35C49.9396 281.945 49.618 281.382 49.497 280.756L47.873 272.32H79.142L77.518 280.779C77.3903 281.401 77.0651 281.958 76.5965 282.357C76.128 282.757 75.5442 282.976 74.942 282.976Z" fill="#F0F0F0"/>
<path d="M79.8002 275.569H47.2152C46.8377 275.568 46.4738 275.42 46.1925 275.154C45.9112 274.888 45.7321 274.522 45.6892 274.126L44.9892 267.873C44.9656 267.646 44.9875 267.416 45.0534 267.199C45.1192 266.981 45.2277 266.781 45.3716 266.611C45.5155 266.44 45.6917 266.304 45.8887 266.21C46.0857 266.117 46.2992 266.068 46.5152 266.067H80.4232C80.6395 266.067 80.8535 266.115 81.051 266.208C81.2486 266.301 81.4252 266.438 81.5694 266.608C81.7135 266.779 81.8219 266.98 81.8873 267.198C81.9528 267.416 81.9739 267.646 81.9492 267.873L81.2492 274.126C81.2083 274.509 81.0402 274.864 80.7749 275.128C80.5096 275.392 80.1642 275.549 79.8002 275.569Z" fill="#F0F0F0"/>
<path d="M283.941 277.582H290.934V198.039H283.941V277.582Z" fill="#F0F0F0"/>
<path d="M141.442 282.88H288.253V277.581H141.442V282.88Z" fill="#F0F0F0"/>
<path d="M283.948 198.039H138.761V277.582H283.948V198.039Z" fill="#F5F5F5"/>
<path d="M285.593 198.039H292.817V193.022H285.593V198.039Z" fill="#E0E0E0"/>
<path d="M285.593 193.022H136.878V198.039H285.593V193.022Z" fill="#EBEBEB"/>
<path d="M273.525 232.36H149.177C147.692 232.36 146.268 231.736 145.217 230.626C144.167 229.516 143.577 228.01 143.577 226.44V209.42C143.577 207.85 144.167 206.344 145.217 205.234C146.268 204.124 147.692 203.5 149.177 203.5H273.525C275.01 203.5 276.435 204.124 277.485 205.234C278.535 206.344 279.125 207.85 279.125 209.42V226.44C279.125 228.01 278.535 229.516 277.485 230.626C276.435 231.736 275.01 232.36 273.525 232.36ZM149.177 204.98C148.063 204.98 146.995 205.448 146.207 206.28C145.42 207.113 144.977 208.242 144.977 209.42V226.44C144.977 227.618 145.42 228.747 146.207 229.58C146.995 230.412 148.063 230.88 149.177 230.88H273.525C274.639 230.88 275.707 230.412 276.495 229.58C277.283 228.747 277.725 227.618 277.725 226.44V209.42C277.725 208.242 277.283 207.113 276.495 206.28C275.707 205.448 274.639 204.98 273.525 204.98H149.177Z" fill="white"/>
<path d="M273.525 268.021H149.177C147.692 268.021 146.268 267.397 145.217 266.287C144.167 265.177 143.577 263.671 143.577 262.101V245.081C143.577 243.511 144.167 242.005 145.217 240.895C146.268 239.784 147.692 239.161 149.177 239.161H273.525C275.01 239.161 276.435 239.784 277.485 240.895C278.535 242.005 279.125 243.511 279.125 245.081V262.101C279.125 263.671 278.535 265.177 277.485 266.287C276.435 267.397 275.01 268.021 273.525 268.021ZM149.177 240.581C148.063 240.581 146.995 241.049 146.207 241.882C145.42 242.715 144.977 243.844 144.977 245.021V262.041C144.977 263.219 145.42 264.348 146.207 265.181C146.995 266.014 148.063 266.481 149.177 266.481H273.525C274.639 266.481 275.707 266.014 276.495 265.181C277.283 264.348 277.725 263.219 277.725 262.041V245.021C277.725 243.844 277.283 242.715 276.495 241.882C275.707 241.049 274.639 240.581 273.525 240.581H149.177Z" fill="white"/>
<path d="M245.266 220.52H177.436C176.955 220.52 176.493 220.318 176.152 219.959C175.811 219.6 175.618 219.112 175.616 218.603V217.197C175.618 216.688 175.811 216.201 176.152 215.842C176.493 215.482 176.955 215.281 177.436 215.281H245.266C245.748 215.281 246.21 215.482 246.551 215.842C246.892 216.201 247.084 216.688 247.086 217.197V218.603C247.084 219.112 246.892 219.6 246.551 219.959C246.21 220.318 245.748 220.52 245.266 220.52ZM177.436 216.82C177.327 216.822 177.222 216.868 177.144 216.949C177.065 217.031 177.02 217.141 177.016 217.257V218.663C177.02 218.778 177.065 218.888 177.144 218.97C177.222 219.051 177.327 219.097 177.436 219.099H245.266C245.376 219.099 245.482 219.053 245.561 218.972C245.639 218.89 245.684 218.779 245.686 218.663V217.257C245.684 217.14 245.639 217.029 245.561 216.947C245.482 216.866 245.376 216.82 245.266 216.82H177.436Z" fill="white"/>
<path d="M245.266 256.181H177.436C176.955 256.181 176.493 255.979 176.152 255.62C175.811 255.26 175.618 254.773 175.616 254.264V252.858C175.618 252.349 175.811 251.862 176.152 251.502C176.493 251.143 176.955 250.941 177.436 250.941H245.266C245.748 250.941 246.21 251.143 246.551 251.502C246.892 251.862 247.084 252.349 247.086 252.858V254.264C247.084 254.773 246.892 255.26 246.551 255.62C246.21 255.979 245.748 256.181 245.266 256.181ZM177.436 252.421C177.327 252.423 177.222 252.47 177.144 252.551C177.065 252.632 177.02 252.742 177.016 252.858V254.264C177.02 254.38 177.065 254.49 177.144 254.571C177.222 254.652 177.327 254.699 177.436 254.701H245.266C245.376 254.701 245.482 254.655 245.561 254.573C245.639 254.492 245.684 254.38 245.686 254.264V252.858C245.684 252.742 245.639 252.631 245.561 252.549C245.482 252.467 245.376 252.421 245.266 252.421H177.436Z" fill="white"/>
<path d="M171.5 316.394C246.458 316.394 307.223 312.644 307.223 308.017C307.223 303.391 246.458 299.641 171.5 299.641C96.5421 299.641 35.7769 303.391 35.7769 308.017C35.7769 312.644 96.5421 316.394 171.5 316.394Z" fill="#F5F5F5"/>
<path d="M262.353 124.137L262.086 128.494L262.785 128.541L263.051 124.185L262.353 124.137Z" fill="#FF441F"/>
<path d="M263.416 106.441L262.542 120.76L263.241 120.808L264.114 106.489L263.416 106.441Z" fill="#FF441F"/>
<path d="M255.108 85.6474H172.823C170.71 85.6866 168.687 86.5566 167.148 88.0876C165.609 89.6186 164.665 91.7009 164.5 93.928L153.867 267.458C153.789 268.522 153.922 269.591 154.256 270.598C154.59 271.604 155.118 272.527 155.807 273.306C156.496 274.085 157.331 274.705 158.259 275.125C159.187 275.545 160.187 275.756 161.196 275.746H243.467C245.583 275.709 247.611 274.839 249.154 273.307C250.697 271.774 251.644 269.689 251.811 267.458L262.437 93.928C262.515 92.8647 262.382 91.7959 262.048 90.7895C261.714 89.7832 261.186 88.8613 260.496 88.0825C259.807 87.3038 258.972 86.6851 258.044 86.2659C257.117 85.8466 256.117 85.636 255.108 85.6474Z" fill="#FF441F"/>
<path opacity="0.7" d="M252.497 85.6474H172.823C170.71 85.6866 168.687 86.5566 167.148 88.0876C165.609 89.6186 164.665 91.7009 164.5 93.928L153.867 267.458C153.789 268.522 153.922 269.591 154.256 270.598C154.59 271.604 155.118 272.527 155.807 273.306C156.496 274.085 157.331 274.705 158.259 275.125C159.187 275.545 160.187 275.756 161.196 275.746H240.856C242.972 275.709 245 274.839 246.543 273.307C248.086 271.774 249.033 269.689 249.2 267.458L259.826 93.928C259.904 92.8647 259.771 91.7959 259.437 90.7895C259.103 89.7832 258.575 88.8613 257.885 88.0825C257.196 87.3038 256.361 86.6851 255.433 86.2659C254.506 85.8466 253.506 85.636 252.497 85.6474Z" fill="white"/>
<path d="M245.777 262.922H158.137C157.809 262.922 157.485 262.852 157.184 262.715C156.883 262.577 156.612 262.376 156.387 262.124C156.163 261.871 155.99 261.573 155.879 261.247C155.768 260.921 155.722 260.574 155.743 260.228L165.361 103.2C165.4 102.559 165.668 101.957 166.112 101.517C166.555 101.078 167.14 100.833 167.748 100.832H255.395C255.723 100.832 256.047 100.904 256.348 101.042C256.649 101.18 256.92 101.382 257.145 101.635C257.369 101.888 257.542 102.187 257.653 102.513C257.764 102.84 257.81 103.187 257.789 103.533L248.171 260.554C248.132 261.196 247.862 261.799 247.417 262.239C246.973 262.679 246.386 262.923 245.777 262.922Z" fill="white"/>
<path d="M226.303 95.6966H194.446C194.282 95.6981 194.12 95.6636 193.969 95.5953C193.818 95.527 193.683 95.4263 193.571 95.2997C193.459 95.1731 193.373 95.0232 193.319 94.8597C193.265 94.6962 193.243 94.5226 193.256 94.3498C193.288 93.9909 193.443 93.6568 193.692 93.4102C193.941 93.1635 194.266 93.0214 194.607 93.0104H226.464C226.628 93.0078 226.79 93.0413 226.94 93.1088C227.091 93.1763 227.227 93.2763 227.339 93.4023C227.451 93.5284 227.537 93.6778 227.591 93.8409C227.645 94.0041 227.667 94.1774 227.654 94.3498C227.623 94.71 227.469 95.0459 227.22 95.2941C226.971 95.5422 226.645 95.6854 226.303 95.6966Z" fill="white"/>
<path d="M201.439 269.515C201.387 270.402 201.02 271.236 200.411 271.848C199.802 272.46 198.996 272.806 198.156 272.816C197.752 272.82 197.352 272.736 196.98 272.569C196.609 272.402 196.274 272.156 195.996 271.847C195.718 271.537 195.504 271.17 195.366 270.769C195.228 270.368 195.17 269.941 195.195 269.515C195.248 268.63 195.615 267.798 196.224 267.187C196.833 266.577 197.638 266.232 198.478 266.222C198.881 266.217 199.281 266.301 199.652 266.466C200.024 266.632 200.359 266.878 200.637 267.187C200.915 267.496 201.13 267.862 201.268 268.263C201.405 268.663 201.464 269.09 201.439 269.515Z" fill="white"/>
<path opacity="0.2" d="M236.229 144.3H161.392L156.632 221.926H236.229C238.306 221.922 240.297 221.048 241.766 219.497C243.235 217.945 244.063 215.841 244.069 213.645V152.61C244.071 150.409 243.246 148.298 241.776 146.739C240.306 145.181 238.311 144.304 236.229 144.3Z" fill="#FF441F"/>
<path d="M229.257 137.425H137.543C133.213 137.425 129.703 141.136 129.703 145.713V206.771C129.703 211.348 133.213 215.059 137.543 215.059H229.257C233.587 215.059 237.097 211.348 237.097 206.771V145.713C237.097 141.136 233.587 137.425 229.257 137.425Z" fill="#FF441F"/>
<path d="M127.197 136.53C127.013 136.529 126.837 136.452 126.707 136.315L125.447 134.991C125.315 134.851 125.241 134.662 125.241 134.465C125.241 134.268 125.315 134.079 125.447 133.94C125.579 133.8 125.758 133.722 125.944 133.722C126.13 133.722 126.309 133.8 126.441 133.94L127.694 135.272C127.824 135.41 127.898 135.598 127.898 135.794C127.898 135.989 127.824 136.177 127.694 136.315C127.629 136.384 127.551 136.438 127.466 136.475C127.381 136.512 127.289 136.53 127.197 136.53Z" fill="#FF441F"/>
<path d="M125.3 141.177H123.529C123.343 141.177 123.165 141.099 123.034 140.961C122.903 140.822 122.829 140.634 122.829 140.437C122.829 140.241 122.903 140.053 123.034 139.914C123.165 139.775 123.343 139.697 123.529 139.697H125.3C125.486 139.697 125.664 139.775 125.795 139.914C125.926 140.053 126 140.241 126 140.437C126 140.634 125.926 140.822 125.795 140.961C125.664 141.099 125.486 141.177 125.3 141.177Z" fill="#FF441F"/>
<path d="M131.656 134.532C131.478 134.532 131.307 134.462 131.178 134.334C131.048 134.206 130.968 134.031 130.956 133.844L130.83 131.971C130.823 131.874 130.835 131.777 130.864 131.684C130.893 131.592 130.939 131.506 131 131.433C131.06 131.359 131.134 131.299 131.217 131.255C131.299 131.212 131.389 131.186 131.481 131.18C131.666 131.167 131.847 131.233 131.986 131.362C132.125 131.491 132.21 131.673 132.223 131.868L132.356 133.74C132.363 133.837 132.351 133.935 132.322 134.027C132.293 134.12 132.247 134.205 132.186 134.279C132.126 134.353 132.052 134.413 131.969 134.456C131.887 134.5 131.797 134.525 131.705 134.532H131.656Z" fill="#FF441F"/>
<path d="M191.233 207.074L219.394 236.837V207.074H191.233Z" fill="#FF441F"/>
<path d="M198.954 194.035L197.554 187.753C197.2 186.101 197.2 184.387 197.554 182.736L199.5 173.789C200.296 169.974 199.865 165.987 198.275 162.46C196.685 158.933 194.027 156.068 190.722 154.32C190.784 154.155 190.838 153.987 190.883 153.816C190.998 153.274 191.011 152.712 190.92 152.164C190.83 151.616 190.638 151.093 190.357 150.623C190.075 150.153 189.708 149.747 189.278 149.427C188.848 149.107 188.362 148.88 187.848 148.758C187.335 148.637 186.804 148.624 186.286 148.719C185.767 148.815 185.272 149.017 184.828 149.315C184.383 149.613 183.999 150 183.696 150.455C183.394 150.91 183.179 151.424 183.064 151.966C183.029 152.139 183.008 152.315 183.001 152.492C179.307 152.583 175.747 153.975 172.885 156.447C170.023 158.919 168.024 162.329 167.202 166.137L165.305 175.091C164.956 176.74 164.263 178.285 163.275 179.613L159.502 184.682C159.133 185.179 158.889 185.767 158.793 186.391C158.697 187.014 158.751 187.654 158.952 188.249C159.152 188.845 159.492 189.377 159.94 189.796C160.387 190.215 160.928 190.507 161.511 190.646L194.761 198.52C195.342 198.653 195.946 198.628 196.516 198.449C197.086 198.27 197.604 197.941 198.022 197.494C198.44 197.047 198.744 196.496 198.907 195.891C199.07 195.287 199.086 194.648 198.954 194.035Z" fill="white"/>
<path d="M173.845 195.974C173.592 195.915 173.33 195.923 173.08 195.997C172.831 196.071 172.603 196.209 172.416 196.399C172.229 196.588 172.089 196.823 172.009 197.084C171.929 197.344 171.91 197.621 171.955 197.891C172.146 199.08 172.668 200.182 173.453 201.057C174.239 201.931 175.252 202.539 176.366 202.803C177.479 203.066 178.641 202.973 179.705 202.536C180.768 202.099 181.684 201.337 182.336 200.348C182.485 200.125 182.58 199.866 182.612 199.595C182.645 199.324 182.614 199.049 182.522 198.794C182.43 198.539 182.28 198.312 182.085 198.132C181.89 197.953 181.657 197.827 181.405 197.765L173.845 195.974Z" fill="white"/>
<path d="M148.309 183.52C148.136 183.521 147.965 183.477 147.812 183.39C147.659 183.303 147.529 183.177 147.434 183.024C144.128 177.788 142.925 171.377 144.089 165.203C145.254 159.029 148.69 153.597 153.643 150.101C153.875 149.938 154.159 149.88 154.432 149.938C154.705 149.996 154.945 150.167 155.099 150.412C155.253 150.657 155.309 150.957 155.254 151.246C155.199 151.535 155.037 151.788 154.805 151.951C150.321 155.126 147.213 160.053 146.163 165.648C145.113 171.244 146.207 177.052 149.205 181.796C149.36 182.04 149.417 182.339 149.363 182.628C149.309 182.917 149.149 183.171 148.918 183.335C148.738 183.46 148.525 183.525 148.309 183.52Z" fill="white"/>
<path d="M152.754 180.367C152.582 180.366 152.413 180.32 152.262 180.234C152.11 180.147 151.982 180.023 151.886 179.871C149.37 175.883 148.454 171.001 149.34 166.299C150.226 161.596 152.841 157.458 156.611 154.793C156.726 154.712 156.855 154.655 156.991 154.627C157.126 154.598 157.266 154.598 157.401 154.627C157.537 154.655 157.666 154.712 157.781 154.793C157.895 154.874 157.994 154.978 158.071 155.1C158.148 155.221 158.201 155.358 158.228 155.501C158.255 155.644 158.255 155.792 158.228 155.935C158.201 156.078 158.147 156.215 158.071 156.336C157.994 156.457 157.895 156.562 157.78 156.643C154.471 158.977 152.175 162.606 151.396 166.73C150.618 170.855 151.421 175.137 153.629 178.636C153.784 178.88 153.841 179.179 153.787 179.468C153.733 179.757 153.573 180.011 153.342 180.175C153.168 180.298 152.964 180.365 152.754 180.367Z" fill="white"/>
<path d="M157.206 177.223C157.035 177.224 156.866 177.179 156.714 177.094C156.563 177.009 156.433 176.885 156.338 176.734C155.481 175.377 154.885 173.854 154.584 172.252C154.284 170.651 154.286 169.003 154.589 167.402C154.892 165.801 155.49 164.279 156.35 162.923C157.21 161.567 158.315 160.404 159.6 159.5C159.832 159.348 160.109 159.297 160.375 159.357C160.641 159.418 160.875 159.585 161.026 159.824C161.178 160.063 161.236 160.355 161.188 160.638C161.14 160.921 160.99 161.174 160.769 161.342C159.715 162.086 158.809 163.043 158.104 164.157C157.4 165.272 156.909 166.522 156.662 167.836C156.414 169.151 156.414 170.504 156.661 171.819C156.908 173.134 157.398 174.384 158.102 175.498C158.255 175.743 158.311 176.042 158.257 176.33C158.204 176.618 158.045 176.872 157.815 177.038C157.635 177.163 157.422 177.228 157.206 177.223Z" fill="white"/>
<path d="M208.845 199.127C208.611 199.126 208.383 199.042 208.198 198.889C208.014 198.735 207.883 198.521 207.828 198.28C207.772 198.038 207.795 197.785 207.891 197.558C207.988 197.332 208.154 197.147 208.362 197.032C213.158 194.413 216.774 189.887 218.415 184.451C220.056 179.014 219.587 173.111 217.112 168.039C217.037 167.909 216.988 167.764 216.968 167.613C216.949 167.462 216.958 167.308 216.997 167.161C217.036 167.014 217.104 166.877 217.195 166.759C217.286 166.641 217.399 166.544 217.528 166.474C217.656 166.404 217.796 166.363 217.94 166.353C218.084 166.343 218.229 166.365 218.365 166.416C218.5 166.468 218.625 166.549 218.729 166.654C218.834 166.759 218.918 166.885 218.974 167.025C220.326 169.797 221.148 172.823 221.394 175.93C221.639 179.037 221.303 182.165 220.405 185.135C219.506 188.105 218.063 190.859 216.158 193.24C214.253 195.62 211.922 197.58 209.3 199.008C209.158 199.082 209.003 199.122 208.845 199.127Z" fill="white"/>
<path d="M206.388 194.102C206.154 194.101 205.926 194.017 205.741 193.864C205.557 193.71 205.426 193.496 205.371 193.255C205.315 193.014 205.338 192.76 205.434 192.534C205.531 192.308 205.697 192.122 205.905 192.008C207.657 191.053 209.213 189.742 210.486 188.151C211.758 186.56 212.721 184.72 213.32 182.735C213.918 180.75 214.141 178.66 213.975 176.584C213.809 174.508 213.258 172.487 212.352 170.636C212.224 170.374 212.2 170.069 212.284 169.788C212.369 169.507 212.556 169.273 212.804 169.138C213.052 169.002 213.34 168.977 213.606 169.066C213.872 169.156 214.093 169.353 214.221 169.615C215.253 171.725 215.881 174.028 216.07 176.395C216.259 178.761 216.005 181.144 215.323 183.406C214.64 185.668 213.542 187.766 212.092 189.58C210.642 191.394 208.868 192.888 206.871 193.976C206.723 194.06 206.557 194.103 206.388 194.102Z" fill="white"/>
<path d="M203.931 189.077C203.697 189.073 203.471 188.987 203.288 188.833C203.105 188.678 202.976 188.464 202.921 188.224C202.866 187.984 202.888 187.731 202.983 187.505C203.078 187.279 203.242 187.093 203.448 186.976C204.575 186.363 205.576 185.521 206.395 184.498C207.214 183.475 207.834 182.291 208.22 181.015C208.605 179.739 208.749 178.394 208.642 177.059C208.536 175.724 208.181 174.424 207.599 173.234C207.471 172.972 207.446 172.667 207.531 172.386C207.616 172.105 207.803 171.871 208.05 171.735C208.298 171.6 208.587 171.574 208.853 171.664C209.118 171.753 209.34 171.951 209.468 172.213C210.893 175.144 211.159 178.552 210.209 181.69C209.259 184.829 207.17 187.44 204.4 188.952C204.255 189.031 204.094 189.074 203.931 189.077Z" fill="white"/>
<path d="M142.352 93.129H137.004C136.865 93.1328 136.732 93.1883 136.628 93.2858C136.525 93.3834 136.457 93.5166 136.437 93.6618L135.317 104.939C135.309 105.007 135.315 105.076 135.334 105.142C135.353 105.207 135.386 105.267 135.429 105.319C135.472 105.37 135.525 105.41 135.584 105.438C135.643 105.466 135.707 105.48 135.772 105.48H141.12C141.26 105.476 141.394 105.419 141.498 105.32C141.602 105.221 141.669 105.086 141.687 104.939L142.807 93.6618C142.815 93.5942 142.809 93.5256 142.79 93.4606C142.771 93.3956 142.738 93.3357 142.695 93.2851C142.652 93.2346 142.599 93.1944 142.54 93.1675C142.48 93.1406 142.416 93.1274 142.352 93.129Z" fill="#FF441F"/>
<path opacity="0.4" d="M141.869 93.1291H137.004C136.865 93.1329 136.732 93.1884 136.628 93.2859C136.525 93.3834 136.457 93.5166 136.437 93.6619L135.317 104.94C135.309 105.007 135.315 105.076 135.334 105.142C135.353 105.207 135.386 105.267 135.429 105.319C135.472 105.37 135.525 105.411 135.584 105.438C135.643 105.466 135.707 105.48 135.772 105.48H140.672C140.811 105.475 140.944 105.419 141.047 105.319C141.15 105.22 141.215 105.086 141.232 104.94L142.352 93.6619C142.362 93.5914 142.357 93.5195 142.336 93.4515C142.316 93.3836 142.281 93.3216 142.234 93.2701C142.188 93.2186 142.13 93.1792 142.067 93.1547C142.004 93.1303 141.936 93.1215 141.869 93.1291Z" fill="white"/>
<path d="M115.549 301.661C116.249 301.661 116.949 301.55 117.194 301.21C117.253 301.119 117.285 301.01 117.285 300.899C117.285 300.788 117.253 300.68 117.194 300.588C117.092 300.423 116.934 300.304 116.753 300.255C115.801 299.982 113.869 301.18 113.785 301.232C113.763 301.247 113.746 301.268 113.736 301.293C113.726 301.318 113.723 301.346 113.729 301.373C113.734 301.402 113.748 301.429 113.768 301.45C113.788 301.472 113.813 301.486 113.841 301.491C114.405 301.599 114.976 301.656 115.549 301.661ZM116.403 300.5C116.489 300.488 116.576 300.488 116.662 300.5C116.773 300.528 116.87 300.599 116.935 300.699C117.033 300.877 117.005 300.966 116.935 301.01C116.69 301.402 115.255 301.41 114.198 301.254C114.877 300.847 115.627 300.59 116.403 300.5Z" fill="#FF441F"/>
<path d="M113.827 301.491H113.883C114.583 301.165 115.857 299.87 115.724 299.189C115.724 299.034 115.577 298.834 115.206 298.797C115.074 298.782 114.941 298.795 114.815 298.836C114.689 298.876 114.572 298.944 114.471 299.034C113.771 299.663 113.694 301.254 113.687 301.343C113.686 301.369 113.691 301.395 113.702 301.418C113.713 301.441 113.729 301.461 113.75 301.476C113.773 301.489 113.8 301.494 113.827 301.491ZM115.115 299.064H115.192C115.437 299.064 115.458 299.189 115.458 299.219C115.542 299.626 114.66 300.647 113.981 301.091C114.023 300.412 114.268 299.764 114.681 299.241C114.802 299.131 114.955 299.069 115.115 299.064Z" fill="#FF441F"/>
<path d="M113.253 287.476H107.583V301.351H113.253V287.476Z" fill="#FF8B7B"/>
<path d="M66.4648 294.735L72.1278 295.386L75.8168 281.918L70.1538 281.267L66.4648 294.735Z" fill="#FF8B7B"/>
<path d="M74.7599 296.74C75.4599 296.933 76.1599 297.014 76.4749 296.74C76.5519 296.665 76.6042 296.565 76.6243 296.456C76.6444 296.347 76.6313 296.234 76.5869 296.133C76.5581 296.041 76.5124 295.956 76.4523 295.882C76.3923 295.808 76.3191 295.748 76.2369 295.704C75.3619 295.194 73.1919 295.837 73.1009 295.86C73.0743 295.867 73.0505 295.883 73.0329 295.906C73.0154 295.929 73.0049 295.956 73.0029 295.985C73.0029 296.015 73.0108 296.044 73.0256 296.069C73.0405 296.093 73.0618 296.113 73.0869 296.126C73.6271 296.381 74.1868 296.586 74.7599 296.74ZM75.8659 295.852C75.9509 295.874 76.0331 295.906 76.1109 295.948C76.2147 296.001 76.295 296.094 76.3349 296.207C76.3909 296.407 76.3349 296.481 76.3349 296.526C75.9989 296.829 74.5919 296.466 73.5909 296.037C74.3311 295.822 75.1039 295.762 75.8659 295.86V295.852Z" fill="#FF441F"/>
<path d="M73.115 296.141H73.171C73.871 296 75.481 295.097 75.509 294.416C75.509 294.254 75.453 294.032 75.096 293.898C74.9702 293.851 74.8367 293.83 74.7033 293.837C74.5698 293.845 74.4392 293.881 74.319 293.943C73.493 294.365 73.031 295.889 73.01 295.948C72.9983 295.97 72.9922 295.994 72.9922 296.018C72.9922 296.043 72.9983 296.067 73.01 296.089C73.0219 296.106 73.0378 296.12 73.0561 296.129C73.0745 296.138 73.0948 296.142 73.115 296.141ZM74.935 294.15H75.019C75.25 294.239 75.243 294.342 75.243 294.372C75.243 294.786 74.123 295.534 73.353 295.778C73.5469 295.138 73.9296 294.58 74.445 294.187C74.5987 294.112 74.7728 294.099 74.935 294.15Z" fill="#FF441F"/>
<path d="M72.4288 294.831L66.2338 292.951C66.1273 292.918 66.0131 292.924 65.9108 292.97C65.8085 293.016 65.7246 293.099 65.6738 293.203L63.3918 297.991C63.3385 298.112 63.3111 298.244 63.3115 298.378C63.312 298.511 63.3403 298.643 63.3944 298.764C63.4485 298.885 63.5272 298.992 63.6247 299.077C63.7222 299.162 63.8363 299.223 63.9588 299.256C66.1288 299.87 67.2138 300.063 69.9368 300.884C71.6098 301.395 75.0188 302.623 77.3358 303.326C79.6528 304.029 80.5068 301.728 79.6108 301.225C75.5928 298.968 74.3048 297.147 73.2408 295.46C73.0499 295.154 72.7618 294.931 72.4288 294.831Z" fill="#263238"/>
<path d="M113.19 300.655H107.002C106.89 300.653 106.782 300.695 106.698 300.771C106.613 300.847 106.557 300.953 106.54 301.069L105.637 306.36C105.617 306.492 105.624 306.627 105.658 306.756C105.691 306.885 105.751 307.005 105.833 307.107C105.915 307.209 106.017 307.291 106.132 307.347C106.246 307.403 106.371 307.433 106.498 307.433C108.731 307.389 111.951 307.248 114.758 307.248C118.041 307.248 119.833 307.441 123.683 307.441C126.007 307.441 126.553 304.954 125.566 304.725C121.093 303.704 118.51 303.593 114.576 301.091C114.158 300.82 113.68 300.67 113.19 300.655Z" fill="#263238"/>
<path opacity="0.2" d="M113.253 287.476H107.583V294.631H113.253V287.476Z" fill="black"/>
<path opacity="0.2" d="M70.154 281.274L75.817 281.918L73.766 289.392L68.25 288.216L70.154 281.274Z" fill="black"/>
<path d="M103.929 149.48C103.929 149.48 100.8 194.724 97.9996 211.877C94.9126 230.665 76.9506 288.193 76.9506 288.193L66.6606 286.202C66.6606 286.202 79.6316 232.182 81.0666 213.579C82.6276 193.392 84.5036 151.781 84.5036 151.781L103.929 149.48Z" fill="#FF441F"/>
<path opacity="0.3" d="M98.6576 168.276C99.2176 165.79 100.506 168.92 102.004 174.344C100.87 187.768 99.3926 203.315 97.9786 211.884C97.6636 213.801 97.1876 216.125 96.5786 218.759C97.1176 199.608 97.1386 175.003 98.6576 168.276Z" fill="black"/>
<path d="M114.618 148.252C114.618 148.252 118.727 193.732 118.867 212.003C119.014 231.014 115.311 293.248 115.311 293.248H105.7C105.7 293.248 102.816 232.124 101.619 213.453C100.31 193.103 94.8008 150.553 94.8008 150.553L114.618 148.252Z" fill="#FF441F"/>
<path d="M79.0998 284.53C79.1418 284.53 77.4828 288.474 77.4828 288.474L65.9048 286.254L66.6048 282.591L79.0998 284.53Z" fill="#263238"/>
<path d="M116.991 289.2C117.033 289.2 116.62 293.418 116.62 293.418H104.944L104.468 289.659L116.991 289.2Z" fill="#263238"/>
<path d="M84.7837 107.714C84.0137 109.291 83.1667 110.948 82.3967 112.584L80.0447 117.512C79.2817 119.155 78.5327 120.805 77.8117 122.455C77.0907 124.105 76.4117 125.748 75.8307 127.391L75.7747 124.801C76.1838 126.131 76.6749 127.431 77.2447 128.693C77.5177 129.345 77.8677 129.966 78.1687 130.61C78.4697 131.254 78.8687 131.868 79.2257 132.475C79.9684 133.729 80.7721 134.942 81.6337 136.108C82.0677 136.693 82.5017 137.292 82.9637 137.855C83.4257 138.417 83.9297 139.002 84.3637 139.483L84.5037 139.645C84.8261 140.02 85.012 140.503 85.028 141.009C85.0439 141.515 84.889 142.011 84.5908 142.407C84.2926 142.803 83.8707 143.075 83.4007 143.172C82.9307 143.269 82.4432 143.186 82.0257 142.938C81.3021 142.508 80.6011 142.036 79.9257 141.525C79.2257 141.037 78.6097 140.526 77.9797 139.986C76.7185 138.892 75.5347 137.703 74.4377 136.426C73.3178 135.13 72.2994 133.739 71.3927 132.268C70.4609 130.769 69.6507 129.19 68.9707 127.546C68.6711 126.849 68.6189 126.061 68.8237 125.326L68.9217 124.979C69.4537 123.047 70.0487 121.175 70.7067 119.34C71.3647 117.505 72.0647 115.706 72.8067 113.938C73.5487 112.169 74.3257 110.423 75.1447 108.699C75.9637 106.974 76.7897 105.287 77.7347 103.563C78.2569 102.576 79.1264 101.847 80.1542 101.534C81.1821 101.221 82.2852 101.35 83.2239 101.892C84.1626 102.434 84.8611 103.346 85.1676 104.429C85.474 105.512 85.3638 106.68 84.8607 107.677L84.7837 107.714Z" fill="#FF8B7B"/>
<path d="M88.8016 105.08C89.0816 110.726 83.0196 121.094 83.0196 121.094L70.5386 114.5C72.0553 109.824 74.4027 105.496 77.4546 101.75C84.0556 94.0395 88.5426 99.9003 88.8016 105.08Z" fill="#263238"/>
<path d="M80.3457 141.88L82.8587 146.32L88.0877 142.783C87.1744 141.053 85.7441 139.692 84.0207 138.913C83.6222 138.778 83.1913 138.799 82.806 138.972C82.4208 139.144 82.1067 139.457 81.9207 139.853L80.3457 141.88Z" fill="#FF8B7B"/>
<path d="M84.9519 148.215L87.3809 147.734C87.5854 147.694 87.7803 147.612 87.9545 147.492C88.1287 147.372 88.2787 147.216 88.3959 147.035C88.513 146.853 88.595 146.649 88.637 146.433C88.6791 146.218 88.6804 145.996 88.6409 145.78L88.0879 142.82L82.8589 146.358L83.2089 147.253C83.3521 147.599 83.603 147.884 83.92 148.059C84.2371 148.234 84.6011 148.289 84.9519 148.215Z" fill="#FF8B7B"/>
<path d="M99.701 76.7086C99.75 77.1896 100.037 77.567 100.331 77.5374C100.625 77.5078 100.821 77.1008 100.765 76.6198C100.709 76.1388 100.429 75.7614 100.135 75.7836C99.841 75.8058 99.645 76.2202 99.701 76.7086Z" fill="#263238"/>
<path d="M99.9946 77.5669C100.703 79.0042 101.585 80.3376 102.62 81.5333C101.92 82.3991 100.52 82.1475 100.52 82.1475L99.9946 77.5669Z" fill="#FF5652"/>
<path d="M97.741 74.1556C97.7774 74.1613 97.8145 74.1583 97.8497 74.1468C97.8848 74.1352 97.917 74.1155 97.944 74.089C98.1867 73.8487 98.4815 73.6752 98.8025 73.5835C99.1235 73.4919 99.4609 73.4851 99.785 73.5636C99.8181 73.5748 99.853 73.5786 99.8875 73.5749C99.9221 73.5711 99.9555 73.5598 99.9857 73.5418C100.016 73.5237 100.042 73.4992 100.063 73.4699C100.084 73.4405 100.099 73.4069 100.107 73.3712C100.125 73.2977 100.115 73.2198 100.08 73.1537C100.044 73.0876 99.9865 73.0383 99.918 73.016C99.5087 72.9127 99.0818 72.9167 98.6743 73.0277C98.2668 73.1386 97.8912 73.353 97.58 73.6524C97.5539 73.6787 97.5332 73.7102 97.519 73.7452C97.5049 73.7802 97.4976 73.8178 97.4976 73.8559C97.4976 73.8939 97.5049 73.9316 97.519 73.9666C97.5332 74.0016 97.5539 74.0331 97.58 74.0594C97.5994 74.086 97.6236 74.1082 97.6513 74.1247C97.6789 74.1412 97.7094 74.1517 97.741 74.1556Z" fill="#263238"/>
<path d="M85.5889 82.0664C86.9259 86.351 88.7039 94.2468 86.1699 97.414C86.1699 97.414 87.8359 101.728 95.5079 101.04C103.957 100.3 99.0079 96.267 99.0079 96.267C94.2619 95.527 93.9399 91.9084 94.3319 88.4526L85.5889 82.0664Z" fill="#FF8B7B"/>
<path d="M84.3566 98.9754C83.5656 97.636 82.6836 96.1042 84.1816 95.5344C85.8266 94.9054 95.0666 93.8842 98.3566 94.7426C101.647 95.601 100.975 98.4426 100.975 98.4426L84.3566 98.9754Z" fill="#FF441F"/>
<path d="M111.412 100.781C112.616 101.95 113.918 103.245 115.213 104.429C116.508 105.613 117.817 106.827 119.133 107.996C120.449 109.165 121.793 110.268 123.144 111.341C124.495 112.414 125.867 113.391 127.239 114.301L124.439 114.02C125.602 113.691 126.703 113.153 127.694 112.429C128.851 111.574 129.925 110.6 130.9 109.52C131.95 108.384 132.935 107.18 133.847 105.917C134.316 105.273 134.785 104.622 135.247 103.948C135.709 103.275 136.129 102.564 136.514 101.943L136.591 101.824C136.857 101.395 137.259 101.081 137.726 100.94C138.193 100.799 138.692 100.839 139.132 101.055C139.573 101.27 139.925 101.646 140.126 102.113C140.326 102.58 140.361 103.108 140.224 103.6C139.958 104.562 139.678 105.384 139.356 106.242C139.034 107.101 138.698 107.944 138.32 108.773C137.553 110.464 136.656 112.085 135.639 113.62C134.57 115.248 133.325 116.738 131.929 118.06C130.383 119.518 128.59 120.654 126.644 121.405C126.226 121.56 125.783 121.627 125.341 121.6C124.899 121.573 124.466 121.454 124.068 121.249L123.837 121.124C122.099 120.221 120.411 119.213 118.783 118.104C117.194 117.017 115.654 115.884 114.17 114.671C112.686 113.457 111.251 112.229 109.851 110.971C108.451 109.713 107.107 108.396 105.742 106.923C105.015 106.122 104.611 105.055 104.612 103.945C104.614 102.836 105.022 101.77 105.751 100.972C106.48 100.174 107.473 99.7047 108.522 99.6636C109.571 99.6225 110.594 100.012 111.377 100.751L111.412 100.781Z" fill="#FF8B7B"/>
<path d="M107.135 96.9401C107.135 96.9401 114.191 104.177 115.01 148.94C103.726 151.833 92.8688 152.899 84.4828 151.774C84.0838 146.158 83.4888 126.666 78.0988 106.116C77.8673 105.251 77.8085 104.344 77.9262 103.453C78.0438 102.562 78.3353 101.707 78.7823 100.941C79.2292 100.176 79.8217 99.5171 80.5223 99.0067C81.2229 98.4962 82.0162 98.1453 82.8518 97.9761C83.9228 97.7541 85.0498 97.5543 86.1698 97.3989C90.4247 96.7556 94.7112 96.3726 99.0078 96.252C101.729 96.2754 104.445 96.5054 107.135 96.9401Z" fill="#263238"/>
<path d="M101.661 104.74C102.361 110.342 111.461 121.109 111.461 121.109L122.262 109.269C119.053 105.708 115.584 102.419 111.888 99.4342C103.971 93.1812 101.031 99.5452 101.661 104.74Z" fill="#263238"/>
<path d="M139.524 105.569L143.136 102.069L138.81 97.3696C137.379 98.6577 136.394 100.412 136.01 102.357C135.967 102.802 136.079 103.248 136.323 103.612C136.568 103.977 136.929 104.235 137.34 104.34L139.524 105.569Z" fill="#FF8B7B"/>
<path d="M144.466 99.5229L143.535 97.1031C143.456 96.8955 143.338 96.7067 143.189 96.5479C143.04 96.3891 142.863 96.2636 142.667 96.1787C142.471 96.0939 142.261 96.0514 142.049 96.0538C141.838 96.0562 141.629 96.1036 141.435 96.1929L138.782 97.3695L143.108 102.069L143.864 101.528C144.167 101.318 144.393 101.004 144.502 100.639C144.612 100.274 144.599 99.8794 144.466 99.5229Z" fill="#FF8B7B"/>
<path d="M84.5108 76.9603C85.5258 82.8803 85.8338 86.3879 88.9838 89.2073C93.7228 93.4475 100.261 90.1471 100.884 84.1013C101.472 78.6549 99.7148 69.8859 94.0168 67.9767C88.3188 66.0675 83.4958 71.0403 84.5108 76.9603Z" fill="#FF8B7B"/>
<path d="M95.5496 79.0914C97.5166 79.565 99.0496 77.16 99.2596 76.4792C98.3006 76.5754 96.5996 76.0574 96.2636 75.5986C97.3136 75.6948 98.3286 74.3258 98.4546 73.8004C97.3406 73.573 96.354 72.8962 95.7036 71.9134C97.4046 71.8764 99.4486 68.7092 97.5796 65.875C95.7106 63.0408 87.8986 65.4162 86.7996 63.396C85.1616 64.4024 86.6176 65.7418 86.6176 65.7418C86.6176 65.7418 75.5646 67.9618 80.6606 72.4684C76.9226 72.8236 76.3976 77.493 79.5126 79.8684C82.6276 82.2438 82.7886 83.8126 81.5496 83.6202C82.0466 84.6266 84.2656 84.7598 84.3916 83.783C84.9166 85.8328 86.4286 88.6078 89.9146 88.1564C93.4006 87.705 96.8166 82.5472 95.5496 79.0914Z" fill="#263238"/>
<path d="M81.6268 71.7802C78.9948 72.165 77.7978 70.5962 78.4558 69.2124C75.1938 70.9736 78.7568 74.866 81.6268 71.7802Z" fill="#263238"/>
<path d="M92.8265 78.1888C93.2796 79.429 94.0808 80.493 95.1225 81.2376C96.5225 82.2144 97.7895 81.2376 97.5515 79.7576C97.3345 78.396 96.3475 76.2426 94.8915 75.8578C94.59 75.7532 94.2665 75.7418 93.959 75.825C93.6516 75.9082 93.373 76.0825 93.156 76.3273C92.9391 76.5722 92.7929 76.8775 92.7345 77.2073C92.6761 77.5371 92.708 77.8776 92.8265 78.1888Z" fill="#FF8B7B"/>
<path d="M270.746 286.765C265.566 273.844 263.473 258.645 269.402 259.274C275.485 259.895 274.771 282.806 275.758 285.322C273.861 287.046 270.746 286.765 270.746 286.765Z" fill="#FF441F"/>
<path d="M272.426 262.249C271.152 267.177 269.801 274.792 268.772 281.244C269.36 283.094 270.025 284.944 270.746 286.765C270.746 286.765 273.854 287.046 275.765 285.322C274.981 283.339 275.261 268.657 272.426 262.249Z" fill="#263238"/>
<path d="M272.454 284.397C270.83 256.943 275.254 231.494 286.902 232.641C296.898 233.633 282.324 279.853 282.604 285.181C278.026 287.061 272.454 284.397 272.454 284.397Z" fill="#FF441F"/>
<path d="M280 284.219C281.827 264.483 291.676 241.455 295.904 249.151C301.273 258.919 287.504 282.184 287.133 286.01C283.689 286.794 280 284.219 280 284.219Z" fill="#FF441F"/>
<path d="M278.159 239.975C276.976 239.767 276.318 238.99 276.395 237.888C276.479 236.645 277.445 235.409 278.341 235.394C278.775 235.394 279.503 235.631 279.685 237.34L278.985 237.429C278.901 236.615 278.67 236.134 278.362 236.134C277.886 236.134 277.158 237.052 277.102 237.94C277.053 238.68 277.445 239.094 278.278 239.242L278.159 239.975Z" fill="#FF441F"/>
<path d="M290.731 244.94C290.222 244.897 289.736 244.699 289.331 244.371L289.709 243.756C290.36 244.2 290.864 244.319 291.06 244.067C291.354 243.668 291.151 242.498 290.542 241.884C290.052 241.388 289.478 241.425 288.841 242.017L288.386 241.455C288.55 241.26 288.749 241.102 288.972 240.99C289.195 240.879 289.438 240.817 289.684 240.807C289.931 240.797 290.177 240.841 290.407 240.934C290.638 241.028 290.848 241.17 291.025 241.351C291.879 242.21 292.166 243.779 291.606 244.526C291.502 244.664 291.369 244.774 291.216 244.847C291.064 244.919 290.897 244.951 290.731 244.94Z" fill="#FF441F"/>
<path d="M273.574 256.114C273.15 256.146 272.73 256.013 272.392 255.741C272.054 255.468 271.822 255.075 271.74 254.634C271.46 253.428 272.02 251.94 272.874 251.63C273.273 251.489 274.043 251.474 274.715 253.05L274.071 253.361C273.756 252.621 273.371 252.222 273.098 252.333C272.65 252.495 272.223 253.598 272.398 254.456C272.559 255.196 273.098 255.448 273.896 255.315L274.001 256.055C273.86 256.087 273.717 256.107 273.574 256.114Z" fill="#FF441F"/>
<path d="M266.119 271.439C265.777 271.448 265.442 271.347 265.156 271.15C264.87 270.953 264.647 270.67 264.516 270.337C264.026 269.205 264.313 267.628 265.09 267.155C265.461 266.933 266.217 266.77 267.155 268.191L266.581 268.613C266.133 267.939 265.706 267.636 265.44 267.799C265.027 268.05 264.803 269.219 265.153 270.019C265.44 270.677 265.986 270.855 266.777 270.559L267.008 271.262C266.723 271.375 266.422 271.436 266.119 271.439Z" fill="#FF441F"/>
<path d="M278.523 249.099C278.451 249.099 278.38 249.076 278.32 249.033C277.885 248.778 277.552 248.366 277.382 247.872C277.212 247.379 277.217 246.837 277.396 246.346C277.599 245.855 277.946 245.445 278.386 245.179C278.826 244.912 279.335 244.803 279.839 244.866C280.273 244.948 281.288 245.355 281.358 247.323C281.358 247.421 281.321 247.515 281.256 247.585C281.19 247.654 281.101 247.693 281.008 247.693C280.915 247.693 280.826 247.654 280.761 247.585C280.695 247.515 280.658 247.421 280.658 247.323C280.616 246.295 280.287 245.673 279.713 245.562C279.365 245.532 279.016 245.619 278.716 245.808C278.417 245.998 278.18 246.282 278.04 246.62C277.788 247.249 278.04 247.886 278.74 248.411C278.801 248.456 278.847 248.521 278.871 248.596C278.895 248.67 278.896 248.751 278.873 248.827C278.851 248.902 278.806 248.968 278.745 249.014C278.685 249.06 278.612 249.085 278.537 249.084L278.523 249.099Z" fill="white"/>
<path d="M286.818 269.071C286.738 269.073 286.66 269.043 286.598 268.989C286.536 268.935 286.495 268.859 286.482 268.775C286.471 268.728 286.47 268.679 286.478 268.632C286.486 268.584 286.503 268.538 286.528 268.498C286.552 268.457 286.585 268.422 286.622 268.395C286.66 268.367 286.703 268.348 286.748 268.339C287.7 268.132 288.225 267.68 288.239 267.066C288.207 266.698 288.069 266.349 287.842 266.068C287.615 265.787 287.311 265.588 286.972 265.497C286.342 265.334 285.782 265.697 285.411 266.511C285.391 266.555 285.362 266.594 285.328 266.626C285.293 266.658 285.253 266.683 285.21 266.699C285.166 266.715 285.12 266.721 285.074 266.718C285.028 266.715 284.983 266.703 284.942 266.681C284.9 266.66 284.863 266.63 284.833 266.594C284.802 266.557 284.779 266.515 284.764 266.468C284.749 266.422 284.743 266.374 284.746 266.325C284.749 266.277 284.761 266.229 284.781 266.185C284.952 265.694 285.282 265.284 285.713 265.025C286.143 264.766 286.646 264.677 287.133 264.772C287.627 264.901 288.069 265.194 288.394 265.608C288.719 266.022 288.91 266.536 288.939 267.073C288.939 267.54 288.715 268.664 286.895 269.064L286.818 269.071Z" fill="white"/>
<path d="M296.66 262.833C296.254 262.833 295.715 262.582 295.113 261.627L295.694 261.213C296.128 261.893 296.541 262.204 296.814 262.049C297.234 261.812 297.514 260.643 297.143 259.829C296.877 259.17 296.331 258.978 295.533 259.252L295.316 258.549C296.45 258.156 297.374 258.549 297.787 259.54C298.256 260.68 297.941 262.249 297.15 262.7C297 262.789 296.831 262.835 296.66 262.833Z" fill="#FF441F"/>
<path d="M294.574 291.464C294.579 287.515 293.239 283.696 290.801 280.705C291.04 280.667 291.259 280.541 291.418 280.349C291.578 280.156 291.666 279.909 291.669 279.654C291.667 279.365 291.557 279.088 291.363 278.884C291.169 278.68 290.906 278.566 290.633 278.566H267.197C266.942 278.57 266.697 278.674 266.511 278.859C266.325 279.044 266.211 279.295 266.192 279.564C266.172 279.834 266.249 280.101 266.407 280.313C266.564 280.525 266.791 280.668 267.043 280.712C265.51 282.594 264.398 284.817 263.791 287.216C263.183 289.615 263.095 292.128 263.533 294.568C263.971 297.008 264.923 299.312 266.32 301.309C267.717 303.305 269.521 304.944 271.6 306.101C271.373 306.225 271.193 306.425 271.087 306.67C270.982 306.915 270.957 307.191 271.018 307.452C271.079 307.714 271.221 307.946 271.421 308.112C271.622 308.278 271.87 308.367 272.125 308.366H285.698C285.998 308.364 286.285 308.237 286.498 308.012C286.71 307.788 286.83 307.484 286.832 307.167C286.831 306.948 286.774 306.733 286.666 306.545C286.559 306.358 286.406 306.204 286.223 306.101C288.743 304.696 290.853 302.59 292.325 300.011C293.796 297.432 294.574 294.476 294.574 291.464Z" fill="#263238"/>
</svg>
