<svg width="370" height="351" viewBox="0 0 370 351" fill="none" xmlns="http://www.w3.org/2000/svg">
<path d="M186.369 314.531C276.551 314.531 349.657 276.605 349.657 229.821C349.657 183.036 276.551 145.11 186.369 145.11C96.1873 145.11 23.0806 183.036 23.0806 229.821C23.0806 276.605 96.1873 314.531 186.369 314.531Z" fill="#F5F5F5"/>
<path d="M78.0624 271.583C97.1769 271.583 112.672 263.097 112.672 252.629C112.672 242.161 97.1769 233.675 78.0624 233.675C58.948 233.675 43.4526 242.161 43.4526 252.629C43.4526 263.097 58.948 271.583 78.0624 271.583Z" fill="#E0E0E0"/>
<path d="M35.6162 89.5753C38.5762 88.0941 42.5944 88.3819 47.0196 90.8108C49.1373 91.9975 51.0784 93.447 52.7916 95.1211C59.0446 101.102 63.4846 110.137 63.4846 117.873C63.4846 127.848 70.8846 139.965 79.9644 144.956L96.4442 153.977L166.678 115.521L150.22 106.493C141.125 101.516 133.74 89.3857 133.74 79.4173C133.74 69.4489 126.34 57.3324 117.26 52.3482C112.82 49.8982 108.721 49.6385 105.753 51.1829L105.354 51.3935L82.1844 64.0927L78.4844 66.0934L35.6162 89.5753Z" fill="#E6E6E6"/>
<path d="M243.808 143.208C243.727 143.157 243.631 143.13 243.534 143.13C243.437 143.13 243.341 143.157 243.26 143.208L241.24 144.324C241.024 144.463 240.844 144.647 240.716 144.863C240.588 145.079 240.514 145.32 240.5 145.567V168.08L325.6 213.885L328.952 189.814L243.808 143.208Z" fill="#263238"/>
<path d="M328.915 189.786C328.831 189.757 328.74 189.749 328.651 189.761C328.562 189.773 328.477 189.806 328.405 189.856L326.34 190.944C326.115 191.07 325.931 191.252 325.807 191.47L240.685 144.851C240.815 144.637 240.998 144.456 241.218 144.324L243.253 143.215C243.334 143.164 243.429 143.137 243.527 143.137C243.624 143.137 243.719 143.164 243.8 143.215L328.915 189.786Z" fill="#455A64"/>
<path d="M328.405 189.849L326.34 190.944C326.123 191.082 325.943 191.266 325.815 191.482C325.686 191.698 325.613 191.939 325.6 192.187V213.864L329.152 215.788V190.242C329.159 189.807 328.819 189.624 328.405 189.849Z" fill="#37474F"/>
<path d="M325.608 213.886V215.367L320.287 217.613L235.143 170.972L240.463 168.08L325.608 213.886Z" fill="black"/>
<path d="M322.063 220.533L328.405 217.023C328.622 216.886 328.803 216.702 328.931 216.486C329.06 216.27 329.133 216.029 329.145 215.781L325.593 213.857C325.581 214.105 325.509 214.347 325.38 214.563C325.251 214.779 325.071 214.963 324.853 215.1L322.818 216.216C322.403 216.441 322.078 216.258 322.078 215.802L322.063 220.533Z" fill="#37474F"/>
<path d="M341.651 218.189C342.045 217.932 342.371 217.592 342.602 217.194C342.834 216.797 342.964 216.354 342.983 215.9V143.054C342.957 142.585 342.814 142.13 342.568 141.723C342.321 141.317 341.976 140.972 341.562 140.716L243.053 86.7604C242.642 86.5148 242.168 86.3804 241.682 86.3716C241.196 86.3627 240.717 86.4798 240.296 86.7101C239.875 86.9405 239.528 87.2755 239.293 87.6789C239.057 88.0824 238.943 88.539 238.961 88.9997V161.846C238.988 162.315 239.132 162.771 239.38 163.177C239.628 163.583 239.974 163.928 240.389 164.184L338.92 218.14C339.34 218.348 339.805 218.46 340.279 218.469C340.753 218.477 341.222 218.382 341.651 218.189Z" fill="#FF441F"/>
<path d="M340.319 144.514V217.36C340.319 218.217 339.682 218.568 338.898 218.139L240.389 164.184C239.974 163.928 239.628 163.583 239.38 163.177C239.132 162.771 238.988 162.315 238.961 161.846V88.9994C238.961 88.143 239.605 87.792 240.389 88.2202L338.92 142.176C339.33 142.434 339.67 142.78 339.913 143.186C340.156 143.593 340.295 144.047 340.319 144.514Z" fill="#FF441F"/>
<path opacity="0.2" d="M342.983 143.054V215.9C342.964 216.354 342.834 216.797 342.602 217.194C342.371 217.591 342.045 217.932 341.651 218.189C341.271 218.363 340.856 218.46 340.434 218.474C340.013 218.487 339.592 218.416 339.201 218.266C339.838 218.462 340.319 218.111 340.319 217.36V144.507C340.299 144.039 340.157 143.582 339.904 143.18L342.561 141.72C342.82 142.123 342.965 142.582 342.983 143.054Z" fill="black"/>
<path d="M332.312 163.503V174.995C332.312 175.858 331.675 176.202 330.891 175.774L315.062 167.076C314.649 166.821 314.305 166.477 314.058 166.072C313.811 165.667 313.669 165.213 313.642 164.746V153.275C313.642 152.418 314.278 152.067 315.062 152.496L330.891 161.165C331.305 161.421 331.65 161.766 331.897 162.173C332.144 162.579 332.286 163.035 332.312 163.503Z" fill="#455A64"/>
<mask id="mask0_720_586" style="mask-type:luminance" maskUnits="userSpaceOnUse" x="313" y="152" width="20" height="24">
<path d="M332.312 163.503V174.995C332.312 175.858 331.675 176.202 330.891 175.774L315.062 167.076C314.649 166.821 314.305 166.477 314.058 166.072C313.811 165.667 313.669 165.213 313.642 164.746V153.275C313.642 152.418 314.278 152.067 315.062 152.496L330.891 161.165C331.305 161.421 331.65 161.766 331.897 162.173C332.144 162.579 332.286 163.035 332.312 163.503Z" fill="white"/>
</mask>
<g mask="url(#mask0_720_586)">
<path d="M311.135 154.364L310.812 154.893L334.814 168.049L335.136 167.521L311.135 154.364Z" fill="white"/>
<path d="M327.302 163.404H326.658V169.259H327.302V163.404Z" fill="white"/>
<path d="M319.302 159.045H318.659V164.893H319.302V159.045Z" fill="white"/>
<path d="M311.134 160.235L310.812 160.764L334.813 173.92L335.135 173.391L311.134 160.235Z" fill="white"/>
</g>
<path d="M332.312 185.419V188.136C332.312 189 331.675 189.344 330.891 188.915L315.062 180.246C314.649 179.99 314.305 179.646 314.058 179.242C313.811 178.837 313.669 178.382 313.642 177.915V175.184C313.642 174.321 314.278 173.977 315.062 174.405L330.891 183.075C331.306 183.331 331.651 183.678 331.898 184.085C332.145 184.493 332.287 184.95 332.312 185.419Z" fill="#FAFAFA"/>
<path d="M310.06 173.24V175.97C310.06 176.827 309.423 177.178 308.639 176.75L292.81 168.08C292.396 167.824 292.052 167.479 291.805 167.073C291.558 166.666 291.416 166.21 291.39 165.742V163.018C291.39 162.155 292.026 161.804 292.81 162.239L308.639 170.909C309.052 171.164 309.396 171.508 309.643 171.913C309.89 172.318 310.033 172.772 310.06 173.24Z" fill="#FAFAFA"/>
<path d="M287.86 161.067V163.798C287.86 164.654 287.224 165.005 286.439 164.577L270.611 155.907C270.197 155.651 269.852 155.306 269.605 154.9C269.358 154.494 269.216 154.038 269.19 153.57V150.839C269.19 149.982 269.826 149.631 270.611 150.06L286.439 158.729C286.853 158.986 287.197 159.331 287.443 159.737C287.69 160.144 287.833 160.599 287.86 161.067Z" fill="#FAFAFA"/>
<path d="M265.66 148.894V151.632C265.66 152.495 265.024 152.846 264.239 152.411L248.411 143.749C247.998 143.491 247.654 143.146 247.407 142.74C247.16 142.334 247.017 141.879 246.99 141.411V138.68C246.99 137.824 247.626 137.473 248.411 137.901L264.239 146.571C264.651 146.825 264.995 147.168 265.242 147.572C265.488 147.975 265.632 148.428 265.66 148.894Z" fill="#FAFAFA"/>
<path opacity="0.15" d="M255.818 152.187L259.451 154.173C259.699 154.328 259.904 154.536 260.052 154.78C260.2 155.023 260.286 155.297 260.302 155.577V156.63C260.302 157.143 259.917 157.332 259.451 157.094L255.818 155.142C255.57 154.988 255.364 154.78 255.216 154.536C255.068 154.292 254.983 154.019 254.967 153.738V152.685C254.967 152.138 255.352 151.927 255.818 152.187Z" fill="black"/>
<path opacity="0.15" d="M247.819 147.806L251.445 149.793C251.694 149.946 251.902 150.153 252.051 150.397C252.201 150.641 252.287 150.915 252.303 151.197V152.25C252.303 152.769 251.918 152.952 251.445 152.72L247.819 150.733C247.57 150.58 247.363 150.372 247.216 150.128C247.068 149.884 246.983 149.611 246.968 149.329V148.276C246.968 147.757 247.345 147.546 247.819 147.806Z" fill="black"/>
<path opacity="0.15" d="M293.625 180.196L248.485 155.458C247.7 155.03 247.064 155.374 247.064 156.237V157.501C247.09 157.969 247.232 158.425 247.479 158.831C247.726 159.237 248.071 159.582 248.485 159.838L293.625 184.577C294.409 185.005 295.046 184.661 295.046 183.798V182.52C295.017 182.054 294.874 181.601 294.627 181.197C294.38 180.794 294.037 180.451 293.625 180.196Z" fill="black"/>
<path d="M248.204 108.845C247.564 107.68 247.243 106.381 247.271 105.068C247.271 103.664 247.575 102.724 248.181 102.302C248.788 101.881 249.661 101.994 250.801 102.611C251.264 102.865 251.698 103.163 252.096 103.503C252.469 103.813 252.8 104.167 253.08 104.556C253.139 104.629 253.172 104.717 253.176 104.809C253.179 104.872 253.158 104.934 253.117 104.984L252.777 105.553C252.732 105.616 252.688 105.637 252.644 105.609C252.576 105.567 252.518 105.512 252.473 105.447C252.076 104.937 251.572 104.509 250.993 104.191C250.32 103.826 249.795 103.784 249.425 104.071C249.055 104.359 248.87 104.984 248.87 105.953C248.845 106.82 249.044 107.68 249.447 108.459C249.803 109.127 250.356 109.683 251.038 110.06C251.489 110.358 252.036 110.499 252.584 110.46C252.64 110.444 252.699 110.444 252.755 110.46C252.799 110.46 252.843 110.53 252.888 110.67L253.273 111.709C253.293 111.764 253.305 111.82 253.31 111.878C253.31 111.927 253.273 111.969 253.191 111.997C252.681 112.18 251.896 111.997 250.831 111.4C249.72 110.798 248.81 109.913 248.204 108.845Z" fill="white"/>
<path d="M254.205 112.945C254.129 112.804 254.093 112.646 254.101 112.488V105.146C254.101 104.97 254.101 104.851 254.205 104.795C254.308 104.738 254.382 104.759 254.538 104.844L257.017 106.199C257.795 106.594 258.441 107.19 258.879 107.918C259.317 108.645 259.531 109.475 259.496 110.312C259.525 110.771 259.425 111.229 259.207 111.639C259.119 111.783 258.991 111.901 258.837 111.982C258.683 112.062 258.509 112.101 258.334 112.095L259.363 115.507C259.372 115.57 259.372 115.634 259.363 115.697C259.363 115.844 259.296 115.879 259.155 115.802L258.068 115.212C257.992 115.172 257.925 115.119 257.868 115.058C257.807 114.981 257.766 114.892 257.749 114.798L256.876 111.618L255.714 110.979V113.408C255.731 113.53 255.696 113.654 255.618 113.752C255.552 113.808 255.433 113.752 255.27 113.696L254.53 113.296C254.386 113.214 254.272 113.091 254.205 112.945ZM256.78 110.06C257.15 110.263 257.431 110.312 257.616 110.221C257.801 110.13 257.897 109.856 257.897 109.428C257.91 109.055 257.821 108.685 257.638 108.354C257.465 108.059 257.209 107.816 256.898 107.652L255.737 107.013V109.484L256.78 110.06Z" fill="white"/>
<path d="M260.406 116.343C260.33 116.202 260.295 116.044 260.302 115.886V108.543C260.302 108.361 260.302 108.249 260.406 108.192C260.509 108.136 260.584 108.157 260.739 108.242L264.801 110.467C264.938 110.533 265.052 110.635 265.127 110.762C265.193 110.903 265.223 111.057 265.216 111.211V111.667C265.233 111.795 265.202 111.925 265.127 112.032C265.068 112.082 264.957 112.032 264.801 111.976L261.916 110.397V112.32L263.928 113.429C264.065 113.491 264.179 113.592 264.254 113.717C264.319 113.861 264.35 114.017 264.343 114.174V114.602C264.36 114.73 264.328 114.859 264.254 114.967C264.195 115.016 264.091 114.967 263.928 114.911L261.916 113.808V115.83L264.794 117.41C264.93 117.475 265.041 117.578 265.112 117.705C265.177 117.849 265.207 118.004 265.201 118.161V118.61C265.201 118.8 265.201 118.919 265.112 118.961C265.024 119.003 264.949 118.961 264.794 118.905L260.739 116.687C260.593 116.608 260.476 116.488 260.406 116.343Z" fill="white"/>
<path d="M266.023 119.417C265.947 119.276 265.911 119.119 265.919 118.961V111.618C265.919 111.443 265.919 111.323 266.023 111.267C266.126 111.211 266.2 111.232 266.356 111.316L268.413 112.447C269.48 113.011 270.361 113.844 270.958 114.854C271.57 115.987 271.868 117.247 271.824 118.519C271.824 119.923 271.536 120.856 270.944 121.222C270.352 121.587 269.515 121.46 268.413 120.857L266.356 119.733C266.214 119.662 266.098 119.552 266.023 119.417ZM268.487 119.417C269.071 119.733 269.501 119.768 269.789 119.516C270.078 119.263 270.218 118.645 270.218 117.655C270.258 116.86 270.111 116.067 269.789 115.332C269.509 114.775 269.054 114.314 268.487 114.012L267.532 113.486V118.891L268.487 119.417Z" fill="white"/>
<path d="M272.734 123.096C272.659 122.952 272.623 122.793 272.631 122.632V115.296C272.631 115.114 272.631 115.002 272.734 114.945C272.838 114.889 272.912 114.91 273.068 114.995L273.808 115.395C273.952 115.468 274.072 115.577 274.155 115.711C274.222 115.859 274.255 116.019 274.251 116.181V123.552C274.268 123.676 274.233 123.802 274.155 123.903C274.089 123.952 273.97 123.938 273.808 123.847L273.068 123.447C272.922 123.364 272.806 123.242 272.734 123.096Z" fill="white"/>
<path d="M276.967 125.412C276.895 125.271 276.859 125.114 276.864 124.956V118.582L275.28 117.705C275.145 117.64 275.034 117.537 274.962 117.41C274.896 117.268 274.866 117.115 274.873 116.96V116.532C274.856 116.404 274.888 116.275 274.962 116.167C275.021 116.118 275.125 116.167 275.28 116.223L280.112 118.87C280.25 118.94 280.365 119.044 280.445 119.172C280.51 119.318 280.54 119.476 280.534 119.635V120.042C280.534 120.225 280.534 120.337 280.445 120.386C280.357 120.435 280.268 120.386 280.112 120.33L278.507 119.453V125.827C278.507 126.009 278.507 126.122 278.41 126.171C278.314 126.22 278.225 126.171 278.063 126.107L277.323 125.714C277.177 125.648 277.053 125.543 276.967 125.412Z" fill="white"/>
<path d="M285.381 129.203C284.743 128.041 284.422 126.744 284.449 125.433C284.449 124.029 284.752 123.082 285.359 122.668C285.966 122.253 286.839 122.352 287.979 122.976C288.442 123.227 288.876 123.524 289.274 123.861C289.643 124.175 289.973 124.528 290.258 124.914C290.315 124.987 290.349 125.075 290.354 125.167C290.358 125.23 290.337 125.293 290.295 125.342L289.954 125.911C289.91 125.981 289.866 126.002 289.814 125.974C289.751 125.926 289.696 125.869 289.651 125.806C289.252 125.298 288.749 124.873 288.171 124.556C287.505 124.184 286.98 124.149 286.61 124.437C286.24 124.724 286.047 125.349 286.047 126.311C286.025 127.181 286.225 128.044 286.632 128.824C286.992 129.49 287.544 130.044 288.223 130.425C288.677 130.717 289.221 130.858 289.769 130.825C289.822 130.805 289.88 130.805 289.932 130.825C289.999 130.881 290.048 130.954 290.073 131.035L290.45 132.074C290.476 132.128 290.491 132.185 290.495 132.243C290.495 132.292 290.45 132.334 290.376 132.369C289.866 132.552 289.081 132.369 288.016 131.766C286.9 131.165 285.987 130.276 285.381 129.203Z" fill="white"/>
<path d="M290.82 132.931C290.813 132.873 290.813 132.814 290.82 132.756L293.358 126.508C293.402 126.388 293.454 126.318 293.506 126.297C293.548 126.288 293.592 126.288 293.634 126.297C293.676 126.305 293.716 126.322 293.75 126.346L294.49 126.739C294.587 126.789 294.669 126.861 294.727 126.95C294.792 127.068 294.842 127.193 294.875 127.322L297.406 136.343C297.415 136.415 297.415 136.488 297.406 136.56C297.406 136.701 297.347 136.736 297.228 136.673L296.044 136.02C295.967 135.979 295.899 135.924 295.844 135.858C295.791 135.776 295.753 135.686 295.733 135.592L295.282 133.886L292.907 132.58L292.463 133.802C292.463 133.886 292.396 133.928 292.352 133.942C292.317 133.947 292.281 133.945 292.247 133.936C292.212 133.928 292.18 133.913 292.152 133.893L290.968 133.24C290.915 133.207 290.874 133.16 290.848 133.105C290.822 133.051 290.812 132.99 290.82 132.931ZM294.942 132.229L294.15 129.168L293.328 131.394L294.942 132.229Z" fill="white"/>
<path d="M298.375 137.136C298.299 136.995 298.263 136.838 298.272 136.68V129.344C298.272 129.161 298.272 129.042 298.375 128.993C298.479 128.943 298.553 128.951 298.708 129.042L301.187 130.397C301.968 130.788 302.616 131.382 303.056 132.109C303.496 132.836 303.71 133.666 303.674 134.503C303.701 134.963 303.599 135.421 303.378 135.83C303.289 135.974 303.161 136.093 303.008 136.173C302.854 136.253 302.68 136.292 302.505 136.286L303.533 139.698C303.543 139.761 303.543 139.825 303.533 139.888C303.533 140.035 303.467 140.07 303.326 140L302.238 139.403C302.161 139.365 302.094 139.312 302.038 139.249C301.982 139.173 301.941 139.087 301.92 138.996L301.017 135.781L299.855 135.142V137.592C299.871 137.716 299.836 137.842 299.759 137.943C299.693 137.992 299.574 137.943 299.411 137.88L298.671 137.48C298.539 137.396 298.436 137.276 298.375 137.136ZM300.951 134.251C301.321 134.454 301.602 134.51 301.787 134.412C301.972 134.314 302.068 134.054 302.068 133.626C302.081 133.25 301.992 132.878 301.809 132.545C301.636 132.25 301.379 132.007 301.069 131.843L299.907 131.204V133.682L300.951 134.251Z" fill="white"/>
<path d="M304.577 140.533C304.504 140.392 304.468 140.235 304.473 140.077V132.741C304.465 132.678 304.47 132.614 304.487 132.552C304.505 132.491 304.536 132.434 304.577 132.383C304.643 132.334 304.754 132.348 304.91 132.432L306.967 133.563C308.034 134.127 308.915 134.96 309.513 135.97C310.124 137.103 310.422 138.364 310.378 139.635C310.378 141.074 310.09 141.973 309.498 142.338C308.906 142.703 308.07 142.576 306.967 141.973L304.91 140.849C304.768 140.778 304.652 140.668 304.577 140.533ZM307.048 140.533C307.626 140.849 308.062 140.884 308.343 140.632C308.625 140.379 308.78 139.761 308.78 138.771C308.818 137.976 308.669 137.182 308.343 136.448C308.066 135.891 307.614 135.43 307.048 135.128L306.086 134.602V140.007L307.048 140.533Z" fill="white"/>
<path opacity="0.5" d="M342.561 141.72L339.904 143.208C339.662 142.799 339.316 142.454 338.898 142.204L240.382 88.2205C239.642 87.8344 239.079 88.0871 238.976 88.7821C238.995 88.3402 239.137 87.911 239.387 87.5376C239.637 87.1642 239.986 86.8597 240.399 86.6549C240.812 86.45 241.275 86.3519 241.741 86.3704C242.207 86.3889 242.659 86.5234 243.053 86.7603L341.562 140.716C341.982 140.962 342.326 141.308 342.561 141.72Z" fill="#FAFAFA"/>
<path d="M321.841 193.703L313.42 198.048C313.279 198.352 313.203 198.679 313.198 199.01V224.556C313.193 224.632 313.204 224.709 313.231 224.781C313.257 224.854 313.299 224.92 313.353 224.977L228.253 178.385C228.176 178.335 228.115 178.266 228.076 178.186C228.037 178.106 228.021 178.017 228.031 177.929V152.376C228.045 152.129 228.119 151.888 228.247 151.672C228.375 151.457 228.555 151.272 228.771 151.134L236.134 147.09C236.211 147.033 236.305 146.999 236.402 146.993C236.5 146.986 236.597 147.008 236.682 147.055L321.841 193.703Z" fill="#263238"/>
<path opacity="0.5" d="M321.848 193.696L244.023 151.056L240.471 149.112L236.719 147.055C236.634 147.008 236.537 146.986 236.439 146.993C236.342 146.999 236.248 147.033 236.171 147.09L228.808 151.134C228.586 151.264 228.405 151.449 228.283 151.667L313.427 198.041L321.848 193.696Z" fill="#37474F"/>
<path d="M313.42 198.049C313.277 198.356 313.199 198.688 313.19 199.024V224.57C313.19 225.026 313.531 225.209 313.93 224.984L322.07 220.534V194.166C322.082 194.077 322.067 193.987 322.028 193.905C321.988 193.824 321.926 193.754 321.848 193.703L313.42 198.049Z" fill="#37474F"/>
<path d="M314.026 224.914L314.315 224.781L315.566 224.079C316.776 222.652 317.436 220.876 317.438 219.045V197.459C317.432 196.986 317.37 196.515 317.253 196.055L316.579 196.406C316.654 196.748 316.694 197.096 316.698 197.445V219.045C316.562 221.238 315.616 223.316 314.026 224.914Z" fill="#263238"/>
<path d="M218.551 122.485C215.68 120.281 210.456 117.424 207.244 115.669C201.842 112.699 181.648 101.629 173.204 97.0023C172.032 96.4381 170.737 96.144 169.423 96.144C168.109 96.144 166.813 96.4381 165.641 97.0023L96.8214 134.714C95.7222 135.396 94.8073 136.314 94.1504 137.393C93.4936 138.472 93.1133 139.682 93.04 140.926V180.414C93.1139 181.659 93.4944 182.87 94.1511 183.95C94.8078 185.031 95.7224 185.95 96.8214 186.634L236.57 263.25C237.743 263.811 239.038 264.103 240.352 264.103C241.665 264.103 242.96 263.811 244.133 263.25L312.953 225.553C314.053 224.864 314.967 223.94 315.622 222.855C316.276 221.769 316.652 220.553 316.72 219.305V197.051C316.725 195.965 316.464 194.892 315.958 193.918C315.453 192.943 314.715 192.094 313.804 191.435C298.013 180.056 223.139 126.002 218.551 122.485Z" fill="#455A64"/>
<path d="M316.72 219.305V197.704C316.719 197.269 316.665 196.836 316.557 196.413L240.16 238.189C240.274 238.637 240.336 239.096 240.345 239.558V261.144C240.345 263.25 238.939 264.17 237.118 263.468H237.17C237.34 263.538 237.51 263.601 237.688 263.657L238.028 263.755C238.213 263.805 238.398 263.847 238.591 263.882C238.783 263.917 238.842 263.924 238.968 263.945L239.538 264.015H239.967H240.507H240.988L241.477 263.98C241.654 263.98 241.832 263.924 242.01 263.889L242.424 263.819C242.616 263.769 242.809 263.706 242.994 263.65C243.179 263.594 243.216 263.594 243.319 263.552C243.561 263.462 243.796 263.357 244.022 263.236C244.059 263.224 244.094 263.207 244.126 263.187L312.946 225.489L313.938 224.956C315.571 223.464 316.562 221.45 316.72 219.305Z" fill="#37474F"/>
<path d="M142.169 164.331C155.075 174.215 222.474 222.597 237.407 233.31C238.326 233.964 239.072 234.812 239.586 235.786C240.1 236.761 240.367 237.836 240.367 238.926V261.144C240.367 263.426 238.665 264.359 236.586 263.25L96.7848 186.662C95.6858 185.978 94.7712 185.059 94.1145 183.979C93.4578 182.898 93.0772 181.687 93.0034 180.442V140.927C93.0034 138.645 94.7054 137.711 96.7848 138.856L130.825 157.501C134.059 159.263 139.283 162.12 142.169 164.331Z" fill="#263238"/>
<path d="M141.754 151.534C144.966 153.289 150.19 156.146 153.084 158.364C155.877 160.548 158.526 162.892 161.016 165.384C161.56 165.886 162.257 166.213 163.008 166.316C163.759 166.419 164.526 166.295 165.197 165.96L215.133 138.582C215.427 138.445 215.682 138.242 215.875 137.991C216.068 137.739 216.193 137.447 216.24 137.139C216.287 136.831 216.253 136.517 216.143 136.224C216.032 135.931 215.848 135.668 215.606 135.458C213.108 132.967 210.451 130.622 207.651 128.438C204.773 126.234 199.548 123.384 196.337 121.622C190.224 118.266 183.364 114.51 177.185 111.134C176.463 110.789 175.666 110.61 174.858 110.61C174.05 110.61 173.253 110.789 172.531 111.134L122.618 138.498C121.338 139.2 121.338 140.344 122.618 141.046L141.754 151.534Z" fill="#E0E0E0"/>
<path d="M172.531 113.394C173.253 113.05 174.05 112.87 174.858 112.87C175.667 112.87 176.464 113.05 177.186 113.394C183.365 116.771 190.224 120.526 196.337 123.882C199.548 125.644 204.773 128.501 207.651 130.705C210.451 132.889 213.108 135.234 215.606 137.725C215.696 137.815 215.778 137.911 215.851 138.013C215.65 138.258 215.398 138.461 215.111 138.61L165.175 165.988C164.504 166.323 163.737 166.447 162.986 166.344C162.236 166.24 161.538 165.914 160.994 165.412C158.504 162.92 155.855 160.576 153.062 158.392C150.168 156.174 144.922 153.317 141.732 151.562L122.618 141.046C122.529 140.997 122.463 140.94 122.389 140.891C122.461 140.834 122.537 140.783 122.618 140.737L172.531 113.394Z" fill="white"/>
<path d="M173.352 149.491L158.412 149.273V143.615L169.112 145.455L168.971 122.969L178.273 122.829L173.352 149.491Z" fill="#FF441F"/>
<path d="M216.62 150.102L217.116 148.15L219.188 147.989L225.959 144.282C229.171 142.527 233.426 142.878 235.498 145.061C235.937 145.516 236.259 146.062 236.438 146.655L237.022 146.606L236.497 148.677C236.264 149.411 235.88 150.093 235.365 150.684C234.85 151.275 234.216 151.762 233.5 152.116L225.256 156.623C224.586 156.963 223.819 157.091 223.067 156.989C222.315 156.887 221.617 156.559 221.075 156.055C219.773 154.735 218.47 153.366 217.168 151.976C216.92 151.731 216.74 151.432 216.645 151.104C216.549 150.777 216.541 150.433 216.62 150.102Z" fill="#FF441F"/>
<path opacity="0.1" d="M216.62 150.102L217.116 148.15L219.188 147.989L225.959 144.282C229.171 142.527 233.426 142.878 235.498 145.061C235.937 145.516 236.259 146.062 236.438 146.655L237.022 146.606L236.497 148.677C236.264 149.411 235.88 150.093 235.365 150.684C234.85 151.275 234.216 151.762 233.5 152.116L225.256 156.623C224.586 156.963 223.819 157.091 223.067 156.989C222.315 156.887 221.617 156.559 221.075 156.055C219.773 154.735 218.47 153.366 217.168 151.976C216.92 151.731 216.74 151.432 216.645 151.104C216.549 150.777 216.541 150.433 216.62 150.102Z" fill="black"/>
<path d="M225.7 154.679L233.944 150.165C237.163 148.403 238.021 145.251 235.949 143.103C233.877 140.954 229.622 140.568 226.41 142.323L218.167 146.837C217.871 146.979 217.614 147.185 217.418 147.439C217.221 147.692 217.091 147.987 217.037 148.297C216.982 148.608 217.006 148.926 217.106 149.226C217.206 149.526 217.379 149.8 217.612 150.024C218.914 151.428 220.219 152.788 221.526 154.103C222.067 154.608 222.763 154.937 223.514 155.04C224.264 155.144 225.03 155.017 225.7 154.679Z" fill="#FF441F"/>
<path d="M174.462 174.433L174.965 172.453L175.55 172.404C176.11 171.767 176.787 171.232 177.548 170.825L185.792 166.311C186.456 165.975 187.218 165.855 187.961 165.969C188.704 166.083 189.388 166.425 189.906 166.943C191.186 168.312 192.466 169.66 193.747 170.965L194.908 170.874L194.383 172.931C194.217 173.446 193.845 173.88 193.347 174.138L185.103 178.652C181.884 180.414 177.541 180.133 175.483 177.95C175.02 177.49 174.684 176.928 174.505 176.314C174.327 175.7 174.312 175.054 174.462 174.433Z" fill="#FF441F"/>
<path opacity="0.1" d="M174.462 174.433L174.965 172.453L175.55 172.404C176.11 171.767 176.787 171.232 177.548 170.825L185.792 166.311C186.456 165.975 187.218 165.855 187.961 165.969C188.704 166.083 189.388 166.425 189.906 166.943C191.186 168.312 192.466 169.66 193.747 170.965L194.908 170.874L194.383 172.931C194.217 173.446 193.845 173.88 193.347 174.138L185.103 178.652C181.884 180.414 177.541 180.133 175.483 177.95C175.02 177.49 174.684 176.928 174.505 176.314C174.327 175.7 174.312 175.054 174.462 174.433Z" fill="black"/>
<path d="M185.57 176.686L193.813 172.172C194.107 172.034 194.36 171.831 194.552 171.579C194.744 171.328 194.869 171.036 194.915 170.728C194.962 170.421 194.929 170.108 194.82 169.815C194.71 169.522 194.527 169.259 194.287 169.049C192.985 167.722 191.69 166.36 190.387 164.97C189.87 164.451 189.187 164.107 188.444 163.992C187.7 163.877 186.938 163.996 186.273 164.331L178.029 168.845C174.818 170.607 173.848 173.822 175.928 175.991C178.007 178.16 182.358 178.441 185.57 176.686Z" fill="#FF441F"/>
<path d="M195.094 162.078L195.582 160.148L197.166 160.049L207.03 154.644C207.861 154.225 208.813 154.076 209.742 154.219C210.671 154.362 211.525 154.79 212.173 155.437C213.159 156.504 214.158 157.55 215.17 158.575C215.267 158.678 215.356 158.789 215.436 158.905L216.42 158.849L215.91 160.864C215.82 161.204 215.656 161.522 215.429 161.799C215.203 162.076 214.918 162.305 214.593 162.471L204.018 168.256C203.183 168.682 202.227 168.844 201.288 168.718C200.349 168.592 199.478 168.184 198.801 167.554C197.802 166.529 196.796 165.483 195.797 164.416C195.485 164.111 195.258 163.739 195.135 163.331C195.012 162.923 194.998 162.492 195.094 162.078Z" fill="#FF441F"/>
<path opacity="0.1" d="M195.094 162.078L195.582 160.148L197.166 160.049L207.03 154.644C207.861 154.225 208.813 154.076 209.742 154.219C210.671 154.362 211.525 154.79 212.173 155.437C213.159 156.504 214.158 157.55 215.17 158.575C215.267 158.678 215.356 158.789 215.436 158.905L216.42 158.849L215.91 160.864C215.82 161.204 215.656 161.522 215.429 161.799C215.203 162.076 214.918 162.305 214.593 162.471L204.018 168.256C203.183 168.682 202.227 168.844 201.288 168.718C200.349 168.592 199.478 168.184 198.801 167.554C197.802 166.529 196.796 165.483 195.797 164.416C195.485 164.111 195.258 163.739 195.135 163.331C195.012 162.923 194.998 162.492 195.094 162.078Z" fill="black"/>
<path d="M196.263 162.457C197.262 163.524 198.268 164.563 199.267 165.595C199.944 166.225 200.815 166.633 201.754 166.76C202.693 166.886 203.65 166.724 204.484 166.297L215.059 160.512C215.425 160.34 215.741 160.085 215.98 159.771C216.22 159.458 216.376 159.093 216.435 158.71C216.494 158.326 216.454 157.935 216.319 157.569C216.183 157.203 215.957 156.874 215.658 156.609C214.659 155.584 213.66 154.503 212.661 153.464C212.013 152.818 211.159 152.39 210.23 152.248C209.301 152.106 208.348 152.257 207.518 152.678L196.951 158.463C196.579 158.64 196.256 158.898 196.01 159.216C195.763 159.534 195.6 159.904 195.533 160.293C195.465 160.683 195.497 161.082 195.624 161.458C195.75 161.835 195.97 162.177 196.263 162.457Z" fill="#FF441F"/>
<g opacity="0.75">
<path d="M225.7 154.679L233.944 150.165C237.163 148.403 238.021 145.251 235.949 143.103C233.877 140.954 229.622 140.568 226.41 142.323L218.167 146.837C217.871 146.979 217.614 147.185 217.418 147.439C217.221 147.692 217.091 147.987 217.037 148.297C216.982 148.608 217.006 148.926 217.106 149.226C217.206 149.526 217.379 149.8 217.612 150.024C218.914 151.428 220.219 152.788 221.526 154.103C222.067 154.608 222.763 154.937 223.514 155.04C224.264 155.144 225.03 155.017 225.7 154.679Z" fill="white"/>
<path d="M185.57 176.686L193.813 172.172C194.107 172.034 194.36 171.831 194.552 171.579C194.744 171.328 194.869 171.036 194.915 170.728C194.962 170.421 194.929 170.108 194.82 169.815C194.71 169.522 194.527 169.259 194.287 169.049C192.985 167.722 191.69 166.36 190.387 164.97C189.87 164.451 189.187 164.107 188.444 163.992C187.7 163.877 186.938 163.996 186.273 164.331L178.029 168.845C174.818 170.607 173.848 173.822 175.928 175.991C178.007 178.16 182.358 178.441 185.57 176.686Z" fill="white"/>
<path d="M196.263 162.457C197.262 163.524 198.268 164.563 199.267 165.594C199.944 166.225 200.815 166.633 201.754 166.759C202.693 166.885 203.65 166.723 204.484 166.296L215.059 160.512C215.425 160.339 215.741 160.085 215.98 159.771C216.22 159.457 216.376 159.093 216.435 158.709C216.494 158.326 216.454 157.934 216.319 157.569C216.183 157.203 215.957 156.874 215.658 156.609C214.659 155.584 213.66 154.503 212.661 153.464C212.013 152.817 211.159 152.39 210.23 152.248C209.301 152.106 208.348 152.257 207.518 152.678L196.951 158.462C196.579 158.639 196.256 158.898 196.01 159.216C195.763 159.534 195.6 159.903 195.533 160.293C195.465 160.683 195.497 161.082 195.624 161.458C195.75 161.834 195.97 162.176 196.263 162.457Z" fill="white"/>
</g>
<path d="M212.299 184.12L210.123 184.17L204.033 179.761C203.495 179.409 202.867 179.202 202.216 179.163C201.564 179.123 200.913 179.252 200.333 179.536L191.024 184.626L188.101 184.696V186.957C188.114 187.183 188.182 187.404 188.3 187.601C188.418 187.798 188.583 187.967 188.781 188.094L196.359 193.583C196.897 193.934 197.525 194.14 198.176 194.179C198.828 194.219 199.478 194.091 200.059 193.808L211.448 187.574C211.688 187.466 211.894 187.298 212.043 187.088C212.191 186.878 212.277 186.633 212.291 186.381L212.299 184.12Z" fill="#FF441F"/>
<path opacity="0.1" d="M212.299 184.12L210.123 184.17L204.033 179.761C203.495 179.409 202.867 179.202 202.216 179.163C201.564 179.123 200.913 179.252 200.333 179.536L191.024 184.626L188.101 184.696V186.957C188.114 187.183 188.182 187.404 188.3 187.601C188.418 187.798 188.583 187.967 188.781 188.094L196.359 193.583C196.897 193.934 197.525 194.14 198.176 194.179C198.828 194.219 199.478 194.091 200.059 193.808L211.448 187.574C211.688 187.466 211.894 187.298 212.043 187.088C212.191 186.878 212.277 186.633 212.291 186.381L212.299 184.12Z" fill="black"/>
<path d="M188.944 183.503L200.34 177.276C200.921 176.992 201.571 176.863 202.223 176.902C202.875 176.942 203.503 177.149 204.04 177.501L211.64 182.99C211.863 183.11 212.047 183.287 212.169 183.501C212.29 183.716 212.346 183.958 212.329 184.201C212.312 184.444 212.223 184.677 212.072 184.874C211.922 185.071 211.715 185.223 211.477 185.314L200.089 191.548C199.508 191.83 198.857 191.959 198.206 191.919C197.555 191.88 196.927 191.674 196.389 191.323L188.811 185.834C188.589 185.713 188.407 185.537 188.285 185.324C188.163 185.112 188.106 184.871 188.12 184.629C188.134 184.387 188.218 184.154 188.364 183.955C188.509 183.756 188.71 183.6 188.944 183.503Z" fill="#FF441F"/>
<path opacity="0.75" d="M188.944 183.503L200.34 177.276C200.921 176.992 201.571 176.863 202.223 176.902C202.875 176.942 203.503 177.149 204.04 177.501L211.64 182.99C211.863 183.11 212.047 183.287 212.169 183.501C212.29 183.716 212.346 183.958 212.329 184.201C212.312 184.444 212.223 184.677 212.072 184.874C211.922 185.071 211.715 185.223 211.477 185.314L200.089 191.548C199.508 191.83 198.857 191.959 198.206 191.919C197.555 191.88 196.927 191.674 196.389 191.323L188.811 185.834C188.589 185.713 188.407 185.537 188.285 185.324C188.163 185.112 188.106 184.871 188.12 184.629C188.134 184.387 188.218 184.154 188.364 183.955C188.509 183.756 188.71 183.6 188.944 183.503Z" fill="white"/>
<path d="M256.78 216.293L254.604 216.35L248.514 211.934C247.976 211.584 247.348 211.378 246.697 211.338C246.046 211.299 245.395 211.427 244.814 211.709L235.498 216.806L232.575 216.869V219.13C232.586 219.357 232.654 219.578 232.772 219.775C232.89 219.973 233.056 220.141 233.255 220.267L240.833 225.756C241.371 226.108 241.999 226.315 242.65 226.355C243.302 226.394 243.953 226.265 244.533 225.981L255.892 219.726C256.133 219.616 256.337 219.447 256.485 219.235C256.632 219.024 256.716 218.779 256.728 218.526L256.78 216.293Z" fill="#FF441F"/>
<path opacity="0.1" d="M256.78 216.293L254.604 216.35L248.514 211.934C247.976 211.584 247.348 211.378 246.697 211.338C246.046 211.299 245.395 211.427 244.814 211.709L235.498 216.806L232.575 216.869V219.13C232.586 219.357 232.654 219.578 232.772 219.775C232.89 219.973 233.056 220.141 233.255 220.267L240.833 225.756C241.371 226.108 241.999 226.315 242.65 226.355C243.302 226.394 243.953 226.265 244.533 225.981L255.892 219.726C256.133 219.616 256.337 219.447 256.485 219.235C256.632 219.024 256.716 218.779 256.728 218.526L256.78 216.293Z" fill="black"/>
<path d="M233.388 215.675L244.784 209.449C245.365 209.166 246.016 209.038 246.667 209.077C247.318 209.117 247.946 209.323 248.484 209.673L256.04 215.163C256.263 215.284 256.445 215.462 256.567 215.676C256.688 215.891 256.744 216.134 256.727 216.377C256.71 216.62 256.621 216.853 256.471 217.051C256.321 217.248 256.115 217.402 255.877 217.494L244.481 223.72C243.901 224.004 243.25 224.134 242.598 224.094C241.947 224.054 241.318 223.848 240.781 223.496L233.203 218.006C232.984 217.882 232.805 217.702 232.687 217.486C232.569 217.271 232.516 217.029 232.536 216.786C232.555 216.544 232.645 216.312 232.795 216.116C232.946 215.92 233.151 215.767 233.388 215.675Z" fill="#FF441F"/>
<path opacity="0.75" d="M233.388 215.675L244.784 209.449C245.365 209.166 246.016 209.038 246.667 209.077C247.318 209.117 247.946 209.323 248.484 209.673L256.04 215.163C256.263 215.284 256.445 215.462 256.567 215.676C256.688 215.891 256.744 216.134 256.727 216.377C256.71 216.62 256.621 216.853 256.471 217.051C256.321 217.248 256.115 217.402 255.877 217.494L244.481 223.72C243.901 224.004 243.25 224.134 242.598 224.094C241.947 224.054 241.318 223.848 240.781 223.496L233.203 218.006C232.984 217.882 232.805 217.702 232.687 217.486C232.569 217.271 232.516 217.029 232.536 216.786C232.555 216.544 232.645 216.312 232.795 216.116C232.946 215.92 233.151 215.767 233.388 215.675Z" fill="white"/>
<path d="M227.114 194.847L224.938 194.896L218.848 190.488C218.31 190.136 217.683 189.929 217.031 189.888C216.38 189.848 215.729 189.975 215.148 190.256L205.831 195.353L202.871 195.423V197.683C202.885 197.91 202.954 198.13 203.072 198.327C203.19 198.524 203.354 198.693 203.552 198.821L211.181 204.282C211.719 204.634 212.346 204.841 212.998 204.882C213.649 204.923 214.3 204.795 214.881 204.514L226.27 198.28C226.511 198.172 226.716 198.004 226.865 197.794C227.013 197.583 227.099 197.339 227.114 197.087V194.847Z" fill="#FF441F"/>
<path opacity="0.1" d="M227.114 194.847L224.938 194.896L218.848 190.488C218.31 190.136 217.683 189.929 217.031 189.888C216.38 189.848 215.729 189.975 215.148 190.256L205.831 195.353L202.871 195.423V197.683C202.885 197.91 202.954 198.13 203.072 198.327C203.19 198.524 203.354 198.693 203.552 198.821L211.181 204.282C211.719 204.634 212.346 204.841 212.998 204.882C213.649 204.923 214.3 204.795 214.881 204.514L226.27 198.28C226.511 198.172 226.716 198.004 226.865 197.794C227.013 197.583 227.099 197.339 227.114 197.087V194.847Z" fill="black"/>
<path d="M203.759 194.229L215.155 187.995C215.737 187.714 216.388 187.587 217.039 187.628C217.69 187.668 218.318 187.876 218.855 188.227L226.44 193.71C226.663 193.831 226.846 194.008 226.967 194.223C227.089 194.438 227.144 194.68 227.127 194.923C227.11 195.166 227.022 195.4 226.871 195.598C226.721 195.795 226.515 195.949 226.277 196.04L214.889 202.274C214.307 202.556 213.657 202.683 213.005 202.642C212.354 202.601 211.726 202.394 211.189 202.043L203.604 196.56C203.383 196.438 203.202 196.26 203.082 196.046C202.962 195.832 202.907 195.591 202.923 195.349C202.939 195.107 203.026 194.874 203.173 194.676C203.321 194.479 203.524 194.324 203.759 194.229Z" fill="#FF441F"/>
<path opacity="0.75" d="M203.759 194.229L215.155 187.995C215.737 187.714 216.388 187.587 217.039 187.628C217.69 187.668 218.318 187.876 218.855 188.227L226.44 193.71C226.663 193.831 226.846 194.008 226.967 194.223C227.089 194.438 227.144 194.68 227.127 194.923C227.11 195.166 227.022 195.4 226.871 195.598C226.721 195.795 226.515 195.949 226.277 196.04L214.889 202.274C214.307 202.556 213.657 202.683 213.005 202.642C212.354 202.601 211.726 202.394 211.189 202.043L203.604 196.56C203.383 196.438 203.202 196.26 203.082 196.046C202.962 195.832 202.907 195.591 202.923 195.349C202.939 195.107 203.026 194.874 203.173 194.676C203.321 194.479 203.524 194.324 203.759 194.229Z" fill="white"/>
<path d="M241.928 205.567L239.752 205.623L233.662 201.207C233.124 200.857 232.496 200.651 231.845 200.612C231.194 200.572 230.543 200.7 229.962 200.983L220.646 206.079L217.723 206.15V208.41C217.735 208.636 217.803 208.856 217.921 209.052C218.04 209.248 218.205 209.415 218.403 209.54L225.981 215.03C226.518 215.382 227.147 215.589 227.798 215.628C228.45 215.668 229.101 215.539 229.681 215.255L241.07 209.028C241.31 208.918 241.515 208.748 241.662 208.537C241.809 208.326 241.894 208.08 241.906 207.827L241.928 205.567Z" fill="#FF441F"/>
<path opacity="0.1" d="M241.928 205.567L239.752 205.623L233.662 201.207C233.124 200.857 232.496 200.651 231.845 200.612C231.194 200.572 230.543 200.7 229.962 200.983L220.646 206.079L217.723 206.15V208.41C217.735 208.636 217.803 208.856 217.921 209.052C218.04 209.248 218.205 209.415 218.403 209.54L225.981 215.03C226.518 215.382 227.147 215.589 227.798 215.628C228.45 215.668 229.101 215.539 229.681 215.255L241.07 209.028C241.31 208.918 241.515 208.748 241.662 208.537C241.809 208.326 241.894 208.08 241.906 207.827L241.928 205.567Z" fill="black"/>
<path d="M218.574 204.984L229.97 198.75C230.551 198.468 231.201 198.34 231.852 198.379C232.504 198.419 233.132 198.625 233.67 198.975L241.24 204.437C241.463 204.557 241.646 204.735 241.767 204.95C241.889 205.165 241.944 205.407 241.927 205.65C241.91 205.893 241.821 206.127 241.671 206.324C241.521 206.522 241.315 206.675 241.077 206.767L229.689 212.994C229.108 213.278 228.458 213.407 227.806 213.368C227.154 213.328 226.526 213.121 225.989 212.769L218.411 207.28C218.198 207.156 218.025 206.979 217.91 206.769C217.795 206.558 217.744 206.322 217.76 206.085C217.777 205.849 217.862 205.621 218.005 205.427C218.149 205.233 218.345 205.08 218.574 204.984Z" fill="#FF441F"/>
<path opacity="0.75" d="M218.574 204.984L229.97 198.75C230.551 198.468 231.201 198.34 231.852 198.379C232.504 198.419 233.132 198.625 233.67 198.975L241.24 204.437C241.463 204.557 241.646 204.735 241.767 204.95C241.889 205.165 241.944 205.407 241.927 205.65C241.91 205.893 241.821 206.127 241.671 206.324C241.521 206.522 241.315 206.675 241.077 206.767L229.689 212.994C229.108 213.278 228.458 213.407 227.806 213.368C227.154 213.328 226.526 213.121 225.989 212.769L218.411 207.28C218.198 207.156 218.025 206.979 217.91 206.769C217.795 206.558 217.744 206.322 217.76 206.085C217.777 205.849 217.862 205.621 218.005 205.427C218.149 205.233 218.345 205.08 218.574 204.984Z" fill="white"/>
<path d="M235.165 171.618L232.989 171.674L226.899 167.259C226.361 166.908 225.733 166.702 225.081 166.663C224.43 166.623 223.779 166.752 223.199 167.034L213.86 172.131L210.9 172.201V174.461C210.914 174.687 210.983 174.906 211.101 175.102C211.219 175.298 211.383 175.466 211.581 175.592L219.232 181.116C219.77 181.468 220.398 181.675 221.05 181.715C221.701 181.754 222.352 181.625 222.932 181.341L234.328 175.114C234.569 175.004 234.774 174.835 234.921 174.623C235.068 174.412 235.152 174.167 235.165 173.914V171.618Z" fill="#FF441F"/>
<path opacity="0.1" d="M235.165 171.618L232.989 171.674L226.899 167.259C226.361 166.908 225.733 166.702 225.081 166.663C224.43 166.623 223.779 166.752 223.199 167.034L213.86 172.131L210.9 172.201V174.461C210.914 174.687 210.983 174.906 211.101 175.102C211.219 175.298 211.383 175.466 211.581 175.592L219.232 181.116C219.77 181.468 220.398 181.675 221.05 181.715C221.701 181.754 222.352 181.625 222.932 181.341L234.328 175.114C234.569 175.004 234.774 174.835 234.921 174.623C235.068 174.412 235.152 174.167 235.165 173.914V171.618Z" fill="black"/>
<path d="M211.81 171.007L223.206 164.773C223.787 164.491 224.437 164.362 225.089 164.402C225.74 164.442 226.368 164.648 226.906 164.998L234.484 170.488C234.705 170.61 234.885 170.787 235.006 171.001C235.126 171.215 235.181 171.457 235.165 171.699C235.149 171.94 235.062 172.173 234.914 172.371C234.767 172.569 234.564 172.724 234.328 172.818L222.932 179.045C222.352 179.329 221.701 179.458 221.05 179.419C220.398 179.379 219.77 179.172 219.232 178.82L211.64 173.331C211.419 173.209 211.239 173.031 211.119 172.816C211 172.602 210.946 172.361 210.964 172.119C210.981 171.877 211.07 171.645 211.22 171.448C211.369 171.252 211.574 171.099 211.81 171.007Z" fill="#FF441F"/>
<path opacity="0.75" d="M211.81 171.007L223.206 164.773C223.787 164.491 224.437 164.362 225.089 164.402C225.74 164.442 226.368 164.648 226.906 164.998L234.484 170.488C234.705 170.61 234.885 170.787 235.006 171.001C235.126 171.215 235.181 171.457 235.165 171.699C235.149 171.94 235.062 172.173 234.914 172.371C234.767 172.569 234.564 172.724 234.328 172.818L222.932 179.045C222.352 179.329 221.701 179.458 221.05 179.419C220.398 179.379 219.77 179.172 219.232 178.82L211.64 173.331C211.419 173.209 211.239 173.031 211.119 172.816C211 172.602 210.946 172.361 210.964 172.119C210.981 171.877 211.07 171.645 211.22 171.448C211.369 171.252 211.574 171.099 211.81 171.007Z" fill="white"/>
<path d="M279.609 203.798L277.433 203.847L271.343 199.431C270.805 199.082 270.177 198.877 269.526 198.838C268.875 198.798 268.224 198.926 267.643 199.207L258.334 204.282L255.374 204.352V206.613C255.387 206.839 255.455 207.06 255.573 207.257C255.692 207.455 255.856 207.623 256.055 207.75L263.632 213.233C264.17 213.584 264.797 213.791 265.449 213.832C266.1 213.873 266.751 213.746 267.332 213.464L278.721 207.231C278.962 207.121 279.166 206.951 279.314 206.74C279.461 206.528 279.545 206.283 279.557 206.03L279.609 203.798Z" fill="#FF441F"/>
<path opacity="0.1" d="M279.609 203.798L277.433 203.847L271.343 199.431C270.805 199.082 270.177 198.877 269.526 198.838C268.875 198.798 268.224 198.926 267.643 199.207L258.334 204.282L255.374 204.352V206.613C255.387 206.839 255.455 207.06 255.573 207.257C255.692 207.455 255.856 207.623 256.055 207.75L263.632 213.233C264.17 213.584 264.797 213.791 265.449 213.832C266.1 213.873 266.751 213.746 267.332 213.464L278.721 207.231C278.962 207.121 279.166 206.951 279.314 206.74C279.461 206.528 279.545 206.283 279.557 206.03L279.609 203.798Z" fill="black"/>
<path d="M256.255 203.18L267.651 196.946C268.232 196.665 268.883 196.537 269.534 196.578C270.186 196.619 270.813 196.826 271.351 197.178L278.928 202.66C279.151 202.781 279.334 202.959 279.456 203.174C279.577 203.388 279.633 203.631 279.616 203.874C279.599 204.117 279.51 204.351 279.36 204.548C279.209 204.746 279.003 204.899 278.766 204.991L267.377 211.225C266.796 211.506 266.145 211.634 265.493 211.593C264.842 211.552 264.214 211.345 263.677 210.993L256.099 205.511C255.879 205.389 255.698 205.211 255.578 204.997C255.457 204.783 255.402 204.542 255.418 204.3C255.434 204.058 255.521 203.825 255.669 203.627C255.817 203.429 256.02 203.275 256.255 203.18Z" fill="#FF441F"/>
<path opacity="0.75" d="M256.255 203.18L267.651 196.946C268.232 196.665 268.883 196.537 269.534 196.578C270.186 196.619 270.813 196.826 271.351 197.178L278.928 202.66C279.151 202.781 279.334 202.959 279.456 203.174C279.577 203.388 279.633 203.631 279.616 203.874C279.599 204.117 279.51 204.351 279.36 204.548C279.209 204.746 279.003 204.899 278.766 204.991L267.377 211.225C266.796 211.506 266.145 211.634 265.493 211.593C264.842 211.552 264.214 211.345 263.677 210.993L256.099 205.511C255.879 205.389 255.698 205.211 255.578 204.997C255.457 204.783 255.402 204.542 255.418 204.3C255.434 204.058 255.521 203.825 255.669 203.627C255.817 203.429 256.02 203.275 256.255 203.18Z" fill="white"/>
<path d="M249.979 182.345L247.804 182.401L241.714 177.985C241.176 177.633 240.548 177.426 239.896 177.387C239.245 177.347 238.594 177.476 238.014 177.761L228.697 182.85L225.774 182.92V185.181C225.787 185.407 225.855 185.628 225.973 185.825C226.091 186.023 226.256 186.191 226.455 186.318L234.032 191.808C234.57 192.158 235.198 192.364 235.85 192.404C236.501 192.443 237.152 192.315 237.732 192.032L249.128 185.805C249.367 185.698 249.571 185.532 249.72 185.325C249.868 185.117 249.955 184.876 249.972 184.626L249.979 182.345Z" fill="#FF441F"/>
<path opacity="0.1" d="M249.979 182.345L247.804 182.401L241.714 177.985C241.176 177.633 240.548 177.426 239.896 177.387C239.245 177.347 238.594 177.476 238.014 177.761L228.697 182.85L225.774 182.92V185.181C225.787 185.407 225.855 185.628 225.973 185.825C226.091 186.023 226.256 186.191 226.455 186.318L234.032 191.808C234.57 192.158 235.198 192.364 235.85 192.404C236.501 192.443 237.152 192.315 237.732 192.032L249.128 185.805C249.367 185.698 249.571 185.532 249.72 185.325C249.868 185.117 249.955 184.876 249.972 184.626L249.979 182.345Z" fill="black"/>
<path d="M226.625 181.727L238.021 175.5C238.602 175.217 239.252 175.089 239.904 175.129C240.555 175.168 241.183 175.374 241.721 175.725L249.299 181.214C249.52 181.336 249.7 181.514 249.821 181.728C249.941 181.942 249.996 182.183 249.98 182.425C249.964 182.667 249.877 182.9 249.729 183.098C249.582 183.295 249.379 183.45 249.143 183.545L237.747 189.772C237.167 190.054 236.516 190.183 235.865 190.143C235.213 190.103 234.585 189.897 234.047 189.547L226.44 184.057C226.22 183.933 226.041 183.753 225.923 183.538C225.806 183.322 225.753 183.08 225.772 182.838C225.792 182.596 225.882 182.363 226.032 182.167C226.183 181.971 226.388 181.818 226.625 181.727Z" fill="#FF441F"/>
<path opacity="0.75" d="M226.625 181.727L238.021 175.5C238.602 175.217 239.252 175.089 239.904 175.129C240.555 175.168 241.183 175.374 241.721 175.725L249.299 181.214C249.52 181.336 249.7 181.514 249.821 181.728C249.941 181.942 249.996 182.183 249.98 182.425C249.964 182.667 249.877 182.9 249.729 183.098C249.582 183.295 249.379 183.45 249.143 183.545L237.747 189.772C237.167 190.054 236.516 190.183 235.865 190.143C235.213 190.103 234.585 189.897 234.047 189.547L226.44 184.057C226.22 183.933 226.041 183.753 225.923 183.538C225.806 183.322 225.753 183.08 225.772 182.838C225.792 182.596 225.882 182.363 226.032 182.167C226.183 181.971 226.388 181.818 226.625 181.727Z" fill="white"/>
<path d="M264.794 193.05L262.619 193.099L256.528 188.691C255.991 188.339 255.363 188.132 254.711 188.092C254.06 188.053 253.409 188.182 252.828 188.466L243.512 193.556L240.589 193.626V195.886C240.602 196.113 240.67 196.333 240.788 196.531C240.906 196.728 241.071 196.897 241.27 197.023L248.847 202.513C249.386 202.862 250.014 203.067 250.665 203.107C251.316 203.146 251.966 203.019 252.547 202.738L263.943 196.56C264.184 196.452 264.39 196.284 264.538 196.074C264.687 195.864 264.773 195.619 264.787 195.367L264.794 193.05Z" fill="#FF441F"/>
<path opacity="0.1" d="M264.794 193.05L262.619 193.099L256.528 188.691C255.991 188.339 255.363 188.132 254.711 188.092C254.06 188.053 253.409 188.182 252.828 188.466L243.512 193.556L240.589 193.626V195.886C240.602 196.113 240.67 196.333 240.788 196.531C240.906 196.728 241.071 196.897 241.27 197.023L248.847 202.513C249.386 202.862 250.014 203.067 250.665 203.107C251.316 203.146 251.966 203.019 252.547 202.738L263.943 196.56C264.184 196.452 264.39 196.284 264.538 196.074C264.687 195.864 264.773 195.619 264.787 195.367L264.794 193.05Z" fill="black"/>
<path d="M241.44 192.454L252.836 186.227C253.416 185.943 254.067 185.814 254.719 185.853C255.37 185.893 255.999 186.1 256.536 186.452L264.114 191.941C264.337 192.061 264.52 192.238 264.642 192.452C264.764 192.666 264.82 192.909 264.803 193.152C264.786 193.394 264.697 193.628 264.546 193.825C264.395 194.022 264.189 194.174 263.951 194.265L252.562 200.499C251.981 200.781 251.331 200.909 250.679 200.87C250.028 200.83 249.4 200.624 248.862 200.274L241.285 194.784C241.064 194.662 240.883 194.484 240.763 194.271C240.642 194.057 240.587 193.815 240.603 193.573C240.619 193.331 240.706 193.099 240.854 192.901C241.002 192.703 241.205 192.548 241.44 192.454Z" fill="#FF441F"/>
<path opacity="0.75" d="M241.44 192.454L252.836 186.227C253.416 185.943 254.067 185.814 254.719 185.853C255.37 185.893 255.999 186.1 256.536 186.452L264.114 191.941C264.337 192.061 264.52 192.238 264.642 192.452C264.764 192.666 264.82 192.909 264.803 193.152C264.786 193.394 264.697 193.628 264.546 193.825C264.395 194.022 264.189 194.174 263.951 194.265L252.562 200.499C251.981 200.781 251.331 200.909 250.679 200.87C250.028 200.83 249.4 200.624 248.862 200.274L241.285 194.784C241.064 194.662 240.883 194.484 240.763 194.271C240.642 194.057 240.587 193.815 240.603 193.573C240.619 193.331 240.706 193.099 240.854 192.901C241.002 192.703 241.205 192.548 241.44 192.454Z" fill="white"/>
<path d="M258.023 159.116L255.848 159.165L249.757 154.756C249.22 154.404 248.592 154.197 247.94 154.158C247.289 154.118 246.638 154.247 246.057 154.532L236.741 159.621L233.818 159.691V161.952C233.831 162.178 233.899 162.399 234.017 162.596C234.135 162.794 234.3 162.962 234.499 163.089L242.076 168.579C242.614 168.929 243.242 169.135 243.894 169.175C244.545 169.214 245.196 169.086 245.776 168.803L257.165 162.569C257.406 162.461 257.611 162.293 257.76 162.083C257.908 161.873 257.994 161.629 258.008 161.376L258.023 159.116Z" fill="#FF441F"/>
<path opacity="0.1" d="M258.023 159.116L255.848 159.165L249.757 154.756C249.22 154.404 248.592 154.197 247.94 154.158C247.289 154.118 246.638 154.247 246.057 154.532L236.741 159.621L233.818 159.691V161.952C233.831 162.178 233.899 162.399 234.017 162.596C234.135 162.794 234.3 162.962 234.499 163.089L242.076 168.579C242.614 168.929 243.242 169.135 243.894 169.175C244.545 169.214 245.196 169.086 245.776 168.803L257.165 162.569C257.406 162.461 257.611 162.293 257.76 162.083C257.908 161.873 257.994 161.629 258.008 161.376L258.023 159.116Z" fill="black"/>
<path d="M234.669 158.498L246.065 152.271C246.645 151.987 247.296 151.858 247.948 151.897C248.599 151.937 249.227 152.143 249.765 152.495L257.343 157.985C257.566 158.105 257.749 158.282 257.871 158.496C257.993 158.71 258.049 158.953 258.032 159.195C258.015 159.438 257.926 159.672 257.775 159.869C257.624 160.066 257.418 160.218 257.18 160.309L245.791 166.542C245.21 166.825 244.56 166.953 243.908 166.914C243.257 166.874 242.629 166.668 242.091 166.318L234.514 160.828C234.293 160.706 234.112 160.528 233.992 160.314C233.871 160.101 233.816 159.859 233.832 159.617C233.848 159.375 233.935 159.143 234.083 158.945C234.231 158.747 234.434 158.592 234.669 158.498Z" fill="#FF441F"/>
<path opacity="0.75" d="M234.669 158.498L246.065 152.271C246.645 151.987 247.296 151.858 247.948 151.897C248.599 151.937 249.227 152.143 249.765 152.495L257.343 157.985C257.566 158.105 257.749 158.282 257.871 158.496C257.993 158.71 258.049 158.953 258.032 159.195C258.015 159.438 257.926 159.672 257.775 159.869C257.624 160.066 257.418 160.218 257.18 160.309L245.791 166.542C245.21 166.825 244.56 166.953 243.908 166.914C243.257 166.874 242.629 166.668 242.091 166.318L234.514 160.828C234.293 160.706 234.112 160.528 233.992 160.314C233.871 160.101 233.816 159.859 233.832 159.617C233.848 159.375 233.935 159.143 234.083 158.945C234.231 158.747 234.434 158.592 234.669 158.498Z" fill="white"/>
<path d="M302.467 191.288L300.292 191.344L294.202 186.929C293.664 186.577 293.036 186.37 292.384 186.33C291.733 186.291 291.082 186.42 290.502 186.704L281.2 191.793L278.277 191.864V194.124C278.288 194.351 278.356 194.572 278.474 194.77C278.592 194.967 278.758 195.136 278.958 195.261L286.535 200.772C287.073 201.124 287.701 201.331 288.352 201.37C289.004 201.41 289.655 201.281 290.235 200.997L301.631 194.77C301.872 194.66 302.077 194.49 302.224 194.279C302.371 194.068 302.455 193.822 302.467 193.569V191.288Z" fill="#FF441F"/>
<path opacity="0.1" d="M302.467 191.288L300.292 191.344L294.202 186.929C293.664 186.577 293.036 186.37 292.384 186.33C291.733 186.291 291.082 186.42 290.502 186.704L281.2 191.793L278.277 191.864V194.124C278.288 194.351 278.356 194.572 278.474 194.77C278.592 194.967 278.758 195.136 278.958 195.261L286.535 200.772C287.073 201.124 287.701 201.331 288.352 201.37C289.004 201.41 289.655 201.281 290.235 200.997L301.631 194.77C301.872 194.66 302.077 194.49 302.224 194.279C302.371 194.068 302.455 193.822 302.467 193.569V191.288Z" fill="black"/>
<path d="M279.113 190.671L290.509 184.444C291.09 184.161 291.74 184.033 292.392 184.072C293.043 184.112 293.671 184.318 294.209 184.668L301.787 190.158C302.01 190.279 302.192 190.457 302.314 190.671C302.435 190.886 302.491 191.129 302.474 191.372C302.457 191.615 302.368 191.848 302.218 192.046C302.068 192.243 301.862 192.397 301.624 192.489L290.228 198.715C289.648 199 288.997 199.129 288.345 199.089C287.694 199.05 287.065 198.843 286.528 198.491L278.98 193.001C278.758 192.881 278.576 192.705 278.454 192.492C278.332 192.279 278.275 192.039 278.289 191.797C278.302 191.555 278.387 191.322 278.533 191.123C278.678 190.924 278.879 190.767 279.113 190.671Z" fill="#FF441F"/>
<path opacity="0.75" d="M279.113 190.671L290.509 184.444C291.09 184.161 291.74 184.033 292.392 184.072C293.043 184.112 293.671 184.318 294.209 184.668L301.787 190.158C302.01 190.279 302.192 190.457 302.314 190.671C302.435 190.886 302.491 191.129 302.474 191.372C302.457 191.615 302.368 191.848 302.218 192.046C302.068 192.243 301.862 192.397 301.624 192.489L290.228 198.715C289.648 199 288.997 199.129 288.345 199.089C287.694 199.05 287.065 198.843 286.528 198.491L278.98 193.001C278.758 192.881 278.576 192.705 278.454 192.492C278.332 192.279 278.275 192.039 278.289 191.797C278.302 191.555 278.387 191.322 278.533 191.123C278.678 190.924 278.879 190.767 279.113 190.671Z" fill="white"/>
<path d="M287.653 180.562L285.477 180.618L279.387 176.202C278.849 175.852 278.221 175.646 277.57 175.606C276.918 175.567 276.268 175.695 275.687 175.977L266.4 181.074L263.44 181.144V183.405C263.452 183.63 263.52 183.85 263.639 184.047C263.757 184.243 263.922 184.41 264.121 184.535L271.698 190.025C272.235 190.378 272.863 190.586 273.515 190.625C274.167 190.665 274.818 190.535 275.398 190.249L286.794 184.022C287.035 183.913 287.24 183.743 287.387 183.532C287.534 183.32 287.618 183.075 287.631 182.822L287.653 180.562Z" fill="#FF441F"/>
<path opacity="0.1" d="M287.653 180.562L285.477 180.618L279.387 176.202C278.849 175.852 278.221 175.646 277.57 175.606C276.918 175.567 276.268 175.695 275.687 175.977L266.4 181.074L263.44 181.144V183.405C263.452 183.63 263.52 183.85 263.639 184.047C263.757 184.243 263.922 184.41 264.121 184.535L271.698 190.025C272.235 190.378 272.863 190.586 273.515 190.625C274.167 190.665 274.818 190.535 275.398 190.249L286.794 184.022C287.035 183.913 287.24 183.743 287.387 183.532C287.534 183.32 287.618 183.075 287.631 182.822L287.653 180.562Z" fill="black"/>
<path d="M264.299 179.951L275.695 173.717C276.275 173.435 276.926 173.306 277.577 173.346C278.229 173.385 278.856 173.591 279.395 173.942L286.972 179.432C287.195 179.552 287.378 179.73 287.499 179.945C287.621 180.159 287.676 180.402 287.659 180.645C287.642 180.888 287.554 181.122 287.403 181.319C287.253 181.517 287.047 181.67 286.809 181.762L275.413 187.989C274.833 188.274 274.182 188.405 273.53 188.365C272.878 188.325 272.25 188.118 271.713 187.764L264.18 182.275C263.958 182.157 263.774 181.982 263.65 181.771C263.527 181.559 263.468 181.319 263.48 181.078C263.492 180.836 263.576 180.603 263.72 180.404C263.865 180.205 264.065 180.048 264.299 179.951Z" fill="#FF441F"/>
<path opacity="0.75" d="M264.299 179.951L275.695 173.717C276.275 173.435 276.926 173.306 277.577 173.346C278.229 173.385 278.856 173.591 279.395 173.942L286.972 179.432C287.195 179.552 287.378 179.73 287.499 179.945C287.621 180.159 287.676 180.402 287.659 180.645C287.642 180.888 287.554 181.122 287.403 181.319C287.253 181.517 287.047 181.67 286.809 181.762L275.413 187.989C274.833 188.274 274.182 188.405 273.53 188.365C272.878 188.325 272.25 188.118 271.713 187.764L264.18 182.275C263.958 182.157 263.774 181.982 263.65 181.771C263.527 181.559 263.468 181.319 263.48 181.078C263.492 180.836 263.576 180.603 263.72 180.404C263.865 180.205 264.065 180.048 264.299 179.951Z" fill="white"/>
<path d="M272.838 169.842L270.662 169.891L264.572 165.483C264.035 165.131 263.407 164.924 262.756 164.883C262.104 164.842 261.453 164.969 260.872 165.251L251.6 170.347L248.677 170.418V172.692C248.689 172.919 248.757 173.14 248.875 173.337C248.994 173.534 249.159 173.703 249.358 173.829L256.935 179.312C257.473 179.664 258.1 179.871 258.752 179.912C259.403 179.952 260.054 179.825 260.635 179.544L272.024 173.31C272.263 173.2 272.467 173.032 272.614 172.822C272.762 172.612 272.846 172.368 272.86 172.116L272.838 169.842Z" fill="#FF441F"/>
<path opacity="0.1" d="M272.838 169.842L270.662 169.891L264.572 165.483C264.035 165.131 263.407 164.924 262.756 164.883C262.104 164.842 261.453 164.969 260.872 165.251L251.6 170.347L248.677 170.418V172.692C248.689 172.919 248.757 173.14 248.875 173.337C248.994 173.534 249.159 173.703 249.358 173.829L256.935 179.312C257.473 179.664 258.1 179.871 258.752 179.912C259.403 179.952 260.054 179.825 260.635 179.544L272.024 173.31C272.263 173.2 272.467 173.032 272.614 172.822C272.762 172.612 272.846 172.368 272.86 172.116L272.838 169.842Z" fill="black"/>
<path d="M249.483 169.224L260.879 162.991C261.461 162.709 262.112 162.582 262.763 162.623C263.414 162.663 264.042 162.871 264.579 163.222L272.157 168.705C272.38 168.826 272.563 169.004 272.684 169.218C272.806 169.433 272.861 169.675 272.844 169.919C272.827 170.162 272.738 170.395 272.588 170.593C272.438 170.79 272.232 170.944 271.994 171.036L260.606 177.269C260.024 177.551 259.373 177.678 258.722 177.637C258.071 177.596 257.443 177.389 256.906 177.038L249.328 171.555C249.107 171.433 248.926 171.255 248.806 171.041C248.686 170.827 248.631 170.586 248.647 170.344C248.663 170.102 248.75 169.869 248.897 169.672C249.045 169.474 249.248 169.319 249.483 169.224Z" fill="#FF441F"/>
<path opacity="0.75" d="M249.483 169.224L260.879 162.991C261.461 162.709 262.112 162.582 262.763 162.623C263.414 162.663 264.042 162.871 264.579 163.222L272.157 168.705C272.38 168.826 272.563 169.004 272.684 169.218C272.806 169.433 272.861 169.675 272.844 169.919C272.827 170.162 272.738 170.395 272.588 170.593C272.438 170.79 272.232 170.944 271.994 171.036L260.606 177.269C260.024 177.551 259.373 177.678 258.722 177.637C258.071 177.596 257.443 177.389 256.906 177.038L249.328 171.555C249.107 171.433 248.926 171.255 248.806 171.041C248.686 170.827 248.631 170.586 248.647 170.344C248.663 170.102 248.75 169.869 248.897 169.672C249.045 169.474 249.248 169.319 249.483 169.224Z" fill="white"/>
<path d="M89.2882 103.503V95.7174C89.2804 93.7878 88.4669 91.9398 87.0258 90.578C85.5848 89.2162 83.6336 88.4516 81.5996 88.4517V96.2368C81.6074 98.1664 82.4209 100.014 83.862 101.376C85.303 102.738 87.2542 103.503 89.2882 103.503Z" fill="#263238"/>
<path d="M114.301 167.413L89.7251 155.57L91.9451 194.742L116.521 206.585L114.301 167.413Z" fill="#FF441F"/>
<path opacity="0.5" d="M114.301 167.413L89.7251 155.57L91.9451 194.742L116.521 206.585L114.301 167.413Z" fill="white"/>
<path d="M116.52 206.584L128.072 199.452L118.925 164.562L114.3 167.413L116.52 206.584Z" fill="#FF441F"/>
<path d="M128.072 199.452L120.228 198.891L116.521 206.585L128.072 199.452Z" fill="#FF441F"/>
<path opacity="0.3" d="M128.072 199.452L120.228 198.891L116.521 206.585L128.072 199.452Z" fill="black"/>
<path d="M120.228 198.89L114.152 164.801L114.3 167.413L116.52 206.584L120.228 198.89Z" fill="#FF441F"/>
<path opacity="0.1" d="M120.228 198.89L114.152 164.801L114.3 167.413L116.52 206.584L120.228 198.89Z" fill="black"/>
<path d="M89.7251 155.57L94.4907 155.332L94.3427 152.72L118.926 164.563L114.152 164.802L114.301 167.413L89.7251 155.57Z" fill="#FF441F"/>
<path d="M106.508 166.051C106.508 166.381 106.286 166.536 105.968 166.381C105.801 166.289 105.659 166.161 105.554 166.007C105.448 165.854 105.383 165.679 105.361 165.497C105.361 165.16 105.583 165.012 105.902 165.16C106.069 165.253 106.211 165.383 106.316 165.537C106.421 165.692 106.487 165.868 106.508 166.051Z" fill="#455A64"/>
<path d="M99.1602 162.569C99.1602 162.906 98.9382 163.06 98.62 162.906C98.4541 162.813 98.3131 162.684 98.2079 162.531C98.1027 162.377 98.0361 162.203 98.0132 162.021C98.0132 161.684 98.2352 161.537 98.5534 161.684C98.7208 161.776 98.8629 161.904 98.9684 162.058C99.0738 162.212 99.1395 162.387 99.1602 162.569Z" fill="#455A64"/>
<path d="M111 163.278C111 163.615 110.778 163.762 110.46 163.608C110.292 163.516 110.15 163.389 110.044 163.235C109.939 163.081 109.873 162.906 109.853 162.723C109.853 162.386 110.075 162.239 110.393 162.393C110.561 162.485 110.703 162.612 110.809 162.766C110.914 162.92 110.98 163.095 111 163.278Z" fill="#455A64"/>
<path d="M103.696 159.761C103.696 160.098 103.474 160.246 103.156 160.098C102.988 160.006 102.845 159.877 102.74 159.722C102.634 159.567 102.569 159.39 102.549 159.207C102.549 158.87 102.771 158.722 103.09 158.877C103.257 158.969 103.398 159.097 103.504 159.251C103.609 159.404 103.675 159.579 103.696 159.761Z" fill="#455A64"/>
<path d="M118.925 164.562L114.152 164.801L120.228 198.89L128.072 199.452L118.925 164.562Z" fill="#FF441F"/>
<path opacity="0.2" d="M118.925 164.562L114.152 164.801L120.228 198.89L128.072 199.452L118.925 164.562Z" fill="black"/>
<path d="M94.3428 152.72L94.4908 155.332L94.6388 157.943L95.8894 158.54L94.3428 152.72Z" fill="#FF441F"/>
<path opacity="0.2" d="M94.3428 152.72L94.4908 155.332L94.6388 157.943L95.8894 158.54L94.3428 152.72Z" fill="black"/>
<path d="M83.2944 94.8402C86.6096 94.6717 93.3214 94.9385 95.7782 103.966C97.8502 111.548 103.452 128.143 104.91 135.514C106.02 141.13 107.544 145.061 107.766 148.978C107.352 150.993 105.657 153.19 100.995 153.892C96.5552 152.776 97.3322 152.081 97.0214 148.347C96.7106 144.612 98.7382 143.545 98.0944 139.115C96.7476 129.814 87.9712 110.432 87.9712 110.432L83.2944 94.8402Z" fill="#B16668"/>
<path d="M110.423 163.334C110.344 163.333 110.267 163.307 110.206 163.26C110.144 163.213 110.101 163.148 110.082 163.075C110.082 163.025 108.987 158.469 107.766 155.016C106.804 152.299 104.688 151.688 102.83 151.148C102.416 151.028 102.024 150.916 101.669 150.79C101.583 150.755 101.514 150.691 101.477 150.61C101.44 150.529 101.437 150.437 101.469 150.354C101.485 150.313 101.51 150.275 101.542 150.242C101.574 150.21 101.613 150.184 101.655 150.166C101.698 150.147 101.744 150.137 101.791 150.136C101.837 150.135 101.884 150.142 101.928 150.158C102.268 150.284 102.668 150.389 103.038 150.509C104.962 151.063 107.359 151.758 108.44 154.805C109.668 158.315 110.763 162.878 110.771 162.927C110.782 162.97 110.783 163.015 110.776 163.058C110.768 163.102 110.751 163.143 110.727 163.181C110.702 163.218 110.669 163.25 110.631 163.275C110.593 163.3 110.55 163.318 110.504 163.327L110.423 163.334Z" fill="#263238"/>
<path d="M104.666 145.061C103.936 146.366 103.391 147.756 103.045 149.196C102.927 149.975 101.565 149.365 101.291 148.354C101.073 146.741 100.979 145.115 101.01 143.489C101.01 143.489 100.374 146.599 100.722 148.08C101.069 149.561 101.462 149.856 102.601 150.186C103.741 150.516 103.563 149.561 103.83 148.326C104.096 147.09 104.666 145.061 104.666 145.061Z" fill="#9A4A4D"/>
<path d="M105.517 165.595L105.006 156.546C104.902 154.552 104.777 152.285 101.232 150.558C99.9889 149.954 99.0712 149.779 98.6346 150.073C98.198 150.368 98.3091 151.098 98.3091 151.105L98.9381 162.211C98.9258 162.291 98.8835 162.364 98.8189 162.417C98.7544 162.47 98.6719 162.499 98.5866 162.499C98.5012 162.499 98.4187 162.47 98.3542 162.417C98.2896 162.364 98.2473 162.291 98.2351 162.211L97.6061 151.141C97.5579 150.84 97.5888 150.533 97.696 150.246C97.8031 149.96 97.9832 149.702 98.2203 149.498C98.9085 149.027 100.004 149.168 101.558 149.926C105.465 151.835 105.605 154.405 105.709 156.476L106.227 165.51C106.231 165.601 106.198 165.689 106.134 165.755C106.07 165.822 105.982 165.863 105.887 165.868C105.8 165.873 105.715 165.848 105.647 165.798C105.579 165.747 105.533 165.675 105.517 165.595Z" fill="#263238"/>
<path d="M103.119 159.719C103.04 159.718 102.963 159.692 102.902 159.645C102.84 159.598 102.797 159.532 102.778 159.459L101.202 152.692C101.192 152.649 101.192 152.604 101.2 152.56C101.209 152.517 101.226 152.475 101.252 152.438C101.277 152.401 101.31 152.369 101.348 152.344C101.387 152.319 101.43 152.301 101.476 152.292C101.568 152.275 101.663 152.293 101.742 152.341C101.821 152.39 101.877 152.465 101.898 152.552L103.467 159.312C103.477 159.355 103.479 159.399 103.472 159.443C103.464 159.486 103.447 159.528 103.423 159.565C103.398 159.603 103.365 159.635 103.327 159.66C103.289 159.685 103.246 159.703 103.2 159.712L103.119 159.719Z" fill="#263238"/>
<path d="M100.729 150.333C99.3893 149.561 96.7845 148.431 96.1777 149.119C95.5709 149.806 94.7939 152.629 97.8131 153.625C99.8251 154.157 101.972 153.982 103.859 153.134L100.729 150.333Z" fill="#9A4A4D"/>
<path d="M78.44 90.2069H75.5466C71.6214 90.2069 67.8569 88.7277 65.0814 86.0947C62.3059 83.4617 60.7466 79.8905 60.7466 76.1669C60.7466 72.1919 62.4111 68.3797 65.374 65.569C68.3369 62.7583 72.3554 61.1792 76.5456 61.1792H77.4706C81.653 61.1866 85.6617 62.767 88.6178 65.5739C91.5739 68.3808 93.2361 72.1852 93.24 76.1529C93.2419 77.9978 92.8606 79.825 92.1177 81.53C91.3748 83.2351 90.2849 84.7845 88.9104 86.0897C87.5359 87.3949 85.9037 88.4304 84.1071 89.1368C82.3105 89.8433 80.3848 90.2069 78.44 90.2069Z" fill="#263238"/>
<path d="M62.7966 65.1243C63.3496 65.2294 63.8361 65.5382 64.1496 65.9829C64.463 66.4277 64.5779 66.9722 64.469 67.4971L60.2954 66.6898C60.4112 66.1691 60.7388 65.7127 61.207 65.4197C61.6753 65.1266 62.2464 65.0205 62.7966 65.1243Z" fill="#263238"/>
<path d="M65.5196 64.2682C65.6063 64.5198 65.6398 64.7852 65.6182 65.0492C65.5966 65.3131 65.5205 65.5705 65.394 65.8065C65.2676 66.0425 65.0933 66.2525 64.8812 66.4246C64.6692 66.5967 64.4234 66.7275 64.158 66.8094L62.8408 62.9695C63.1066 62.8874 63.3868 62.856 63.6654 62.8769C63.944 62.8978 64.2155 62.9707 64.4644 63.0913C64.7133 63.212 64.9346 63.378 65.1157 63.58C65.2967 63.7819 65.434 64.0158 65.5196 64.2682Z" fill="#263238"/>
<path d="M86.3952 249.21C85.4258 248.508 84.3306 247.848 83.4796 247.104C81.5926 245.468 81.0154 241.326 80.8748 239.929C80.7305 238.74 80.7181 237.54 80.8378 236.349C81.2152 233.541 83.3908 227.371 83.3908 227.371C83.3908 227.371 76.383 222.997 76.2794 223.053C76.1758 223.109 75.014 231.091 73.867 232.397C72.4758 233.555 71.2844 233.878 70.5 235.408C69.8118 237.297 70.093 238.315 71.1512 240.28C71.9335 241.983 72.5142 243.763 72.8828 245.587C73.4822 247.89 73.2306 251.66 79.2616 252.811C82.4584 253.422 84.671 253.015 86.1954 252.369C87.9122 251.646 87.8974 250.284 86.3952 249.21Z" fill="#B16668"/>
<path d="M70.5 235.416C69.8118 237.304 70.093 238.322 71.1512 240.288C71.9335 241.99 72.5142 243.77 72.8828 245.595C73.4822 247.897 73.2306 251.667 79.2616 252.818C82.4584 253.429 84.671 253.022 86.1954 252.376C87.9122 251.674 87.8974 250.27 86.3952 249.21C85.6552 248.662 84.7968 248.136 84.0642 247.574C84.8634 248.936 81.0228 249.259 78.8102 248.003C76.5976 246.746 73.8374 237.894 73.5636 235.914C73.3977 234.737 73.5012 233.54 73.867 232.404C73.9484 232.299 74.052 232.144 74.052 232.144C74.052 232.144 73.8152 232.053 73.5636 232.236C72.2855 233.044 71.2341 234.136 70.5 235.416Z" fill="#263238"/>
<path d="M93.7878 134.208C94.8682 145.44 98.1389 183.966 97.2583 191.224C96.8661 194.517 82.155 231.161 82.155 231.161C82.155 231.161 78.566 232.207 75.1842 228.571C76.9306 212.818 78.603 195.942 82.229 190.712C81.5408 185.293 74.4146 158.294 74.4146 158.294L93.7878 134.208Z" fill="#37474F"/>
<path d="M67.2438 243.706V242.716C67.6582 243.875 69.5748 248.887 72.4756 251.393C74.777 253.394 77.922 255.696 78.7212 257.922C79.5204 260.147 74.3478 261.011 72.1944 260.646C69.6858 260.231 66.452 258.884 64.6908 256.827C63.4476 255.381 62.6558 253.668 61.7752 252.53C60.8946 251.393 58.8152 250.13 58.3712 248.817C58.1048 248.115 58.423 246.507 58.7856 245.173C59.1482 243.84 59.5256 242.597 59.94 242.716V243.468C60.4654 244.029 61.938 244.584 63.5882 244.64C64.6612 244.682 67.2586 244.478 67.2438 243.706Z" fill="#263238"/>
<path d="M74.5623 253.148C73.8223 252.544 73.1267 251.955 72.4755 251.386C70.4479 249.638 68.9013 246.662 68.0355 244.633C67.5397 243.474 67.2883 242.234 67.2955 240.983V237.03H59.9399V243.461V243.629C60.2877 245.068 63.6399 248.901 65.5491 251.4C66.8293 253.078 69.2491 255.205 72.1573 255.577C74.9397 255.949 76.3457 255.128 74.5623 253.148Z" fill="#B16668"/>
<path d="M61.42 135.928C55.7516 147.673 61.6272 189.034 61.6272 189.034C61.457 190.944 59.1556 194.693 58.3046 203.074C57.2908 212.98 59.8882 237.866 59.8882 237.866C61.0041 238.482 62.2622 238.829 63.5523 238.876C64.8424 238.924 66.1252 238.671 67.2882 238.139C67.2882 238.139 74.259 200.667 75.5688 190.817C76.7084 182.218 79.846 155.767 79.846 155.767L93.832 134.201L61.42 135.928Z" fill="#37474F"/>
<path d="M73.4746 94.9803L65.86 95.3243C64.8166 95.6332 62.012 98.1323 60.9094 101.958C60.1198 105.108 60.297 108.406 61.42 111.463L66.4816 125.356C66.4816 125.356 64.1136 130.796 61.3608 135.928C74.0666 142.66 89.9322 139.122 93.758 134.208C93.9134 133.169 93.6988 128.473 94.0022 123.138C94.3352 117.437 95.1566 111.007 94.2168 107.49C92.463 100.954 89.1774 94.8188 82.6432 94.8188L73.4746 94.9803Z" fill="#FF441F"/>
<path d="M87.8822 67.3921C89.599 68.3538 91.7228 72.4535 91.5156 81.046C91.338 88.3257 88.8442 90.1228 87.601 90.6423C86.3578 91.1618 83.938 90.8459 81.5996 90.4739V94.8473C81.5996 94.8473 84.8334 98.4135 84.6336 100.414C84.4338 102.415 79.9568 102.892 76.9302 100.934C74.9654 99.6028 73.279 97.9364 71.9574 96.0196V86.3461C71.27 86.5786 70.5345 86.654 69.8106 86.5662C69.0867 86.4784 68.3948 86.2298 67.7912 85.8406C65.1864 84.2401 65.1198 80.1615 66.5998 78.7153C68.0798 77.2692 71.3432 77.7255 71.95 79.7262C71.95 79.7262 75.687 79.8526 80.6598 77.2622C82.5974 76.2721 84.2613 74.8622 85.5163 73.1472C86.7713 71.4321 87.5819 69.4603 87.8822 67.3921Z" fill="#B16668"/>
<path d="M83.2722 79.3259C83.2749 79.5066 83.2215 79.6839 83.1186 79.8359C83.0157 79.9879 82.8679 80.1078 82.6936 80.1806C82.5193 80.2534 82.3263 80.2759 82.1387 80.2453C81.951 80.2147 81.777 80.1324 81.6383 80.0085C81.4997 79.8847 81.4026 79.7249 81.3591 79.549C81.3156 79.3731 81.3277 79.189 81.3938 79.0196C81.46 78.8502 81.5772 78.703 81.731 78.5965C81.8847 78.4899 82.0682 78.4286 82.2584 78.4204C82.3877 78.4166 82.5164 78.4371 82.6374 78.4806C82.7583 78.5241 82.869 78.5897 82.9631 78.6738C83.0573 78.7579 83.133 78.8588 83.1861 78.9707C83.2391 79.0826 83.2684 79.2033 83.2722 79.3259Z" fill="#263238"/>
<path d="M83.1981 85.4053L85.4181 86.1073C85.3785 86.2524 85.3079 86.3882 85.2107 86.5064C85.1135 86.6246 84.9918 86.7226 84.853 86.7943C84.7143 86.866 84.5615 86.91 84.4041 86.9234C84.2467 86.9369 84.0881 86.9195 83.9381 86.8725C83.6387 86.7662 83.3943 86.554 83.2563 86.2804C83.1183 86.0068 83.0974 85.6931 83.1981 85.4053Z" fill="#9A4A4D"/>
<path d="M90.8574 76.4194L88.9038 75.1137C88.9855 74.9889 89.0931 74.8813 89.2201 74.7973C89.3471 74.7133 89.4908 74.6547 89.6425 74.6252C89.7942 74.5956 89.9506 74.5957 90.1022 74.6253C90.2538 74.655 90.3975 74.7137 90.5244 74.7978C90.7912 74.974 90.9752 75.2419 91.0373 75.5446C91.0995 75.8473 91.035 76.1611 90.8574 76.4194Z" fill="#263238"/>
<path d="M90.5759 79.1715C90.5786 79.3521 90.5252 79.5295 90.4223 79.6815C90.3194 79.8335 90.1716 79.9533 89.9973 80.0261C89.823 80.099 89.63 80.1215 89.4424 80.0909C89.2547 80.0602 89.0807 79.9779 88.9421 79.8541C88.8034 79.7302 88.7063 79.5704 88.6628 79.3945C88.6193 79.2187 88.6314 79.0345 88.6976 78.8651C88.7637 78.6957 88.881 78.5486 89.0347 78.442C89.1885 78.3354 89.3719 78.2742 89.5621 78.2659C89.8226 78.2602 90.075 78.352 90.2648 78.5215C90.4545 78.6909 90.5663 78.9244 90.5759 79.1715Z" fill="#263238"/>
<path d="M85.855 78.041L86.0104 83.5587L89.0666 82.6602L85.855 78.041Z" fill="#9A4A4D"/>
<path d="M81.5996 90.4878C79.128 90.1859 74.0516 88.796 73.2598 86.8936C73.5769 87.8578 74.1997 88.706 75.0432 89.3225C76.5232 90.558 81.5996 91.948 81.5996 91.948V90.4878Z" fill="#9A4A4D"/>
<path d="M80.0604 180.596L77.8848 171.765L79.8014 155.774C79.8014 155.774 85.8324 153.619 89.0292 149.189C87.6051 152.417 85.2281 155.187 82.1842 157.164L78.8986 171.723L80.0604 180.596Z" fill="#263238"/>
<path d="M74.2592 163.404L47.8042 148.915L42.5132 191.175L68.9682 205.665L74.2592 163.404Z" fill="#FF441F"/>
<path opacity="0.5" d="M74.2592 163.404L47.8042 148.915L42.5132 191.175L68.9682 205.665L74.2592 163.404Z" fill="white"/>
<path d="M82.1916 198.42L74.2588 196.967L68.9678 205.665L82.1916 198.42Z" fill="#FF441F"/>
<path opacity="0.3" d="M82.1916 198.42L74.2588 196.967L68.9678 205.665L82.1916 198.42Z" fill="black"/>
<path d="M74.2588 196.967L76.9006 159.059L74.2588 163.404L68.9678 205.665L74.2588 196.967Z" fill="#FF441F"/>
<path opacity="0.1" d="M74.2588 196.967L76.9006 159.059L74.2588 163.404L68.9678 205.665L74.2588 196.967Z" fill="black"/>
<path d="M47.8042 148.915L55.737 147.469V144.57L82.192 159.059H76.901L74.2592 163.404L47.8042 148.915Z" fill="#FF441F"/>
<path d="M64.5429 162.99C64.5429 163.362 64.2617 163.51 63.9213 163.327C63.7424 163.215 63.5936 163.064 63.487 162.887C63.3803 162.711 63.3187 162.513 63.3071 162.309C63.3071 161.937 63.5809 161.783 63.9213 161.972C64.1021 162.084 64.2526 162.234 64.3606 162.411C64.4686 162.588 64.5311 162.786 64.5429 162.99Z" fill="#455A64"/>
<path d="M56.7876 158.315C56.7876 158.694 56.5138 158.841 56.166 158.659C55.987 158.546 55.8382 158.396 55.7316 158.219C55.625 158.042 55.5634 157.844 55.5518 157.641C55.5518 157.269 55.8256 157.114 56.166 157.304C56.3474 157.413 56.4986 157.561 56.6067 157.737C56.7149 157.913 56.7769 158.111 56.7876 158.315Z" fill="#455A64"/>
<path d="M72.7568 157.95C72.7568 158.322 72.483 158.476 72.1426 158.287C71.9624 158.177 71.8122 158.028 71.7042 157.852C71.5962 157.676 71.5334 157.479 71.521 157.276C71.521 156.897 71.8022 156.749 72.1426 156.932C72.3216 157.044 72.4703 157.195 72.5769 157.372C72.6836 157.549 72.7452 157.746 72.7568 157.95Z" fill="#455A64"/>
<path d="M64.913 153.794C64.913 154.166 64.6318 154.321 64.2914 154.131C64.1122 154.021 63.9631 153.871 63.8564 153.696C63.7496 153.52 63.6882 153.323 63.6772 153.12C63.6772 152.748 63.951 152.594 64.2914 152.783C64.4716 152.894 64.6218 153.043 64.7299 153.218C64.8379 153.394 64.9006 153.591 64.913 153.794Z" fill="#455A64"/>
<path d="M82.1916 159.059H76.9006L74.2588 196.967L82.1916 198.42V159.059Z" fill="#FF441F"/>
<path d="M55.737 147.469V153.261L47.8042 148.915L55.737 147.469Z" fill="#FF441F"/>
<path opacity="0.2" d="M82.1916 159.059H76.9006L74.2588 196.967L82.1916 198.42V159.059Z" fill="black"/>
<path opacity="0.2" d="M55.737 147.469V153.261L47.8042 148.915L55.737 147.469Z" fill="black"/>
<path d="M56.1659 158.202C56.1196 158.212 56.0715 158.212 56.0253 158.202C55.936 158.164 55.8656 158.094 55.8285 158.008C55.7913 157.922 55.7902 157.826 55.8255 157.739L62.5595 142.625C62.5986 142.539 62.6717 142.471 62.7629 142.436C62.8542 142.4 62.9565 142.4 63.0479 142.435C63.1371 142.474 63.2075 142.543 63.2447 142.63C63.2818 142.716 63.2829 142.812 63.2477 142.899L56.5137 158.013C56.4797 158.072 56.4292 158.121 56.3678 158.154C56.3065 158.187 56.2366 158.204 56.1659 158.202Z" fill="#263238"/>
<path d="M64.2914 153.738C64.1933 153.738 64.0991 153.701 64.0298 153.635C63.9604 153.569 63.9214 153.48 63.9214 153.387V142.927C63.9214 142.834 63.9604 142.745 64.0298 142.679C64.0991 142.613 64.1933 142.576 64.2914 142.576C64.3895 142.576 64.4836 142.613 64.553 142.679C64.6224 142.745 64.6614 142.834 64.6614 142.927V153.394C64.6594 153.486 64.6196 153.573 64.5504 153.638C64.4813 153.702 64.3882 153.738 64.2914 153.738Z" fill="#263238"/>
<path d="M51.8 126.697L62.0638 113.071C63.6985 111.503 64.9293 109.598 65.6602 107.504C67.451 102.12 67.7322 98.9611 65.8526 95.3247C61.679 95.3247 59.237 95.7249 54.4936 103.342C50.6234 109.554 44.8736 120.147 43.4676 122.436C41.7138 125.244 41.2032 126.023 42.7276 128.803C44.252 131.583 49.9944 138.722 54.8266 144.093C59.6588 149.463 62.4856 151.274 66.0968 152.067C69.708 152.861 71.3212 152.194 73.3562 150.418C75.3912 148.642 73.9556 147.062 72.0612 146.648C70.2643 146.28 68.5505 145.612 66.9996 144.675C65.8526 143.889 65.5196 143.271 66.563 143.229C67.9394 143.173 69.227 142.913 69.5822 142.001C70.0262 140.856 68.8866 141.165 67.3104 140.702C65.2741 140.115 63.1781 139.734 61.0574 139.565C58.46 139.698 51.8 126.697 51.8 126.697Z" fill="#B16668"/>
<path d="M70.944 88.3467H71.9578V97.4727C71.9578 99.2396 71.2179 100.934 69.9009 102.183C68.5839 103.433 66.7977 104.135 64.9352 104.135H63.9214V95.0087C63.9214 93.2418 64.6613 91.5473 65.9783 90.2979C67.2953 89.0486 69.0815 88.3467 70.944 88.3467Z" fill="#263238"/>
<path d="M71.7802 157.515V149.589C71.7802 148.431 71.4176 146.584 70.4186 146.24C70.3716 146.226 70.3282 146.202 70.291 146.171C70.2537 146.14 70.2234 146.103 70.2018 146.061C70.1802 146.018 70.1677 145.973 70.1651 145.926C70.1625 145.879 70.1698 145.832 70.1866 145.788C70.2034 145.744 70.2294 145.703 70.263 145.669C70.2966 145.634 70.3372 145.607 70.3823 145.587C70.4273 145.568 70.4761 145.557 70.5255 145.556C70.575 145.555 70.6242 145.563 70.6702 145.581C72.4684 146.205 72.5202 149.245 72.5202 149.589V157.515C72.5202 157.608 72.4812 157.697 72.4118 157.763C72.3424 157.829 72.2483 157.866 72.1502 157.866C72.0521 157.866 71.9579 157.829 71.8886 157.763C71.8192 157.697 71.7802 157.608 71.7802 157.515Z" fill="#263238"/>
<path d="M64.0174 162.955C63.9708 162.962 63.9234 162.962 63.8768 162.955C63.8313 162.938 63.79 162.912 63.7553 162.879C63.7206 162.846 63.6931 162.807 63.6745 162.763C63.6559 162.72 63.6466 162.674 63.647 162.628C63.6474 162.581 63.6576 162.535 63.677 162.492C63.677 162.45 65.49 158.406 67.6286 152.608C69.708 146.992 68.9754 145.869 68.561 145.658C68.5181 145.636 68.4803 145.606 68.4497 145.57C68.419 145.534 68.3962 145.493 68.3824 145.449C68.3687 145.404 68.3643 145.358 68.3695 145.312C68.3748 145.266 68.3895 145.221 68.413 145.181C68.4613 145.1 68.5408 145.04 68.6347 145.014C68.7286 144.988 68.8295 144.997 68.9162 145.04C70.226 145.742 70.041 148.192 68.3316 152.84C66.1856 158.652 64.38 162.703 64.38 162.745C64.3506 162.812 64.2997 162.868 64.2346 162.906C64.1695 162.944 64.0935 162.961 64.0174 162.955Z" fill="#263238"/>
</svg>
