<svg width="370" height="351" viewBox="0 0 370 351" fill="none" xmlns="http://www.w3.org/2000/svg">
<path d="M370 268.445H0V268.62H370V268.445Z" fill="#EBEBEB"/>
<path d="M332.926 279.74H308.417V279.915H332.926V279.74Z" fill="#EBEBEB"/>
<path d="M245.103 281.649H238.672V281.825H245.103V281.649Z" fill="#EBEBEB"/>
<path d="M307.677 273.225H293.477V273.401H307.677V273.225Z" fill="#EBEBEB"/>
<path d="M70.7809 274.405H38.8203V274.58H70.7809V274.405Z" fill="#EBEBEB"/>
<path d="M82.0587 274.405H77.3745V274.58H82.0587V274.405Z" fill="#EBEBEB"/>
<path d="M166.611 277.367H97.2876V277.543H166.611V277.367Z" fill="#EBEBEB"/>
<path d="M175.38 237.135H32.4934C31.374 237.134 30.3012 236.71 29.5104 235.959C28.7195 235.207 28.2754 234.189 28.2754 233.127V42.5832C28.2851 41.5274 28.7336 40.5179 29.5234 39.7739C30.3131 39.03 31.3804 38.6117 32.4934 38.6099H175.38C176.501 38.6099 177.575 39.0322 178.368 39.7839C179.16 40.5356 179.605 41.5552 179.605 42.6183V233.127C179.605 234.19 179.16 235.21 178.368 235.961C177.575 236.713 176.501 237.135 175.38 237.135ZM32.4934 38.7503C31.4231 38.7521 30.3973 39.1568 29.6412 39.8754C28.8851 40.594 28.4604 41.5678 28.4604 42.5832V233.127C28.4604 234.142 28.8851 235.116 29.6412 235.835C30.3973 236.553 31.4231 236.958 32.4934 236.96H175.38C176.451 236.958 177.478 236.554 178.235 235.835C178.992 235.117 179.418 234.143 179.42 233.127V42.5832C179.418 41.5672 178.992 40.5934 178.235 39.8749C177.478 39.1565 176.451 38.7521 175.38 38.7503H32.4934Z" fill="#EBEBEB"/>
<path d="M335.449 237.135H192.555C191.435 237.134 190.362 236.711 189.57 235.959C188.778 235.208 188.332 234.19 188.33 233.127V42.5832C188.342 41.5268 188.792 40.5173 189.583 39.7735C190.374 39.0297 191.442 38.6117 192.555 38.6099H335.449C336.561 38.6135 337.627 39.0326 338.415 39.7764C339.203 40.5202 339.65 41.5286 339.66 42.5832V233.127C339.66 234.188 339.217 235.205 338.428 235.956C337.639 236.708 336.568 237.132 335.449 237.135ZM192.555 38.7503C191.484 38.7521 190.458 39.1565 189.701 39.8749C188.943 40.5934 188.517 41.5672 188.515 42.5832V233.127C188.517 234.143 188.943 235.117 189.701 235.835C190.458 236.554 191.484 236.958 192.555 236.96H335.449C336.52 236.958 337.547 236.554 338.304 235.835C339.062 235.117 339.488 234.143 339.49 233.127V42.5832C339.488 41.5672 339.062 40.5934 338.304 39.8749C337.547 39.1565 336.52 38.7521 335.449 38.7503H192.555Z" fill="#EBEBEB"/>
<path d="M150.235 215.514H72.9639V260.715H150.235V215.514Z" fill="#E6E6E6"/>
<path d="M111.007 217.627H79.0986V240.842H111.007V217.627Z" fill="#F0F0F0"/>
<path d="M144.108 217.627H112.199V240.842H144.108V217.627Z" fill="#F0F0F0"/>
<path d="M72.9641 219.831C72.1097 219.83 71.291 219.506 70.6875 218.932C70.084 218.359 69.7451 217.581 69.7451 216.771V213.71H76.2201V216.771C76.2201 217.175 76.1357 217.575 75.9717 217.949C75.8077 218.322 75.5674 218.66 75.2647 218.945C74.9619 219.23 74.6028 219.454 74.2079 219.607C73.813 219.759 73.3903 219.835 72.9641 219.831Z" fill="#E0E0E0"/>
<path d="M76.1754 213.71H82.6208V216.771C82.6208 217.582 82.2808 218.361 81.6758 218.935C81.0707 219.509 80.2501 219.831 79.3944 219.831C78.5387 219.831 77.718 219.509 77.113 218.935C76.5079 218.361 76.168 217.582 76.168 216.771V213.71H76.1754Z" fill="#FAFAFA"/>
<path d="M85.8402 219.831C84.9845 219.831 84.1638 219.509 83.5588 218.935C82.9537 218.361 82.6138 217.582 82.6138 216.771V213.71H89.0592V216.771C89.0592 217.581 88.7203 218.359 88.1168 218.932C87.5133 219.506 86.6946 219.83 85.8402 219.831Z" fill="#E0E0E0"/>
<path d="M92.2782 219.831C91.4225 219.831 90.6018 219.509 89.9967 218.935C89.3917 218.361 89.0518 217.582 89.0518 216.771V213.71H95.4972V216.771C95.4972 217.581 95.1583 218.359 94.5548 218.932C93.9513 219.506 93.1326 219.83 92.2782 219.831Z" fill="#FAFAFA"/>
<path d="M98.7235 219.831C98.2998 219.831 97.8802 219.752 97.4888 219.598C97.0973 219.445 96.7417 219.219 96.4421 218.935C96.1425 218.651 95.9048 218.313 95.7427 217.942C95.5805 217.571 95.4971 217.173 95.4971 216.771V213.71H101.95V216.771C101.95 217.582 101.61 218.361 101.005 218.935C100.4 219.509 99.5792 219.831 98.7235 219.831Z" fill="#E0E0E0"/>
<path d="M105.154 219.831C104.3 219.83 103.481 219.506 102.877 218.932C102.274 218.359 101.935 217.581 101.935 216.771V213.71H108.38V216.771C108.38 217.173 108.297 217.571 108.135 217.942C107.973 218.313 107.735 218.651 107.435 218.935C107.136 219.219 106.78 219.445 106.389 219.598C105.997 219.752 105.578 219.831 105.154 219.831Z" fill="#FAFAFA"/>
<path d="M111.599 219.831C110.745 219.83 109.926 219.506 109.323 218.932C108.719 218.359 108.38 217.581 108.38 216.771V213.71H114.826V216.771C114.826 217.582 114.486 218.361 113.881 218.935C113.276 219.509 112.455 219.831 111.599 219.831Z" fill="#E0E0E0"/>
<path d="M118.037 219.831C117.182 219.831 116.361 219.509 115.756 218.935C115.151 218.361 114.811 217.582 114.811 216.771V213.71H121.256V216.771C121.256 217.581 120.918 218.359 120.314 218.932C119.711 219.506 118.892 219.83 118.037 219.831Z" fill="#FAFAFA"/>
<path d="M124.483 219.831C124.059 219.831 123.64 219.752 123.248 219.598C122.857 219.445 122.501 219.219 122.201 218.935C121.902 218.651 121.664 218.313 121.502 217.942C121.34 217.571 121.256 217.173 121.256 216.771V213.71H127.702V216.771C127.702 217.581 127.363 218.359 126.759 218.932C126.156 219.506 125.337 219.83 124.483 219.831Z" fill="#E0E0E0"/>
<path d="M130.913 219.831C130.49 219.831 130.07 219.752 129.679 219.598C129.287 219.445 128.932 219.219 128.632 218.935C128.332 218.651 128.095 218.313 127.933 217.942C127.77 217.571 127.687 217.173 127.687 216.771V213.71H134.14V216.771C134.14 217.582 133.8 218.361 133.195 218.935C132.59 219.509 131.769 219.831 130.913 219.831Z" fill="#FAFAFA"/>
<path d="M137.359 219.831C136.504 219.83 135.685 219.506 135.082 218.932C134.479 218.359 134.14 217.581 134.14 216.771V213.71H140.6V216.771C140.6 217.174 140.516 217.573 140.353 217.945C140.19 218.317 139.951 218.656 139.65 218.94C139.348 219.224 138.991 219.449 138.598 219.602C138.205 219.755 137.784 219.833 137.359 219.831Z" fill="#E0E0E0"/>
<path d="M150.22 219.831C149.364 219.831 148.544 219.509 147.939 218.935C147.334 218.361 146.994 217.582 146.994 216.771V213.71H153.439V216.771C153.439 217.581 153.1 218.359 152.497 218.932C151.893 219.506 151.074 219.83 150.22 219.831Z" fill="#E0E0E0"/>
<path d="M143.789 219.831C142.935 219.83 142.116 219.506 141.513 218.932C140.909 218.359 140.57 217.581 140.57 216.771V213.71H147.016V216.771C147.016 217.582 146.676 218.361 146.071 218.935C145.466 219.509 144.645 219.831 143.789 219.831Z" fill="#FAFAFA"/>
<path d="M147.659 238.799H75.5464V242.878H147.659V238.799Z" fill="#E0E0E0"/>
<path d="M76.1905 197.269L69.7451 213.71H76.1905L81.6443 197.269H76.1905Z" fill="#E0E0E0"/>
<path d="M81.6296 197.269L76.1758 213.71H82.6212L87.0834 197.269H81.6296Z" fill="#FAFAFA"/>
<path d="M87.0833 197.269L82.6211 213.71H89.0665L92.5371 197.269H87.0833Z" fill="#E0E0E0"/>
<path d="M92.5224 197.269L89.0518 213.71H95.5046L97.9836 197.269H92.5224Z" fill="#FAFAFA"/>
<path d="M97.9834 197.269L95.5044 213.71H101.95L103.437 197.269H97.9834Z" fill="#E0E0E0"/>
<path d="M103.422 197.269L101.935 213.71H108.38L108.876 197.269H103.422Z" fill="#FAFAFA"/>
<path d="M108.876 197.269L108.38 213.71H114.826L114.33 197.269H108.876Z" fill="#E0E0E0"/>
<path d="M114.315 197.269L114.811 213.71H121.257L119.769 197.269H114.315Z" fill="#FAFAFA"/>
<path d="M119.769 197.269L121.256 213.71H127.702L125.223 197.269H119.769Z" fill="#E0E0E0"/>
<path d="M125.215 197.269L127.694 213.71H134.14L130.669 197.269H125.215Z" fill="#FAFAFA"/>
<path d="M130.669 197.269L134.14 213.71H140.585L136.123 197.269H130.669Z" fill="#E0E0E0"/>
<path d="M141.562 197.269L147.016 213.71H153.461L147.016 197.269H141.562Z" fill="#E0E0E0"/>
<path d="M136.108 197.269L140.571 213.71H147.016L141.562 197.269H136.108Z" fill="#FAFAFA"/>
<path d="M127.694 190.937H95.5044V207.266H127.694V190.937Z" fill="#EBEBEB"/>
<path d="M98.1534 193.148V194.938H101.15V195.858H98.1534V198.118H96.999V192.222H101.535V193.141L98.1534 193.148Z" fill="#FAFAFA"/>
<path d="M106.723 198.126L105.45 196.399H103.807V198.118H102.653V192.222H105.213C106.841 192.222 107.855 193.015 107.855 194.328C107.872 194.73 107.754 195.128 107.517 195.462C107.28 195.797 106.937 196.051 106.538 196.188L107.966 198.126H106.723ZM105.161 193.155H103.807V195.507H105.161C106.168 195.507 106.693 195.065 106.693 194.328C106.693 193.591 106.168 193.155 105.161 193.155Z" fill="#FAFAFA"/>
<path d="M113.804 197.206V198.125H109.15V192.229H113.679V193.148H110.304V194.679H113.301V195.577H110.304V197.206H113.804Z" fill="#FAFAFA"/>
<path d="M114.574 197.501L114.974 196.651C115.566 197.069 116.285 197.296 117.024 197.297C117.993 197.297 118.4 196.967 118.4 196.532C118.4 195.261 114.7 196.097 114.7 193.906C114.7 192.952 115.499 192.144 117.201 192.144C117.928 192.131 118.644 192.313 119.266 192.671L118.903 193.52C118.387 193.224 117.797 193.064 117.194 193.057C116.232 193.057 115.847 193.408 115.847 193.857C115.847 195.107 119.547 194.292 119.547 196.455C119.547 197.402 118.74 198.21 117.038 198.21C116.157 198.238 115.29 197.989 114.574 197.501Z" fill="#FAFAFA"/>
<path d="M126.199 192.229V198.125H125.06V195.598H121.848V198.125H120.694V192.229H121.848V194.664H125.06V192.229H126.199Z" fill="#FAFAFA"/>
<path d="M99.6559 200.351V202.176H102.653V203.103H99.6559V205.363H98.5015V199.466H103.038V200.386L99.6559 200.351Z" fill="#FAFAFA"/>
<path d="M103.644 202.379C103.615 201.747 103.786 201.12 104.135 200.58C104.484 200.04 104.995 199.612 105.603 199.35C106.211 199.088 106.888 199.005 107.546 199.111C108.205 199.217 108.814 199.507 109.297 199.945C109.78 200.383 110.113 200.947 110.255 201.566C110.396 202.185 110.339 202.831 110.091 203.419C109.843 204.007 109.415 204.511 108.862 204.866C108.309 205.221 107.657 205.411 106.989 205.412C106.557 205.433 106.124 205.37 105.718 205.227C105.312 205.084 104.941 204.863 104.628 204.58C104.315 204.296 104.066 203.954 103.897 203.576C103.728 203.197 103.642 202.79 103.644 202.379ZM109.172 202.379C109.18 201.96 109.055 201.548 108.814 201.196C108.572 200.845 108.226 200.569 107.819 200.406C107.412 200.242 106.962 200.197 106.528 200.277C106.094 200.357 105.695 200.559 105.383 200.855C105.07 201.152 104.858 201.53 104.773 201.942C104.689 202.354 104.736 202.78 104.909 203.167C105.081 203.553 105.371 203.881 105.742 204.11C106.113 204.339 106.547 204.457 106.989 204.45C107.278 204.459 107.566 204.411 107.835 204.311C108.104 204.21 108.349 204.057 108.553 203.863C108.758 203.669 108.918 203.437 109.025 203.182C109.131 202.927 109.181 202.654 109.172 202.379Z" fill="#FAFAFA"/>
<path d="M111.119 202.379C111.089 201.747 111.26 201.12 111.609 200.58C111.958 200.04 112.469 199.612 113.077 199.35C113.685 199.088 114.362 199.005 115.02 199.111C115.679 199.217 116.288 199.507 116.771 199.945C117.254 200.383 117.587 200.947 117.729 201.566C117.87 202.185 117.813 202.831 117.565 203.419C117.317 204.007 116.889 204.511 116.336 204.866C115.783 205.221 115.131 205.411 114.463 205.412C114.031 205.433 113.598 205.37 113.192 205.227C112.786 205.084 112.415 204.863 112.102 204.58C111.789 204.296 111.54 203.954 111.371 203.576C111.202 203.197 111.116 202.79 111.119 202.379ZM116.646 202.379C116.646 201.97 116.518 201.569 116.278 201.229C116.039 200.888 115.698 200.623 115.299 200.466C114.9 200.309 114.461 200.268 114.037 200.348C113.614 200.428 113.225 200.625 112.92 200.915C112.614 201.205 112.406 201.574 112.322 201.975C112.238 202.377 112.281 202.793 112.446 203.172C112.612 203.55 112.892 203.874 113.25 204.101C113.609 204.329 114.032 204.45 114.463 204.45C114.752 204.459 115.04 204.411 115.31 204.311C115.579 204.21 115.823 204.057 116.028 203.863C116.232 203.669 116.393 203.437 116.499 203.182C116.605 202.927 116.656 202.654 116.646 202.379Z" fill="#FAFAFA"/>
<path d="M119.037 199.431H121.752C123.773 199.431 125.149 200.611 125.149 202.38C125.149 204.149 123.773 205.328 121.752 205.328H119.037V199.431ZM121.701 204.401C121.995 204.425 122.292 204.39 122.572 204.299C122.852 204.208 123.109 204.063 123.326 203.873C123.544 203.683 123.718 203.452 123.837 203.195C123.956 202.938 124.017 202.66 124.017 202.38C124.017 202.099 123.956 201.821 123.837 201.564C123.718 201.307 123.544 201.077 123.326 200.887C123.109 200.697 122.852 200.551 122.572 200.46C122.292 200.369 121.995 200.334 121.701 200.358H120.221V204.401H121.701Z" fill="#FAFAFA"/>
<path d="M326.251 258.189V267.806H40.6114V258.189C40.5894 257.804 40.6493 257.42 40.7875 257.058C40.9256 256.696 41.1392 256.365 41.4155 256.083C41.6918 255.801 42.0251 255.575 42.3955 255.418C42.7659 255.261 43.1658 255.177 43.5714 255.17H323.262C323.67 255.173 324.073 255.255 324.447 255.41C324.821 255.565 325.158 255.791 325.437 256.073C325.716 256.355 325.933 256.688 326.073 257.052C326.213 257.415 326.273 257.802 326.251 258.189Z" fill="#EBEBEB"/>
<path d="M74.6511 255.17H56.8911V267.806H74.6511V255.17Z" fill="#F5F5F5"/>
<path d="M107.951 255.17H90.9312V267.806H107.951V255.17Z" fill="#F5F5F5"/>
<path d="M141.991 255.17H124.231V267.806H141.991V255.17Z" fill="#F5F5F5"/>
<path d="M175.291 255.17H158.271V267.806H175.291V255.17Z" fill="#F5F5F5"/>
<path d="M208.591 255.17H191.571V267.806H208.591V255.17Z" fill="#F5F5F5"/>
<path d="M242.631 255.17H224.871V267.806H242.631V255.17Z" fill="#F5F5F5"/>
<path d="M275.931 255.17H258.911V267.806H275.931V255.17Z" fill="#F5F5F5"/>
<path d="M309.971 255.17H292.211V267.806H309.971V255.17Z" fill="#F5F5F5"/>
<path d="M102.378 102.689C112.871 98.5663 117.854 87.1544 113.508 77.2003C109.161 67.2461 97.1318 62.5192 86.6389 66.6423C76.1459 70.7654 71.163 82.1773 75.5094 92.1315C79.8557 102.086 91.8853 106.813 102.378 102.689Z" fill="#FAFAFA"/>
<path d="M83.8348 84.4506C83.835 83.9225 83.705 83.4016 83.4554 82.9295C83.2058 82.4574 82.8434 82.0471 82.397 81.7314C81.9506 81.4157 81.4327 81.2033 80.8845 81.1111C80.3363 81.0189 79.773 81.0495 79.2394 81.2004C79.3854 80.1859 79.3022 79.1535 78.9952 78.1719C78.6883 77.1903 78.1646 76.2818 77.4591 75.507C76.7536 74.7321 75.8823 74.1085 74.9032 73.6777C73.924 73.2468 72.8595 73.0186 71.7802 73.008C71.3108 73.007 70.8424 73.0493 70.3816 73.1344C69.6361 71.9701 68.5114 71.0675 67.1775 70.563C65.8436 70.0584 64.3728 69.9794 62.9874 70.3377C61.6019 70.696 60.3769 71.4722 59.4975 72.5492C58.6181 73.6261 58.1319 74.9453 58.1124 76.3074H58.0014C56.3842 76.3074 54.8333 76.9169 53.6898 78.0017C52.5462 79.0865 51.9038 80.5578 51.9038 82.0919C51.9038 83.6261 52.5462 85.0974 53.6898 86.1822C54.8333 87.267 56.3842 87.8764 58.0014 87.8764H80.3642C81.3011 87.8525 82.1905 87.4797 82.84 86.8386C83.4894 86.1975 83.8468 85.3397 83.8348 84.4506Z" fill="#F0F0F0"/>
<path d="M312.198 137.788C312.198 137.343 312.106 136.902 311.926 136.491C311.747 136.079 311.483 135.706 311.152 135.391C310.82 135.076 310.426 134.826 309.992 134.656C309.558 134.485 309.094 134.398 308.624 134.398C308.276 134.4 307.929 134.45 307.596 134.545C307.649 134.199 307.676 133.849 307.677 133.499C307.665 131.602 306.863 129.786 305.444 128.448C304.026 127.111 302.107 126.36 300.107 126.36C299.64 126.36 299.175 126.4 298.716 126.479C297.97 125.315 296.845 124.412 295.511 123.908C294.178 123.403 292.707 123.324 291.321 123.682C289.936 124.041 288.711 124.817 287.831 125.894C286.952 126.971 286.466 128.29 286.446 129.652H286.335C285.535 129.652 284.742 129.802 284.002 130.092C283.262 130.383 282.59 130.809 282.024 131.346C281.458 131.884 281.008 132.521 280.702 133.223C280.396 133.925 280.238 134.677 280.238 135.437C280.238 136.196 280.396 136.948 280.702 137.65C281.008 138.352 281.458 138.99 282.024 139.527C282.59 140.064 283.262 140.49 284.002 140.781C284.742 141.072 285.535 141.221 286.335 141.221H308.728C309.665 141.195 310.555 140.821 311.204 140.179C311.853 139.537 312.21 138.678 312.198 137.788Z" fill="#F0F0F0"/>
<path d="M192.4 97.276C192.401 96.4399 192.608 95.6156 193.004 94.8687C193.4 94.1219 193.975 93.4731 194.682 92.974C195.389 92.475 196.209 92.1395 197.077 91.9942C197.945 91.849 198.837 91.898 199.682 92.1373C199.598 91.591 199.556 91.0397 199.556 90.4876C199.553 88.816 199.939 87.1645 200.688 85.6511C201.436 84.1378 202.528 82.8 203.885 81.7335C205.241 80.667 206.83 79.8982 208.536 79.4819C210.243 79.0657 212.025 79.0124 213.756 79.3258C214.935 77.4822 216.714 76.0527 218.824 75.2533C220.935 74.454 223.263 74.3283 225.456 74.8953C227.648 75.4623 229.587 76.6912 230.978 78.3961C232.369 80.101 233.137 82.1893 233.167 84.3451H233.344C235.902 84.3451 238.356 85.3092 240.165 87.0253C241.974 88.7413 242.99 91.0688 242.99 93.4957C242.99 95.9226 241.974 98.2501 240.165 99.9661C238.356 101.682 235.902 102.646 233.344 102.646H197.92C196.442 102.615 195.036 102.035 194.004 101.031C192.972 100.027 192.396 98.6785 192.4 97.276Z" fill="#F0F0F0"/>
<path d="M90.8648 143.334C90.8636 142.327 91.1108 141.334 91.5868 140.434C92.0627 139.534 92.7541 138.752 93.6057 138.151C94.4572 137.55 95.4453 137.146 96.4907 136.972C97.5362 136.798 98.61 136.859 99.6264 137.149C99.5282 136.494 99.4787 135.832 99.4784 135.17C99.4784 131.544 100.996 128.067 103.698 125.503C106.4 122.938 110.064 121.497 113.886 121.495C114.778 121.495 115.667 121.575 116.543 121.734C117.954 119.505 120.095 117.775 122.638 116.807C125.181 115.838 127.988 115.684 130.632 116.367C133.276 117.05 135.612 118.534 137.286 120.592C138.96 122.651 139.879 125.171 139.905 127.771H140.112C143.191 127.771 146.144 128.931 148.322 130.997C150.499 133.062 151.722 135.864 151.722 138.785C151.722 141.706 150.499 144.508 148.322 146.573C146.144 148.639 143.191 149.799 140.112 149.799H97.473C95.7003 149.752 94.0174 149.049 92.783 147.842C91.5485 146.634 90.8602 145.016 90.8648 143.334Z" fill="#F0F0F0"/>
<path d="M128.686 94.6083C128.686 94.0498 128.452 93.5141 128.036 93.1192C127.619 92.7242 127.055 92.5023 126.466 92.5023C126.251 92.501 126.036 92.5294 125.829 92.5866C125.859 92.3725 125.874 92.1567 125.874 91.9407C125.875 91.3547 125.754 90.7743 125.518 90.2327C125.283 89.691 124.937 89.1988 124.5 88.7841C124.064 88.3694 123.545 88.0405 122.975 87.816C122.404 87.5915 121.793 87.476 121.175 87.476C120.882 87.4764 120.59 87.5022 120.302 87.5532C119.84 86.8279 119.141 86.2652 118.312 85.9505C117.482 85.6358 116.567 85.5862 115.706 85.8092C114.844 86.0323 114.082 86.5158 113.536 87.1865C112.99 87.8572 112.689 88.6785 112.68 89.5259H112.606C111.601 89.5259 110.637 89.9045 109.927 90.5786C109.216 91.2526 108.817 92.1668 108.817 93.1201C108.817 94.0733 109.216 94.9876 109.927 95.6616C110.637 96.3357 111.601 96.7143 112.606 96.7143H126.54C127.116 96.6961 127.662 96.4662 128.062 96.0732C128.463 95.6802 128.686 95.1549 128.686 94.6083Z" fill="#F0F0F0"/>
<path d="M277.655 71.8638C277.654 71.5345 277.735 71.2095 277.89 70.915C278.045 70.6205 278.271 70.3646 278.55 70.168C278.828 69.9714 279.152 69.8395 279.494 69.7829C279.836 69.7263 280.187 69.7465 280.519 69.842C280.487 69.6281 280.47 69.4123 280.467 69.1962C280.467 68.0121 280.963 66.8765 281.846 66.0392C282.728 65.2019 283.925 64.7315 285.174 64.7315C285.464 64.7322 285.754 64.758 286.04 64.8087C286.503 64.0851 287.203 63.5243 288.032 63.2108C288.861 62.8974 289.776 62.8483 290.637 63.071C291.498 63.2936 292.26 63.776 292.807 64.4453C293.354 65.1146 293.656 65.9345 293.669 66.7813H293.735C294.712 66.8223 295.635 67.2192 296.311 67.8894C296.987 68.5597 297.364 69.4515 297.364 70.3791C297.364 71.3067 296.987 72.1985 296.311 72.8687C295.635 73.5389 294.712 73.9359 293.735 73.9768H279.816C279.236 73.9622 278.686 73.7329 278.282 73.338C277.878 72.9431 277.653 72.414 277.655 71.8638Z" fill="#F0F0F0"/>
<path d="M185 300.147C264.241 300.147 328.479 296.589 328.479 292.201C328.479 287.812 264.241 284.254 185 284.254C105.759 284.254 41.5215 287.812 41.5215 292.201C41.5215 296.589 105.759 300.147 185 300.147Z" fill="#F5F5F5"/>
<path d="M70.9289 276.904C70.9289 276.904 67.4139 269.624 71.4321 262.45C75.4503 255.275 76.6121 253.59 74.0517 252.123C71.4913 250.656 70.3517 257.859 70.3517 257.859C69.0797 254.604 68.9473 251.047 69.9743 247.715C71.7577 242.52 72.8751 234.075 70.4405 233.162C68.0059 232.25 69.9743 243.692 67.8653 247.609C66.7886 244.871 66.0945 242.011 65.8007 239.101C65.5047 234.931 65.9635 228.276 64.0395 226.57C62.1155 224.865 60.8871 226.044 62.7741 235.24C63.9128 240.735 64.5417 246.314 64.6537 251.913C64.6537 251.913 60.4801 239.852 57.6829 239.494C54.8857 239.136 54.8857 243.053 57.2833 246.444C59.6809 249.835 64.2615 255.9 65.0237 259.038C65.0237 259.038 60.4431 249.961 56.3213 252.72C52.1995 255.479 59.9103 260.99 63.3439 262.969C66.7775 264.949 69.1603 277.374 69.1603 277.374L70.9289 276.904Z" fill="#FF441F"/>
<path opacity="0.2" d="M70.9289 276.904C70.9289 276.904 67.4139 269.624 71.4321 262.45C75.4503 255.275 76.6121 253.59 74.0517 252.123C71.4913 250.656 70.3517 257.859 70.3517 257.859C69.0797 254.604 68.9473 251.047 69.9743 247.715C71.7577 242.52 72.8751 234.075 70.4405 233.162C68.0059 232.25 69.9743 243.692 67.8653 247.609C66.7886 244.871 66.0945 242.011 65.8007 239.101C65.5047 234.931 65.9635 228.276 64.0395 226.57C62.1155 224.865 60.8871 226.044 62.7741 235.24C63.9128 240.735 64.5417 246.314 64.6537 251.913C64.6537 251.913 60.4801 239.852 57.6829 239.494C54.8857 239.136 54.8857 243.053 57.2833 246.444C59.6809 249.835 64.2615 255.9 65.0237 259.038C65.0237 259.038 60.4431 249.961 56.3213 252.72C52.1995 255.479 59.9103 260.99 63.3439 262.969C66.7775 264.949 69.1603 277.374 69.1603 277.374L70.9289 276.904Z" fill="black"/>
<path d="M68.1537 279.887C68.1537 279.887 71.5725 272.559 67.4655 265.447C63.3585 258.336 62.1597 256.658 64.7201 255.149C67.2805 253.64 68.5237 260.835 68.5237 260.835C69.7504 257.564 69.8385 254.006 68.7753 250.684C66.9253 245.518 65.7043 237.087 68.1241 236.146C70.5439 235.205 68.7235 246.676 70.8843 250.551C71.9242 247.798 72.581 244.929 72.8379 242.015C73.0821 237.838 72.5419 231.19 74.4363 229.456C76.3307 227.722 77.5813 228.887 75.8127 238.111C74.7485 243.627 74.1914 249.219 74.1477 254.826C74.1477 254.826 78.1659 242.703 80.9631 242.309C83.7603 241.916 83.8047 245.819 81.4515 249.245C79.0983 252.671 74.5547 258.806 73.8369 261.944C73.8369 261.944 78.2769 252.818 82.4505 255.521C86.6241 258.224 78.9725 263.84 75.5611 265.869C72.1497 267.897 69.9297 280.351 69.9297 280.351L68.1537 279.887Z" fill="#FF441F"/>
<path d="M83.938 274.665H55.6626L57.9492 293.857H81.6514L83.938 274.665Z" fill="#263238"/>
<path d="M304.347 82.0566H195.086C190.979 82.0566 187.649 85.2153 187.649 89.1117V286.802C187.649 290.698 190.979 293.857 195.086 293.857H304.347C308.455 293.857 311.784 290.698 311.784 286.802V89.1117C311.784 85.2153 308.455 82.0566 304.347 82.0566Z" fill="#263238"/>
<path d="M307.596 89.1537V286.416C307.595 286.799 307.514 287.177 307.357 287.53C307.201 287.883 306.972 288.203 306.685 288.471C306.397 288.74 306.056 288.951 305.681 289.094C305.307 289.236 304.906 289.307 304.503 289.301H194.62C194.254 289.306 193.89 289.24 193.551 289.109C193.212 288.977 192.904 288.782 192.646 288.535C192.389 288.288 192.186 287.994 192.051 287.671C191.916 287.348 191.851 287.002 191.86 286.654V88.9151C191.847 88.6089 191.898 88.3034 192.01 88.016C192.121 87.7285 192.292 87.4648 192.511 87.2398C192.73 87.0149 192.994 86.8331 193.287 86.705C193.581 86.5769 193.898 86.5049 194.22 86.4932H221.697C222.082 86.4999 222.456 86.6149 222.772 86.8236C223.088 87.0323 223.332 87.3253 223.473 87.6655L224.605 90.3191C224.745 90.6572 224.988 90.948 225.303 91.1543C225.618 91.3607 225.991 91.4731 226.373 91.4774H273.134C273.515 91.4776 273.887 91.3694 274.203 91.1666C274.518 90.9639 274.762 90.6759 274.903 90.3401L276.042 87.6655C276.181 87.3259 276.424 87.0331 276.739 86.8244C277.054 86.6157 277.427 86.5004 277.811 86.4932H304.88C305.61 86.5097 306.304 86.798 306.812 87.2958C307.321 87.7935 307.602 88.4609 307.596 89.1537Z" fill="#FF441F"/>
<path opacity="0.1" d="M301.602 86.4932C291.353 113.401 258.038 187.321 191.838 217.465V88.9151C191.825 88.6089 191.876 88.3034 191.988 88.016C192.099 87.7285 192.27 87.4648 192.489 87.2398C192.708 87.0149 192.972 86.8331 193.265 86.705C193.559 86.5769 193.876 86.5049 194.198 86.4932H221.675C222.06 86.4999 222.434 86.6149 222.75 86.8236C223.066 87.0323 223.31 87.3253 223.451 87.6655L224.583 90.3191C224.723 90.6572 224.966 90.948 225.281 91.1543C225.596 91.3607 225.969 91.4731 226.352 91.4774H273.134C273.515 91.4776 273.888 91.3694 274.203 91.1666C274.518 90.9639 274.762 90.6759 274.903 90.3401L276.042 87.6655C276.182 87.3259 276.424 87.0331 276.739 86.8244C277.054 86.6157 277.427 86.5004 277.811 86.4932H301.602Z" fill="white"/>
<path opacity="0.1" d="M307.596 183.222V286.416C307.595 286.798 307.514 287.177 307.358 287.53C307.201 287.883 306.973 288.203 306.685 288.471C306.397 288.74 306.056 288.951 305.682 289.094C305.307 289.236 304.906 289.306 304.503 289.301H194.62C194.254 289.306 193.89 289.24 193.551 289.109C193.212 288.977 192.904 288.782 192.647 288.535C192.389 288.288 192.187 287.994 192.051 287.671C191.916 287.348 191.851 287.002 191.86 286.654V239.719C222.415 201.53 274.977 187.995 307.596 183.222Z" fill="white"/>
<path opacity="0.6" d="M249.699 86.753C249.699 87.0515 249.605 87.3433 249.43 87.5915C249.256 87.8397 249.007 88.0331 248.716 88.1474C248.426 88.2616 248.106 88.2915 247.797 88.2333C247.489 88.175 247.205 88.0313 246.983 87.8202C246.76 87.6091 246.609 87.3402 246.547 87.0474C246.486 86.7546 246.517 86.4512 246.638 86.1754C246.758 85.8996 246.962 85.6639 247.224 85.498C247.485 85.3322 247.793 85.2437 248.108 85.2437C248.529 85.2455 248.932 85.4051 249.23 85.6878C249.528 85.9704 249.697 86.3532 249.699 86.753Z" fill="white"/>
<path opacity="0.6" d="M252.91 86.7528C252.888 86.9946 252.771 87.2198 252.583 87.384C252.395 87.5481 252.148 87.6392 251.892 87.6392C251.636 87.6392 251.39 87.5481 251.202 87.384C251.013 87.2198 250.897 86.9946 250.875 86.7528C250.863 86.6191 250.88 86.4845 250.926 86.3576C250.971 86.2306 251.044 86.114 251.14 86.0152C251.236 85.9164 251.352 85.8375 251.482 85.7835C251.611 85.7295 251.751 85.7017 251.892 85.7017C252.034 85.7017 252.174 85.7295 252.303 85.7835C252.433 85.8375 252.549 85.9164 252.644 86.0152C252.74 86.114 252.813 86.2306 252.859 86.3576C252.904 86.4845 252.922 86.6191 252.91 86.7528Z" fill="white"/>
<path opacity="0.5" d="M305.339 99.1152H192.926V280.063H305.339V99.1152Z" fill="white"/>
<path d="M302.283 120.631H195.967V146.605H302.283V120.631Z" fill="white"/>
<path d="M302.283 148.023H195.967V173.997H302.283V148.023Z" fill="white"/>
<path d="M302.283 102.955H195.967V118.504H302.283V102.955Z" fill="#FF441F"/>
<g opacity="0.5">
<path d="M231.791 136.426L230.57 134.868L229.349 136.426H228.12L229.97 134.145L228.202 131.934H229.437L230.599 133.408L231.761 131.934H232.96L231.184 134.131L233.041 136.426H231.791Z" fill="black"/>
<path d="M238.066 135.486V136.413H233.485V135.711L235.957 133.485C236.556 132.938 236.697 132.594 236.697 132.271C236.697 131.73 236.305 131.414 235.542 131.414C235.262 131.398 234.981 131.445 234.723 131.552C234.466 131.66 234.239 131.824 234.062 132.032L233.256 131.442C233.542 131.116 233.904 130.858 234.314 130.689C234.724 130.519 235.17 130.443 235.616 130.467C236.963 130.467 237.836 131.112 237.836 132.158C237.827 132.523 237.729 132.88 237.551 133.202C237.373 133.525 237.118 133.804 236.808 134.019L235.135 135.486H238.066Z" fill="black"/>
</g>
<path d="M280.194 133.962C280.195 134.892 279.906 135.801 279.362 136.574C278.819 137.348 278.046 137.951 277.141 138.307C276.236 138.663 275.24 138.757 274.279 138.576C273.318 138.395 272.435 137.947 271.742 137.29C271.05 136.633 270.578 135.795 270.387 134.884C270.196 133.972 270.295 133.027 270.671 132.169C271.046 131.31 271.682 130.577 272.497 130.062C273.313 129.546 274.271 129.272 275.25 129.273C276.561 129.275 277.817 129.769 278.744 130.648C279.67 131.528 280.192 132.719 280.194 133.962Z" fill="#FF441F"/>
<path d="M275.62 131.344H274.88V136.588H275.62V131.344Z" fill="white"/>
<path d="M278.011 133.611H272.483V134.313H278.011V133.611Z" fill="white"/>
<path d="M295.001 133.962C295.001 134.89 294.711 135.796 294.168 136.568C293.625 137.339 292.853 137.94 291.95 138.295C291.046 138.65 290.052 138.743 289.094 138.562C288.135 138.381 287.254 137.934 286.563 137.278C285.871 136.622 285.4 135.787 285.21 134.877C285.019 133.968 285.117 133.025 285.491 132.168C285.865 131.311 286.499 130.579 287.312 130.063C288.125 129.548 289.08 129.273 290.058 129.273C291.368 129.275 292.625 129.769 293.551 130.648C294.478 131.528 294.999 132.719 295.001 133.962Z" fill="#FF441F"/>
<path d="M292.818 133.611H287.291V134.313H292.818V133.611Z" fill="white"/>
<path d="M204.906 138.294C204.591 138.399 204.29 138.54 204.011 138.715C203.887 139.033 203.837 139.373 203.866 139.711C203.894 140.049 203.999 140.378 204.174 140.673C204.544 140.947 208.517 141.593 210.589 141.446C212.661 141.298 214.696 141.446 216.924 141.446C219.151 141.446 223.384 141.123 223.65 140.673C223.788 140.384 223.859 140.071 223.859 139.754C223.859 139.437 223.788 139.123 223.65 138.834C222.718 138.124 221.544 137.762 220.35 137.816C218.988 137.992 204.906 138.294 204.906 138.294Z" fill="#FF441F"/>
<path opacity="0.3" d="M204.906 138.294C204.591 138.399 204.29 138.54 204.011 138.715C203.887 139.033 203.837 139.373 203.866 139.711C203.894 140.049 203.999 140.378 204.174 140.673C204.544 140.947 208.517 141.593 210.589 141.446C212.661 141.298 214.696 141.446 216.924 141.446C219.151 141.446 223.384 141.123 223.65 140.673C223.788 140.384 223.859 140.071 223.859 139.754C223.859 139.437 223.788 139.123 223.65 138.834C222.718 138.124 221.544 137.762 220.35 137.816C218.988 137.992 204.906 138.294 204.906 138.294Z" fill="white"/>
<path d="M204.729 137.023C204.662 137.402 204.514 138.245 204.729 138.427C205.929 138.949 207.265 139.122 208.569 138.926C210.021 138.772 211.483 138.723 212.943 138.778C215.399 138.778 216.421 138.876 216.924 138.778C217.427 138.68 218.1 138.631 218.988 138.582C219.876 138.532 221.134 138.434 221.475 138.434C221.815 138.434 222 138.659 222.444 138.434C222.737 138.274 223.038 138.129 223.347 137.999C223.347 137.999 223.31 137.493 223.147 137.416C222.984 137.339 222.888 137.416 222.859 137.248C222.829 137.079 222.859 137.121 222.755 136.96C222.651 136.798 222.444 136.588 222.444 136.588L204.729 137.023Z" fill="#263238"/>
<path opacity="0.2" d="M204.729 137.023C204.662 137.402 204.514 138.245 204.729 138.427C205.929 138.949 207.265 139.122 208.569 138.926C210.021 138.772 211.483 138.723 212.943 138.778C215.399 138.778 216.421 138.876 216.924 138.778C217.427 138.68 218.1 138.631 218.988 138.582C219.876 138.532 221.134 138.434 221.475 138.434C221.815 138.434 222 138.659 222.444 138.434C222.737 138.274 223.038 138.129 223.347 137.999C223.347 137.999 223.31 137.493 223.147 137.416C222.984 137.339 222.888 137.416 222.859 137.248C222.829 137.079 222.859 137.121 222.755 136.96C222.651 136.798 222.444 136.588 222.444 136.588L204.729 137.023Z" fill="white"/>
<path d="M211.818 137.297C212.592 137.584 213.422 137.714 214.252 137.676C214.861 137.641 215.471 137.641 216.08 137.676C216.709 137.725 216.472 137.466 217.183 137.817C217.893 138.168 217.864 138.519 218.988 137.992C220.113 137.466 220.246 137.403 220.713 137.403C221.062 137.446 221.417 137.41 221.749 137.297C222.156 137.15 223.347 136.778 223.347 136.778C223.347 136.778 223.384 136.258 222.363 136.23C221.342 136.202 210.523 136.532 210.219 136.778C209.916 137.023 211.818 137.297 211.818 137.297Z" fill="#FF441F"/>
<path opacity="0.2" d="M211.818 137.297C212.592 137.584 213.422 137.714 214.252 137.676C214.861 137.641 215.471 137.641 216.08 137.676C216.709 137.725 216.472 137.466 217.183 137.817C217.893 138.168 217.864 138.519 218.988 137.992C220.113 137.466 220.246 137.403 220.713 137.403C221.062 137.446 221.417 137.41 221.749 137.297C222.156 137.15 223.347 136.778 223.347 136.778C223.347 136.778 223.384 136.258 222.363 136.23C221.342 136.202 210.523 136.532 210.219 136.778C209.916 137.023 211.818 137.297 211.818 137.297Z" fill="black"/>
<path d="M205.801 136.23C205.801 136.23 204.07 136.483 204.018 136.778C203.966 137.072 204.307 137.1 204.551 137.297C204.702 137.42 204.824 137.574 204.906 137.746C205.088 137.618 205.301 137.534 205.525 137.5C205.749 137.465 205.978 137.483 206.194 137.55C206.793 137.824 207.082 137.845 207.237 137.746C207.392 137.648 207.74 137.88 208.258 137.802C208.561 137.747 208.873 137.747 209.176 137.802C209.516 137.802 210.012 137.234 210.301 137.283C210.862 137.178 211.407 137.003 211.921 136.764L205.801 136.23Z" fill="#FF441F"/>
<path d="M204.647 133.92C204.51 134.279 204.51 134.671 204.647 135.03C204.764 135.571 204.764 136.13 204.647 136.672C205.58 136.497 206.541 136.497 207.474 136.672C208.887 136.974 209.198 137.508 210.56 137.213C211.195 136.987 211.872 136.885 212.55 136.911C213.594 136.911 215.007 136.49 216.25 136.672C217.493 136.855 219.092 136.49 219.136 136.672C219.181 136.855 221.593 136.672 221.593 136.672C221.593 136.672 222.74 136.434 222.74 136.195C222.74 135.956 222.585 133.457 222.585 133.457L204.647 133.92Z" fill="#263238"/>
<path d="M208.258 136.083C208.258 136.083 213.542 135.886 214.252 135.886C214.963 135.886 215.562 135.985 216.761 135.985C217.621 136.066 218.486 136.099 219.351 136.083C220.535 135.985 221.571 136.083 221.734 135.999C221.235 136.043 220.741 136.121 220.254 136.23C219.804 136.35 219.337 136.402 218.87 136.385C218.531 136.279 218.176 136.227 217.819 136.23C217.745 136.279 217.079 136.23 216.931 136.413C216.783 136.595 216.724 137.325 216.643 137.297C216.405 136.993 216.089 136.751 215.725 136.595C215.103 136.357 214.119 136.013 213.979 136.23C213.838 136.448 212.957 136.307 212.669 136.595C212.398 136.826 212.06 136.975 211.699 137.023C211.573 137.03 208.258 136.083 208.258 136.083Z" fill="#FF441F"/>
<path d="M204.485 133.857C204.425 134.236 204.277 135.072 204.485 135.261C204.692 135.451 206.209 135.963 208.333 135.753C209.782 135.599 211.241 135.55 212.699 135.605C215.163 135.605 216.184 135.703 216.68 135.605C217.364 135.504 218.053 135.436 218.744 135.402C219.64 135.352 220.89 135.254 221.231 135.254C221.571 135.254 221.756 135.479 222.2 135.254C222.492 135.091 222.793 134.943 223.103 134.812C223.103 134.812 223.066 134.306 222.911 134.236C222.755 134.166 222.644 134.236 222.622 134.061C222.6 133.885 222.622 133.934 222.518 133.773L222.2 133.401L204.485 133.857Z" fill="#263238"/>
<path opacity="0.2" d="M204.485 133.857C204.425 134.236 204.277 135.072 204.485 135.261C204.692 135.451 206.209 135.963 208.333 135.753C209.782 135.599 211.241 135.55 212.699 135.605C215.163 135.605 216.184 135.703 216.68 135.605C217.364 135.504 218.053 135.436 218.744 135.402C219.64 135.352 220.89 135.254 221.231 135.254C221.571 135.254 221.756 135.479 222.2 135.254C222.492 135.091 222.793 134.943 223.103 134.812C223.103 134.812 223.066 134.306 222.911 134.236C222.755 134.166 222.644 134.236 222.622 134.061C222.6 133.885 222.622 133.934 222.518 133.773L222.2 133.401L204.485 133.857Z" fill="white"/>
<path d="M209.99 132.98L216.687 136.778L222.444 132.804L209.99 132.98Z" fill="#FF441F"/>
<path opacity="0.6" d="M209.99 132.98L216.687 136.778L222.444 132.804L209.99 132.98Z" fill="white"/>
<path d="M204.011 132.881L206.194 136.356L215.14 133.057L204.011 132.881Z" fill="#FF441F"/>
<path opacity="0.6" d="M204.011 132.881L206.194 136.356L215.14 133.057L204.011 132.881Z" fill="white"/>
<path d="M204.492 133.106C204.492 133.106 203.337 134.145 203.707 134.447C204.077 134.749 203.633 135.191 203.633 135.191C204.337 134.967 205.098 134.967 205.801 135.191C206.824 135.487 207.916 135.487 208.939 135.191C209.62 134.994 211.159 134.938 211.662 134.594C212.261 134.048 212.804 133.448 213.283 132.804L204.492 133.106Z" fill="#FF441F"/>
<path d="M214.956 132.804C214.956 132.804 216.82 134.643 218.152 134.784C219.484 134.924 219.669 134.636 221.238 134.784C222.807 134.931 222.97 135.366 223.229 134.826C223.362 134.073 223.362 133.304 223.229 132.551L214.956 132.804Z" fill="#FF441F"/>
<path opacity="0.2" d="M204.492 133.106C204.492 133.106 203.337 134.145 203.707 134.447C204.077 134.749 203.633 135.191 203.633 135.191C204.337 134.967 205.098 134.967 205.801 135.191C206.824 135.487 207.916 135.487 208.939 135.191C209.62 134.994 211.159 134.938 211.662 134.594C212.261 134.048 212.804 133.448 213.283 132.804L204.492 133.106Z" fill="black"/>
<path opacity="0.2" d="M214.956 132.804C214.956 132.804 216.82 134.643 218.152 134.784C219.484 134.924 219.669 134.636 221.238 134.784C222.807 134.931 222.97 135.366 223.229 134.826C223.362 134.073 223.362 133.304 223.229 132.551L214.956 132.804Z" fill="black"/>
<path d="M204.277 138.294C204.706 138.144 205.16 138.067 205.617 138.069C205.905 138.168 209.25 138.463 209.576 138.463C210.101 138.362 210.642 138.362 211.167 138.463C211.818 138.659 211.737 138.814 212.684 138.638C213.23 138.494 213.79 138.407 214.356 138.378C214.852 138.378 214.956 138.245 215.326 138.378C215.849 138.538 216.396 138.616 216.946 138.61C217.546 138.61 217.509 138.94 218.389 138.68C218.882 138.459 219.414 138.328 219.958 138.294C220.454 138.294 221.083 138.245 221.32 138.294C221.556 138.343 221.408 138.196 222 138.294C222.307 138.358 222.628 138.331 222.918 138.217C223.053 138.334 223.196 138.442 223.347 138.54C223.517 138.638 222.548 138.722 222.208 138.778C221.867 138.835 222.311 138.828 221.468 139.003C220.624 139.179 220.868 139.305 220.217 139.284C219.566 139.263 219.625 139.34 219.174 139.284C218.722 139.228 218.878 139.501 218.041 139.284C217.452 139.126 216.847 139.025 216.236 138.982C216.103 138.982 216.658 138.912 215.844 139.115C215.03 139.319 215.607 139.15 214.586 139.354C213.564 139.558 213.749 139.782 213.106 139.537C212.462 139.291 212.366 139.235 212.062 139.312C211.759 139.389 212.01 139.389 211.566 139.41C211.122 139.431 211.3 139.41 210.826 139.41C210.161 139.52 209.488 139.588 208.814 139.614C208.318 139.614 207.637 139.333 207.297 139.333C206.881 139.279 206.468 139.204 206.061 139.108C205.543 139.038 205.173 139.108 205.017 138.954C204.862 138.799 204.277 138.294 204.277 138.294Z" fill="#FF441F"/>
<path opacity="0.2" d="M204.277 138.294C204.706 138.144 205.16 138.067 205.617 138.069C205.905 138.168 209.25 138.463 209.576 138.463C210.101 138.362 210.642 138.362 211.167 138.463C211.818 138.659 211.737 138.814 212.684 138.638C213.23 138.494 213.79 138.407 214.356 138.378C214.852 138.378 214.956 138.245 215.326 138.378C215.849 138.538 216.396 138.616 216.946 138.61C217.546 138.61 217.509 138.94 218.389 138.68C218.882 138.459 219.414 138.328 219.958 138.294C220.454 138.294 221.083 138.245 221.32 138.294C221.556 138.343 221.408 138.196 222 138.294C222.307 138.358 222.628 138.331 222.918 138.217C223.053 138.334 223.196 138.442 223.347 138.54C223.517 138.638 222.548 138.722 222.208 138.778C221.867 138.835 222.311 138.828 221.468 139.003C220.624 139.179 220.868 139.305 220.217 139.284C219.566 139.263 219.625 139.34 219.174 139.284C218.722 139.228 218.878 139.501 218.041 139.284C217.452 139.126 216.847 139.025 216.236 138.982C216.103 138.982 216.658 138.912 215.844 139.115C215.03 139.319 215.607 139.15 214.586 139.354C213.564 139.558 213.749 139.782 213.106 139.537C212.462 139.291 212.366 139.235 212.062 139.312C211.759 139.389 212.01 139.389 211.566 139.41C211.122 139.431 211.3 139.41 210.826 139.41C210.161 139.52 209.488 139.588 208.814 139.614C208.318 139.614 207.637 139.333 207.297 139.333C206.881 139.279 206.468 139.204 206.061 139.108C205.543 139.038 205.173 139.108 205.017 138.954C204.862 138.799 204.277 138.294 204.277 138.294Z" fill="black"/>
<path d="M224.05 133.605C224.331 133.471 224.168 133.015 224.168 132.713C224.168 129.273 219.492 126.486 213.727 126.486C207.962 126.486 203.286 129.294 203.286 132.713C203.286 133.015 203.175 133.415 203.404 133.605C204.188 134.307 208.873 133.513 213.764 133.45C218.234 133.38 222.918 134.124 224.05 133.605Z" fill="#FF441F"/>
<path opacity="0.3" d="M224.05 133.605C224.331 133.471 224.168 133.015 224.168 132.713C224.168 129.273 219.492 126.486 213.727 126.486C207.962 126.486 203.286 129.294 203.286 132.713C203.286 133.015 203.175 133.415 203.404 133.605C204.188 134.307 208.873 133.513 213.764 133.45C218.234 133.38 222.918 134.124 224.05 133.605Z" fill="white"/>
<path d="M213.742 127.645C213.742 127.645 213.986 128.164 213.742 128.164C213.498 128.164 213.742 127.645 213.742 127.645Z" fill="#FF441F"/>
<path d="M216.769 127.645C216.769 127.645 217.812 127.792 217.657 127.904C217.501 128.017 216.769 127.645 216.769 127.645Z" fill="#FF441F"/>
<path d="M211.122 127.645C211.122 127.645 210.508 128.017 210.382 127.925C210.256 127.834 211.122 127.645 211.122 127.645Z" fill="#FF441F"/>
<g opacity="0.5">
<path d="M229.97 163.615L228.749 162.057L227.528 163.615H226.3L228.15 161.334L226.381 159.115H227.617L228.779 160.589L229.941 159.115H231.139L229.363 161.312L231.221 163.615H229.97Z" fill="black"/>
<path d="M233.936 157.718V163.615H232.782V158.652H231.472V157.732L233.936 157.718Z" fill="black"/>
</g>
<path d="M278.373 161.151C278.375 162.08 278.086 162.989 277.543 163.762C277 164.535 276.227 165.138 275.322 165.495C274.418 165.851 273.422 165.945 272.461 165.765C271.501 165.584 270.618 165.138 269.925 164.481C269.232 163.825 268.759 162.988 268.568 162.077C268.376 161.165 268.474 160.221 268.848 159.362C269.223 158.504 269.857 157.77 270.672 157.253C271.486 156.737 272.443 156.461 273.423 156.461C274.734 156.461 275.993 156.955 276.921 157.834C277.849 158.714 278.371 159.906 278.373 161.151Z" fill="#FF441F"/>
<path d="M273.793 158.525H273.053V163.769H273.793V158.525Z" fill="white"/>
<path d="M276.19 160.8H270.663V161.502H276.19V160.8Z" fill="white"/>
<path d="M293.181 161.151C293.182 162.08 292.893 162.989 292.35 163.763C291.806 164.536 291.033 165.139 290.128 165.495C289.223 165.852 288.227 165.945 287.266 165.764C286.305 165.583 285.423 165.136 284.73 164.479C284.037 163.821 283.565 162.984 283.375 162.072C283.184 161.161 283.282 160.216 283.658 159.357C284.034 158.499 284.669 157.765 285.485 157.25C286.3 156.734 287.258 156.46 288.238 156.461C288.887 156.461 289.53 156.583 290.129 156.818C290.729 157.054 291.274 157.399 291.733 157.835C292.192 158.27 292.556 158.787 292.805 159.356C293.053 159.925 293.181 160.535 293.181 161.151Z" fill="#FF441F"/>
<path d="M290.998 160.8H285.47V161.502H290.998V160.8Z" fill="white"/>
<path d="M213.986 152.958H209.849C208.693 153.356 207.69 154.077 206.973 155.025C206.255 155.974 205.857 157.106 205.831 158.273H217.997C217.972 157.106 217.575 155.974 216.86 155.026C216.144 154.077 215.142 153.357 213.986 152.958Z" fill="#FF441F"/>
<path opacity="0.6" d="M213.986 152.958H209.849C208.693 153.356 207.69 154.077 206.973 155.025C206.255 155.974 205.857 157.106 205.831 158.273H217.997C217.972 157.106 217.575 155.974 216.86 155.026C216.144 154.077 215.142 153.357 213.986 152.958Z" fill="white"/>
<path opacity="0.2" d="M211.107 149.776L210.255 149.922L212.612 162.323L213.464 162.177L211.107 149.776Z" fill="black"/>
<path d="M217.079 171.106L218.182 158.385H205.646L206.756 171.106H217.079Z" fill="#FF441F"/>
<path d="M218.752 159.235H205.084L205.313 157.367H218.522L218.752 159.235Z" fill="#FF441F"/>
<path opacity="0.4" d="M218.752 159.235H205.084L205.313 157.367H218.522L218.752 159.235Z" fill="white"/>
<path d="M302.283 176.714H195.967V192.264H302.283V176.714Z" fill="#FF441F"/>
<path d="M234.41 183.117C234.41 184.415 233.396 185.223 231.761 185.223H230.362V186.922H229.208V181.032H231.761C233.396 181.025 234.41 181.818 234.41 183.117ZM233.248 183.117C233.248 182.38 232.723 181.951 231.709 181.951H230.362V184.289H231.709C232.723 184.289 233.248 183.861 233.248 183.117Z" fill="white"/>
<path d="M239.383 184.282V186.915H238.332V186.367C238.161 186.58 237.935 186.748 237.676 186.855C237.417 186.962 237.133 187.004 236.852 186.978C235.772 186.978 235.083 186.409 235.083 185.63C235.083 184.851 235.616 184.289 237.059 184.289H238.28V184.219C238.28 183.608 237.888 183.243 237.096 183.243C236.579 183.238 236.074 183.396 235.661 183.692L235.224 182.927C235.813 182.543 236.516 182.349 237.229 182.373C238.591 182.373 239.383 182.983 239.383 184.282ZM238.273 185.511V184.991H237.126C236.386 184.991 236.171 185.258 236.171 185.588C236.171 185.918 236.504 186.213 237.074 186.213C237.327 186.23 237.58 186.171 237.796 186.046C238.013 185.92 238.182 185.733 238.28 185.511H238.273Z" fill="white"/>
<path d="M245.155 182.421L242.935 187.279C242.835 187.665 242.6 188.007 242.267 188.248C241.935 188.49 241.525 188.616 241.107 188.606C240.645 188.615 240.195 188.471 239.834 188.199L240.278 187.42C240.5 187.62 240.793 187.733 241.099 187.736C241.492 187.736 241.721 187.553 241.936 187.111L242.01 186.935L239.945 182.421H241.099L242.579 185.749L244.059 182.421H245.155Z" fill="white"/>
<path d="M253.776 184.338V186.915H252.666V184.479C252.666 183.678 252.274 183.285 251.6 183.285C250.927 183.285 250.365 183.742 250.365 184.633V186.915H249.255V184.479C249.255 183.678 248.87 183.285 248.189 183.285C247.508 183.285 246.961 183.742 246.961 184.633V186.915H245.851V182.422H246.909V182.99C247.103 182.786 247.342 182.624 247.609 182.517C247.877 182.411 248.166 182.361 248.455 182.373C248.767 182.351 249.08 182.409 249.36 182.54C249.641 182.671 249.881 182.87 250.054 183.117C250.271 182.873 250.544 182.68 250.851 182.551C251.159 182.422 251.494 182.361 251.83 182.373C252.102 182.352 252.375 182.39 252.63 182.483C252.885 182.577 253.114 182.723 253.301 182.912C253.488 183.101 253.627 183.327 253.71 183.574C253.792 183.821 253.815 184.082 253.776 184.338Z" fill="white"/>
<path d="M259.681 185.005H255.981C256.051 185.333 256.246 185.624 256.529 185.824C256.811 186.024 257.162 186.117 257.513 186.086C257.752 186.095 257.99 186.055 258.212 185.971C258.434 185.886 258.634 185.758 258.801 185.595L259.393 186.241C259.153 186.491 258.857 186.687 258.526 186.815C258.196 186.943 257.839 186.998 257.483 186.978C257.148 187.005 256.81 186.966 256.492 186.862C256.174 186.758 255.882 186.591 255.636 186.374C255.39 186.156 255.195 185.892 255.063 185.598C254.931 185.304 254.866 184.987 254.871 184.668C254.862 184.362 254.919 184.057 255.039 183.773C255.159 183.488 255.34 183.23 255.569 183.015C255.799 182.8 256.073 182.631 256.375 182.521C256.676 182.41 256.998 182.36 257.321 182.373C257.643 182.36 257.965 182.412 258.265 182.525C258.564 182.638 258.836 182.81 259.061 183.029C259.287 183.248 259.461 183.51 259.573 183.797C259.685 184.084 259.732 184.391 259.711 184.696C259.696 184.78 259.689 184.907 259.681 185.005ZM255.981 184.303H258.675C258.639 183.994 258.481 183.709 258.232 183.507C257.983 183.305 257.663 183.201 257.335 183.215C257.002 183.195 256.673 183.296 256.416 183.498C256.158 183.701 255.992 183.988 255.952 184.303H255.981Z" fill="white"/>
<path d="M265.438 184.338V186.914H264.328V184.478C264.328 183.678 263.907 183.285 263.196 183.285C263.011 183.275 262.825 183.304 262.653 183.37C262.481 183.436 262.326 183.538 262.2 183.667C262.075 183.797 261.98 183.951 261.925 184.119C261.869 184.287 261.854 184.465 261.879 184.64V186.914H260.769V182.421H261.82V183.004C262.027 182.791 262.28 182.624 262.563 182.515C262.846 182.405 263.15 182.357 263.455 182.372C263.729 182.352 264.004 182.389 264.261 182.482C264.517 182.574 264.749 182.72 264.939 182.908C265.129 183.096 265.272 183.322 265.359 183.57C265.445 183.817 265.472 184.079 265.438 184.338Z" fill="white"/>
<path d="M269.701 186.676C269.388 186.882 269.015 186.987 268.635 186.978C268.418 187 268.198 186.977 267.991 186.909C267.784 186.841 267.596 186.731 267.44 186.586C267.283 186.441 267.163 186.265 267.087 186.07C267.011 185.876 266.981 185.668 267 185.461V183.299H266.223V182.457H267V181.425H268.11V182.457H269.36V183.299H268.087V185.405C268.087 185.847 268.317 186.107 268.746 186.107C268.969 186.114 269.188 186.05 269.368 185.925L269.701 186.676Z" fill="white"/>
<path d="M302.283 194.384H195.967V223.243H302.283V194.384Z" fill="white"/>
<g opacity="0.5">
<path d="M249.928 208.922L250.942 209.456L250.594 210.024L249.565 209.456V210.537H248.892V209.463L247.871 210.024L247.516 209.456L248.537 208.922L247.516 208.389L247.9 207.792L248.922 208.361V207.287H249.595V208.368L250.624 207.792L250.971 208.368L249.928 208.922Z" fill="black"/>
<path d="M253.821 208.922L254.834 209.456L254.487 210.024L253.458 209.456V210.537H252.785V209.463L251.763 210.024L251.408 209.456L252.429 208.922L251.408 208.389L251.763 207.813L252.785 208.382V207.308H253.458V208.389L254.487 207.813L254.834 208.389L253.821 208.922Z" fill="black"/>
<path d="M257.676 208.922L258.682 209.456L258.342 210.024L257.306 209.456V210.537H256.625V209.463L255.604 210.024L255.249 209.456L256.27 208.922L255.249 208.389L255.604 207.813L256.625 208.382V207.308H257.306V208.389L258.342 207.813L258.682 208.389L257.676 208.922Z" fill="black"/>
<path d="M261.546 208.922L262.553 209.456L262.212 210.024L261.184 209.456V210.537H260.51V209.463L259.489 210.024L259.134 209.456L260.155 208.922L259.134 208.389L259.489 207.813L260.51 208.382V207.308H261.221V208.389L262.249 207.813L262.59 208.389L261.546 208.922Z" fill="black"/>
<path d="M267.688 208.922L268.702 209.456L268.354 210.024L267.325 209.456V210.537H266.652V209.463L265.631 210.024L265.275 209.456L266.297 208.922L265.275 208.389L265.66 207.792L266.681 208.361V207.287H267.355V208.368L268.383 207.792L268.731 208.368L267.688 208.922Z" fill="black"/>
<path d="M271.58 208.922L272.594 209.456L272.246 210.024L271.218 209.456V210.537H270.544V209.463L269.523 210.024L269.168 209.456L270.189 208.922L269.168 208.389L269.523 207.813L270.544 208.382V207.308H271.218V208.389L272.246 207.813L272.594 208.389L271.58 208.922Z" fill="black"/>
<path d="M275.429 208.922L276.442 209.456L276.095 210.024L275.066 209.456V210.537H274.393V209.463L273.371 210.024L273.016 209.456L274.037 208.922L273.016 208.389L273.371 207.813L274.393 208.382V207.308H275.066V208.389L276.095 207.813L276.442 208.389L275.429 208.922Z" fill="black"/>
<path d="M279.306 208.922L280.312 209.456L279.972 210.024L278.936 209.456V210.537H278.263V209.463L277.241 210.024L276.886 209.456L277.907 208.922L276.886 208.389L277.241 207.813L278.263 208.382V207.308H278.98V208.389L280.016 207.813L280.357 208.389L279.306 208.922Z" fill="black"/>
<path d="M285.448 208.922L286.462 209.456L286.114 210.024L285.085 209.456V210.537H284.412V209.463L283.391 210.024L283.036 209.456L284.057 208.922L283.036 208.389L283.42 207.792L284.442 208.361V207.287H285.115V208.368L286.144 207.792L286.491 208.368L285.448 208.922Z" fill="black"/>
<path d="M289.341 208.922L290.354 209.456L290.007 210.024L288.978 209.456V210.537H288.305V209.463L287.283 210.024L286.928 209.456L287.949 208.922L286.928 208.389L287.283 207.813L288.305 208.382V207.308H288.978V208.389L290.007 207.813L290.354 208.389L289.341 208.922Z" fill="black"/>
<path d="M293.188 208.922L294.202 209.456L293.854 210.024L292.826 209.456V210.537H292.152V209.463L291.131 210.024L290.783 209.456L291.797 208.922L290.783 208.389L291.131 207.813L292.152 208.382V207.308H292.826V208.389L293.854 207.813L294.202 208.389L293.188 208.922Z" fill="black"/>
</g>
<path d="M221.016 202.969H205.935C204.819 202.969 203.915 203.827 203.915 204.886V213.078C203.915 214.136 204.819 214.995 205.935 214.995H221.016C222.132 214.995 223.036 214.136 223.036 213.078V204.886C223.036 203.827 222.132 202.969 221.016 202.969Z" fill="#FF441F"/>
<g opacity="0.5">
<path d="M223.036 209.449H203.915V212.446H223.036V209.449Z" fill="black"/>
</g>
<g opacity="0.5">
<path d="M221.497 207.307C221.494 207.485 221.436 207.658 221.33 207.804C221.225 207.951 221.076 208.065 220.903 208.132C220.729 208.199 220.539 208.216 220.355 208.181C220.172 208.146 220.003 208.061 219.87 207.936C219.737 207.811 219.646 207.651 219.608 207.477C219.57 207.303 219.586 207.123 219.656 206.958C219.725 206.793 219.844 206.651 219.998 206.549C220.151 206.448 220.333 206.392 220.52 206.388C220.649 206.384 220.777 206.405 220.897 206.45C221.017 206.494 221.126 206.562 221.217 206.648C221.309 206.734 221.381 206.837 221.429 206.95C221.477 207.064 221.5 207.185 221.497 207.307Z" fill="black"/>
</g>
<path d="M220.254 207.307C220.255 207.487 220.2 207.663 220.096 207.813C219.992 207.963 219.843 208.08 219.668 208.15C219.493 208.219 219.301 208.238 219.115 208.203C218.929 208.168 218.758 208.082 218.624 207.955C218.49 207.828 218.399 207.666 218.363 207.489C218.326 207.313 218.346 207.13 218.419 206.965C218.492 206.799 218.615 206.657 218.774 206.558C218.932 206.459 219.117 206.407 219.307 206.409C219.558 206.409 219.799 206.503 219.976 206.672C220.154 206.84 220.254 207.069 220.254 207.307Z" fill="white"/>
<path d="M273.06 239.375H225.204C219.213 239.375 214.356 243.983 214.356 249.666C214.356 255.35 219.213 259.958 225.204 259.958H273.06C279.052 259.958 283.909 255.35 283.909 249.666C283.909 243.983 279.052 239.375 273.06 239.375Z" fill="#FF441F"/>
<path d="M227.617 249.035C227.575 248.205 227.797 247.383 228.253 246.674C228.709 245.965 229.378 245.402 230.174 245.057C230.971 244.712 231.858 244.602 232.721 244.74C233.584 244.878 234.384 245.258 235.017 245.831C235.65 246.405 236.088 247.145 236.274 247.956C236.459 248.768 236.385 249.614 236.059 250.384C235.733 251.155 235.171 251.816 234.446 252.281C233.721 252.746 232.865 252.994 231.99 252.994C231.425 253.022 230.86 252.94 230.329 252.753C229.799 252.566 229.314 252.279 228.904 251.908C228.495 251.537 228.169 251.091 227.948 250.597C227.727 250.103 227.614 249.571 227.617 249.035ZM234.839 249.035C234.841 248.498 234.674 247.973 234.361 247.526C234.048 247.08 233.601 246.731 233.079 246.525C232.557 246.319 231.982 246.265 231.427 246.37C230.873 246.474 230.363 246.732 229.963 247.111C229.563 247.491 229.291 247.974 229.181 248.501C229.071 249.027 229.128 249.572 229.345 250.068C229.562 250.563 229.93 250.986 230.4 251.283C230.871 251.581 231.425 251.739 231.99 251.737C232.368 251.749 232.744 251.687 233.095 251.555C233.446 251.424 233.765 251.225 234.032 250.972C234.299 250.718 234.509 250.416 234.647 250.083C234.786 249.749 234.851 249.393 234.839 249.035Z" fill="white"/>
<path d="M243.268 252.881L241.61 250.614H239.464V252.86H237.984V245.138H241.329C243.46 245.138 244.785 246.17 244.785 247.876C244.809 248.403 244.653 248.924 244.341 249.361C244.03 249.799 243.578 250.129 243.053 250.305L244.918 252.839L243.268 252.881ZM241.24 246.402H239.464V249.477H241.24C242.565 249.477 243.246 248.901 243.246 247.932C243.246 246.963 242.55 246.402 241.24 246.402Z" fill="white"/>
<path d="M246.42 245.18H249.972C252.607 245.18 254.412 246.718 254.412 249.034C254.412 251.351 252.622 252.881 249.972 252.881H246.42V245.18ZM249.898 251.674C251.711 251.674 252.858 250.628 252.858 249.034C252.858 247.441 251.689 246.388 249.898 246.388H247.93V251.674H249.898Z" fill="white"/>
<path d="M262.093 251.681V252.881H256.04V245.159H261.96V246.402H257.52V248.402H261.442V249.582H257.52V251.688L262.093 251.681Z" fill="white"/>
<path d="M269.079 252.881L267.421 250.614H265.275V252.86H263.795V245.138H267.14C269.271 245.138 270.596 246.17 270.596 247.876C270.62 248.403 270.464 248.924 270.153 249.361C269.841 249.799 269.389 250.129 268.864 250.305L270.737 252.839L269.079 252.881ZM267.044 246.402H265.275V249.477H267.044C268.361 249.477 269.049 248.901 269.049 247.932C269.049 246.963 268.361 246.402 267.044 246.402Z" fill="white"/>
<path d="M234.107 107.266H236.8C238.813 107.266 240.189 108.445 240.189 110.214C240.189 111.983 238.813 113.162 236.8 113.162H234.084L234.107 107.266ZM236.771 112.236C237.065 112.259 237.362 112.224 237.642 112.133C237.922 112.042 238.179 111.897 238.396 111.707C238.614 111.517 238.788 111.286 238.907 111.029C239.026 110.772 239.087 110.495 239.087 110.214C239.087 109.933 239.026 109.656 238.907 109.399C238.788 109.142 238.614 108.911 238.396 108.721C238.179 108.531 237.922 108.386 237.642 108.295C237.362 108.204 237.065 108.169 236.771 108.192H235.291V112.236H236.771Z" fill="white"/>
<path d="M245.769 111.246H242.069C242.14 111.573 242.336 111.863 242.618 112.063C242.901 112.262 243.25 112.356 243.601 112.327C243.84 112.336 244.078 112.297 244.3 112.212C244.522 112.128 244.723 111.999 244.889 111.835L245.481 112.488C245.123 112.831 244.669 113.069 244.172 113.175C243.676 113.28 243.158 113.248 242.681 113.082C242.203 112.917 241.786 112.624 241.478 112.24C241.17 111.856 240.985 111.397 240.944 110.916C240.935 110.609 240.992 110.305 241.112 110.02C241.232 109.736 241.413 109.478 241.643 109.262C241.873 109.047 242.147 108.879 242.448 108.768C242.749 108.658 243.071 108.607 243.394 108.62C243.716 108.609 244.038 108.662 244.337 108.775C244.637 108.888 244.909 109.06 245.134 109.279C245.36 109.498 245.535 109.759 245.648 110.045C245.761 110.332 245.81 110.638 245.791 110.944C245.791 111.021 245.777 111.147 245.769 111.246ZM242.069 110.544H244.755C244.702 110.242 244.538 109.968 244.292 109.77C244.046 109.573 243.735 109.464 243.412 109.464C243.09 109.464 242.778 109.573 242.532 109.77C242.286 109.968 242.122 110.242 242.069 110.544Z" fill="white"/>
<path d="M249.706 112.917C249.395 113.126 249.021 113.232 248.64 113.218C248.423 113.241 248.203 113.218 247.996 113.15C247.79 113.082 247.601 112.972 247.445 112.827C247.289 112.682 247.168 112.506 247.092 112.311C247.016 112.117 246.986 111.909 247.005 111.702V109.512H246.228V108.669H247.005V107.645H248.115V108.669H249.38V109.512H248.108V111.653C248.089 111.742 248.093 111.834 248.118 111.922C248.143 112.01 248.189 112.091 248.253 112.159C248.317 112.227 248.396 112.28 248.485 112.314C248.574 112.348 248.671 112.362 248.766 112.355C248.99 112.359 249.209 112.292 249.388 112.165L249.706 112.917Z" fill="white"/>
<path d="M254.56 110.523V113.162H253.509V112.615C253.336 112.825 253.11 112.991 252.851 113.097C252.592 113.202 252.31 113.244 252.029 113.218C250.949 113.218 250.261 112.657 250.261 111.871C250.261 111.084 250.794 110.53 252.237 110.53H253.458V110.467C253.458 109.849 253.065 109.491 252.274 109.491C251.757 109.487 251.253 109.642 250.838 109.933L250.401 109.168C250.99 108.784 251.693 108.589 252.407 108.613C253.82 108.613 254.56 109.231 254.56 110.523ZM253.45 111.751V111.232H252.34C251.6 111.232 251.386 111.499 251.386 111.828C251.386 112.158 251.719 112.453 252.288 112.453C252.539 112.468 252.788 112.408 253.002 112.282C253.215 112.156 253.382 111.971 253.48 111.751H253.45Z" fill="white"/>
<path d="M255.863 107.293C255.863 107.204 255.883 107.117 255.922 107.036C255.96 106.954 256.016 106.882 256.086 106.822C256.155 106.763 256.237 106.718 256.326 106.69C256.415 106.663 256.51 106.653 256.603 106.662C256.694 106.651 256.787 106.658 256.875 106.683C256.963 106.709 257.044 106.751 257.114 106.808C257.184 106.865 257.24 106.935 257.279 107.014C257.319 107.092 257.34 107.178 257.343 107.265C257.298 107.411 257.204 107.539 257.076 107.63C256.948 107.721 256.792 107.771 256.632 107.771C256.472 107.771 256.316 107.721 256.188 107.63C256.06 107.539 255.967 107.411 255.922 107.265L255.863 107.293ZM256.011 108.662H257.121V113.162H256.04L256.011 108.662Z" fill="white"/>
<path d="M258.579 106.915H259.689V113.162H258.579V106.915Z" fill="white"/>
<path d="M260.606 112.713L261.028 111.913C261.525 112.202 262.095 112.357 262.678 112.362C263.381 112.362 263.677 112.173 263.677 111.864C263.677 111.007 260.717 111.815 260.717 110.017C260.717 109.168 261.524 108.613 262.804 108.613C263.42 108.602 264.03 108.735 264.58 109L264.151 109.8C263.738 109.57 263.267 109.454 262.789 109.463C262.116 109.463 261.797 109.673 261.797 109.968C261.797 110.881 264.757 110.074 264.757 111.829C264.757 112.671 263.943 113.233 262.611 113.233C261.904 113.245 261.208 113.065 260.606 112.713Z" fill="white"/>
<path opacity="0.6" d="M204.595 94.4468H206.023V92.6356H204.595V94.4468Z" fill="white"/>
<path opacity="0.6" d="M202.264 94.4399H203.692V92.0251H202.264V94.4399Z" fill="white"/>
<path opacity="0.6" d="M199.934 94.4399H201.362V91.4284H199.934V94.4399Z" fill="white"/>
<path opacity="0.6" d="M197.61 94.4399H199.038V90.8246H197.61V94.4399Z" fill="white"/>
<path opacity="0.6" d="M294.498 91.9761H293.647V93.7872H294.498V91.9761Z" fill="white"/>
<path opacity="0.6" d="M295.075 94.4468H301.824V91.3159H295.075V94.4468Z" fill="white"/>
<path d="M184.726 222.66L184.053 227.701L171.613 227.68L172.279 222.639L184.726 222.66Z" fill="#B55B52"/>
<path d="M183.838 228.571C184.023 229.385 184.245 230.838 183.735 231.379C183.663 231.464 183.57 231.531 183.464 231.572C183.358 231.614 183.242 231.63 183.128 231.618C183.059 231.617 182.991 231.6 182.931 231.566C182.871 231.533 182.822 231.485 182.788 231.428C182.41 230.817 183.483 228.754 183.602 228.522C183.613 228.498 183.632 228.479 183.656 228.468C183.681 228.456 183.708 228.453 183.735 228.459C183.749 228.46 183.764 228.463 183.777 228.469C183.79 228.475 183.802 228.484 183.811 228.494C183.821 228.505 183.828 228.517 183.833 228.53C183.837 228.543 183.839 228.557 183.838 228.571ZM182.995 231.302V231.344C183.008 231.366 183.028 231.384 183.051 231.397C183.075 231.409 183.101 231.415 183.128 231.414C183.204 231.421 183.28 231.41 183.351 231.383C183.422 231.357 183.485 231.314 183.535 231.26C183.816 230.944 183.861 230.108 183.646 228.992C183.276 229.8 182.847 230.916 182.995 231.302Z" fill="#FF441F"/>
<path d="M183.838 228.571C183.845 228.584 183.849 228.599 183.849 228.613C183.849 228.628 183.845 228.642 183.838 228.655C183.557 229.273 182.417 230.516 181.818 230.431C181.67 230.431 181.5 230.319 181.455 229.989C181.441 229.871 181.452 229.75 181.488 229.636C181.523 229.521 181.583 229.415 181.663 229.322C182.237 228.848 182.954 228.556 183.712 228.487C183.734 228.486 183.755 228.49 183.774 228.499C183.793 228.507 183.81 228.52 183.823 228.536C183.823 228.536 183.838 228.557 183.838 228.571ZM181.737 230.087C181.737 230.186 181.833 230.193 181.855 230.193C182.218 230.242 183.113 229.4 183.498 228.789C182.889 228.857 182.318 229.102 181.862 229.491C181.802 229.558 181.756 229.636 181.73 229.721C181.703 229.805 181.695 229.895 181.707 229.982C181.713 230.018 181.723 230.053 181.737 230.087Z" fill="#FF441F"/>
<path d="M183.098 228.08L183.031 222.534C183.029 222.434 183.063 222.336 183.127 222.256C183.192 222.177 183.284 222.121 183.387 222.099L188.115 220.997C188.228 220.964 188.348 220.958 188.465 220.978C188.581 220.998 188.69 221.045 188.784 221.114C188.877 221.182 188.952 221.271 189.002 221.373C189.052 221.475 189.075 221.587 189.07 221.699C189.07 223.699 188.974 226.613 189.003 229.105C189.04 232.046 188.863 233.913 188.9 237.36C188.9 239.466 186.724 240.07 186.509 239.2C185.547 235.247 185.769 232.671 183.549 229.287C183.286 228.931 183.13 228.514 183.098 228.08Z" fill="#263238"/>
<path opacity="0.5" d="M183.098 228.08L183.031 222.534C183.029 222.434 183.063 222.336 183.127 222.256C183.192 222.177 183.284 222.121 183.387 222.099L188.115 220.997C188.228 220.964 188.348 220.958 188.465 220.978C188.581 220.998 188.69 221.045 188.784 221.114C188.877 221.182 188.952 221.271 189.002 221.373C189.052 221.475 189.075 221.587 189.07 221.699C189.07 223.699 188.974 226.613 189.003 229.105C189.04 232.046 188.863 233.913 188.9 237.36C188.9 239.466 186.724 240.07 186.509 239.2C185.547 235.247 185.769 232.671 183.549 229.287C183.286 228.931 183.13 228.514 183.098 228.08Z" fill="white"/>
<path opacity="0.2" d="M171.613 227.68L178.029 227.687L178.702 222.646L172.287 222.639L171.613 227.68Z" fill="black"/>
<path d="M176.697 230.523L177.896 220.33L174.44 219.993L172.945 231.176L176.697 230.523Z" fill="#263238"/>
<path d="M164.051 144.465C162.238 147.42 160.351 150.263 158.353 153.099C156.326 156.006 154.122 158.797 151.752 161.46C151.426 161.811 151.086 162.162 150.701 162.534C150.26 162.958 149.791 163.355 149.295 163.721C149.117 163.847 148.962 163.952 148.725 164.093L148.555 164.191L148.333 164.303L148.111 164.408C148.006 164.457 147.897 164.499 147.785 164.535C146.86 164.868 145.847 164.915 144.892 164.668C144.22 164.487 143.593 164.179 143.049 163.763C142.694 163.496 142.369 163.195 142.08 162.864C141.347 161.973 140.747 160.99 140.297 159.944C139.914 159.084 139.581 158.205 139.298 157.311C138.25 153.966 137.554 150.53 137.218 147.055L141.118 146.178C142.443 149.203 143.775 152.306 145.218 155.114C145.58 155.816 145.958 156.476 146.342 157.08C146.616 157.564 146.965 158.007 147.378 158.392C147.423 158.392 147.46 158.427 147.378 158.35C147.183 158.196 146.952 158.085 146.705 158.027C146.176 157.889 145.616 157.908 145.099 158.083L144.936 158.154L144.855 158.189H144.781C144.781 158.189 145.077 157.894 145.284 157.648C145.491 157.403 145.743 157.122 145.972 156.827C146.927 155.648 147.889 154.314 148.821 152.959C149.754 151.604 150.701 150.228 151.611 148.838L157.132 140.449L164.051 144.465Z" fill="#B65B52"/>
<path d="M166.87 141.102C168.387 145.742 158.471 158.483 158.471 158.483L148.111 152.306C149.965 148.267 152.275 144.43 155 140.863C159.1 135.781 165.197 136.019 166.87 141.102Z" fill="#FF441F"/>
<path opacity="0.7" d="M166.87 141.102C168.387 145.742 158.471 158.483 158.471 158.483L148.111 152.306C149.965 148.267 152.275 144.43 155 140.863C159.1 135.781 165.197 136.019 166.87 141.102Z" fill="white"/>
<path opacity="0.2" d="M160.343 147.532C157.753 148.684 155.022 152.889 154.645 156.202L158.471 158.491C160.838 155.403 162.961 152.154 164.82 148.768C164.013 147.596 163.31 146.22 160.343 147.532Z" fill="black"/>
<path d="M189.225 134.138C188.045 139.876 187.332 145.692 187.094 151.534C186.917 155.493 186.931 159.221 187.042 162.569C187.294 170.347 188.034 176.174 187.96 178.16L159.84 178.736C153.306 152.994 158.641 137.943 158.641 137.943C160.767 137.164 162.939 136.502 165.146 135.963C165.612 135.851 166.093 135.746 166.589 135.64C170.684 134.934 174.817 134.442 178.969 134.166C179.776 134.11 180.597 134.068 181.396 134.04C185.503 133.892 189.225 134.138 189.225 134.138Z" fill="#FF441F"/>
<path opacity="0.7" d="M187.042 162.569C187.301 170.347 188.034 176.174 187.96 178.16L159.84 178.736C153.306 152.994 158.641 137.943 158.641 137.943C160.767 137.164 162.939 136.502 165.146 135.963C165.612 135.851 166.093 135.746 166.589 135.64C170.684 134.935 174.817 134.443 178.969 134.166C179.776 134.11 180.597 134.068 181.396 134.04C185.518 133.892 189.24 134.138 189.24 134.138C188.304 138.623 187.672 143.16 187.346 147.722C187.242 149.013 187.168 150.284 187.109 151.534C187.02 153.401 186.983 155.226 186.976 156.974C186.954 158.933 186.991 160.8 187.042 162.569Z" fill="white"/>
<path d="M171.895 122.682C172.132 126.444 173.175 133.212 176.483 134.967C175.626 136.392 174.455 137.626 173.051 138.585C171.646 139.543 170.04 140.203 168.343 140.519C165.057 141.221 164.31 139.115 164.709 137.711C168.683 135.76 167.766 132.797 166.271 130.2L171.895 122.682Z" fill="#B55B52"/>
<path opacity="0.2" d="M169.593 125.763L166.241 130.228C166.603 130.829 166.906 131.461 167.144 132.116C168.705 131.52 170.466 129.308 170.207 127.68C170.125 127.011 169.917 126.362 169.593 125.763Z" fill="black"/>
<path d="M155.252 116.041C154.986 118.069 156.088 121.951 158.671 120.175C161.254 118.399 155.711 112.552 155.252 116.041Z" fill="#263238"/>
<path d="M170.326 116.104C171.591 121.018 172.59 123.784 170.836 126.971C168.195 131.765 161.216 131.358 158.434 126.922C155.933 122.927 154.29 115.619 158.626 112.299C159.588 111.562 160.73 111.069 161.947 110.866C163.164 110.662 164.415 110.755 165.584 111.135C166.753 111.515 167.801 112.17 168.631 113.039C169.46 113.908 170.043 114.963 170.326 116.104Z" fill="#B55B52"/>
<path d="M172.546 110.558H166.626V113.773C166.73 113.703 166.855 113.64 166.959 113.577C167.063 113.514 167.558 118.238 170.444 119.712C174.159 116.792 175.055 112.229 172.546 110.558Z" fill="#263238"/>
<path d="M173.589 119.523C173.58 120.778 173.048 121.98 172.109 122.864C170.836 124.015 169.356 123.124 169.001 121.572C168.69 120.168 168.964 117.894 170.585 117.36C170.937 117.249 171.313 117.222 171.679 117.279C172.045 117.337 172.391 117.478 172.687 117.691C172.983 117.904 173.22 118.182 173.377 118.501C173.534 118.82 173.607 119.171 173.589 119.523Z" fill="#B55B52"/>
<path d="M163.074 119.635C163.2 120.028 163.074 120.407 162.815 120.484C162.556 120.562 162.223 120.309 162.075 119.916C161.927 119.523 162.075 119.151 162.334 119.073C162.593 118.996 162.948 119.249 163.074 119.635Z" fill="#263238"/>
<path d="M158.404 120.968C158.53 121.362 158.404 121.741 158.145 121.818C157.886 121.895 157.553 121.635 157.405 121.249C157.257 120.863 157.405 120.477 157.664 120.4C157.923 120.323 158.279 120.582 158.404 120.968Z" fill="#263238"/>
<path d="M159.951 120.744C159.821 122.043 159.503 123.319 159.004 124.535C159.347 124.635 159.708 124.664 160.064 124.622C160.42 124.58 160.762 124.466 161.069 124.289L159.951 120.744Z" fill="#A02724"/>
<path d="M163.77 125.146C163.599 125.22 163.423 125.283 163.244 125.335C163.228 125.339 163.211 125.341 163.195 125.339C163.178 125.337 163.162 125.332 163.148 125.324C163.133 125.316 163.121 125.306 163.111 125.293C163.101 125.281 163.093 125.266 163.089 125.251C163.083 125.236 163.081 125.221 163.082 125.205C163.083 125.189 163.087 125.174 163.095 125.16C163.103 125.146 163.113 125.134 163.126 125.124C163.139 125.115 163.154 125.108 163.17 125.104C163.687 124.969 164.162 124.72 164.557 124.377C164.952 124.034 165.256 123.607 165.442 123.131C165.446 123.116 165.454 123.102 165.464 123.089C165.474 123.077 165.487 123.067 165.502 123.06C165.516 123.052 165.532 123.048 165.549 123.047C165.565 123.046 165.582 123.048 165.597 123.054C165.613 123.058 165.629 123.065 165.642 123.074C165.655 123.084 165.666 123.096 165.674 123.11C165.683 123.124 165.688 123.139 165.69 123.154C165.692 123.17 165.691 123.186 165.686 123.201C165.526 123.633 165.273 124.029 164.943 124.364C164.613 124.699 164.213 124.965 163.77 125.146Z" fill="#263238"/>
<path d="M164.043 117.802C164.005 117.823 163.962 117.833 163.918 117.833C163.874 117.833 163.83 117.823 163.792 117.802C163.539 117.616 163.244 117.49 162.93 117.434C162.616 117.378 162.293 117.394 161.986 117.479C161.922 117.501 161.852 117.498 161.79 117.472C161.729 117.446 161.68 117.398 161.653 117.339C161.641 117.31 161.636 117.278 161.637 117.247C161.638 117.215 161.646 117.184 161.659 117.155C161.673 117.127 161.693 117.101 161.717 117.079C161.741 117.058 161.77 117.041 161.801 117.03C162.187 116.917 162.596 116.893 162.994 116.961C163.391 117.028 163.767 117.184 164.088 117.416C164.141 117.453 164.177 117.508 164.189 117.57C164.2 117.631 164.185 117.695 164.147 117.746C164.119 117.774 164.083 117.793 164.043 117.802Z" fill="#263238"/>
<path d="M155.896 120.042C155.847 120.053 155.796 120.053 155.748 120.042C155.682 120.03 155.624 119.995 155.584 119.945C155.545 119.894 155.526 119.831 155.533 119.768C155.586 119.392 155.734 119.033 155.965 118.723C156.196 118.412 156.502 118.159 156.858 117.985C156.888 117.972 156.92 117.965 156.953 117.964C156.986 117.963 157.019 117.968 157.05 117.979C157.081 117.99 157.11 118.007 157.134 118.029C157.158 118.05 157.177 118.076 157.191 118.104C157.205 118.133 157.214 118.164 157.215 118.195C157.217 118.227 157.212 118.259 157.2 118.288C157.188 118.318 157.17 118.345 157.147 118.367C157.124 118.39 157.096 118.408 157.065 118.42C156.786 118.557 156.547 118.757 156.367 119.001C156.188 119.246 156.075 119.529 156.036 119.824C156.039 119.87 156.027 119.915 156.002 119.954C155.977 119.993 155.94 120.023 155.896 120.042Z" fill="#263238"/>
<path d="M168.861 114.7C168.754 114.795 168.637 114.879 168.513 114.952C168.183 115.162 167.802 115.289 167.406 115.321C167.01 115.353 166.611 115.289 166.249 115.135C164.769 114.517 164.103 110.593 160.033 112.783C159.578 112.706 159.109 112.753 158.682 112.92C158.255 113.087 157.886 113.366 157.62 113.724C156.606 115.016 157.568 119.53 155.245 118.996C152.921 118.462 153.299 117.782 153.299 117.782C153.299 117.782 153.957 118.14 154.32 117.817C153.97 117.56 153.711 117.208 153.579 116.807C153.446 116.407 153.447 115.977 153.58 115.577C153.58 115.577 154.164 116.181 154.534 116.041C154.061 114.219 154.187 112.303 154.897 110.551C156.074 107.364 164.221 107.708 164.221 107.708C164.221 107.708 165.168 106.044 168.89 107.006C172.613 107.968 174.485 112.095 173.996 113.949" fill="#263238"/>
<path d="M179.605 231.365C172.59 232.706 166.581 233.654 161.461 234.25C138.003 236.974 133.074 232.257 134.998 223.383C137.662 211.063 159.233 185.616 159.233 185.616V175.5H164.095L171.606 174.966L171.769 189.771L171.932 204.092C171.932 204.092 166.234 208.88 161.216 213.541C156.873 217.578 153.039 221.509 153.816 222.155C154.401 222.618 157.302 222.688 160.906 222.583C168.091 222.372 178.074 221.439 178.074 221.439L179.605 231.365Z" fill="#FF441F"/>
<path opacity="0.2" d="M171.932 204.093C171.932 204.093 166.234 208.88 161.216 213.541C161.32 203.664 169.194 187.434 169.194 187.434L171.769 189.772L171.932 204.093Z" fill="black"/>
<path opacity="0.2" d="M179.605 231.365C172.59 232.706 166.581 233.654 161.46 234.25C160.662 230.409 160.487 226.475 160.942 222.583C168.128 222.373 178.11 221.439 178.11 221.439L179.605 231.365Z" fill="black"/>
<path d="M187.649 200.947C186.295 212.832 172.99 278.589 172.99 278.589H163.244L167.299 199.031L164.095 175.5L188.212 173.787C188.212 173.787 188.382 176.012 188.471 179.572C188.471 180.597 188.515 181.727 188.523 182.955C188.587 188.963 188.295 194.97 187.649 200.947Z" fill="#FF441F"/>
<path d="M163.866 288.683H169.209L170.726 276.946H165.383L163.866 288.683Z" fill="#B55B52"/>
<path opacity="0.2" d="M165.383 276.946H170.725L169.941 282.997H164.598L165.383 276.946Z" fill="black"/>
<path d="M173.693 280.063H162.171L162.208 276.799L174.24 276.139L173.693 280.063Z" fill="#263238"/>
<path d="M161.749 288.978C161.384 289.005 161.02 288.916 160.713 288.726C160.618 288.647 160.544 288.548 160.497 288.437C160.451 288.326 160.434 288.206 160.447 288.087C160.447 288.018 160.467 287.95 160.505 287.891C160.543 287.831 160.597 287.783 160.661 287.75C161.246 287.462 162.985 288.452 163.177 288.578C163.199 288.592 163.216 288.611 163.227 288.633C163.237 288.656 163.24 288.68 163.236 288.705C163.232 288.727 163.221 288.748 163.205 288.765C163.19 288.782 163.17 288.795 163.148 288.803C162.69 288.911 162.221 288.97 161.749 288.978ZM160.942 287.933C160.889 287.921 160.833 287.921 160.78 287.933C160.754 287.947 160.732 287.967 160.718 287.992C160.704 288.017 160.697 288.045 160.698 288.073C160.688 288.154 160.699 288.236 160.73 288.311C160.761 288.387 160.811 288.455 160.876 288.508C161.473 288.771 162.155 288.804 162.778 288.599C162.216 288.268 161.593 288.042 160.942 287.933Z" fill="#FF441F"/>
<path d="M163.111 288.803H163.051C162.496 288.515 161.416 287.399 161.527 286.844C161.543 286.755 161.592 286.674 161.665 286.616C161.738 286.558 161.831 286.527 161.927 286.528C162.121 286.51 162.315 286.566 162.467 286.683C163.088 287.16 163.207 288.627 163.207 288.69C163.21 288.711 163.207 288.732 163.198 288.751C163.188 288.769 163.174 288.785 163.155 288.796C163.141 288.801 163.126 288.803 163.111 288.803ZM162.015 286.746H161.956C161.793 286.746 161.779 286.837 161.771 286.865C161.712 287.202 162.4 288.038 162.955 288.431C162.907 287.853 162.681 287.301 162.304 286.844C162.223 286.78 162.121 286.745 162.015 286.746Z" fill="#FF441F"/>
<path d="M163.54 288.094H170.059C170.166 288.096 170.269 288.131 170.352 288.195C170.435 288.258 170.493 288.346 170.518 288.445L171.621 292.945C171.646 293.054 171.645 293.168 171.618 293.277C171.591 293.387 171.538 293.489 171.463 293.576C171.388 293.663 171.294 293.733 171.187 293.78C171.079 293.828 170.962 293.852 170.844 293.85C168.749 293.85 167.218 293.696 164.576 293.696C162.955 293.696 158.056 293.857 155.814 293.857C153.572 293.857 153.261 291.751 154.171 291.562C158.286 290.712 161.372 289.533 162.681 288.41C162.915 288.205 163.222 288.092 163.54 288.094Z" fill="#263238"/>
<path opacity="0.5" d="M163.54 288.094H170.059C170.166 288.096 170.269 288.131 170.352 288.195C170.435 288.258 170.493 288.346 170.518 288.445L171.621 292.945C171.646 293.054 171.645 293.168 171.618 293.277C171.591 293.387 171.538 293.489 171.463 293.576C171.388 293.663 171.294 293.733 171.187 293.78C171.079 293.828 170.962 293.852 170.844 293.85C168.749 293.85 167.218 293.696 164.576 293.696C162.955 293.696 158.056 293.857 155.814 293.857C153.572 293.857 153.261 291.751 154.171 291.562C158.286 290.712 161.372 289.533 162.681 288.41C162.915 288.205 163.222 288.092 163.54 288.094Z" fill="white"/>
<path d="M168.231 140.54C168.231 140.54 169.859 141.748 171.695 142.892C173.567 141.32 177.874 137.276 177 134.637C176.566 134.147 175.968 133.812 175.306 133.689C173.352 136.319 170.963 138.633 168.231 140.54Z" fill="white"/>
<path d="M168.231 140.54C167.372 141.641 166.68 142.851 166.174 144.135C164.369 143.433 163.991 138.259 164.435 137.578C164.938 137.012 165.617 136.612 166.374 136.434C166.374 136.434 165.612 140.519 168.231 140.54Z" fill="white"/>
<path opacity="0.2" d="M188.523 182.955C187.755 183.425 186.923 183.793 186.051 184.05L183.217 178.048C185.092 178.032 186.926 178.564 188.471 179.572C188.5 180.596 188.515 181.727 188.523 182.955Z" fill="black"/>
<path opacity="0.2" d="M187.331 147.722C187.228 149.014 187.154 150.284 187.094 151.534C187.006 153.401 186.969 155.226 186.961 156.974C184.393 153.745 185.141 147.259 185.141 147.259C185.903 147.207 186.664 147.368 187.331 147.722Z" fill="black"/>
<path d="M192.651 137.908C194.542 141.361 196.205 144.923 197.632 148.571C198.365 150.442 198.997 152.347 199.526 154.278C199.785 155.275 200.022 156.293 200.199 157.374C200.402 158.557 200.471 159.757 200.407 160.954C200.382 161.317 200.338 161.678 200.273 162.035C200.229 162.239 200.199 162.422 200.14 162.632L200.051 162.941L199.97 163.152C199.763 163.706 199.556 164.289 199.326 164.752C198.875 165.742 198.386 166.62 197.891 167.504C196.914 169.252 195.841 170.888 194.76 172.502C192.592 175.718 190.253 178.827 187.753 181.818L184.349 179.796L189.344 169.687C190.172 168.016 190.957 166.339 191.682 164.696C192.037 163.882 192.37 163.053 192.629 162.295C192.792 161.895 192.859 161.593 192.962 161.242L192.999 161.116V160.667C192.961 159.988 192.86 159.314 192.696 158.652C192.526 157.887 192.289 157.086 192.022 156.272C191.475 154.643 190.824 152.98 190.113 151.316C188.7 148.009 187.072 144.626 185.436 141.425L192.651 137.908Z" fill="#B65B52"/>
<path d="M190.787 134.482C195.5 136.392 200.022 150.228 200.022 150.228L187.627 154.265C185.752 150.377 184.254 146.335 183.15 142.19C181.492 135.535 185.074 132.173 190.787 134.482Z" fill="#FF441F"/>
<path opacity="0.7" d="M190.787 134.482C195.5 136.392 200.022 150.228 200.022 150.228L187.627 154.265C185.752 150.377 184.254 146.335 183.15 142.19C181.492 135.535 185.074 132.173 190.787 134.482Z" fill="white"/>
<path d="M182.647 177.697C182.647 177.697 187.827 180.828 189.07 182.667C189.07 182.667 188.234 190.965 184.726 190.389C181.219 189.814 179.983 184.226 182.647 177.697Z" fill="#FF441F"/>
<path d="M173.589 148.403L180.338 147.518V155.142C180.338 155.142 176.683 157.135 173.974 155.746L173.589 148.403Z" fill="white"/>
<path d="M147.46 145.819C147.483 145.885 147.491 145.955 147.484 146.024C147.476 146.094 147.453 146.16 147.416 146.22C147.379 146.28 147.328 146.332 147.268 146.372C147.208 146.412 147.14 146.439 147.067 146.451L141.451 147.511C141.296 147.533 141.138 147.504 141.003 147.429C140.869 147.353 140.765 147.236 140.711 147.097L137.255 136.813C137.23 136.743 137.22 136.669 137.225 136.596C137.23 136.523 137.251 136.451 137.287 136.386C137.322 136.32 137.371 136.262 137.43 136.215C137.489 136.168 137.558 136.132 137.632 136.111L143.249 135.051C143.411 135.043 143.572 135.086 143.706 135.174C143.839 135.262 143.939 135.388 143.989 135.535L147.46 145.819Z" fill="#263238"/>
<path opacity="0.3" d="M143.36 135.584L146.861 145.967C146.891 146.025 146.905 146.09 146.904 146.154C146.902 146.219 146.885 146.283 146.852 146.34C146.82 146.397 146.773 146.445 146.717 146.482C146.66 146.519 146.595 146.542 146.528 146.55L141.762 147.42C141.444 147.483 140.822 147.42 140.726 147.132L137.218 136.722C137.122 136.427 137.611 136.083 137.958 136.02L142.717 135.114C142.867 135.1 143.017 135.141 143.137 135.228C143.257 135.315 143.337 135.443 143.36 135.584Z" fill="white"/>
<path d="M137.447 149.336L137.144 144.177L142.731 146.353C142.731 146.353 142.731 150.972 140.208 150.86L137.447 149.336Z" fill="#B55B52"/>
<path d="M139.682 139.663L143.819 143.082L142.731 146.353L137.144 144.177L139.682 139.663Z" fill="#B55B52"/>
</svg>
