<svg width="291" height="300" viewBox="0 0 291 300" fill="none" xmlns="http://www.w3.org/2000/svg">
<path d="M147.753 291.48C222.88 291.48 283.783 256.032 283.783 212.304C283.783 168.576 222.88 133.128 147.753 133.128C72.6248 133.128 11.7217 168.576 11.7217 212.304C11.7217 256.032 72.6248 291.48 147.753 291.48Z" fill="#F5F5F5"/>
<path d="M46.0129 264.906L41.84 262.422C40.5247 261.636 40.5247 260.37 41.84 259.584L188.289 172.41C189.028 172.025 189.844 171.825 190.672 171.825C191.5 171.825 192.316 172.025 193.055 172.41L197.257 174.894C198.573 175.674 198.573 176.94 197.257 177.72L50.7795 264.906C50.0404 265.29 49.2241 265.491 48.3962 265.491C47.5684 265.491 46.752 265.29 46.0129 264.906Z" fill="#E6E6E6"/>
<path d="M214.618 250.422C238.372 250.422 257.628 238.959 257.628 224.82C257.628 210.68 238.372 199.218 214.618 199.218C190.865 199.218 171.608 210.68 171.608 224.82C171.608 238.959 190.865 250.422 214.618 250.422Z" fill="#E0E0E0"/>
<path d="M53.346 252.744C52.764 243.612 53.3867 234.33 47.8636 221.73C43.2076 211.158 35.5717 202.83 26.8708 202.182C23.2624 201.912 20.6551 202.782 19.136 205.428C16.4763 210.078 20.4397 215.064 24.6883 217.938C26.5565 219.204 41.9039 227.4 46.1467 245.574L47.9858 255.924L48.5678 255.57L53.346 252.744Z" fill="#FF441F"/>
<path opacity="0.25" d="M53.346 252.744C52.764 243.612 53.3867 234.33 47.8636 221.73C43.2076 211.158 35.5717 202.83 26.8708 202.182C23.2624 201.912 20.6551 202.782 19.136 205.428C16.4763 210.078 20.4397 215.064 24.6883 217.938C26.5565 219.204 41.9039 227.4 46.1467 245.574L47.9858 255.924L48.5678 255.57L53.346 252.744Z" fill="white"/>
<path d="M50.5464 249.6C50.4617 249.588 50.3834 249.547 50.3234 249.484C50.2635 249.421 50.2253 249.34 50.2146 249.252C47.456 227.16 39.3138 213.936 24.4437 208.734C24.396 208.713 24.3528 208.683 24.3168 208.644C24.2808 208.606 24.2528 208.56 24.2343 208.511C24.2158 208.461 24.2073 208.407 24.2093 208.354C24.2112 208.301 24.2237 208.248 24.2458 208.2C24.2901 208.104 24.3687 208.029 24.4652 207.991C24.5616 207.953 24.6686 207.955 24.7638 207.996C39.7619 212.934 48.1893 226.77 50.9829 249.174C50.9894 249.278 50.9567 249.38 50.8916 249.46C50.8265 249.539 50.734 249.589 50.6337 249.6H50.5464Z" fill="white"/>
<path d="M45.099 257.706C44.4705 254.538 42.8176 250.866 36.5611 243.792C31.1601 237.684 22.7386 234.276 21.0915 230.484C19.1127 225.924 22.6629 221.736 29.4374 222.642C37.5854 223.734 45.8906 236.226 48.9111 255.384L45.099 257.706Z" fill="#FF441F"/>
<path opacity="0.65" d="M45.099 257.706C44.4705 254.538 42.8176 250.866 36.5611 243.792C31.1601 237.684 22.7386 234.276 21.0915 230.484C19.1127 225.924 22.6629 221.736 29.4374 222.642C37.5854 223.734 45.8906 236.226 48.9111 255.384L45.099 257.706Z" fill="white"/>
<path d="M26.6729 226.956C26.6228 226.944 26.5707 226.943 26.52 226.952C26.4692 226.961 26.4208 226.981 26.3778 227.01C26.3347 227.039 26.2979 227.077 26.2696 227.122C26.2413 227.166 26.2221 227.216 26.2132 227.268C26.2021 227.32 26.2012 227.374 26.2104 227.426C26.2197 227.479 26.2389 227.529 26.2671 227.574C26.2953 227.618 26.3317 227.657 26.3744 227.687C26.4171 227.717 26.4652 227.738 26.5158 227.748C31.9924 228.948 43.4404 239.538 47.1477 256.362C47.1444 256.388 47.1444 256.414 47.1477 256.44L47.8403 256.02C44.098 238.998 32.7199 228.258 26.6729 226.956Z" fill="white"/>
<path d="M246.244 211.506C246.721 204.354 246.209 197.106 250.533 187.236C254.159 178.962 260.148 172.452 266.963 171.942C269.786 171.732 271.823 172.41 273.01 174.48C275.094 178.122 271.992 182.022 268.669 184.272C267.208 185.262 255.184 191.67 251.878 205.872L250.44 213.966L249.963 213.69L246.244 211.506Z" fill="#FF441F"/>
<path opacity="0.25" d="M246.244 211.506C246.721 204.354 246.209 197.106 250.533 187.236C254.159 178.962 260.148 172.452 266.963 171.942C269.786 171.732 271.823 172.41 273.01 174.48C275.094 178.122 271.992 182.022 268.669 184.272C267.208 185.262 255.184 191.67 251.878 205.872L250.44 213.966L249.963 213.69L246.244 211.506Z" fill="white"/>
<path d="M248.432 209.064C248.499 209.054 248.56 209.023 248.607 208.974C248.654 208.925 248.685 208.862 248.694 208.794C250.854 191.484 257.226 181.134 268.849 177.066C268.886 177.05 268.919 177.026 268.947 176.996C268.975 176.967 268.997 176.932 269.012 176.893C269.026 176.855 269.033 176.813 269.032 176.772C269.031 176.731 269.022 176.69 269.006 176.652C268.971 176.577 268.909 176.518 268.833 176.488C268.758 176.458 268.674 176.459 268.599 176.49C256.866 180.354 250.272 191.178 248.083 208.71C248.075 208.793 248.098 208.877 248.148 208.943C248.198 209.009 248.271 209.052 248.351 209.064H248.432Z" fill="white"/>
<path d="M252.699 215.4C253.187 212.916 254.485 210.048 259.374 204.51C263.599 199.71 270.194 197.064 271.486 194.094C273.034 190.53 270.252 187.254 264.956 187.962C258.583 188.802 252.076 198.6 249.719 213.6L252.699 215.4Z" fill="#FF441F"/>
<path opacity="0.65" d="M252.699 215.4C253.187 212.916 254.485 210.048 259.374 204.51C263.599 199.71 270.194 197.064 271.486 194.094C273.034 190.53 270.252 187.254 264.956 187.962C258.583 188.802 252.076 198.6 249.719 213.6L252.699 215.4Z" fill="white"/>
<path d="M251.197 213.21C251.249 213.198 251.297 213.172 251.337 213.136C251.376 213.099 251.406 213.052 251.424 213C254.863 200.016 262.93 192.888 267.213 191.964C267.253 191.956 267.291 191.939 267.325 191.916C267.358 191.892 267.387 191.862 267.409 191.827C267.431 191.791 267.446 191.752 267.454 191.711C267.461 191.67 267.461 191.627 267.452 191.586C267.445 191.546 267.429 191.507 267.407 191.473C267.384 191.438 267.355 191.409 267.321 191.387C267.288 191.364 267.25 191.349 267.21 191.342C267.171 191.335 267.13 191.337 267.091 191.346C262.348 192.366 254.34 199.578 250.83 212.832C250.809 212.913 250.819 213 250.86 213.073C250.9 213.146 250.967 213.2 251.046 213.222C251.096 213.231 251.148 213.227 251.197 213.21Z" fill="white"/>
<path d="M129.548 35.2981L131.369 34.1581C131.363 34.0282 131.363 33.898 131.369 33.7681V32.8381C131.416 31.9365 131.669 31.059 132.107 30.277C132.545 29.4951 133.155 28.8307 133.889 28.3381C134.107 28.1863 134.352 28.0815 134.61 28.0299C134.868 27.9784 135.134 27.9812 135.391 28.0381C135.541 26.7951 135.95 25.6003 136.59 24.5356C137.229 23.471 138.085 22.5616 139.098 21.8701C141.182 20.6341 142.87 21.6361 142.87 24.1141V25.5121C142.86 26.1889 142.752 26.8604 142.549 27.5041L145.139 25.9621C145.913 25.5001 146.536 25.8721 146.536 26.7961C146.51 27.296 146.37 27.7825 146.127 28.2162C145.884 28.6498 145.546 29.0184 145.139 29.2921L129.542 38.6281C128.768 39.0901 128.139 38.7121 128.139 37.7941C128.167 37.2932 128.309 36.8062 128.554 36.3725C128.799 35.9388 129.139 35.5707 129.548 35.2981Z" fill="#EBEBEB"/>
<path d="M118.367 24.2462L116.546 24.9662V20.8262C116.546 17.5442 114.002 16.7582 111.249 18.3962C108.491 20.0402 106.256 24.0302 106.256 27.3122V27.9122C105.866 27.788 105.454 27.757 105.05 27.8214C104.647 27.8859 104.263 28.0441 103.928 28.2842C102.882 28.9867 102.012 29.9337 101.388 31.0482C100.764 32.1627 100.404 33.4133 100.337 34.6982V34.9682L97.7935 36.4862C97.1079 36.9469 96.5365 37.5667 96.1251 38.2961C95.7138 39.0255 95.4739 39.8441 95.4248 40.6862C95.4248 42.2402 96.484 42.8702 97.7935 42.0902L118.367 29.8802C119.053 29.4196 119.624 28.7997 120.036 28.0704C120.447 27.341 120.687 26.5224 120.736 25.6802C120.736 24.0962 119.677 23.4662 118.367 24.2462Z" fill="#EBEBEB"/>
<path opacity="0.5" d="M48.0322 66.1437L73.9138 50.7417L60.9759 75.2457L48.0322 66.1437Z" fill="#FF441F"/>
<path opacity="0.3" d="M48.0322 54.942L73.9138 39.54L60.9759 64.044L48.0322 54.942Z" fill="#FF441F"/>
<path opacity="0.1" d="M48.0322 43.7399L73.9138 28.3379L60.9759 52.8419L48.0322 43.7399Z" fill="#FF441F"/>
<path d="M56.454 256.2C55.7178 256.655 54.8844 256.917 54.0271 256.962C52.8061 257.119 51.5675 256.896 50.471 256.32C49.6071 255.721 48.8931 254.919 48.3873 253.98C47.8816 253.042 47.5984 251.993 47.561 250.92V127.53L53.381 130.992V254.4C53.381 255.846 54.0853 256.68 55.127 256.68C55.5998 256.63 56.0544 256.465 56.454 256.2Z" fill="#E0E0E0"/>
<path d="M194.388 170.43C194.331 171.537 194.022 172.615 193.485 173.575C192.948 174.535 192.198 175.351 191.297 175.956L56.4537 256.2C54.7543 257.22 53.3691 256.392 53.3691 254.358V115.302L61.8838 110.238C63.5832 109.218 147.595 59.2382 149.294 58.2062L194.388 31.3442V170.43Z" fill="#FAFAFA"/>
<path d="M193.061 33.7022V170.43C193.003 171.297 192.754 172.138 192.334 172.891C191.913 173.644 191.332 174.288 190.634 174.774L55.7726 255.048C55.5585 255.193 55.3122 255.28 55.0568 255.3C54.7192 255.3 54.6668 254.7 54.6668 254.382V116.088L62.5238 111.414L106.756 85.0682L149.934 59.4002L193.061 33.7202M194.388 31.3442L149.271 58.2002C147.572 59.2142 63.5598 109.2 61.8604 110.232L53.3457 115.296V254.4C53.3457 255.846 54.0441 256.68 55.0568 256.68C55.5557 256.652 56.0382 256.487 56.4536 256.2L191.291 175.956C192.192 175.351 192.942 174.535 193.479 173.575C194.016 172.615 194.325 171.537 194.382 170.43V31.3442H194.388Z" fill="#EBEBEB"/>
<path d="M178.307 99.99V163.446C178.288 163.521 178.252 163.591 178.203 163.65L75.7065 224.658V161.196C75.7282 161.123 75.7638 161.056 75.8113 160.998L178.307 99.99ZM179.14 98.124C179.025 98.1249 178.914 98.1604 178.819 98.226L75.1944 159.9C74.9861 160.04 74.8127 160.229 74.6883 160.451C74.5639 160.673 74.4921 160.922 74.4785 161.178V225.978C74.4785 226.308 74.6357 226.506 74.8743 226.506C74.9858 226.5 75.094 226.465 75.1886 226.404L178.814 164.724C179.022 164.585 179.195 164.398 179.32 164.177C179.444 163.956 179.516 163.707 179.53 163.452V98.652C179.53 98.316 179.367 98.124 179.134 98.124H179.14Z" fill="#EBEBEB"/>
<path d="M50.4417 125.112C49.5788 124.512 48.8655 123.709 48.3599 122.771C47.8543 121.833 47.5705 120.785 47.5317 119.712V104.712C47.5901 103.604 47.9015 102.525 48.4405 101.563C48.9796 100.602 49.731 99.7856 50.6338 99.1802L185.489 18.9062C186.41 18.4039 187.432 18.1318 188.473 18.112C189.514 18.0922 190.546 18.3252 191.484 18.7922C192.346 19.3931 193.059 20.1953 193.565 21.1335C194.07 22.0717 194.354 23.1196 194.394 24.1922V39.1922C194.338 40.2985 194.029 41.3755 193.492 42.3349C192.955 43.2944 192.205 44.1091 191.303 44.7122L56.4538 124.998C55.5313 125.504 54.5059 125.779 53.461 125.798C52.4162 125.818 51.3816 125.583 50.4417 125.112Z" fill="#263238"/>
<path d="M194.353 23.6823C194.137 22.0323 192.834 21.4323 191.291 22.3563L56.4537 102.63C55.5455 103.233 54.7957 104.057 54.2712 105.03L48.4512 101.568C48.9721 100.591 49.725 99.7648 50.6395 99.1683L185.495 18.9123C186.412 18.4078 187.433 18.134 188.472 18.1131C189.512 18.0923 190.542 18.325 191.478 18.7923C192.271 19.3453 192.938 20.0686 193.435 20.9127C193.931 21.7568 194.244 22.7017 194.353 23.6823Z" fill="#455A64"/>
<path d="M194.388 24.1981V31.3441L149.271 58.2001C147.572 59.2141 63.5598 109.2 61.8604 110.232L53.3457 115.296V108.156C53.4035 107.05 53.7128 105.974 54.2487 105.014C54.7845 104.054 55.5318 103.237 56.4303 102.63L191.291 22.3561C192.991 21.3421 194.388 22.1641 194.388 24.1981Z" fill="#37474F"/>
<path d="M189.202 27.0004C190.203 26.4004 191.018 26.8864 191.018 28.0804C190.982 28.7285 190.8 29.3588 190.484 29.9206C190.169 30.4824 189.73 30.9598 189.202 31.3144C188.207 31.9144 187.392 31.4224 187.392 30.2344C187.427 29.5868 187.609 28.9568 187.923 28.3951C188.238 27.8333 188.676 27.3556 189.202 27.0004Z" fill="white"/>
<path d="M182.684 30.8642C183.685 30.2642 184.494 30.7502 184.494 31.9442C184.46 32.5911 184.278 33.2206 183.963 33.7816C183.649 34.3425 183.21 34.8189 182.684 35.1722C181.683 35.7722 180.874 35.2862 180.874 34.0982C180.907 33.4502 181.088 32.8194 181.402 32.2574C181.717 31.6954 182.156 31.218 182.684 30.8642Z" fill="white"/>
<path d="M176.165 34.7403C177.167 34.1403 177.976 34.6263 177.976 35.8143C177.942 36.4623 177.761 37.093 177.447 37.655C177.132 38.2171 176.693 38.6945 176.165 39.0483C175.164 39.6483 174.355 39.1623 174.355 37.9743C174.389 37.3263 174.57 36.6956 174.884 36.1335C175.199 35.5715 175.638 35.0941 176.165 34.7403Z" fill="white"/>
<path d="M58.5895 112.2C59.4509 111.684 59.7535 110.904 60.1551 109.404L61.1038 106.02C61.4471 104.664 61.808 103.734 62.6752 103.224L100.418 80.7542C101.285 80.2382 101.966 80.1542 102.624 81.3062L103.788 83.4842C104.282 84.3602 104.527 84.8762 105.388 84.3602L134.698 66.9242L194.388 31.3442V47.0642L53.3457 131.016V115.302L58.5837 112.17" fill="#E0E0E0"/>
<path d="M53.3459 115.302V131.01L47.5317 127.554V111.858L53.3459 115.302Z" fill="#E0E0E0"/>
<path opacity="0.15" d="M53.3459 115.302V131.01L47.5317 127.554V111.858L53.3459 115.302Z" fill="black"/>
<path opacity="0.3" d="M61.1853 118.416L58.4732 120.03L59.5033 117.978C59.5457 117.903 59.568 117.817 59.568 117.729C59.568 117.642 59.5457 117.556 59.5033 117.48C59.4218 117.378 59.288 117.45 59.1948 117.63L57.7224 120.552C57.7063 120.587 57.6927 120.623 57.6816 120.66C57.6842 120.672 57.6842 120.684 57.6816 120.696C57.6759 120.748 57.6759 120.8 57.6816 120.852C57.6751 120.894 57.6751 120.937 57.6816 120.978C57.6917 121.002 57.7055 121.025 57.7224 121.044L59.1948 122.208C59.2159 122.224 59.2414 122.233 59.2676 122.233C59.2938 122.233 59.3193 122.224 59.3403 122.208C59.4143 122.155 59.4711 122.079 59.5033 121.992C59.5848 121.8 59.5731 121.59 59.5033 121.518L58.4732 120.696L61.1853 119.082C61.2554 119.025 61.3119 118.952 61.3502 118.869C61.3886 118.786 61.4078 118.694 61.4065 118.602C61.4065 118.44 61.3075 118.344 61.1853 118.416Z" fill="black"/>
<path opacity="0.3" d="M63.438 117.066L66.1501 115.452L65.12 114.63C65.0269 114.558 65.0152 114.342 65.12 114.15C65.2248 113.958 65.3353 113.862 65.4285 113.934L66.9009 115.134C66.9189 115.15 66.9329 115.171 66.9417 115.194C66.9482 115.236 66.9482 115.278 66.9417 115.32C66.9473 115.37 66.9473 115.42 66.9417 115.47C66.9391 115.482 66.9391 115.494 66.9417 115.506C66.9306 115.543 66.917 115.579 66.9009 115.614L65.4285 118.536C65.3957 118.605 65.3454 118.663 65.283 118.704C65.2612 118.726 65.232 118.738 65.2015 118.738C65.171 118.738 65.1418 118.726 65.12 118.704C65.0777 118.627 65.0554 118.54 65.0554 118.452C65.0554 118.364 65.0777 118.277 65.12 118.2L66.1501 116.148L63.438 117.768C63.3158 117.84 63.2169 117.738 63.2169 117.546C63.2155 117.454 63.2347 117.363 63.2731 117.279C63.3114 117.196 63.3679 117.123 63.438 117.066Z" fill="black"/>
<path opacity="0.3" d="M72.127 109.002C72.127 108.834 71.9698 108.858 71.8942 109.038L71.5275 109.98C70.8931 109.908 70.1249 110.544 69.6011 111.678C68.9318 113.148 68.9318 114.882 69.6011 115.548C69.7647 115.705 69.9759 115.798 70.1987 115.812C70.4215 115.826 70.6422 115.761 70.8233 115.626C71.3673 115.252 71.7908 114.719 72.0397 114.096C72.0835 114.023 72.1067 113.939 72.1067 113.853C72.1067 113.767 72.0835 113.683 72.0397 113.61C71.9582 113.52 71.8185 113.61 71.7312 113.79C71.2307 114.888 70.4159 115.374 69.9096 114.876C69.4032 114.378 69.409 113.076 69.9096 111.984C70.2704 111.204 70.7826 110.742 71.2307 110.712L70.9513 111.42C70.8815 111.606 70.9513 111.774 71.0619 111.696L72.1677 110.952C72.2108 110.914 72.2444 110.866 72.2657 110.811C72.2869 110.757 72.2953 110.698 72.2899 110.64L72.127 109.002Z" fill="black"/>
<path opacity="0.3" d="M99.8653 85.7403L100.954 83.3403C101.018 83.2288 101.052 83.1013 101.052 82.9713C101.052 82.8414 101.018 82.7139 100.954 82.6023C100.826 82.4703 100.616 82.6023 100.488 82.8783L99.3997 85.2783L98.3114 84.1983C98.1833 84.0723 97.9738 84.1983 97.8458 84.4743C97.7812 84.5859 97.7471 84.7134 97.7471 84.8433C97.7471 84.9733 97.7812 85.1008 97.8458 85.2123L98.9341 86.2923L97.8458 88.6923C97.7812 88.8039 97.7471 88.9314 97.7471 89.0613C97.7471 89.1913 97.7812 89.3188 97.8458 89.4303C97.8783 89.4587 97.9196 89.4742 97.9622 89.4742C98.0048 89.4742 98.046 89.4587 98.0786 89.4303C98.1803 89.3556 98.2607 89.254 98.3114 89.1363L99.3997 86.7363L100.488 87.8163C100.521 87.8447 100.562 87.8602 100.604 87.8602C100.647 87.8602 100.688 87.8447 100.721 87.8163C100.869 87.6981 100.973 87.5309 101.015 87.3429C101.057 87.155 101.036 86.9578 100.954 86.7843L99.8653 85.7403Z" fill="black"/>
<path d="M78.1392 110.082V106.98C78.1676 106.448 78.3173 105.93 78.5762 105.468C78.835 105.006 79.1957 104.614 79.6291 104.322L181.584 43.4883C182.404 42.9963 183.068 43.3923 183.068 44.3703V47.4783C183.041 48.0096 182.892 48.5268 182.634 48.9876C182.376 49.4485 182.016 49.84 181.584 50.1303L79.6291 111C78.8085 111.456 78.1392 111.06 78.1392 110.082Z" fill="#FAFAFA"/>
<path d="M179.582 50.4001C179.538 50.4069 179.492 50.4069 179.448 50.4001C179.364 50.3601 179.296 50.292 179.255 50.207C179.214 50.122 179.202 50.0251 179.221 49.9321L179.372 48.6721L178.79 48.2461C178.739 48.2068 178.698 48.155 178.67 48.0954C178.643 48.0357 178.63 47.9701 178.633 47.9041C178.632 47.8019 178.654 47.7007 178.696 47.6083C178.738 47.5158 178.801 47.4344 178.878 47.3701L179.751 46.6741C179.772 46.6559 179.787 46.6304 179.791 46.6021L180.181 45.2821C180.206 45.1738 180.261 45.0753 180.339 44.9994C180.418 44.9235 180.517 44.8736 180.624 44.8561C180.693 44.8377 180.767 44.8417 180.835 44.8674C180.902 44.8931 180.961 44.9394 181.002 45.0001L181.328 45.7201L182.067 45.4261C182.134 45.398 182.207 45.3921 182.277 45.4094C182.347 45.4266 182.41 45.466 182.457 45.5221C182.514 45.6112 182.544 45.7155 182.544 45.8221C182.544 45.9288 182.514 46.033 182.457 46.1221L181.823 47.3221C181.817 47.3478 181.817 47.3745 181.823 47.4001L181.968 48.5041C181.978 48.6046 181.967 48.7061 181.934 48.8015C181.902 48.8968 181.85 48.9838 181.782 49.0561C181.74 49.1065 181.687 49.1455 181.627 49.1696C181.567 49.1937 181.502 49.2021 181.438 49.1941L180.723 49.1041L179.954 50.1181C179.923 50.1956 179.872 50.2628 179.806 50.3124C179.741 50.3621 179.663 50.3924 179.582 50.4001ZM179.157 47.8381L179.739 48.2641C179.799 48.3136 179.844 48.3788 179.871 48.4527C179.897 48.5266 179.904 48.6066 179.89 48.6841L179.791 49.5241L180.309 48.8461C180.352 48.7816 180.411 48.7298 180.479 48.6961C180.548 48.6623 180.624 48.6479 180.699 48.6541L181.415 48.7441C181.432 48.7191 181.442 48.6902 181.444 48.6601L181.293 47.5561C181.278 47.4173 181.305 47.2771 181.369 47.1541L181.922 46.0861L181.34 46.3141C181.256 46.3471 181.163 46.3463 181.08 46.3118C180.997 46.2773 180.93 46.2117 180.891 46.1281L180.63 45.5281L180.286 46.7281C180.247 46.8593 180.173 46.976 180.071 47.0641L179.192 47.7601C179.179 47.7746 179.167 47.7908 179.157 47.8081V47.8381Z" fill="#E0E0E0"/>
<g opacity="0.2">
<path d="M185.926 42.2824C185.816 42.2887 185.707 42.2564 185.616 42.1908C185.526 42.1251 185.46 42.03 185.429 41.9209C185.398 41.8117 185.404 41.6949 185.446 41.5895C185.487 41.4841 185.562 41.3963 185.658 41.3404L189.639 38.9404C189.695 38.9073 189.756 38.8858 189.82 38.8773C189.884 38.8687 189.949 38.8732 190.011 38.8905C190.073 38.9077 190.131 38.9375 190.182 38.9779C190.233 39.0184 190.276 39.0688 190.308 39.1264C190.34 39.1839 190.361 39.2474 190.369 39.3132C190.378 39.379 190.373 39.4458 190.357 39.5099C190.34 39.574 190.311 39.634 190.272 39.6866C190.233 39.7392 190.184 39.7833 190.128 39.8164L186.147 42.2164C186.08 42.2576 186.004 42.2803 185.926 42.2824Z" fill="black"/>
<path d="M185.926 44.6523C185.818 44.6529 185.713 44.6165 185.627 44.5489C185.541 44.4813 185.479 44.3862 185.451 44.2785C185.423 44.1709 185.431 44.0567 185.472 43.9539C185.514 43.8511 185.588 43.7654 185.682 43.7103L189.662 41.3403C189.718 41.3072 189.78 41.2857 189.844 41.2772C189.908 41.2686 189.972 41.2731 190.034 41.2904C190.097 41.3076 190.155 41.3374 190.206 41.3778C190.257 41.4183 190.3 41.4688 190.332 41.5263C190.364 41.5838 190.385 41.6473 190.393 41.7131C190.401 41.7789 190.397 41.8457 190.38 41.9098C190.363 41.9739 190.335 42.0339 190.295 42.0865C190.256 42.1391 190.207 42.1832 190.151 42.2163L186.17 44.6163C186.094 44.6513 186.009 44.6638 185.926 44.6523Z" fill="black"/>
<path d="M185.926 47.0286C185.816 47.0319 185.709 46.9977 185.62 46.9312C185.532 46.8648 185.467 46.7699 185.436 46.6614C185.406 46.5529 185.411 46.437 185.451 46.3319C185.491 46.2268 185.564 46.1384 185.658 46.0806L189.639 43.6806C189.695 43.6473 189.756 43.6257 189.82 43.6171C189.884 43.6084 189.949 43.6129 190.011 43.6302C190.073 43.6474 190.132 43.6772 190.183 43.7178C190.234 43.7584 190.276 43.8089 190.308 43.8666C190.341 43.9241 190.362 43.9876 190.37 44.0534C190.378 44.1192 190.374 44.1861 190.357 44.2503C190.34 44.3144 190.312 44.3745 190.272 44.427C190.233 44.4796 190.184 44.5236 190.128 44.5566L186.147 46.9566C186.08 46.9997 186.004 47.0245 185.926 47.0286Z" fill="black"/>
</g>
<path d="M150.272 84.6962L179.419 67.3502C180.28 66.8342 180.978 67.2542 180.978 68.2802V75.0362C180.946 75.5947 180.787 76.1376 180.515 76.6219C180.244 77.1062 179.866 77.5186 179.413 77.8262L150.272 95.1722C149.411 95.6882 148.712 95.2682 148.712 94.2422V87.4862C148.744 86.9283 148.902 86.3857 149.173 85.9014C149.444 85.4171 149.82 85.0045 150.272 84.6962Z" fill="#FF441F"/>
<path opacity="0.3" d="M150.272 84.6962L179.419 67.3502C180.28 66.8342 180.978 67.2542 180.978 68.2802V75.0362C180.946 75.5947 180.787 76.1376 180.515 76.6219C180.244 77.1062 179.866 77.5186 179.413 77.8262L150.272 95.1722C149.411 95.6882 148.712 95.2682 148.712 94.2422V87.4862C148.744 86.9283 148.902 86.3857 149.173 85.9014C149.444 85.4171 149.82 85.0045 150.272 84.6962Z" fill="white"/>
<path d="M115.067 105.6L144.214 88.2543C145.075 87.7443 145.773 88.1583 145.773 89.1843V95.9403C145.743 96.4995 145.586 97.0435 145.314 97.5282C145.042 98.0129 144.663 98.4248 144.208 98.7303L115.067 116.1C114.206 116.61 113.507 116.196 113.507 115.164V108.414C113.536 107.852 113.692 107.305 113.963 106.816C114.234 106.327 114.612 105.911 115.067 105.6Z" fill="#FF441F"/>
<path opacity="0.3" d="M115.067 105.6L144.214 88.2543C145.075 87.7443 145.773 88.1583 145.773 89.1843V95.9403C145.743 96.4995 145.586 97.0435 145.314 97.5282C145.042 98.0129 144.663 98.4248 144.208 98.7303L115.067 116.1C114.206 116.61 113.507 116.196 113.507 115.164V108.414C113.536 107.852 113.692 107.305 113.963 106.816C114.234 106.327 114.612 105.911 115.067 105.6Z" fill="white"/>
<path d="M110.58 113.694C110.601 113.494 110.569 113.291 110.488 113.108C110.407 112.924 110.28 112.766 110.12 112.65L107.21 110.898C107.032 110.816 106.836 110.783 106.642 110.803C106.448 110.823 106.263 110.895 106.104 111.012L68.1695 133.584C67.7154 133.892 67.3374 134.306 67.0656 134.791C66.7938 135.277 66.6357 135.821 66.6039 136.38V143.13C66.5841 143.329 66.6156 143.53 66.6954 143.712C66.7751 143.895 66.9001 144.052 67.0579 144.168C67.3372 144.342 69.7176 145.758 70.0086 145.926C70.1854 146.009 70.3803 146.042 70.5735 146.022C70.7667 146.002 70.9513 145.93 71.1086 145.812L109.049 123.246C109.505 122.942 109.885 122.53 110.157 122.045C110.429 121.56 110.586 121.016 110.615 120.456L110.58 113.694Z" fill="#FF441F"/>
<path opacity="0.15" d="M110.58 113.694C110.601 113.494 110.569 113.291 110.488 113.108C110.407 112.924 110.28 112.766 110.12 112.65L107.21 110.898C107.032 110.816 106.836 110.783 106.642 110.803C106.448 110.823 106.263 110.895 106.104 111.012L68.1695 133.584C67.7154 133.892 67.3374 134.306 67.0656 134.791C66.7938 135.277 66.6357 135.821 66.6039 136.38V143.13C66.5841 143.329 66.6156 143.53 66.6954 143.712C66.7751 143.895 66.9001 144.052 67.0579 144.168C67.3372 144.342 69.7176 145.758 70.0086 145.926C70.1854 146.009 70.3803 146.042 70.5735 146.022C70.7667 146.002 70.9513 145.93 71.1086 145.812L109.049 123.246C109.505 122.942 109.885 122.53 110.157 122.045C110.429 121.56 110.586 121.016 110.615 120.456L110.58 113.694Z" fill="black"/>
<path d="M71.062 135.336L108.991 112.764C109.141 112.629 109.328 112.545 109.526 112.525C109.725 112.505 109.924 112.549 110.097 112.651C110.269 112.754 110.406 112.91 110.489 113.097C110.571 113.284 110.595 113.492 110.557 113.694V120.456C110.528 121.015 110.371 121.559 110.1 122.043C109.829 122.528 109.451 122.94 108.997 123.246L71.062 145.8C70.9122 145.935 70.725 146.019 70.5268 146.039C70.3285 146.059 70.1291 146.015 69.9565 145.912C69.7838 145.81 69.6467 145.654 69.5642 145.467C69.4817 145.28 69.458 145.071 69.4965 144.87V138.126C69.5265 137.567 69.6838 137.023 69.9558 136.538C70.2278 136.053 70.6068 135.641 71.062 135.336Z" fill="#FF441F"/>
<path d="M110.103 112.65C109.925 112.567 109.729 112.534 109.535 112.554C109.341 112.574 109.155 112.647 108.997 112.764L71.068 135.33C70.6074 135.63 70.2256 136.042 69.9564 136.53L67.0464 134.784C67.3101 134.294 67.6907 133.881 68.1522 133.584L106.064 111C106.222 110.883 106.408 110.81 106.602 110.79C106.796 110.77 106.992 110.803 107.169 110.886L110.103 112.65Z" fill="#FF441F"/>
<path opacity="0.3" d="M110.103 112.65C109.925 112.567 109.729 112.534 109.535 112.554C109.341 112.574 109.155 112.647 108.997 112.764L71.068 135.33C70.6074 135.63 70.2256 136.042 69.9564 136.53L67.0464 134.784C67.3101 134.294 67.6907 133.881 68.1522 133.584L106.064 111C106.222 110.883 106.408 110.81 106.602 110.79C106.796 110.77 106.992 110.803 107.169 110.886L110.103 112.65Z" fill="white"/>
<path d="M78.2439 136.23L79.1751 133.098L79.2391 132.936C79.2695 132.864 79.3202 132.804 79.3846 132.762L79.7221 132.564C79.7349 132.552 79.7515 132.546 79.7687 132.546C79.7859 132.546 79.8025 132.552 79.8153 132.564C79.8434 132.6 79.8579 132.644 79.856 132.69V137.73C79.8536 137.79 79.8397 137.85 79.8153 137.904C79.7953 137.952 79.7631 137.994 79.7221 138.024L79.3206 138.258C79.3077 138.27 79.2912 138.277 79.274 138.277C79.2568 138.277 79.2402 138.27 79.2274 138.258C79.2003 138.223 79.1878 138.177 79.1925 138.132V135.084L78.5698 137.22C78.5493 137.277 78.526 137.334 78.4999 137.388C78.4757 137.444 78.4349 137.49 78.3835 137.52L78.1333 137.676C78.1161 137.688 78.0958 137.694 78.0751 137.694C78.0544 137.694 78.0341 137.688 78.0169 137.676C77.9901 137.649 77.9667 137.619 77.947 137.586L77.2894 136.2V139.248C77.2896 139.308 77.2777 139.367 77.2545 139.422C77.2345 139.47 77.2023 139.512 77.1613 139.542L76.7598 139.776C76.747 139.788 76.7304 139.795 76.7132 139.795C76.696 139.795 76.6794 139.788 76.6666 139.776C76.6374 139.741 76.6228 139.696 76.6259 139.65V134.61C76.6283 134.55 76.6422 134.491 76.6666 134.436C76.6867 134.39 76.719 134.35 76.7598 134.322L77.0973 134.124C77.1613 134.082 77.2079 134.082 77.2428 134.124L77.3068 134.214L78.2439 136.23Z" fill="#FAFAFA"/>
<path d="M80.4497 135.564C80.4509 135.272 80.4781 134.981 80.5312 134.694C80.5856 134.414 80.6675 134.141 80.7756 133.878C80.8746 133.637 81.0016 133.41 81.1539 133.2C81.2912 133.015 81.461 132.859 81.6545 132.738C81.803 132.639 81.9787 132.593 82.155 132.606C82.3008 132.621 82.4358 132.691 82.5333 132.804C82.6508 132.946 82.7345 133.115 82.7777 133.296C82.839 133.527 82.8684 133.765 82.865 134.004V134.352C82.8654 134.413 82.8514 134.472 82.8243 134.526C82.8061 134.575 82.7736 134.617 82.7312 134.646L81.0899 135.6C81.0842 135.699 81.1001 135.797 81.1365 135.888C81.1605 135.952 81.2032 136.007 81.2587 136.044C81.3157 136.076 81.3814 136.086 81.4449 136.074C81.5186 136.061 81.5895 136.034 81.6545 135.996C81.7486 135.941 81.8348 135.872 81.9105 135.792C81.9661 135.733 82.0167 135.668 82.0619 135.6C82.0883 135.552 82.1174 135.506 82.1492 135.462C82.1749 135.43 82.2066 135.404 82.2423 135.384L82.638 135.15C82.6513 135.139 82.6677 135.134 82.6846 135.134C82.7015 135.134 82.7179 135.139 82.7312 135.15C82.7471 135.166 82.7587 135.186 82.7649 135.208C82.771 135.231 82.7714 135.254 82.7661 135.276C82.7596 135.388 82.734 135.498 82.6904 135.6C82.6356 135.763 82.5654 135.92 82.4809 136.068C82.3772 136.241 82.2584 136.404 82.1259 136.554C81.9869 136.716 81.8238 136.853 81.6428 136.962C81.4936 137.06 81.3193 137.111 81.1423 137.106C80.9957 137.09 80.8605 137.017 80.764 136.902C80.6451 136.747 80.5615 136.567 80.5196 136.374C80.4653 136.108 80.4419 135.836 80.4497 135.564ZM81.6545 133.674C81.5628 133.733 81.4803 133.806 81.41 133.89C81.3451 133.974 81.2885 134.065 81.2412 134.16C81.1952 134.256 81.16 134.356 81.1365 134.46C81.114 134.549 81.0984 134.639 81.0899 134.73L82.2015 134.07C82.1964 133.995 82.1828 133.92 82.1608 133.848C82.1474 133.78 82.1174 133.716 82.0735 133.662C82.0295 133.618 81.9716 133.593 81.9105 133.59C81.8192 133.593 81.7305 133.622 81.6545 133.674Z" fill="#FAFAFA"/>
<path d="M85.7983 134.202C85.7986 134.261 85.7846 134.318 85.7575 134.37C85.7413 134.42 85.7083 134.463 85.6644 134.49L85.2919 134.712C85.2791 134.724 85.2625 134.73 85.2454 134.73C85.2282 134.73 85.2116 134.724 85.1988 134.712C85.1706 134.677 85.1561 134.632 85.1581 134.586V132.6C85.1778 132.367 85.1313 132.134 85.0242 131.928C84.9311 131.796 84.7914 131.79 84.5993 131.928C84.4112 132.053 84.2681 132.239 84.1919 132.456C84.0856 132.722 84.034 133.008 84.0406 133.296V135.276C84.0382 135.336 84.0243 135.395 83.9999 135.45C83.9783 135.497 83.9464 135.538 83.9068 135.57L83.5343 135.792C83.4935 135.792 83.4644 135.792 83.4412 135.792C83.4259 135.777 83.4143 135.758 83.4073 135.737C83.4002 135.716 83.3979 135.694 83.4004 135.672V132C83.4001 131.941 83.4141 131.884 83.4412 131.832C83.4574 131.782 83.4904 131.739 83.5343 131.712L83.9068 131.49C83.9196 131.478 83.9361 131.472 83.9533 131.472C83.9705 131.472 83.9871 131.478 83.9999 131.49C84.028 131.525 84.0425 131.57 84.0406 131.616V131.796C84.1222 131.614 84.2216 131.441 84.3374 131.28C84.447 131.128 84.5857 131.002 84.7448 130.908C84.8927 130.801 85.0709 130.748 85.2512 130.758C85.3158 130.766 85.378 130.788 85.4333 130.823C85.4887 130.858 85.5358 130.906 85.5713 130.962C85.6629 131.105 85.7226 131.267 85.7459 131.436C85.7823 131.658 85.7999 131.883 85.7983 132.108V134.202Z" fill="#FAFAFA"/>
<path d="M86.4269 130.2C86.4293 130.14 86.4432 130.081 86.4676 130.026C86.4877 129.98 86.5199 129.94 86.5607 129.912L86.9332 129.69C86.974 129.69 87.0031 129.69 87.0264 129.69C87.0416 129.705 87.0532 129.724 87.0603 129.745C87.0673 129.766 87.0697 129.788 87.0671 129.81V131.796C87.0494 132.028 87.0937 132.26 87.1951 132.468C87.2766 132.606 87.4163 132.618 87.6025 132.504C87.7901 132.385 87.932 132.203 88.0041 131.988C88.0967 131.723 88.142 131.442 88.138 131.16V129.174C88.1404 129.116 88.1543 129.059 88.1787 129.006C88.1972 128.957 88.2297 128.915 88.2718 128.886L88.6443 128.664C88.6581 128.652 88.6756 128.645 88.6938 128.645C88.7119 128.645 88.7295 128.652 88.7432 128.664C88.7704 128.7 88.7829 128.745 88.7782 128.79V132.426C88.7773 132.486 88.7654 132.545 88.7432 132.6C88.7232 132.648 88.6885 132.688 88.6443 132.714L88.2718 132.936C88.2658 132.943 88.2586 132.948 88.2506 132.951C88.2426 132.955 88.234 132.957 88.2253 132.957C88.2166 132.957 88.2079 132.955 88.1999 132.951C88.1919 132.948 88.1847 132.943 88.1787 132.936C88.1495 132.901 88.1349 132.856 88.138 132.81V132.6C88.0593 132.772 87.9658 132.937 87.8586 133.092C87.7547 133.25 87.6173 133.381 87.457 133.476C87.3122 133.58 87.1386 133.633 86.9623 133.626C86.8978 133.616 86.836 133.592 86.7809 133.556C86.7258 133.52 86.6786 133.472 86.6422 133.416C86.5545 133.268 86.4989 133.102 86.4793 132.93C86.4426 132.71 86.425 132.487 86.4269 132.264V130.2Z" fill="#FAFAFA"/>
<path d="M102.397 123.702L100.232 122.016L100.622 121.254L102.217 122.496L103.811 119.358L104.382 119.802L102.397 123.702Z" fill="#FAFAFA"/>
<path d="M147.339 140.688C147.36 140.487 147.328 140.285 147.247 140.101C147.167 139.917 147.039 139.76 146.879 139.644L143.969 137.904C143.792 137.818 143.597 137.783 143.402 137.802C143.208 137.821 143.022 137.894 142.864 138.012L118.018 152.796L116.458 153.726V204.252C116.439 204.45 116.47 204.65 116.549 204.832C116.627 205.014 116.751 205.172 116.906 205.29L119.857 207.042C120.034 207.126 120.229 207.16 120.422 207.14C120.616 207.119 120.8 207.046 120.957 206.928L145.808 192.15C146.263 191.844 146.641 191.432 146.912 190.947C147.183 190.462 147.339 189.919 147.368 189.36L147.339 140.688Z" fill="#E0E0E0"/>
<path d="M143.952 137.904C143.774 137.818 143.577 137.782 143.382 137.801C143.186 137.82 142.999 137.893 142.84 138.012L118.001 152.79L116.441 153.726L111.785 156.486C111.678 156.55 111.59 156.642 111.529 156.752C111.468 156.862 111.436 156.986 111.436 157.113C111.436 157.24 111.468 157.365 111.529 157.475C111.59 157.585 111.678 157.676 111.785 157.74C112.786 158.401 113.824 159.002 114.893 159.54L119.351 160.698V155.46L120.916 154.53L145.75 139.746C145.909 139.629 146.094 139.556 146.288 139.536C146.482 139.516 146.678 139.549 146.856 139.632C146.6 139.476 144.237 138.066 143.952 137.904Z" fill="#F0F0F0"/>
<path d="M147.333 140.688C147.372 140.487 147.348 140.278 147.266 140.091C147.183 139.904 147.046 139.748 146.873 139.646C146.701 139.543 146.501 139.499 146.303 139.519C146.105 139.539 145.918 139.623 145.768 139.758L119.374 155.472L114.718 158.232C114.612 158.295 114.523 158.386 114.462 158.496C114.401 158.605 114.368 158.73 114.368 158.856C114.368 158.983 114.401 159.107 114.462 159.216C114.523 159.326 114.612 159.417 114.718 159.48C114.774 159.514 114.835 159.538 114.899 159.552L119.357 160.71V205.998C119.316 206.2 119.338 206.409 119.419 206.597C119.501 206.785 119.638 206.941 119.81 207.045C119.983 207.148 120.183 207.192 120.382 207.171C120.58 207.15 120.767 207.065 120.916 206.928L145.768 192.15C146.223 191.845 146.602 191.433 146.874 190.948C147.146 190.463 147.303 189.919 147.333 189.36V140.688Z" fill="#FAFAFA"/>
<path d="M146.484 140.334C146.544 140.441 146.57 140.565 146.559 140.688V189.36C146.533 189.778 146.414 190.185 146.212 190.549C146.011 190.912 145.731 191.224 145.395 191.46L120.55 206.232C120.451 206.297 120.34 206.338 120.224 206.352C120.164 206.245 120.137 206.121 120.148 205.998V160.086L119.566 159.936L115.294 158.826L119.764 156.168L146.164 140.454C146.256 140.391 146.362 140.352 146.472 140.34M146.472 139.542C146.225 139.553 145.984 139.629 145.774 139.764L119.38 155.478L114.724 158.238C114.618 158.301 114.529 158.392 114.468 158.502C114.406 158.611 114.374 158.736 114.374 158.862C114.374 158.989 114.406 159.113 114.468 159.223C114.529 159.332 114.618 159.423 114.724 159.486C114.78 159.52 114.841 159.544 114.904 159.558L119.363 160.716V206.004C119.342 206.205 119.373 206.407 119.454 206.591C119.535 206.774 119.662 206.932 119.822 207.048C119.944 207.121 120.083 207.158 120.224 207.156C120.472 207.147 120.713 207.071 120.922 206.934L145.774 192.156C146.229 191.851 146.608 191.439 146.88 190.954C147.152 190.469 147.309 189.925 147.339 189.366V140.694C147.36 140.494 147.329 140.291 147.248 140.107C147.167 139.924 147.04 139.766 146.88 139.65C146.756 139.577 146.615 139.539 146.472 139.542Z" fill="#E0E0E0"/>
<path d="M119.374 186.474V187.332L147.345 170.688V169.824L119.374 186.474Z" fill="#E0E0E0"/>
<path d="M119.374 197.814L147.345 181.164V180.3L119.374 196.95V197.814Z" fill="#E0E0E0"/>
<path d="M119.374 165.522V166.38L147.339 149.736V148.872L119.374 165.522Z" fill="#E0E0E0"/>
<path d="M119.374 175.998V176.856L147.339 160.212V159.348L119.374 175.998Z" fill="#E0E0E0"/>
<path d="M120.096 176.43L146.647 160.626V170.316L120.096 186.042V176.43Z" fill="#FF441F"/>
<path opacity="0.6" d="M120.096 176.43L146.647 160.626V170.316L120.096 186.042V176.43Z" fill="white"/>
<path d="M125.241 176.4L136.974 169.416C137.492 169.11 137.911 169.356 137.911 169.974V170.49C137.894 170.825 137.8 171.152 137.637 171.443C137.474 171.734 137.247 171.981 136.974 172.164L125.241 179.148C124.723 179.46 124.304 179.208 124.304 178.59V178.074C124.322 177.739 124.417 177.413 124.579 177.122C124.742 176.832 124.969 176.584 125.241 176.4Z" fill="#FF441F"/>
<path d="M125.241 165.96L136.974 159C137.492 158.694 137.911 158.946 137.911 159.564V160.074C137.894 160.41 137.8 160.736 137.637 161.027C137.474 161.318 137.247 161.565 136.974 161.748L125.241 168.738C124.723 169.044 124.304 168.792 124.304 168.18V167.664C124.316 167.324 124.408 166.991 124.571 166.695C124.734 166.398 124.964 166.146 125.241 165.96Z" fill="#E0E0E0"/>
<path d="M125.241 155.472L136.974 148.488C137.492 148.176 137.911 148.428 137.911 149.046V149.562C137.892 149.897 137.798 150.223 137.635 150.514C137.473 150.804 137.246 151.052 136.974 151.236L125.241 158.22C124.723 158.526 124.304 158.28 124.304 157.662V157.146C124.321 156.811 124.415 156.484 124.577 156.193C124.74 155.902 124.968 155.655 125.241 155.472Z" fill="#E0E0E0"/>
<path d="M125.241 197.4L136.974 190.416C137.492 190.11 137.911 190.362 137.911 190.974V191.49C137.894 191.825 137.8 192.152 137.637 192.443C137.474 192.734 137.247 192.981 136.974 193.164L125.241 200.148C124.723 200.46 124.304 200.208 124.304 199.59V199.08C124.321 198.744 124.415 198.417 124.578 198.125C124.741 197.833 124.968 197.585 125.241 197.4Z" fill="#E0E0E0"/>
<path d="M125.241 186.894L136.974 179.91C137.492 179.598 137.911 179.85 137.911 180.468V180.978C137.893 181.314 137.799 181.641 137.637 181.933C137.474 182.225 137.247 182.473 136.974 182.658L125.241 189.642C124.723 189.948 124.304 189.702 124.304 189.084V188.568C124.321 188.232 124.415 187.906 124.577 187.615C124.74 187.324 124.968 187.077 125.241 186.894Z" fill="#E0E0E0"/>
<path d="M110.58 134.64C110.601 134.44 110.569 134.237 110.488 134.054C110.407 133.87 110.28 133.712 110.12 133.596L107.21 131.856C107.032 131.771 106.835 131.736 106.64 131.755C106.445 131.774 106.258 131.846 106.098 131.964L68.1636 154.53C67.7103 154.838 67.3328 155.25 67.061 155.735C66.7893 156.219 66.6308 156.762 66.598 157.32V205.986C66.5782 206.185 66.6098 206.386 66.6895 206.568C66.7692 206.751 66.8943 206.908 67.052 207.024C67.3314 207.198 69.7117 208.614 70.0027 208.782C70.1799 208.863 70.3745 208.895 70.5674 208.875C70.7602 208.855 70.9447 208.784 71.1027 208.668L109.043 186.102C109.5 185.798 109.879 185.386 110.151 184.901C110.423 184.416 110.58 183.872 110.609 183.312L110.58 134.64Z" fill="#E0E0E0"/>
<path d="M110.103 133.596C109.925 133.514 109.729 133.481 109.535 133.501C109.341 133.521 109.155 133.593 108.997 133.71L71.068 156.276C70.6061 156.574 70.224 156.987 69.9564 157.476L67.0464 155.73C67.3101 155.24 67.6907 154.827 68.1522 154.53L106.087 131.964C106.246 131.845 106.433 131.772 106.628 131.753C106.824 131.734 107.021 131.77 107.199 131.856L110.103 133.596Z" fill="#F0F0F0"/>
<path d="M104.701 136.266L103.246 133.662C103.199 133.574 103.128 133.501 103.043 133.452L100.133 131.7C100.061 131.661 99.9818 131.639 99.9008 131.633C99.8198 131.628 99.7386 131.64 99.6625 131.669C99.5863 131.697 99.5168 131.742 99.4584 131.8C99.4001 131.859 99.3542 131.929 99.3237 132.006L97.6533 136.974L100.563 138.732L104.701 136.266Z" fill="#E0E0E0"/>
<path d="M110.58 134.64C110.618 134.439 110.594 134.23 110.512 134.043C110.43 133.856 110.292 133.7 110.12 133.598C109.947 133.495 109.748 133.451 109.549 133.471C109.351 133.491 109.164 133.575 109.014 133.71L104.725 136.26L103.27 133.662C103.211 133.576 103.131 133.506 103.038 133.462C102.944 133.417 102.842 133.399 102.739 133.409C102.637 133.419 102.539 133.456 102.455 133.517C102.372 133.579 102.305 133.662 102.263 133.758L100.598 138.714L71.0619 156.276C70.6078 156.585 70.2299 156.998 69.9581 157.483C69.6863 157.969 69.5281 158.513 69.4963 159.072V207.732C69.4756 207.934 69.5079 208.138 69.5898 208.323C69.6717 208.508 69.8002 208.666 69.9619 208.782C70.1391 208.863 70.3337 208.895 70.5265 208.875C70.7194 208.855 70.9039 208.784 71.0619 208.668L109.008 186.102C109.463 185.796 109.841 185.384 110.112 184.9C110.383 184.415 110.539 183.871 110.568 183.312L110.58 134.64Z" fill="#FAFAFA"/>
<path d="M109.707 134.286C109.765 134.394 109.789 134.518 109.777 134.64V183.312C109.748 183.73 109.628 184.135 109.427 184.499C109.225 184.862 108.947 185.175 108.613 185.412L70.6661 207.972C70.5711 208.039 70.4606 208.078 70.346 208.086C70.346 208.086 70.2704 207.972 70.2704 207.732V159.072C70.297 158.654 70.4157 158.248 70.6174 157.884C70.819 157.52 71.0984 157.208 71.4344 156.972L100.948 139.41L101.198 139.26L101.291 138.978L102.798 134.496L104.009 136.662L104.399 137.358L105.074 136.956L109.363 134.4C109.461 134.335 109.573 134.296 109.689 134.286M102.746 133.374C102.63 133.372 102.517 133.408 102.423 133.477C102.329 133.546 102.258 133.645 102.222 133.758L100.558 138.714L71.0619 156.276C70.6078 156.584 70.2299 156.998 69.9581 157.483C69.6863 157.968 69.5281 158.513 69.4963 159.072V207.732C69.4756 207.934 69.5079 208.138 69.5898 208.323C69.6717 208.507 69.8002 208.666 69.9619 208.782C70.0851 208.851 70.2234 208.886 70.3635 208.884C70.6102 208.874 70.8505 208.8 71.0619 208.668L109.008 186.102C109.463 185.796 109.841 185.384 110.112 184.899C110.383 184.415 110.539 183.871 110.568 183.312V134.64C110.589 134.44 110.557 134.237 110.476 134.053C110.396 133.87 110.268 133.712 110.108 133.596C109.984 133.523 109.844 133.486 109.701 133.488C109.453 133.498 109.212 133.574 109.002 133.71L104.713 136.26L103.258 133.662C103.207 133.576 103.137 133.505 103.052 133.455C102.968 133.404 102.873 133.377 102.775 133.374H102.746Z" fill="#E0E0E0"/>
<path d="M69.4966 167.262V168.126L110.568 143.682V142.818L69.4966 167.262Z" fill="#E0E0E0"/>
<path d="M69.4966 188.22V189.078L110.568 164.634V163.776L69.4966 188.22Z" fill="#E0E0E0"/>
<path d="M69.4966 199.554L110.568 175.11V174.252L69.4966 198.696V199.554Z" fill="#E0E0E0"/>
<path d="M69.4966 177.744V178.602L110.568 154.158V153.3L69.4966 177.744Z" fill="#E0E0E0"/>
<path d="M70.2295 178.17L109.858 154.578L109.846 164.202L70.2295 187.788V178.17Z" fill="#FF441F"/>
<path opacity="0.6" d="M70.2295 178.17L109.858 154.578L109.846 164.202L70.2295 187.788V178.17Z" fill="white"/>
<path d="M76.3056 177.6L94.9646 166.494C95.4825 166.188 95.9016 166.44 95.9016 167.052V167.568C95.8845 167.903 95.7907 168.23 95.6278 168.521C95.465 168.812 95.2377 169.059 94.9646 169.242L76.3056 180.36C75.7877 180.672 75.3628 180.42 75.3628 179.802V179.292C75.3797 178.953 75.4739 178.624 75.6377 178.33C75.8015 178.036 76.0304 177.786 76.3056 177.6Z" fill="#FF441F"/>
<path d="M76.3056 167.154L94.9646 156.048C95.4825 155.736 95.9016 155.988 95.9016 156.606V157.116C95.884 157.452 95.79 157.779 95.6273 158.071C95.4645 158.363 95.2375 158.611 94.9646 158.796L76.3056 169.902C75.7877 170.208 75.3628 169.956 75.3628 169.344V168.828C75.381 168.492 75.4759 168.166 75.6397 167.875C75.8035 167.584 76.0317 167.337 76.3056 167.154Z" fill="#E0E0E0"/>
<path d="M76.3056 156.666L94.9646 145.56C95.4825 145.254 95.9016 145.5 95.9016 146.118V146.634C95.8845 146.969 95.7907 147.296 95.6278 147.587C95.465 147.878 95.2377 148.125 94.9646 148.308L76.3056 159.414C75.7877 159.72 75.3628 159.474 75.3628 158.856V158.34C75.381 158.004 75.4759 157.678 75.6397 157.387C75.8035 157.096 76.0317 156.849 76.3056 156.666Z" fill="#E0E0E0"/>
<path d="M76.3056 198.6L94.9646 187.494C95.4825 187.188 95.9016 187.44 95.9016 188.052V188.568C95.8845 188.903 95.7907 189.23 95.6278 189.521C95.465 189.812 95.2377 190.059 94.9646 190.242L76.3056 201.348C75.7877 201.66 75.3628 201.408 75.3628 200.79V200.28C75.3815 199.943 75.4765 199.616 75.6403 199.324C75.804 199.033 76.0319 198.784 76.3056 198.6Z" fill="#E0E0E0"/>
<path d="M76.3056 188.088L94.9646 177C95.4825 176.688 95.9016 176.94 95.9016 177.558V178.074C95.8831 178.409 95.7887 178.735 95.626 179.026C95.4633 179.317 95.2367 179.564 94.9646 179.748L76.3056 190.854C75.7877 191.16 75.3628 190.914 75.3628 190.296V189.78C75.3783 189.441 75.4719 189.111 75.6358 188.817C75.7998 188.522 76.0294 188.273 76.3056 188.088Z" fill="#E0E0E0"/>
<path d="M155.126 177.846L146.367 167.046C146.323 166.989 146.27 166.941 146.21 166.902L144.109 165.648C143.929 165.54 143.8 165.684 143.8 166.038L143.754 187.878C143.754 188.064 143.783 188.172 143.83 188.202L145.931 189.456C146 189.492 146.111 189.378 146.239 189.102L147.741 185.784L148.596 188.94C148.618 189.045 148.679 189.137 148.765 189.198L150.872 190.452C151.046 190.554 151.302 190.452 151.547 190.17L152.757 188.73C152.932 188.528 153.062 188.289 153.138 188.03C153.215 187.771 153.236 187.498 153.2 187.23L151.547 181.134C151.518 180.889 151.571 180.64 151.697 180.43C151.823 180.22 152.014 180.06 152.239 179.976L154.695 178.836C155.19 178.602 155.394 178.158 155.126 177.846Z" fill="#FF441F"/>
<path d="M155.126 177.846L146.367 167.046C146.323 166.989 146.27 166.941 146.21 166.902L144.109 165.648C143.929 165.54 143.8 165.684 143.8 166.038L143.754 187.878C143.754 188.064 143.783 188.172 143.83 188.202L145.931 189.456C146 189.492 146.111 189.378 146.239 189.102L147.741 185.784L148.596 188.94C148.618 189.045 148.679 189.137 148.765 189.198L150.872 190.452C151.046 190.554 151.302 190.452 151.547 190.17L152.757 188.73C152.932 188.528 153.062 188.289 153.138 188.03C153.215 187.771 153.236 187.498 153.2 187.23L151.547 181.134C151.518 180.889 151.571 180.64 151.697 180.43C151.823 180.22 152.014 180.06 152.239 179.976L154.695 178.836C155.19 178.602 155.394 178.158 155.126 177.846Z" fill="#37474F"/>
<path d="M145.855 189.132L145.902 167.274C145.902 166.818 146.111 166.71 146.367 167.028L155.126 177.828C155.382 178.14 155.19 178.584 154.696 178.818L152.24 179.958C152.014 180.042 151.823 180.202 151.697 180.412C151.571 180.623 151.518 180.871 151.547 181.116L153.2 187.212C153.236 187.48 153.215 187.753 153.138 188.012C153.062 188.271 152.932 188.51 152.758 188.712L151.547 190.152C151.192 190.572 150.814 190.584 150.703 190.152L149.044 184.062C148.934 183.654 148.672 183.702 148.462 184.17L146.245 189.066C146.024 189.6 145.855 189.6 145.855 189.132Z" fill="#455A64"/>
<path d="M150.837 190.428L148.765 189.198C148.679 189.137 148.618 189.045 148.596 188.94L147.741 185.79L148.457 184.206C148.672 183.738 148.934 183.69 149.039 184.098L150.697 190.2C150.722 190.288 150.77 190.367 150.837 190.428Z" fill="#263238"/>
<path d="M196.757 231.696L191.955 221.952L182.3 227.778L194.202 242.262C194.202 242.262 200.103 241.704 201.052 238.53C202.001 235.356 198.38 232.752 196.757 231.696Z" fill="#C8856A"/>
<path d="M203.555 235.524C204.094 235.929 204.549 236.441 204.893 237.03C205.283 237.63 205.161 240.51 205.533 241.83C205.906 243.15 206.191 243.522 206.814 245.202C207.501 247.062 208.775 248.76 207.338 253.536C205.9 258.312 203.595 260.592 201.657 261.762C200.938 262.149 200.14 262.355 199.329 262.362C199.329 262.362 196.786 261.372 197.176 259.818C197.566 258.264 203.555 235.524 203.555 235.524Z" fill="#263238"/>
<path d="M192.392 240.768C192.462 241.26 193.125 242.016 193.399 242.418C194.313 243.768 194.732 245.598 195.046 247.218C196.547 254.778 193.632 258.618 197.583 261.462C198.747 262.2 201.075 261.996 204.701 257.232C206.546 254.796 207.611 249.792 206.878 247.524C206.145 245.256 205.178 243.78 204.713 242.034C204.247 240.288 204.492 237.042 203.549 235.548C202.944 234.702 202.162 234.007 201.262 233.514C200.563 233.076 199.027 232.5 198.317 232.08C197.607 231.66 197.205 231.186 196.751 231.72L197.572 232.77C198.858 234.606 198.503 234.876 198.468 235.854C198.526 236.906 198.688 237.95 198.951 238.968C198.031 237.768 197.659 236.736 196.658 236.916C195.657 237.096 195.541 237.054 194.109 238.434C192.677 239.814 192.328 240.33 192.392 240.768Z" fill="#FF441F"/>
<path opacity="0.4" d="M192.392 240.768C192.462 241.26 193.125 242.016 193.399 242.418C194.313 243.768 194.732 245.598 195.046 247.218C196.547 254.778 193.632 258.618 197.583 261.462C198.747 262.2 201.075 261.996 204.701 257.232C206.546 254.796 207.611 249.792 206.878 247.524C206.145 245.256 205.178 243.78 204.713 242.034C204.247 240.288 204.492 237.042 203.549 235.548C202.944 234.702 202.162 234.007 201.262 233.514C200.563 233.076 199.027 232.5 198.317 232.08C197.607 231.66 197.205 231.186 196.751 231.72L197.572 232.77C198.858 234.606 198.503 234.876 198.468 235.854C198.526 236.906 198.688 237.95 198.951 238.968C198.031 237.768 197.659 236.736 196.658 236.916C195.657 237.096 195.541 237.054 194.109 238.434C192.677 239.814 192.328 240.33 192.392 240.768Z" fill="black"/>
<path opacity="0.3" d="M204.701 257.208C206.546 254.772 207.611 249.768 206.878 247.5C206.636 246.753 206.355 246.019 206.034 245.304C206.063 245.454 206.11 245.616 206.127 245.742C206.174 246.036 206.208 246.342 206.238 246.63C206.403 247.788 206.277 248.97 205.871 250.062C205.458 251.004 204.497 253.368 203.264 253.416C202.565 253.446 201.977 252.744 201.704 251.94C201.593 251.598 201.407 250.68 201.407 250.68C200.273 250.949 199.188 251.405 198.194 252.03C196.408 253.23 196.448 253.518 196.448 253.518C196.557 254.051 196.576 254.599 196.507 255.138C196.402 255.72 196.176 256.27 195.843 256.752C195.705 256.897 195.551 257.024 195.383 257.13C195.459 258.876 195.901 260.244 197.56 261.438C198.724 262.2 201.099 261.972 204.701 257.208Z" fill="black"/>
<path d="M195.046 247.2C195.431 249.188 195.585 251.216 195.506 253.242C196.181 255.18 196.769 255.126 196.85 254.118C196.931 253.11 195.634 248.952 194.667 245.514C194.819 246.078 194.97 246.648 195.046 247.2Z" fill="#37474F"/>
<path d="M199.51 235.068C199.593 234.088 199.339 233.109 198.794 232.302C198.619 232.218 198.45 232.134 198.322 232.056C197.548 231.606 197.211 231.162 196.757 231.696L197.577 232.746C198.864 234.582 198.509 234.852 198.474 235.83C198.532 236.882 198.694 237.926 198.957 238.944C199.702 242.226 200.383 243.324 200.738 246.426C201.093 249.528 200.487 251.61 200.912 251.784C201.337 251.958 202.193 251.61 202.35 249.126C202.507 246.642 201.442 242.46 200.691 240.48C199.94 238.5 199.358 236.4 199.51 235.068Z" fill="#37474F"/>
<path d="M201.616 250.896C201.575 250.939 201.522 250.968 201.465 250.98C200.517 251.11 199.603 251.434 198.778 251.933C197.952 252.432 197.232 253.095 196.658 253.884C196.606 253.947 196.532 253.985 196.453 253.992C196.373 253.999 196.294 253.973 196.233 253.92C196.203 253.894 196.178 253.862 196.161 253.826C196.143 253.791 196.132 253.752 196.128 253.711C196.125 253.671 196.13 253.631 196.142 253.593C196.154 253.554 196.173 253.519 196.198 253.488C197.445 251.788 199.295 250.668 201.343 250.374C201.421 250.36 201.502 250.377 201.568 250.423C201.635 250.469 201.681 250.54 201.698 250.62C201.708 250.669 201.707 250.721 201.692 250.769C201.678 250.817 201.652 250.861 201.616 250.896Z" fill="#EBEBEB"/>
<path d="M201.238 248.31C201.196 248.353 201.144 248.384 201.087 248.4C199.07 248.754 197.259 249.887 196.023 251.568C195.998 251.601 195.966 251.628 195.929 251.648C195.893 251.667 195.854 251.679 195.813 251.682C195.772 251.686 195.731 251.681 195.692 251.667C195.653 251.654 195.618 251.632 195.587 251.604C195.526 251.549 195.488 251.47 195.481 251.386C195.474 251.302 195.5 251.219 195.552 251.154C196.876 249.371 198.802 248.165 200.947 247.776C201.013 247.76 201.081 247.766 201.143 247.793C201.205 247.821 201.256 247.869 201.289 247.929C201.322 247.99 201.335 248.06 201.326 248.129C201.317 248.197 201.286 248.261 201.238 248.31Z" fill="#EBEBEB"/>
<path d="M201.291 245.46C201.248 245.51 201.191 245.544 201.128 245.556C198.875 245.974 196.855 247.245 195.465 249.12C195.436 249.155 195.401 249.183 195.361 249.204C195.321 249.225 195.278 249.237 195.233 249.24C195.189 249.244 195.145 249.238 195.102 249.224C195.06 249.209 195.021 249.186 194.988 249.156C194.953 249.127 194.925 249.091 194.905 249.05C194.884 249.009 194.872 248.965 194.868 248.919C194.864 248.873 194.869 248.827 194.883 248.783C194.896 248.74 194.918 248.699 194.947 248.664C196.431 246.677 198.577 245.328 200.971 244.878C201.014 244.867 201.059 244.864 201.103 244.871C201.147 244.878 201.189 244.894 201.228 244.918C201.266 244.942 201.298 244.974 201.324 245.011C201.35 245.049 201.368 245.091 201.378 245.136C201.392 245.193 201.392 245.253 201.376 245.31C201.361 245.367 201.332 245.419 201.291 245.46Z" fill="#EBEBEB"/>
<path d="M200.889 243.03C200.844 243.076 200.788 243.107 200.726 243.12C198.524 243.527 196.55 244.768 195.191 246.6C195.134 246.668 195.053 246.71 194.965 246.717C194.878 246.724 194.792 246.694 194.725 246.636C194.692 246.608 194.664 246.573 194.643 246.533C194.623 246.493 194.611 246.45 194.607 246.405C194.603 246.36 194.608 246.315 194.621 246.272C194.635 246.23 194.656 246.19 194.685 246.156C196.134 244.208 198.237 242.888 200.58 242.454C200.666 242.434 200.756 242.45 200.83 242.499C200.904 242.547 200.957 242.624 200.976 242.712C200.99 242.768 200.989 242.827 200.974 242.883C200.959 242.939 200.929 242.99 200.889 243.03Z" fill="#EBEBEB"/>
<path d="M200.028 240.66C199.981 240.704 199.925 240.737 199.865 240.756C197.659 241.156 195.681 242.399 194.324 244.236C194.295 244.27 194.261 244.298 194.221 244.318C194.182 244.338 194.14 244.349 194.096 244.353C194.053 244.356 194.009 244.35 193.968 244.335C193.927 244.321 193.888 244.299 193.856 244.269C193.823 244.239 193.796 244.204 193.776 244.163C193.757 244.123 193.745 244.079 193.742 244.034C193.739 243.989 193.745 243.944 193.759 243.902C193.773 243.859 193.795 243.82 193.823 243.786C195.273 241.841 197.372 240.521 199.713 240.084C199.8 240.064 199.89 240.08 199.965 240.128C200.04 240.177 200.094 240.253 200.115 240.342C200.126 240.398 200.124 240.457 200.109 240.512C200.094 240.567 200.066 240.618 200.028 240.66Z" fill="#EBEBEB"/>
<path d="M194.149 232.476L187.898 237.744L184.36 240.03L188.399 247.896L199.771 242.286L194.149 232.476Z" fill="#C8856A"/>
<path d="M206.89 197.286C206.89 197.286 184.133 193.404 174.396 193.464C164.462 193.53 163.542 201.222 166.027 205.932C170.788 214.932 187.34 234.078 187.34 234.078C187.34 234.078 192.898 231.45 194.603 226.494L190.832 217.566L202.88 221.52L204.271 219.774L206.89 197.286Z" fill="#455A64"/>
<path d="M188.847 210C190.678 212.763 192.353 215.631 193.864 218.592L190.832 217.596C187.41 209.196 186.706 206.748 181.241 202.812C181.241 202.8 185.163 204.3 188.847 210Z" fill="#37474F"/>
<path d="M206.889 197.286L241.967 203.916C241.967 203.916 244.743 217.248 242.06 225.576C239.435 233.724 231.642 236.058 227.894 236.376C222.528 236.802 216.306 235.092 216.306 235.092C214.387 236.606 212.295 237.873 210.079 238.866C206.948 240.156 193.23 246.066 193.23 246.066C193.23 246.066 189.371 242.7 189.738 235.698L204.282 219.774L206.889 197.286Z" fill="#455A64"/>
<path d="M193.224 246.06C193.224 246.06 192.479 245.706 191.408 243.624C194.958 242.76 206.639 238.05 210.41 236.424C217.127 233.49 219.205 230.388 219.205 230.388C219.205 230.388 219.245 232.452 216.295 235.098C214.375 236.612 212.284 237.879 210.067 238.872C206.948 240.138 193.224 246.06 193.224 246.06Z" fill="#37474F"/>
<path d="M223.488 233.748C226.846 234.306 235.879 232.59 238.818 226.026C241.693 219.6 240.721 211.926 240.081 205.326L241.163 205.59L243.066 206.118C243.567 211.986 244.126 218.916 242.484 225.492C240.389 233.796 231.665 236.058 227.934 236.358C222.568 236.784 216.347 235.074 216.347 235.074L218.128 232.23C219.847 232.961 221.647 233.471 223.488 233.748Z" fill="#37474F"/>
<path d="M202.711 221.484C202.711 221.484 203.339 220.71 204.672 219.084C206.005 217.458 208.164 214.434 213.647 214.656C219.129 214.878 229.739 215.856 229.739 215.856C229.739 215.856 218.681 213.918 214.886 213.264C211.092 212.61 208.531 213.06 206.354 215.064C204.177 217.068 200.808 220.83 200.808 220.83L202.711 221.484Z" fill="#37474F"/>
<path d="M210.102 214.2C208.302 212.008 207.381 209.191 207.524 206.322C207.524 206.322 206.203 211.5 208.315 215.268L210.102 214.2Z" fill="#37474F"/>
<path d="M170.031 244.128C167.354 245.22 165.701 246.312 164.462 247.98C163.222 249.648 162.849 251.328 164.025 253.35C165.201 255.372 167.36 257.736 169.921 257.58C172.481 257.424 174.059 256.77 176.439 255.438L170.031 244.128Z" fill="#263238"/>
<path d="M191.414 246.462C191.455 247.29 188.073 248.94 184.564 250.662C180.798 252.51 179.873 253.716 176.8 255.276C173.308 257.076 171.952 257.16 169.234 256.38C166.516 255.6 163.146 251.58 165.491 247.878C167.4 244.878 169.868 244.038 173.639 243.018C176.624 242.242 179.555 241.266 182.416 240.096C185.128 239.01 187.363 237.06 187.922 237.738C187.532 237.93 184.697 239.736 185.233 240.228C185.367 240.48 185.768 240.402 186.467 240.102C186.616 240.022 186.78 239.977 186.948 239.968C187.115 239.96 187.283 239.989 187.439 240.054C187.752 240.265 187.997 240.568 188.143 240.924C188.463 241.646 188.747 242.385 188.993 243.138C189.202 243.648 189.115 243.354 189.307 243.87C189.499 244.386 189.947 245.322 189.889 245.85C189.854 246.168 189.633 246.27 189.394 246.45C189.156 246.63 188.812 246.792 188.597 246.972C188.504 247.044 188.347 247.284 188.393 247.404C188.44 247.524 188.975 247.512 189.173 247.404C189.371 247.296 189.72 247.23 189.965 247.134C190.209 247.038 190.797 246.762 191.414 246.462Z" fill="#FF441F"/>
<path opacity="0.4" d="M191.414 246.462C191.455 247.29 188.073 248.94 184.564 250.662C180.798 252.51 179.873 253.716 176.8 255.276C173.308 257.076 171.952 257.16 169.234 256.38C166.516 255.6 163.146 251.58 165.491 247.878C167.4 244.878 169.868 244.038 173.639 243.018C176.624 242.242 179.555 241.266 182.416 240.096C185.128 239.01 187.363 237.06 187.922 237.738C187.532 237.93 184.697 239.736 185.233 240.228C185.367 240.48 185.768 240.402 186.467 240.102C186.616 240.022 186.78 239.977 186.948 239.968C187.115 239.96 187.283 239.989 187.439 240.054C187.752 240.265 187.997 240.568 188.143 240.924C188.463 241.646 188.747 242.385 188.993 243.138C189.202 243.648 189.115 243.354 189.307 243.87C189.499 244.386 189.947 245.322 189.889 245.85C189.854 246.168 189.633 246.27 189.394 246.45C189.156 246.63 188.812 246.792 188.597 246.972C188.504 247.044 188.347 247.284 188.393 247.404C188.44 247.524 188.975 247.512 189.173 247.404C189.371 247.296 189.72 247.23 189.965 247.134C190.209 247.038 190.797 246.762 191.414 246.462Z" fill="black"/>
<path opacity="0.3" d="M178.005 254.682C177.498 254.946 174.309 256.482 173.314 255.558C172.226 254.562 174.786 252.984 174.786 252.984C174.786 252.984 175.176 250.506 172.272 246.858C171.772 247.26 169.676 247.242 169.705 245.97C169.735 244.698 173.244 243.138 173.296 243.114C169.7 244.104 167.337 244.962 165.486 247.884C163.158 251.586 166.504 255.606 169.228 256.386C171.952 257.166 173.302 257.064 176.794 255.282C177.149 255.102 177.696 254.868 178.005 254.682Z" fill="black"/>
<path d="M174.443 252.738C173.11 253.194 174.024 254.436 175.973 254.034C178.883 253.434 181.316 251.724 184.564 250.668C188.056 248.94 191.647 247.332 191.42 246.414C190.791 246.66 189.447 247.236 189.447 247.236C189.185 247.35 188.504 247.614 188.504 247.614C185.844 248.814 182.899 250.704 180.018 251.508C177.51 252.216 175.764 252.276 174.443 252.738Z" fill="#37474F"/>
<path d="M172.464 247.326C173.681 246.6 173.896 245.982 176.282 244.854C178.668 243.726 182.684 241.308 185.193 239.808C186.129 239.17 187.033 238.481 187.899 237.744C187.486 237.258 185.967 237.708 184.442 238.698C182.917 239.688 181.997 240.312 180.49 241.098C177.58 242.898 174.222 244.134 172.552 245.244C170.881 246.354 171.248 248.052 172.464 247.326Z" fill="#37474F"/>
<path d="M172.272 246.996C172.288 247.036 172.312 247.073 172.342 247.104C173.69 248.848 174.49 250.975 174.635 253.2C174.639 253.289 174.675 253.374 174.737 253.437C174.798 253.5 174.88 253.538 174.966 253.542C175.007 253.538 175.047 253.526 175.083 253.506C175.119 253.486 175.15 253.458 175.175 253.425C175.2 253.392 175.219 253.354 175.229 253.313C175.239 253.272 175.241 253.23 175.234 253.188C175.083 250.799 174.219 248.517 172.761 246.654C172.734 246.622 172.701 246.597 172.664 246.579C172.627 246.562 172.586 246.553 172.545 246.553C172.505 246.553 172.464 246.562 172.427 246.579C172.39 246.597 172.357 246.622 172.33 246.654C172.294 246.702 172.27 246.758 172.26 246.818C172.25 246.877 172.254 246.938 172.272 246.996Z" fill="#F0F0F0"/>
<path d="M174.646 245.22C174.663 245.256 174.682 245.29 174.705 245.322C176.233 247.415 177.2 249.886 177.51 252.486C177.517 252.575 177.556 252.658 177.62 252.719C177.683 252.78 177.767 252.815 177.853 252.816C177.894 252.811 177.932 252.798 177.967 252.776C178.003 252.755 178.033 252.727 178.057 252.693C178.081 252.659 178.098 252.621 178.107 252.58C178.116 252.539 178.117 252.497 178.109 252.456C177.79 249.693 176.752 247.071 175.106 244.866C175.082 244.832 175.051 244.805 175.016 244.785C174.98 244.764 174.941 244.753 174.901 244.75C174.86 244.747 174.82 244.753 174.782 244.768C174.744 244.783 174.71 244.806 174.681 244.836C174.639 244.889 174.613 244.954 174.606 245.022C174.6 245.091 174.614 245.16 174.646 245.22Z" fill="#F0F0F0"/>
<path d="M179.838 252.234C179.861 252.293 179.899 252.344 179.948 252.382C179.998 252.42 180.056 252.444 180.117 252.45C180.158 252.451 180.198 252.443 180.236 252.427C180.274 252.411 180.308 252.387 180.336 252.356C180.364 252.326 180.385 252.289 180.399 252.25C180.412 252.21 180.417 252.168 180.414 252.126C180.274 247.728 177.504 243.606 177.399 243.462C177.373 243.43 177.339 243.405 177.302 243.387C177.265 243.37 177.225 243.361 177.184 243.361C177.143 243.361 177.103 243.37 177.066 243.387C177.028 243.405 176.995 243.43 176.969 243.462C176.917 243.534 176.892 243.622 176.897 243.711C176.903 243.799 176.938 243.884 176.998 243.948C177.027 243.978 179.681 248.01 179.803 252.096C179.809 252.143 179.821 252.19 179.838 252.234Z" fill="#F0F0F0"/>
<path d="M182.026 250.8C182.049 250.858 182.086 250.909 182.134 250.947C182.182 250.985 182.239 251.009 182.3 251.016C182.341 251.019 182.382 251.013 182.42 250.997C182.458 250.982 182.493 250.959 182.522 250.929C182.55 250.899 182.573 250.862 182.586 250.823C182.6 250.783 182.606 250.74 182.602 250.698C182.512 247.658 181.384 244.747 179.419 242.478C179.392 242.447 179.359 242.423 179.323 242.406C179.286 242.389 179.246 242.38 179.206 242.38C179.166 242.38 179.127 242.389 179.09 242.406C179.053 242.423 179.021 242.447 178.994 242.478C178.947 242.553 178.926 242.642 178.935 242.731C178.945 242.82 178.984 242.902 179.046 242.964C180.848 245.099 181.887 247.805 181.991 250.632C181.995 250.69 182.007 250.746 182.026 250.8Z" fill="#F0F0F0"/>
<path d="M184.855 249.564C184.878 249.622 184.916 249.672 184.964 249.71C185.012 249.748 185.069 249.772 185.129 249.78C185.169 249.783 185.209 249.777 185.247 249.762C185.284 249.747 185.318 249.724 185.347 249.694C185.375 249.665 185.396 249.629 185.41 249.59C185.424 249.551 185.429 249.509 185.425 249.468C185.425 244.896 182.294 241.356 182.155 241.212C182.128 241.18 182.095 241.155 182.058 241.137C182.02 241.12 181.98 241.111 181.939 241.111C181.898 241.111 181.858 241.12 181.821 241.137C181.784 241.155 181.751 241.18 181.724 241.212C181.673 241.285 181.65 241.375 181.659 241.464C181.668 241.553 181.707 241.636 181.77 241.698C181.8 241.734 184.808 245.154 184.82 249.402C184.819 249.458 184.831 249.514 184.855 249.564Z" fill="#EBEBEB"/>
<path d="M168.629 166.344L189.796 168.924C189.796 168.924 195.651 166.218 199.294 164.592C211.918 158.946 213.873 157.908 217.953 157.962L211.068 172.878C211.068 172.878 202.874 176.478 195.325 179.388C191.391 180.912 191.437 181.188 187.096 180.03C183.865 179.178 182.195 178.728 177.504 177.414C171.754 175.806 167.872 174.858 167.872 174.858L168.629 166.344Z" fill="#C8856A"/>
<path d="M171.05 166.83C167.185 166.026 165.684 166.056 164.648 163.578C163.612 161.1 163.17 160.632 162.733 160.164C162.297 159.696 159.468 158.04 158.304 157.38C157.419 156.894 156.61 156.948 155.004 156.588C154.207 156.408 153.287 156.144 152.496 155.904C151.862 155.617 151.192 155.425 150.505 155.334C149.615 155.334 149.818 156.654 150.43 157.272C151.164 157.906 152.01 158.388 152.921 158.694C153.561 158.964 155.091 159.576 155.091 159.576C154.859 160.116 154.265 161.1 154.277 161.766C154.288 162.432 154.387 162.696 155.54 163.842C155.403 163.991 155.298 164.168 155.232 164.361C155.166 164.554 155.14 164.76 155.155 164.964C155.332 165.497 155.639 165.974 156.046 166.35C155.847 166.608 155.735 166.926 155.726 167.256C155.726 167.784 156.605 168.792 157.472 169.572C158.386 170.592 159.154 172.152 159.992 172.956C160.83 173.76 162.04 174 164.031 174.156C166.021 174.312 171.149 175.632 171.149 175.632C171.149 175.632 174.798 167.604 171.05 166.83Z" fill="#C8856A"/>
<path d="M161.36 161.472C160.295 161.258 159.329 160.686 158.613 159.846C157.932 158.994 157.233 158.004 156.919 158.136C156.389 158.358 155.842 159.852 156.826 161.34C157.809 162.828 159.259 164.238 159.503 164.664C159.764 165.507 159.886 166.39 159.864 167.274C159.96 168.224 160.336 169.121 160.942 169.844C161.547 170.567 162.353 171.082 163.251 171.318C162.176 171.285 161.154 170.825 160.399 170.034C158.944 168.648 159.195 166.464 159.043 165.546C158.892 164.628 158.863 164.442 157.757 163.254C156.651 162.066 155.458 160.788 155.929 158.922C156.401 157.056 157.169 157.494 157.553 157.866C157.937 158.238 159.532 161.046 161.36 161.472Z" fill="#AF6152"/>
<path d="M155.074 159.6L156.127 159.858L155.929 160.26C155.644 160.227 155.355 160.274 155.094 160.397C154.833 160.519 154.609 160.713 154.445 160.956C154.585 160.578 154.888 159.978 155.074 159.6Z" fill="#AF6152"/>
<path d="M155.522 163.842C155.894 164.232 157.105 165.366 157.349 165.6C157.594 165.834 158.083 165.498 158.158 164.808C158.253 164.246 158.139 163.667 157.838 163.188C158.222 163.636 158.43 164.216 158.42 164.814C158.356 165.702 157.897 166.014 157.547 166.068C157.198 166.122 156.319 164.67 155.522 163.842Z" fill="#AF6152"/>
<path d="M156.028 166.35C156.302 166.65 156.738 166.986 157.507 167.79C157.955 168.258 158.222 168.57 158.537 168.39C158.75 168.143 158.884 167.834 158.922 167.506C158.959 167.177 158.898 166.845 158.746 166.554C158.532 166.18 158.277 165.834 157.984 165.522L158.199 165.282C158.683 165.755 159.048 166.342 159.264 166.992C159.48 167.874 158.991 168.864 158.548 168.792C158.106 168.72 157.873 168.468 157.262 167.778C156.651 167.088 156.028 166.35 156.028 166.35Z" fill="#AF6152"/>
<path d="M158.304 168.6C158.461 168.81 158.572 169.398 158.199 169.59C158.083 169.644 157.957 169.672 157.83 169.672C157.702 169.672 157.576 169.644 157.46 169.59C157.569 169.71 157.712 169.791 157.869 169.824C158.025 169.856 158.187 169.837 158.333 169.77C158.787 169.536 158.793 168.948 158.688 168.504L158.304 168.6Z" fill="#AF6152"/>
<path d="M242.153 182.226C241.367 170.394 241.396 165.282 240.261 161.406C238.515 160.878 234.762 159.798 234.762 159.798C234.762 159.798 225.717 159.402 222.487 157.998L217.953 157.818C215.497 160.254 209.026 165.45 206.925 170.376C205.522 173.67 205.557 178.512 209.392 181.776C209.415 184.438 209.609 187.096 209.974 189.732C209.974 189.732 208.81 193.506 207.344 197.214C207.891 203.034 216.126 207.414 226.177 210.204C236.967 213.204 243.567 208.716 243.567 208.716C243.567 208.716 242.933 193.95 242.153 182.226Z" fill="#FF441F"/>
<path opacity="0.6" d="M242.153 182.226C241.367 170.394 241.396 165.282 240.261 161.406C238.515 160.878 234.762 159.798 234.762 159.798C234.762 159.798 225.717 159.402 222.487 157.998L217.953 157.818C215.497 160.254 209.026 165.45 206.925 170.376C205.522 173.67 205.557 178.512 209.392 181.776C209.415 184.438 209.609 187.096 209.974 189.732C209.974 189.732 208.81 193.506 207.344 197.214C207.891 203.034 216.126 207.414 226.177 210.204C236.967 213.204 243.567 208.716 243.567 208.716C243.567 208.716 242.933 193.95 242.153 182.226Z" fill="white"/>
<path opacity="0.3" d="M218.465 183.882C218.465 183.882 221.183 187.65 226.904 187.236C232.806 186.81 234.156 181.836 234.156 181.836C234.156 181.836 234.156 188.436 227.085 188.934C225.316 189.131 223.531 188.749 221.984 187.842C220.437 186.935 219.206 185.55 218.465 183.882Z" fill="#FF441F"/>
<path d="M225.234 216.684V217.368C225.235 217.708 225.149 218.043 224.985 218.338C224.82 218.633 224.583 218.878 224.297 219.048L206.383 229.68C206.098 229.849 205.775 229.938 205.446 229.938C205.117 229.938 204.794 229.849 204.509 229.68L171.638 210.114C171.351 209.944 171.113 209.699 170.948 209.404C170.782 209.109 170.695 208.775 170.695 208.434V207.966L205.446 228.648L225.234 216.684Z" fill="#EBEBEB"/>
<path d="M170.695 207.966L190.186 196.362C190.356 196.261 190.549 196.208 190.745 196.208C190.941 196.208 191.133 196.261 191.303 196.362L225.118 216.492C225.157 216.513 225.189 216.545 225.212 216.585C225.234 216.624 225.246 216.668 225.246 216.714C225.246 216.759 225.234 216.804 225.212 216.843C225.189 216.882 225.157 216.914 225.118 216.936L205.446 228.648L170.695 207.966Z" fill="#FAFAFA"/>
<path d="M205.627 226.944L216.138 220.692L185.396 202.398L174.833 208.614L205.627 226.944Z" fill="#E0E0E0"/>
<path d="M210.789 209.556L210.597 209.67L205.446 212.736L196.28 207.282L196.093 207.168L201.436 203.988L210.789 209.556Z" fill="#E0E0E0"/>
<path d="M210.597 209.67L205.446 212.736L196.28 207.282L201.436 204.216L210.597 209.67Z" fill="#E6E6E6"/>
<path d="M205.446 228.648V229.938C205.117 229.94 204.793 229.851 204.509 229.68L171.638 210.114C171.351 209.944 171.113 209.699 170.948 209.404C170.782 209.109 170.695 208.775 170.695 208.434V207.966L205.446 228.648Z" fill="#EBEBEB"/>
<g style="mix-blend-mode:multiply" opacity="0.5">
<path d="M205.446 228.648V229.938C205.117 229.94 204.793 229.851 204.509 229.68L171.638 210.114C171.351 209.944 171.113 209.699 170.948 209.404C170.782 209.109 170.695 208.775 170.695 208.434V207.966L205.446 228.648Z" fill="#E0E0E0"/>
</g>
<path d="M204.916 228.936C204.605 229.06 204.271 229.11 203.939 229.083C203.607 229.056 203.284 228.953 202.996 228.78L170.27 209.304C169.986 209.135 169.741 208.903 169.554 208.625C169.367 208.347 169.242 208.03 169.187 207.696L165.602 185.67C165.584 185.545 165.574 185.419 165.573 185.292C165.574 184.68 165.811 184.093 166.231 183.66L200.243 203.91C200.454 204.036 200.635 204.21 200.773 204.417C200.911 204.625 201.002 204.862 201.04 205.11L204.916 228.936Z" fill="#FF441F"/>
<g opacity="0.7">
<path d="M204.916 228.936C204.605 229.06 204.271 229.11 203.939 229.083C203.607 229.056 203.284 228.953 202.996 228.78L170.27 209.304C169.986 209.135 169.741 208.903 169.554 208.625C169.367 208.347 169.242 208.03 169.187 207.696L165.602 185.67C165.584 185.545 165.574 185.419 165.573 185.292C165.574 184.68 165.811 184.093 166.231 183.66L200.243 203.91C200.454 204.036 200.635 204.21 200.773 204.417C200.911 204.625 201.002 204.862 201.04 205.11L204.916 228.936Z" fill="white"/>
</g>
<path d="M205.446 228.648L205.219 228.78C205.121 228.838 205.02 228.89 204.917 228.936L201.04 205.098C201.002 204.85 200.911 204.613 200.773 204.405C200.635 204.198 200.454 204.024 200.243 203.898L166.231 183.66C166.37 183.526 166.522 183.407 166.685 183.306L200.79 203.592C201.001 203.718 201.183 203.891 201.321 204.099C201.459 204.307 201.55 204.543 201.587 204.792L205.446 228.648Z" fill="#FAFAFA"/>
<path d="M186.484 208.602C186.24 207.126 184.767 205.164 183.184 204.222C181.601 203.28 180.513 203.718 180.752 205.188C180.99 206.658 182.468 208.626 184.051 209.568C185.635 210.51 186.723 210.072 186.484 208.602Z" fill="#FF441F"/>
<path d="M252.192 195C251.843 192.6 248.444 170.58 247.432 167.604C246.337 164.388 245.144 162.882 240.302 161.418C235.786 164.604 236.676 175.098 237.258 177.51L240.785 194.832C240.785 194.832 235.757 197.298 231.7 199.23C228.208 200.874 225.799 202.752 221.736 203.166C217.674 203.58 216.906 203.352 213.425 204.912C212.211 205.494 211.044 206.174 209.933 206.946C208.705 208.278 207.192 209.298 205.859 210.546C204.864 211.23 205.766 211.746 206.546 211.788C208.705 211.866 210.451 210.144 212.395 209.442C212.162 210.154 212.034 210.899 212.017 211.65C212.017 212.25 211.86 212.976 212.36 213.45C212.734 213.695 213.142 213.879 213.571 213.996C213.571 214.219 213.655 214.434 213.804 214.596C214.097 214.829 214.466 214.936 214.834 214.896C215.029 214.881 215.223 214.855 215.416 214.818C215.439 215.009 215.51 215.191 215.622 215.344C215.734 215.498 215.884 215.619 216.056 215.694C216.857 215.972 217.716 216.019 218.541 215.832C218.663 215.784 219.594 215.292 219.868 215.148C220.219 215.025 220.538 214.819 220.799 214.548C221.003 214.236 220.45 213.504 219.973 213.414C219.445 213.352 218.91 213.377 218.39 213.486C218.611 213.046 218.775 212.578 218.879 212.094C219.327 211.392 222.423 212.178 225.199 211.74C227.288 211.41 228.546 209.814 229.488 209.394C235.751 206.592 244.038 204.894 248.112 203.646C253.205 202.068 252.844 199.416 252.192 195Z" fill="#C8856A"/>
<path d="M212.43 209.4C212.58 208.361 212.981 207.377 213.594 206.538C212.512 206.916 211.726 209.694 211.726 209.694L212.43 209.4Z" fill="#AF6152"/>
<path d="M213.594 213.948C213.516 213.351 213.516 212.745 213.594 212.148C213.645 211.559 213.73 210.974 213.85 210.396C213.95 209.808 214.116 209.234 214.345 208.686C214.564 208.129 214.931 207.646 215.404 207.294C215.203 207.498 215.04 207.738 214.921 208.002C214.786 208.253 214.673 208.516 214.583 208.788C214.406 209.337 214.268 209.898 214.17 210.468C214.054 211.038 213.949 211.614 213.844 212.184C213.725 212.766 213.641 213.355 213.594 213.948Z" fill="#AF6152"/>
<path d="M215.445 214.752C215.395 214.17 215.407 213.585 215.479 213.006C215.537 212.428 215.632 211.855 215.765 211.29C215.888 210.722 216.051 210.165 216.254 209.622C216.421 209.06 216.728 208.553 217.144 208.152C216.969 208.372 216.837 208.624 216.754 208.896C216.653 209.16 216.566 209.43 216.492 209.706C216.347 210.258 216.207 210.81 216.085 211.368C215.835 212.484 215.596 213.6 215.445 214.752Z" fill="#AF6152"/>
<path d="M219.996 213.378C219.761 213.379 219.526 213.409 219.298 213.468C219.071 213.516 218.914 213.63 218.628 213.72L218.745 213.534C218.756 213.651 218.738 213.769 218.692 213.876C218.656 213.974 218.6 214.064 218.529 214.14C218.401 214.289 218.233 214.398 218.046 214.452C218.161 214.316 218.26 214.167 218.343 214.008C218.374 213.937 218.398 213.862 218.413 213.786C218.42 213.72 218.42 213.654 218.413 213.588V213.45L218.547 213.402C218.759 213.32 218.984 213.276 219.21 213.27C219.477 213.227 219.75 213.265 219.996 213.378Z" fill="#AF6152"/>
<path d="M235.465 127.47C239.755 126.096 244.003 131.412 243.491 135.696C245.348 137.16 246.401 142.35 243.98 144.924C245.389 147.594 243.334 152.82 239.795 153.324C240.308 155.64 237.369 159.054 233.795 159.21C229.005 159.42 230.192 157.668 231.147 152.238C231.636 149.58 235.465 127.47 235.465 127.47Z" fill="#263238"/>
<path d="M220.275 166.2C216.114 165.51 218.075 162.816 221.044 159.696L227.609 157.8L232.963 157.23C232.928 159.114 234.028 159.51 235.082 159.924C232.247 162.954 225.234 167.004 220.275 166.2Z" fill="#C8856A"/>
<path d="M222.225 159.33C220.479 163.476 217.191 163.344 215.916 163.092C215.398 165.69 213.28 166.968 211.086 167.892C211.58 170.466 209.765 172.152 207.966 173.532C208.272 174.005 208.471 174.543 208.548 175.106C208.624 175.669 208.577 176.243 208.409 176.784C208.071 178.218 205.918 180.726 206.325 182.424C203.875 179.736 203.886 176.088 205.987 173.214C205.58 170.694 205.289 168.186 207.559 166.614C206.977 163.374 208.49 160.992 211.662 160.446C211.732 157.956 213.309 156.48 215.969 156.048C215.387 151.716 219.688 149.994 222.371 149.91C222.336 151.794 222.615 155.832 222.534 157.71L222.225 159.33Z" fill="#263238"/>
<path d="M217.895 124.362C223.162 121.776 231.717 122.892 232.998 126.762C235.285 126.39 237.072 127.806 238.567 130.782C239.486 132.73 239.992 134.858 240.052 137.023C240.111 139.188 239.722 141.342 238.911 143.34C237.639 146.815 235.63 149.953 233.033 152.526L232.881 146.136C232.357 146.099 231.838 145.995 231.339 145.824C228.592 144.846 219.554 140.886 217.441 137.088C217.441 137.088 213.291 139.38 213.285 139.374C208.938 135.15 210.684 127.896 217.895 124.362Z" fill="#37474F"/>
<path d="M213.984 134.106C213.704 135.168 212.82 137.502 212.965 144.774C213.105 151.704 215.124 153.924 216.661 154.836C217.825 155.532 220.328 155.79 222.237 155.604V161.514C222.237 161.514 221.841 162.546 225.967 162.894C232.229 163.428 232.951 160.038 232.951 160.038L233.114 149.538C233.114 149.538 234.796 150.648 236.734 148.974C237.898 147.978 238.853 144.978 237.403 143.388C235.954 141.798 234.394 142.242 233.114 144.48C232.983 144.665 232.804 144.807 232.597 144.891C232.39 144.974 232.164 144.994 231.946 144.949C231.728 144.905 231.527 144.797 231.367 144.638C231.207 144.479 231.094 144.277 231.042 144.054C230.46 141.42 231.258 138.69 227.754 137.142C224.903 136.024 222.461 134.017 220.77 131.4C218.419 133.278 215.34 134.322 213.984 134.106Z" fill="#C8856A"/>
<path d="M224.885 141.888C224.864 142.199 224.735 142.492 224.521 142.713C224.307 142.934 224.023 143.067 223.721 143.088C223.58 143.088 223.441 143.059 223.311 143.004C223.181 142.948 223.063 142.867 222.964 142.765C222.864 142.662 222.785 142.54 222.731 142.406C222.678 142.273 222.65 142.129 222.65 141.984C222.65 141.839 222.678 141.695 222.731 141.562C222.785 141.428 222.864 141.306 222.964 141.203C223.063 141.101 223.181 141.02 223.311 140.964C223.441 140.909 223.58 140.88 223.721 140.88C224.004 140.857 224.285 140.949 224.503 141.138C224.721 141.327 224.858 141.596 224.885 141.888Z" fill="#263238"/>
<path d="M216.952 141.552C216.952 141.845 216.84 142.126 216.639 142.333C216.438 142.54 216.166 142.656 215.882 142.656C215.572 142.631 215.28 142.493 215.061 142.266C214.841 142.04 214.707 141.74 214.683 141.42C214.683 140.82 215.294 140.454 215.882 140.454C216.022 140.453 216.161 140.481 216.291 140.536C216.421 140.591 216.539 140.672 216.638 140.774C216.738 140.876 216.817 140.997 216.871 141.131C216.925 141.264 216.952 141.407 216.952 141.552Z" fill="#263238"/>
<path d="M223.121 148.536L219.856 149.4C219.902 149.625 219.992 149.837 220.119 150.026C220.246 150.214 220.409 150.374 220.597 150.496C220.786 150.618 220.996 150.699 221.216 150.736C221.435 150.772 221.66 150.763 221.876 150.708C222.318 150.587 222.697 150.291 222.93 149.885C223.163 149.479 223.231 148.994 223.121 148.536Z" fill="#AF6152"/>
<path d="M222.906 149.22C222.471 149.166 222.033 149.29 221.687 149.566C221.34 149.843 221.113 150.248 221.055 150.696C221.328 150.771 221.615 150.771 221.887 150.696C222.207 150.605 222.495 150.423 222.717 150.17C222.94 149.917 223.088 149.605 223.145 149.268C223.066 149.246 222.987 149.23 222.906 149.22Z" fill="#FFA8A7"/>
<path d="M214.281 139.554L216.492 138.768C216.449 138.617 216.377 138.477 216.28 138.355C216.183 138.234 216.063 138.134 215.928 138.062C215.793 137.989 215.644 137.946 215.492 137.934C215.34 137.923 215.187 137.943 215.043 137.994C214.747 138.104 214.503 138.328 214.361 138.618C214.219 138.908 214.19 139.243 214.281 139.554Z" fill="#263238"/>
<path d="M223.704 138.786L225.665 140.1C225.755 139.973 225.819 139.829 225.853 139.675C225.887 139.522 225.89 139.363 225.862 139.209C225.835 139.054 225.776 138.907 225.691 138.777C225.606 138.646 225.496 138.535 225.368 138.45C225.102 138.274 224.781 138.212 224.471 138.274C224.161 138.337 223.886 138.52 223.704 138.786Z" fill="#263238"/>
<path d="M220.473 140.196L219.746 147.354L216.114 146.1C217.255 144.096 218.698 141.6 220.473 140.196Z" fill="#AF6152"/>
<path d="M222.237 155.604C224.897 155.094 229.867 153.852 230.734 149.916C230.734 149.916 230.967 152.022 228.86 154.146C226.66 156.372 222.237 157.2 222.237 157.2V155.604Z" fill="#AF6152"/>
<path d="M226.247 113.682L228.144 110.004L226.62 105.456V102.672L231.276 105.456V108.24L229.262 111.84C229.231 111.895 229.184 111.939 229.128 111.966L226.247 113.682Z" fill="#FF441F"/>
<path opacity="0.2" d="M226.247 113.682L228.144 110.004L226.62 105.456V102.672L231.276 105.456V108.24L229.262 111.84C229.231 111.895 229.184 111.939 229.128 111.966L226.247 113.682Z" fill="black"/>
<path d="M215.783 75.378C215.809 74.8758 215.95 74.3871 216.193 73.9514C216.437 73.5157 216.777 73.1452 217.185 72.87L218.349 72.192C218.784 71.9672 219.263 71.8501 219.749 71.8501C220.235 71.8501 220.714 71.9672 221.149 72.192L238.62 82.626C239.028 82.9006 239.367 83.2701 239.611 83.7047C239.854 84.1393 239.995 84.6268 240.023 85.128V110.562C239.995 111.063 239.854 111.551 239.611 111.985C239.367 112.42 239.028 112.789 238.62 113.064L237.456 113.742C237.022 113.97 236.541 114.088 236.054 114.088C235.566 114.088 235.086 113.97 234.651 113.742L228.325 109.992L226.323 113.592C226.293 113.642 226.25 113.682 226.2 113.708C226.149 113.734 226.092 113.745 226.036 113.739C225.979 113.734 225.925 113.712 225.88 113.676C225.836 113.641 225.801 113.593 225.781 113.538L223.663 107.232L217.156 103.326C216.748 103.052 216.408 102.683 216.164 102.248C215.921 101.813 215.78 101.325 215.753 100.824L215.783 75.378Z" fill="#FF441F"/>
<path opacity="0.2" d="M240.029 110.562C240.001 111.063 239.86 111.551 239.617 111.985C239.373 112.42 239.034 112.789 238.626 113.064L237.462 113.742C237.066 113.946 236.633 114.062 236.191 114.081C235.748 114.101 235.307 114.024 234.896 113.856C235.559 114.114 236.06 113.73 236.06 112.908V87.4741C236.041 86.9724 235.901 86.4834 235.652 86.0521L239.592 83.7061C239.847 84.1353 239.989 84.6252 240.005 85.1281L240.029 110.562Z" fill="black"/>
<path opacity="0.3" d="M215.829 74.9641C215.992 74.3641 216.533 74.1541 217.179 74.5381L234.68 84.9781C235.096 85.2397 235.437 85.6103 235.669 86.0521L239.61 83.7061C239.378 83.2659 239.039 82.8956 238.626 82.6321L221.16 72.1921C220.725 71.9672 220.245 71.8501 219.758 71.8501C219.271 71.8501 218.79 71.9672 218.355 72.1921L217.191 72.8761C216.839 73.1111 216.537 73.4173 216.302 73.7762C216.068 74.1351 215.907 74.5392 215.829 74.9641Z" fill="white"/>
<path d="M230.955 96.4679L227.37 98.8859V85.7279L225.036 84.3359V97.8119L221.969 92.6759L220.322 93.9539L225.851 102.87L232.084 98.6579L230.955 96.4679Z" fill="#FAFAFA"/>
</svg>
