<svg width="370" height="351" viewBox="0 0 370 351" fill="none" xmlns="http://www.w3.org/2000/svg">
<path d="M370 268.445H0V268.62H370V268.445Z" fill="#E0E0E0"/>
<path d="M280.704 274.917H255.248V275.092H280.704V274.917Z" fill="#E0E0E0"/>
<path d="M310.652 274.418H296.326V274.594H310.652V274.418Z" fill="#E0E0E0"/>
<path d="M183.032 274.833H164.028V275.009H183.032V274.833Z" fill="#E0E0E0"/>
<path d="M196.758 277.325H183.779V277.501H196.758V277.325Z" fill="#E0E0E0"/>
<path d="M107.056 273.057H67.8433V273.232H107.056V273.057Z" fill="#E0E0E0"/>
<path d="M175.38 237.135H32.4934C31.374 237.134 30.3012 236.71 29.5104 235.959C28.7195 235.207 28.2754 234.189 28.2754 233.127V42.5832C28.2851 41.5274 28.7336 40.5179 29.5234 39.7739C30.3131 39.03 31.3804 38.6117 32.4934 38.6099H175.38C176.501 38.6099 177.575 39.0322 178.368 39.7839C179.16 40.5356 179.605 41.5552 179.605 42.6183V233.127C179.605 234.19 179.16 235.21 178.368 235.961C177.575 236.713 176.501 237.135 175.38 237.135ZM32.4934 38.7503C31.4231 38.7521 30.3973 39.1568 29.6412 39.8754C28.8851 40.594 28.4604 41.5678 28.4604 42.5832V233.127C28.4604 234.142 28.8851 235.116 29.6412 235.835C30.3973 236.553 31.4231 236.958 32.4934 236.96H175.38C176.451 236.958 177.478 236.554 178.235 235.835C178.992 235.117 179.418 234.143 179.42 233.127V42.5832C179.418 41.5672 178.992 40.5934 178.235 39.8749C177.478 39.1565 176.451 38.7521 175.38 38.7503H32.4934Z" fill="#E0E0E0"/>
<path d="M335.449 237.135H192.555C191.435 237.134 190.362 236.711 189.57 235.959C188.778 235.208 188.332 234.19 188.33 233.127V42.5832C188.342 41.5268 188.792 40.5173 189.583 39.7735C190.374 39.0297 191.442 38.6117 192.555 38.6099H335.449C336.561 38.6135 337.627 39.0326 338.415 39.7764C339.203 40.5202 339.65 41.5286 339.66 42.5832V233.127C339.66 234.188 339.217 235.205 338.428 235.956C337.639 236.708 336.568 237.132 335.449 237.135ZM192.555 38.7503C191.484 38.7521 190.458 39.1565 189.701 39.8749C188.943 40.5934 188.517 41.5672 188.515 42.5832V233.127C188.517 234.143 188.943 235.117 189.701 235.835C190.458 236.554 191.484 236.958 192.555 236.96H335.449C336.52 236.958 337.547 236.554 338.304 235.835C339.062 235.117 339.488 234.143 339.49 233.127V42.5832C339.488 41.5672 339.062 40.5934 338.304 39.8749C337.547 39.1565 336.52 38.7521 335.449 38.7503H192.555Z" fill="#E0E0E0"/>
<path d="M321.182 55.6475H209.664V146.599H321.182V55.6475Z" fill="#E0E0E0"/>
<path d="M323.661 55.6475H212.143V146.599H323.661V55.6475Z" fill="#F0F0F0"/>
<path d="M319.214 142.33V59.9155L216.591 59.9155V142.33H319.214Z" fill="#FAFAFA"/>
<path d="M286.417 142.33V59.9155H279.713V142.33H286.417Z" fill="#E0E0E0"/>
<path d="M251.148 142.33V59.9155H244.444V142.33H251.148Z" fill="#E0E0E0"/>
<path d="M288.778 145.033V56.7354H282.073V145.033H288.778Z" fill="#F0F0F0"/>
<path d="M253.502 145.04V56.7427H246.798V145.04H253.502Z" fill="#F0F0F0"/>
<path d="M319.214 142.323V59.9087H317.342V142.323H319.214Z" fill="#E0E0E0"/>
<path d="M131.232 127.476C131.232 127.476 117.66 105.3 136.493 87.6167C136.493 87.6167 141.407 90.6564 141.333 94.742C141.259 98.8276 136.064 99.8596 137.181 103.271C138.299 106.683 143.19 110.018 139.978 112.84C136.767 115.662 140.496 118.161 140.282 121.615C140.067 125.068 131.232 127.476 131.232 127.476Z" fill="#E0E0E0"/>
<path d="M133.363 131.105C133.363 131.105 138.868 105.988 115.129 94.854C115.129 94.854 111.474 99.2064 112.909 103.06C114.345 106.914 119.606 106.339 119.68 109.912C119.754 113.485 116.224 118.118 120.206 119.831C124.187 121.544 121.486 125.04 122.84 128.255C124.194 131.47 133.363 131.105 133.363 131.105Z" fill="#E6E6E6"/>
<path d="M121.279 124.724C121.279 124.724 121.515 146.409 130.654 146.409C139.793 146.409 140.023 124.724 140.023 124.724H121.279Z" fill="#F0F0F0"/>
<path d="M66.3706 138.252C66.3706 138.252 66.8812 146.409 86.395 146.409C105.909 146.409 106.427 138.252 106.427 138.252H66.3706Z" fill="#E6E6E6"/>
<path d="M272.098 187.434H261.797C260.514 187.434 259.474 188.421 259.474 189.638V205.798C259.474 207.016 260.514 208.003 261.797 208.003H272.098C273.381 208.003 274.422 207.016 274.422 205.798V189.638C274.422 188.421 273.381 187.434 272.098 187.434Z" fill="#F0F0F0"/>
<path d="M299.419 194.159H292.485C291.623 194.159 290.924 194.822 290.924 195.64V206.521C290.924 207.339 291.623 208.003 292.485 208.003H299.419C300.281 208.003 300.98 207.339 300.98 206.521V195.64C300.98 194.822 300.281 194.159 299.419 194.159Z" fill="#E6E6E6"/>
<path d="M300.455 192.818H291.449C291.159 192.818 290.924 193.042 290.924 193.317V193.878C290.924 194.154 291.159 194.377 291.449 194.377H300.455C300.745 194.377 300.98 194.154 300.98 193.878V193.317C300.98 193.042 300.745 192.818 300.455 192.818Z" fill="#F0F0F0"/>
<path d="M235.631 196.56C235.631 196.56 236.001 208.003 250.127 208.003C264.254 208.003 264.631 196.56 264.631 196.56H235.631Z" fill="#E6E6E6"/>
<path d="M200.496 181.446H221.874V177.444H200.496V181.446Z" fill="#E0E0E0"/>
<path d="M328.16 177.451H221.874V181.453H328.16V177.451Z" fill="#F0F0F0"/>
<path d="M200.496 212.004H221.874V208.002H200.496V212.004Z" fill="#E0E0E0"/>
<path d="M328.16 208.002H221.874V212.004H328.16V208.002Z" fill="#F0F0F0"/>
<path d="M208.199 181.446H204.255V268.438H208.199V181.446Z" fill="#E0E0E0"/>
<path d="M225.818 181.446H221.874V268.438H225.818V181.446Z" fill="#F0F0F0"/>
<path d="M314.485 181.446H310.541V268.438H314.485V181.446Z" fill="#E0E0E0"/>
<path d="M328.16 181.446H324.216V268.438H328.16V181.446Z" fill="#F0F0F0"/>
<path d="M66.3706 151.499H46.1538V263.18H66.3706V151.499Z" fill="#E6E6E6"/>
<path d="M149.732 263.173H50.0388V268.445H149.732V263.173Z" fill="#E6E6E6"/>
<path d="M66.3705 263.173H153.609L153.609 151.492H66.3705L66.3705 263.173Z" fill="#F0F0F0"/>
<path d="M74.3182 220.976H145.662V193.696H74.3182V220.976Z" fill="#E6E6E6"/>
<path d="M74.3182 253.225H145.662V225.945H74.3182V253.225Z" fill="#E6E6E6"/>
<path d="M118 196.686H101.979C101.458 196.684 100.958 196.487 100.59 196.137C100.221 195.787 100.013 195.313 100.011 194.819C100.011 194.323 100.218 193.847 100.587 193.496C100.956 193.144 101.457 192.946 101.979 192.944H118C118.523 192.946 119.024 193.144 119.393 193.496C119.762 193.847 119.969 194.323 119.969 194.819C119.967 195.313 119.759 195.787 119.39 196.137C119.021 196.487 118.522 196.684 118 196.686Z" fill="#F0F0F0"/>
<path d="M74.3182 188.719H145.662V161.439H74.3182V188.719Z" fill="#E6E6E6"/>
<path d="M118 164.436H101.979C101.457 164.435 100.956 164.236 100.587 163.885C100.218 163.534 100.011 163.058 100.011 162.562C100.013 162.067 100.221 161.594 100.59 161.244C100.958 160.894 101.458 160.697 101.979 160.695H118C118.522 160.697 119.021 160.894 119.39 161.244C119.759 161.594 119.967 162.067 119.969 162.562C119.969 163.058 119.762 163.534 119.393 163.885C119.024 164.236 118.523 164.435 118 164.436Z" fill="#F0F0F0"/>
<path d="M118 228.936H101.979C101.458 228.934 100.958 228.737 100.59 228.387C100.221 228.037 100.013 227.563 100.011 227.069C100.011 226.573 100.218 226.097 100.587 225.746C100.956 225.394 101.457 225.196 101.979 225.194H118C118.523 225.196 119.024 225.394 119.393 225.746C119.762 226.097 119.969 226.573 119.969 227.069C119.967 227.563 119.759 228.037 119.39 228.387C119.021 228.737 118.522 228.934 118 228.936Z" fill="#F0F0F0"/>
<path d="M156.303 146.409H66.3706V151.499H156.303V146.409Z" fill="#E6E6E6"/>
<path d="M43.327 151.492H66.3706V146.402H43.327V151.492Z" fill="#E0E0E0"/>
<path d="M88.9036 59.9155H56.1956V93.9906H88.9036V59.9155Z" fill="#E6E6E6"/>
<path d="M92.4483 59.9155H58.6599V93.9906H92.4483V59.9155Z" fill="#F0F0F0"/>
<path d="M89.614 91.3019V62.5972H61.4866V91.3019H89.614Z" fill="#FAFAFA"/>
<path d="M82.7986 84.3453V69.5542H68.3094V84.3453H82.7986Z" fill="#F0F0F0"/>
<path d="M123.388 49.856H98.5828V75.135H123.388V49.856Z" fill="#E6E6E6"/>
<path d="M126.022 49.856H100.958V75.135H126.022V49.856Z" fill="#F0F0F0"/>
<path d="M123.92 73.1413V51.8496H103.06V73.1413H123.92Z" fill="#FAFAFA"/>
<path d="M113.486 57.1074L107.781 66.4861H119.192L113.486 57.1074Z" fill="#F0F0F0"/>
<path d="M185 300.147C264.241 300.147 328.479 296.589 328.479 292.201C328.479 287.812 264.241 284.254 185 284.254C105.759 284.254 41.5215 287.812 41.5215 292.201C41.5215 296.589 105.759 300.147 185 300.147Z" fill="#F5F5F5"/>
<path d="M310.652 102.366H238.058C234.229 102.366 231.124 105.311 231.124 108.943V127.673C231.124 131.306 234.229 134.251 238.058 134.251H310.652C314.481 134.251 317.586 131.306 317.586 127.673V108.943C317.586 105.311 314.481 102.366 310.652 102.366Z" fill="#FF441F"/>
<path d="M296.252 107.743H239.546C238.875 107.743 238.332 108.259 238.332 108.894V110.158C238.332 110.794 238.875 111.309 239.546 111.309H296.252C296.922 111.309 297.465 110.794 297.465 110.158V108.894C297.465 108.259 296.922 107.743 296.252 107.743Z" fill="#FF441F"/>
<path d="M278.292 116.335H239.546C238.875 116.335 238.332 116.851 238.332 117.487V118.75C238.332 119.386 238.875 119.902 239.546 119.902H278.292C278.962 119.902 279.506 119.386 279.506 118.75V117.487C279.506 116.851 278.962 116.335 278.292 116.335Z" fill="#FF441F"/>
<path d="M267.902 124.928H239.546C238.875 124.928 238.332 125.444 238.332 126.08V127.343C238.332 127.979 238.875 128.494 239.546 128.494H267.902C268.573 128.494 269.116 127.979 269.116 127.343V126.08C269.116 125.444 268.573 124.928 267.902 124.928Z" fill="#FF441F"/>
<path d="M303.045 124.928H274.688C274.018 124.928 273.475 125.444 273.475 126.08V127.343C273.475 127.979 274.018 128.494 274.688 128.494H303.045C303.715 128.494 304.259 127.979 304.259 127.343V126.08C304.259 125.444 303.715 124.928 303.045 124.928Z" fill="#FF441F"/>
<g opacity="0.5">
<path d="M296.252 107.743H239.546C238.875 107.743 238.332 108.259 238.332 108.894V110.158C238.332 110.794 238.875 111.309 239.546 111.309H296.252C296.922 111.309 297.465 110.794 297.465 110.158V108.894C297.465 108.259 296.922 107.743 296.252 107.743Z" fill="white"/>
<path d="M278.292 116.335H239.546C238.875 116.335 238.332 116.851 238.332 117.487V118.75C238.332 119.386 238.875 119.902 239.546 119.902H278.292C278.962 119.902 279.506 119.386 279.506 118.75V117.487C279.506 116.851 278.962 116.335 278.292 116.335Z" fill="white"/>
<path d="M267.902 124.928H239.546C238.875 124.928 238.332 125.444 238.332 126.08V127.343C238.332 127.979 238.875 128.494 239.546 128.494H267.902C268.573 128.494 269.116 127.979 269.116 127.343V126.08C269.116 125.444 268.573 124.928 267.902 124.928Z" fill="white"/>
<path d="M303.045 124.928H274.688C274.018 124.928 273.475 125.444 273.475 126.08V127.343C273.475 127.979 274.018 128.494 274.688 128.494H303.045C303.715 128.494 304.259 127.979 304.259 127.343V126.08C304.259 125.444 303.715 124.928 303.045 124.928Z" fill="white"/>
</g>
<path d="M252.503 94.9316H170.104C164.488 94.9316 159.936 99.2501 159.936 104.577V132.039C159.936 137.366 164.488 141.685 170.104 141.685H252.503C258.118 141.685 262.67 137.366 262.67 132.039V104.577C262.67 99.2501 258.118 94.9316 252.503 94.9316Z" fill="#FF441F"/>
<path d="M255.418 102.815H172.287C171.302 102.815 170.503 103.572 170.503 104.507V106.353C170.503 107.287 171.302 108.045 172.287 108.045H255.418C256.403 108.045 257.202 107.287 257.202 106.353V104.507C257.202 103.572 256.403 102.815 255.418 102.815Z" fill="#FF441F"/>
<path d="M229.082 115.416H172.287C171.302 115.416 170.503 116.173 170.503 117.108V118.954C170.503 119.888 171.302 120.646 172.287 120.646H229.082C230.067 120.646 230.865 119.888 230.865 118.954V117.108C230.865 116.173 230.067 115.416 229.082 115.416Z" fill="#FF441F"/>
<path d="M213.853 128.017H172.287C171.302 128.017 170.503 128.775 170.503 129.709V131.555C170.503 132.49 171.302 133.247 172.287 133.247H213.853C214.838 133.247 215.636 132.49 215.636 131.555V129.709C215.636 128.775 214.838 128.017 213.853 128.017Z" fill="#FF441F"/>
<path d="M258.445 128.017H223.813C222.828 128.017 222.03 128.775 222.03 129.709V131.555C222.03 132.49 222.828 133.247 223.813 133.247H258.445C259.43 133.247 260.228 132.49 260.228 131.555V129.709C260.228 128.775 259.43 128.017 258.445 128.017Z" fill="#FF441F"/>
<g opacity="0.5">
<path d="M255.418 102.815H172.287C171.302 102.815 170.503 103.572 170.503 104.507V106.353C170.503 107.287 171.302 108.045 172.287 108.045H255.418C256.403 108.045 257.202 107.287 257.202 106.353V104.507C257.202 103.572 256.403 102.815 255.418 102.815Z" fill="white"/>
<path d="M229.082 115.416H172.287C171.302 115.416 170.503 116.173 170.503 117.108V118.954C170.503 119.888 171.302 120.646 172.287 120.646H229.082C230.067 120.646 230.865 119.888 230.865 118.954V117.108C230.865 116.173 230.067 115.416 229.082 115.416Z" fill="white"/>
<path d="M213.853 128.017H172.287C171.302 128.017 170.503 128.774 170.503 129.708V131.555C170.503 132.489 171.302 133.246 172.287 133.246H213.853C214.838 133.246 215.636 132.489 215.636 131.555V129.708C215.636 128.774 214.838 128.017 213.853 128.017Z" fill="white"/>
<path d="M258.445 128.017H223.813C222.828 128.017 222.03 128.774 222.03 129.708V131.555C222.03 132.489 222.828 133.246 223.813 133.246H258.445C259.43 133.246 260.228 132.489 260.228 131.555V129.708C260.228 128.774 259.43 128.017 258.445 128.017Z" fill="white"/>
</g>
<path d="M201.273 150.158H161.586C158.963 150.158 156.836 152.176 156.836 154.665V211.063C156.836 213.552 158.963 215.57 161.586 215.57H201.273C203.896 215.57 206.023 213.552 206.023 211.063V154.665C206.023 152.176 203.896 150.158 201.273 150.158Z" fill="#FF441F"/>
<path opacity="0.4" d="M201.273 150.158H161.586C158.963 150.158 156.836 152.176 156.836 154.665V211.063C156.836 213.552 158.963 215.57 161.586 215.57H201.273C203.896 215.57 206.023 213.552 206.023 211.063V154.665C206.023 152.176 203.896 150.158 201.273 150.158Z" fill="black"/>
<path d="M199.452 156.981H163.399C162.917 156.981 162.526 157.352 162.526 157.81V159.052C162.526 159.51 162.917 159.881 163.399 159.881H199.452C199.934 159.881 200.325 159.51 200.325 159.052V157.81C200.325 157.352 199.934 156.981 199.452 156.981Z" fill="#FAFAFA"/>
<path d="M187.975 163.959H163.399C162.917 163.959 162.526 164.33 162.526 164.788V166.03C162.526 166.488 162.917 166.859 163.399 166.859H187.975C188.457 166.859 188.848 166.488 188.848 166.03V164.788C188.848 164.33 188.457 163.959 187.975 163.959Z" fill="#FAFAFA"/>
<path d="M199.452 170.944H163.399C162.917 170.944 162.526 171.315 162.526 171.773V173.015C162.526 173.473 162.917 173.844 163.399 173.844H199.452C199.934 173.844 200.325 173.473 200.325 173.015V171.773C200.325 171.315 199.934 170.944 199.452 170.944Z" fill="#FAFAFA"/>
<path d="M176.801 177.922H163.399C162.917 177.922 162.526 178.293 162.526 178.75V179.993C162.526 180.45 162.917 180.821 163.399 180.821H176.801C177.283 180.821 177.674 180.45 177.674 179.993V178.75C177.674 178.293 177.283 177.922 176.801 177.922Z" fill="#FAFAFA"/>
<path d="M195.552 177.922H182.151C181.669 177.922 181.278 178.293 181.278 178.75V179.993C181.278 180.45 181.669 180.821 182.151 180.821H195.552C196.035 180.821 196.426 180.45 196.426 179.993V178.75C196.426 178.293 196.035 177.922 195.552 177.922Z" fill="#FAFAFA"/>
<path d="M199.452 184.907H163.399C162.917 184.907 162.526 185.278 162.526 185.735V186.978C162.526 187.435 162.917 187.806 163.399 187.806H199.452C199.934 187.806 200.325 187.435 200.325 186.978V185.735C200.325 185.278 199.934 184.907 199.452 184.907Z" fill="#FAFAFA"/>
<path d="M199.452 191.885H163.399C162.917 191.885 162.526 192.256 162.526 192.713V193.956C162.526 194.413 162.917 194.784 163.399 194.784H199.452C199.934 194.784 200.325 194.413 200.325 193.956V192.713C200.325 192.256 199.934 191.885 199.452 191.885Z" fill="#FAFAFA"/>
<path d="M193.059 198.87H163.399C162.917 198.87 162.526 199.24 162.526 199.698V200.941C162.526 201.398 162.917 201.769 163.399 201.769H193.059C193.541 201.769 193.932 201.398 193.932 200.941V199.698C193.932 199.24 193.541 198.87 193.059 198.87Z" fill="#FAFAFA"/>
<path d="M177.237 205.848H163.399C162.917 205.848 162.526 206.219 162.526 206.676V207.919C162.526 208.376 162.917 208.747 163.399 208.747H177.237C177.72 208.747 178.111 208.376 178.111 207.919V206.676C178.111 206.219 177.72 205.848 177.237 205.848Z" fill="#FAFAFA"/>
<path d="M212.01 149.758H156.961L181.3 168.129L218.618 181.467V156.013C218.614 154.352 217.916 152.762 216.678 151.589C215.439 150.416 213.76 149.758 212.01 149.758Z" fill="#FF441F"/>
<path opacity="0.4" d="M212.01 149.758H156.961L181.3 168.129L218.618 181.467V156.013C218.614 154.352 217.916 152.762 216.678 151.589C215.439 150.416 213.76 149.758 212.01 149.758Z" fill="black"/>
<path d="M209.605 159.221H169.327C168.722 159.221 168.232 159.686 168.232 160.26V162.197C168.232 162.771 168.722 163.236 169.327 163.236H209.605C210.21 163.236 210.7 162.771 210.7 162.197V160.26C210.7 159.686 210.21 159.221 209.605 159.221Z" fill="#FAFAFA"/>
<path d="M307.211 199.487V162.759C307.211 159.944 304.806 157.662 301.839 157.662H234.61C231.642 157.662 229.237 159.944 229.237 162.759V199.487C229.237 202.302 231.642 204.584 234.61 204.584H301.839C304.806 204.584 307.211 202.302 307.211 199.487Z" fill="#FF441F"/>
<path d="M319.488 187.848V151.119C319.488 148.305 317.082 146.023 314.115 146.023H246.886C243.919 146.023 241.514 148.305 241.514 151.119V187.848C241.514 190.663 243.919 192.945 246.886 192.945H314.115C317.082 192.945 319.488 190.663 319.488 187.848Z" fill="#FF441F"/>
<path opacity="0.5" d="M319.488 187.848V151.119C319.488 148.305 317.082 146.023 314.115 146.023H246.886C243.919 146.023 241.514 148.305 241.514 151.119V187.848C241.514 190.663 243.919 192.945 246.886 192.945H314.115C317.082 192.945 319.488 190.663 319.488 187.848Z" fill="white"/>
<path d="M312.665 175.262V152.65C312.665 151.398 311.595 150.383 310.275 150.383H288.304C286.984 150.383 285.914 151.398 285.914 152.65V175.262C285.914 176.514 286.984 177.529 288.304 177.529H310.275C311.595 177.529 312.665 176.514 312.665 175.262Z" fill="#FF441F"/>
<path opacity="0.7" d="M312.665 175.262V152.65C312.665 151.398 311.595 150.383 310.275 150.383H288.304C286.984 150.383 285.914 151.398 285.914 152.65V175.262C285.914 176.514 286.984 177.529 288.304 177.529H310.275C311.595 177.529 312.665 176.514 312.665 175.262Z" fill="white"/>
<path d="M281.726 186.199V168.873C281.726 167.912 280.904 167.132 279.89 167.132H263.055C262.042 167.132 261.22 167.912 261.22 168.873V186.199C261.22 187.16 262.042 187.94 263.055 187.94H279.89C280.904 187.94 281.726 187.16 281.726 186.199Z" fill="#FF441F"/>
<path opacity="0.3" d="M281.726 186.199V168.873C281.726 167.912 280.904 167.132 279.89 167.132H263.055C262.042 167.132 261.22 167.912 261.22 168.873V186.199C261.22 187.16 262.042 187.94 263.055 187.94H279.89C280.904 187.94 281.726 187.16 281.726 186.199Z" fill="white"/>
<path d="M271.469 76.3495V66.9918C271.469 64.1305 269.024 61.811 266.008 61.811L85.3513 61.811C82.3352 61.811 79.8901 64.1305 79.8901 66.9918V76.3495C79.8901 79.2107 82.3352 81.5302 85.3513 81.5302L266.008 81.5302C269.024 81.5302 271.469 79.2107 271.469 76.3495Z" fill="#FF441F"/>
<path opacity="0.5" d="M271.469 76.3495V66.9918C271.469 64.1305 269.024 61.811 266.008 61.811L85.3513 61.811C82.3352 61.811 79.8901 64.1305 79.8901 66.9918V76.3495C79.8901 79.2107 82.3352 81.5302 85.3513 81.5302L266.008 81.5302C269.024 81.5302 271.469 79.2107 271.469 76.3495Z" fill="white"/>
<path d="M237.289 84.8299V78.0415H185.304V84.8299H237.289Z" fill="#FF441F"/>
<path opacity="0.5" d="M237.289 84.8299V78.0415H185.304V84.8299H237.289Z" fill="white"/>
<path d="M290.109 47.2166V37.859C290.109 34.9977 287.664 32.6782 284.648 32.6782L103.992 32.6782C100.976 32.6782 98.5308 34.9977 98.5308 37.859V47.2166C98.5308 50.0779 100.976 52.3974 103.992 52.3974L284.648 52.3974C287.664 52.3974 290.109 50.0779 290.109 47.2166Z" fill="#FF441F"/>
<path d="M96.4662 136.371C95.815 137.775 95.0972 139.291 94.4682 140.772C93.8392 142.253 93.188 143.777 92.6182 145.293C91.449 148.249 90.5116 151.283 89.8136 154.37L89.599 155.493L89.525 155.914C89.525 156.034 89.525 156.188 89.4806 156.329C89.4524 157.012 89.4673 157.697 89.525 158.378C89.6656 159.86 89.9172 161.446 90.265 163.033C90.8866 166.213 91.6784 169.491 92.485 172.72L88.6888 174.124C86.9192 171.064 85.4121 167.874 84.1822 164.584C83.5342 162.872 83.01 161.12 82.6134 159.34C82.3911 158.355 82.2525 157.355 82.199 156.35C82.199 156.069 82.199 155.802 82.199 155.5C82.199 155.198 82.199 154.861 82.2508 154.665L82.3988 153.261C82.6199 151.453 82.9585 149.659 83.4126 147.891C83.827 146.136 84.3598 144.43 84.8926 142.745C85.4254 141.06 86.0914 139.403 86.7944 137.775C87.1422 136.96 87.5344 136.153 87.8748 135.346C88.2152 134.538 88.6148 133.766 89.0884 132.903L96.4662 136.371Z" fill="#E4897B"/>
<path d="M92.2854 171.772L95.1714 174.447L88.874 177.255C88.874 177.255 87.3496 174.721 88.4078 172.432L92.2854 171.772Z" fill="#E4897B"/>
<path d="M97.5023 178.428L92.1817 180.491L88.8813 177.227L95.1713 174.447L97.5023 178.428Z" fill="#E4897B"/>
<path opacity="0.4" d="M205.283 175.549C194.813 174.434 184.926 170.399 176.873 163.954C168.82 157.509 162.962 148.944 160.039 139.341C157.116 129.738 157.261 119.529 160.454 110.004C163.646 100.479 169.745 92.0657 177.977 85.828C186.209 79.5902 196.207 75.808 206.705 74.9594C217.203 74.1108 227.73 76.234 236.957 81.0605C246.183 85.887 253.694 93.2001 258.539 102.075C263.385 110.951 265.348 120.99 264.18 130.923C263.404 137.523 261.265 143.913 257.885 149.728C254.504 155.543 249.949 160.669 244.479 164.814C239.01 168.958 232.733 172.039 226.007 173.881C219.282 175.724 212.24 176.29 205.283 175.549Z" fill="#FAFAFA"/>
<path opacity="0.4" d="M244.044 85.4965L163.014 146.914C162.674 146.212 162.341 145.51 162.03 144.808C159.999 140.225 158.699 135.379 158.175 130.431L228.164 77.3813C233.91 79.1997 239.282 81.945 244.044 85.4965Z" fill="#FAFAFA"/>
<path opacity="0.4" d="M262.744 112.404L186.561 170.144C179.324 166.564 173.052 161.453 168.231 155.205L251.415 92.1514C256.777 97.9899 260.653 104.919 262.744 112.404Z" fill="#FAFAFA"/>
<path d="M151.248 106.002L150.545 105.777C151.763 102.369 153.293 99.0688 155.119 95.9142L155.762 96.2512C153.961 99.3704 152.451 102.633 151.248 106.002ZM160.232 89.6173L159.633 89.2031C165.714 81.4024 173.673 75.0939 182.846 70.8037L183.179 71.4355C174.11 75.6814 166.243 81.9225 160.232 89.6383V89.6173ZM241.329 72.3972C238.91 71.1668 236.409 70.0903 233.84 69.175L234.106 68.5151C236.7 69.4519 239.227 70.5494 241.669 71.8005L241.329 72.3972Z" fill="#FF441F"/>
<path opacity="0.3" d="M151.248 106.002L150.545 105.777C151.763 102.369 153.293 99.0688 155.119 95.9142L155.762 96.2512C153.961 99.3704 152.451 102.633 151.248 106.002ZM160.232 89.6173L159.633 89.2031C165.714 81.4024 173.673 75.0939 182.846 70.8037L183.179 71.4355C174.11 75.6814 166.243 81.9225 160.232 89.6383V89.6173ZM241.329 72.3972C238.91 71.1668 236.409 70.0903 233.84 69.175L234.106 68.5151C236.7 69.4519 239.227 70.5494 241.669 71.8005L241.329 72.3972Z" fill="black"/>
<path d="M266.304 99.5015C259.452 86.0198 247.393 75.5566 232.629 70.2808C217.864 65.0051 201.526 65.3215 187.001 71.1645C172.476 77.0075 160.878 87.929 154.611 101.665C148.345 115.4 147.891 130.897 153.343 144.942C148.4 146.585 143.516 148.347 138.661 150.165C131.661 152.8 124.725 155.552 117.852 158.42C110.985 161.306 104.148 164.247 97.3766 167.322C93.98 168.831 90.6278 170.425 87.246 171.969C85.4867 172.686 83.8928 173.724 82.5544 175.023C81.8301 175.742 81.1923 176.536 80.6526 177.388C79.994 178.397 79.4954 179.492 79.1726 180.639C78.6157 182.704 78.8565 184.891 79.8514 186.803C80.8463 188.715 82.5295 190.226 84.5968 191.063C85.7447 191.52 86.9559 191.818 88.1932 191.948C89.2382 192.06 90.2932 192.06 91.3382 191.948C93.2372 191.729 95.0725 191.159 96.7402 190.27C100.092 188.663 103.467 187.111 106.797 185.461C113.457 182.239 120.117 178.877 126.695 175.465C133.274 172.053 139.86 168.48 146.283 164.816C150.723 162.267 155.208 159.663 159.603 156.939C168.044 169.58 181.287 178.655 196.589 182.285C211.892 185.915 228.079 183.821 241.798 176.437C255.517 169.053 265.716 156.945 270.281 142.622C274.846 128.299 273.427 112.859 266.319 99.5015H266.304ZM232.663 166.564C224.064 170.59 214.398 172.108 204.889 170.924C195.381 169.74 186.455 165.908 179.242 159.912C172.029 153.916 166.852 146.026 164.366 137.239C161.879 128.453 162.195 119.164 165.274 110.547C168.352 101.931 174.054 94.3736 181.66 88.8315C189.266 83.2893 198.433 80.011 208.002 79.4111C217.572 78.8111 227.114 80.9165 235.422 85.4609C243.73 90.0054 250.432 96.7848 254.678 104.942C257.499 110.359 259.167 116.251 259.587 122.279C260.007 128.308 259.171 134.357 257.126 140.079C255.082 145.801 251.869 151.085 247.672 155.63C243.475 160.174 238.375 163.889 232.663 166.564Z" fill="#FF441F"/>
<path opacity="0.3" d="M266.304 99.5015C259.452 86.0198 247.393 75.5566 232.629 70.2808C217.864 65.0051 201.526 65.3215 187.001 71.1645C172.476 77.0075 160.878 87.929 154.611 101.665C148.345 115.4 147.891 130.897 153.343 144.942C148.4 146.585 143.516 148.347 138.661 150.165C131.661 152.8 124.725 155.552 117.852 158.42C110.985 161.306 104.148 164.247 97.3766 167.322C93.98 168.831 90.6278 170.425 87.246 171.969C85.4867 172.686 83.8928 173.724 82.5544 175.023C81.8301 175.742 81.1923 176.536 80.6526 177.388C79.994 178.397 79.4954 179.492 79.1726 180.639C78.6157 182.704 78.8565 184.891 79.8514 186.803C80.8463 188.715 82.5295 190.226 84.5968 191.063C85.7447 191.52 86.9559 191.818 88.1932 191.948C89.2382 192.06 90.2932 192.06 91.3382 191.948C93.2372 191.729 95.0725 191.159 96.7402 190.27C100.092 188.663 103.467 187.111 106.797 185.461C113.457 182.239 120.117 178.877 126.695 175.465C133.274 172.053 139.86 168.48 146.283 164.816C150.723 162.267 155.208 159.663 159.603 156.939C168.044 169.58 181.287 178.655 196.589 182.285C211.892 185.915 228.079 183.821 241.798 176.437C255.517 169.053 265.716 156.945 270.281 142.622C274.846 128.299 273.427 112.859 266.319 99.5015H266.304ZM232.663 166.564C224.064 170.59 214.398 172.108 204.889 170.924C195.381 169.74 186.455 165.908 179.242 159.912C172.029 153.916 166.852 146.026 164.366 137.239C161.879 128.453 162.195 119.164 165.274 110.547C168.352 101.931 174.054 94.3736 181.66 88.8315C189.266 83.2893 198.433 80.011 208.002 79.4111C217.572 78.8111 227.114 80.9165 235.422 85.4609C243.73 90.0054 250.432 96.7848 254.678 104.942C257.499 110.359 259.167 116.251 259.587 122.279C260.007 128.308 259.171 134.357 257.126 140.079C255.082 145.801 251.869 151.085 247.672 155.63C243.475 160.174 238.375 163.889 232.663 166.564Z" fill="black"/>
<path d="M116.92 111.302C116.92 111.716 117.149 112.053 117.438 112.053C117.727 112.053 117.956 111.716 117.956 111.302C117.956 110.888 117.727 110.551 117.438 110.551C117.149 110.551 116.92 110.916 116.92 111.302Z" fill="#263238"/>
<path d="M117.127 112.053C117.651 113.325 118.356 114.522 119.221 115.612C118.922 115.816 118.579 115.954 118.218 116.018C117.856 116.083 117.484 116.071 117.127 115.984V112.053Z" fill="#DE5753"/>
<path d="M115.388 108.993C115.347 108.993 115.306 108.984 115.269 108.967C115.232 108.95 115.199 108.925 115.174 108.894C115.135 108.841 115.12 108.775 115.131 108.711C115.142 108.647 115.178 108.59 115.233 108.55C115.559 108.316 115.94 108.16 116.343 108.095C116.746 108.03 117.16 108.059 117.549 108.178C117.584 108.187 117.616 108.203 117.645 108.225C117.673 108.247 117.696 108.274 117.712 108.304C117.728 108.335 117.738 108.369 117.74 108.403C117.741 108.437 117.736 108.471 117.723 108.504C117.71 108.536 117.69 108.565 117.664 108.589C117.638 108.613 117.608 108.632 117.574 108.645C117.54 108.657 117.504 108.662 117.468 108.661C117.432 108.659 117.396 108.65 117.364 108.635C117.055 108.545 116.728 108.526 116.41 108.581C116.091 108.636 115.792 108.763 115.536 108.95C115.492 108.978 115.441 108.993 115.388 108.993Z" fill="#263238"/>
<path d="M101.972 114.426C102.712 118.196 103.526 125.111 100.743 127.631C100.743 127.631 101.831 131.457 109.224 131.457C117.364 131.457 113.101 127.631 113.101 127.631C108.661 126.62 108.787 123.503 109.557 120.569L101.972 114.426Z" fill="#E4897B"/>
<path d="M97.4209 129.617C98.3015 128.319 96.8215 125.167 96.8215 125.167C96.8215 125.167 109.905 122.043 115.255 126.837C116.365 127.827 115.137 129.287 115.137 129.287L97.4209 129.617Z" fill="#FF441F"/>
<path opacity="0.1" d="M97.4209 129.617C98.3015 128.319 96.8215 125.167 96.8215 125.167C96.8215 125.167 109.905 122.043 115.255 126.837C116.365 127.827 115.137 129.287 115.137 129.287L97.4209 129.617Z" fill="black"/>
<path d="M75.7758 272.846C75.0876 272.846 73.985 271.758 73.6594 271.351C73.6454 271.331 73.6379 271.308 73.6379 271.284C73.6379 271.26 73.6454 271.237 73.6594 271.218C73.6714 271.198 73.6887 271.182 73.7095 271.171C73.7303 271.159 73.7539 271.154 73.7778 271.154C73.8592 271.154 75.6722 271.309 76.168 271.92C76.2219 271.984 76.2604 272.059 76.2809 272.139C76.3013 272.219 76.3032 272.302 76.2864 272.383C76.28 272.487 76.2395 272.587 76.1706 272.669C76.1016 272.751 76.0077 272.81 75.9016 272.839L75.7758 272.846ZM74.059 271.442C74.5992 272.032 75.465 272.699 75.835 272.614C75.835 272.614 75.983 272.579 76.0274 272.355C76.0371 272.308 76.0355 272.259 76.0227 272.213C76.0099 272.167 75.9862 272.124 75.9534 272.088C75.4052 271.694 74.7456 271.464 74.059 271.428V271.442Z" fill="#FF441F"/>
<path d="M74.1404 271.428C74.0075 271.441 73.8736 271.441 73.7408 271.428C73.7174 271.427 73.695 271.418 73.6766 271.405C73.6582 271.391 73.6444 271.372 73.6372 271.351C73.6268 271.332 73.6213 271.31 73.6213 271.288C73.6213 271.266 73.6268 271.244 73.6372 271.225C73.689 271.183 74.7768 270.109 75.5982 270.109C75.6965 270.106 75.7941 270.124 75.8847 270.16C75.9752 270.197 76.0567 270.251 76.1236 270.319C76.1972 270.378 76.2477 270.458 76.2665 270.548C76.2853 270.637 76.2715 270.73 76.2272 270.811C76.0126 271.204 74.8804 271.428 74.1404 271.428ZM74.0442 271.183C74.7842 271.183 75.8572 270.965 76.0348 270.656C76.0348 270.656 76.0866 270.565 75.9682 270.453C75.9251 270.408 75.8723 270.373 75.8135 270.35C75.7547 270.327 75.6913 270.317 75.6278 270.319C75.0211 270.451 74.4698 270.752 74.0442 271.183Z" fill="#FF441F"/>
<path d="M124.608 288.782C124.048 288.778 123.488 288.729 122.936 288.634C122.909 288.629 122.884 288.615 122.866 288.595C122.849 288.574 122.839 288.548 122.84 288.522C122.836 288.498 122.839 288.473 122.85 288.45C122.86 288.428 122.877 288.409 122.899 288.396C122.98 288.353 124.875 287.322 125.785 287.56C125.869 287.578 125.949 287.613 126.019 287.661C126.089 287.709 126.148 287.77 126.192 287.841C126.25 287.919 126.281 288.012 126.281 288.108C126.281 288.203 126.25 288.296 126.192 288.375C125.977 288.69 125.304 288.782 124.608 288.782ZM123.358 288.452C124.364 288.592 125.741 288.585 125.992 288.248C126.029 288.206 126.059 288.129 125.992 287.981C125.936 287.894 125.845 287.831 125.741 287.806C125.163 287.666 124.016 288.129 123.358 288.452Z" fill="#FF441F"/>
<path d="M122.966 288.641C122.941 288.648 122.916 288.648 122.892 288.641C122.871 288.629 122.855 288.611 122.846 288.589C122.837 288.568 122.834 288.545 122.84 288.522C122.89 287.791 123.186 287.095 123.683 286.535C123.784 286.453 123.902 286.392 124.03 286.357C124.158 286.322 124.292 286.313 124.423 286.332C124.779 286.332 124.882 286.535 124.904 286.669C125.001 287.251 123.706 288.368 123.047 288.648L122.966 288.641ZM124.29 286.535C124.127 286.534 123.97 286.589 123.846 286.69C123.428 287.133 123.169 287.691 123.106 288.283C123.772 287.897 124.66 287.027 124.586 286.676C124.586 286.676 124.586 286.556 124.335 286.535H124.29Z" fill="#FF441F"/>
<path d="M116.987 288.515H122.426L122.966 276.574H117.527L116.987 288.515Z" fill="#E4897B"/>
<path d="M68.5535 268.017L73.0971 270.839L83.1315 262.801L78.5805 259.972L68.5535 268.017Z" fill="#E4897B"/>
<path d="M73.8445 270.572L69.1233 266.9C69.0399 266.835 68.9353 266.8 68.8273 266.8C68.7193 266.8 68.6147 266.835 68.5313 266.9L64.6389 269.8C64.5448 269.871 64.4689 269.961 64.4167 270.064C64.3645 270.166 64.3374 270.279 64.3374 270.393C64.3374 270.507 64.3645 270.619 64.4167 270.722C64.4689 270.825 64.5448 270.915 64.6389 270.986C66.3113 272.243 67.1919 272.776 69.2713 274.391C70.5515 275.381 73.7113 278.413 75.4947 279.782C77.2781 281.151 78.9135 279.677 78.3215 278.968C75.6649 275.774 74.6215 273.043 74.3181 271.351C74.2657 271.045 74.0972 270.768 73.8445 270.572Z" fill="#263238"/>
<path d="M122.389 287.918H116.469C116.361 287.919 116.256 287.954 116.171 288.017C116.087 288.081 116.027 288.17 116.002 288.269L114.929 292.854C114.902 292.965 114.902 293.08 114.929 293.191C114.957 293.302 115.01 293.406 115.085 293.495C115.161 293.583 115.257 293.654 115.366 293.703C115.475 293.751 115.594 293.775 115.714 293.773C117.852 293.738 120.946 293.619 123.639 293.619C126.784 293.619 129.507 293.78 133.193 293.78C135.413 293.78 136.049 291.639 135.109 291.45C130.862 290.565 127.384 290.474 123.713 288.319C123.319 288.071 122.861 287.933 122.389 287.918Z" fill="#263238"/>
<path d="M90.0282 129.168C85.3144 131.274 82.6282 145.384 82.6282 145.384L94.15 149.744C95.8365 145.837 97.1997 141.812 98.2274 137.704C99.811 131.204 94.853 126.992 90.0282 129.168Z" fill="#263238"/>
<path d="M96.1406 137.122C93.2916 139.859 91.9892 145.223 91.4194 148.712L94.1796 149.758C95.8182 145.962 97.1539 142.055 98.1756 138.069C97.9314 136.581 97.3246 135.984 96.1406 137.122Z" fill="#203048"/>
<path d="M121.463 129.07C121.463 129.07 127.25 135.275 121.789 173.647H92.7145C92.5147 169.435 95.3193 148.761 91.0125 128.81C94.2256 128.219 97.4763 127.83 100.743 127.645C104.859 127.413 108.986 127.413 113.101 127.645C115.923 127.914 118.719 128.39 121.463 129.07Z" fill="#263238"/>
<path d="M124.12 143.966L119.221 135.957C118.276 139.694 117.889 143.539 118.074 147.378C118.207 150.13 120.864 160.323 123.254 161.811C123.888 155.883 124.177 149.925 124.12 143.966Z" fill="#203048"/>
<path d="M124.801 134.552C125.541 137.964 126.281 141.46 127.073 144.886C127.864 148.311 128.686 151.751 129.64 155.072C129.885 155.893 130.114 156.735 130.38 157.522L130.58 158.125L130.676 158.427V158.392C130.625 158.329 130.565 158.322 130.61 158.392C130.914 158.707 131.303 158.938 131.735 159.059C132.434 159.306 133.155 159.496 133.888 159.628C137.387 160.154 140.929 160.372 144.47 160.281L145.173 164.099C144.181 164.401 143.256 164.619 142.28 164.837C141.303 165.054 140.341 165.237 139.357 165.377C137.32 165.699 135.256 165.83 133.192 165.77C132.045 165.741 130.905 165.6 129.788 165.349C128.369 165.054 127.035 164.467 125.881 163.629C125.128 163.052 124.506 162.335 124.053 161.523C123.935 161.312 123.831 161.074 123.735 160.87L123.602 160.54L123.328 159.838C122.951 158.947 122.64 158.069 122.3 157.192C121.049 153.682 120.006 150.137 119.088 146.599C118.17 143.06 117.379 139.529 116.72 135.9L124.801 134.552Z" fill="#E4897B"/>
<path d="M114.204 132.833C112.672 137.543 118.881 151.59 118.881 151.59L131.246 148.642C131.246 148.642 130.773 141.341 127.953 135.549C123.706 126.817 116.039 127.182 114.204 132.833Z" fill="#263238"/>
<path d="M144.367 160.281L150.523 160.133L147.563 166.213C147.563 166.213 145.055 166.529 142.998 163.32L140.829 160.863L143.323 160.393C143.666 160.324 144.016 160.287 144.367 160.281Z" fill="#E4897B"/>
<path d="M154.408 161.264L150.886 166.304L147.563 166.213L150.523 160.133L154.408 161.264Z" fill="#E4897B"/>
<path d="M122.966 276.574L122.685 282.731H117.246L117.527 276.574H122.966Z" fill="#CE6F64"/>
<path d="M78.5806 259.972L83.1316 262.801L77.9516 266.943L73.408 264.121L78.5806 259.972Z" fill="#CE6F64"/>
<path d="M102.312 110.411C102.638 115.514 102.557 118.526 105.272 121.144C109.357 125.097 116.01 122.759 117.297 117.634C118.459 113.043 117.734 105.462 112.465 103.426C111.303 102.981 110.04 102.823 108.796 102.968C107.551 103.112 106.366 103.554 105.351 104.253C104.336 104.951 103.525 105.882 102.993 106.959C102.462 108.037 102.228 109.224 102.312 110.411Z" fill="#E4897B"/>
<path d="M95.9778 109.512C97.3172 114.166 100.47 119.53 104.547 119.874C109.609 120.295 111.895 115.332 112.561 110.207C115.595 108.235 114.004 106.065 117.046 105.792C120.953 105.441 119.702 98.6592 114.559 97.5711C114.559 97.5711 116.283 100.625 112.665 99.0804C109.223 97.5289 105.4 96.9002 101.609 97.2623C101.609 97.2623 106.227 99.4525 101.713 100.428C97.1988 101.404 95.852 104.044 97.9314 105.637C97.9314 105.644 95.0972 106.451 95.9778 109.512Z" fill="#263238"/>
<path d="M109.476 111.26C109.575 112.529 110.113 113.731 111.007 114.679C112.191 115.921 113.427 115.149 113.634 113.64C113.827 112.285 113.435 110.004 111.984 109.316C110.534 108.628 109.379 109.73 109.476 111.26Z" fill="#E4897B"/>
<path d="M111.473 173.647C111.473 173.647 116.772 210.045 112.598 224.633C105.983 247.729 80.6894 267.223 80.6894 267.223L72.1128 261.888C72.1128 261.888 93.6542 245.426 96.2886 226.086C98.6566 208.726 92.7144 187.729 92.7144 173.64L111.473 173.647Z" fill="#FF441F"/>
<path opacity="0.1" d="M111.473 173.647C111.473 173.647 116.772 210.045 112.598 224.633C105.983 247.729 80.6894 267.223 80.6894 267.223L72.1128 261.888C72.1128 261.888 93.6542 245.426 96.2886 226.086C98.6566 208.726 92.7144 187.729 92.7144 173.64L111.473 173.647Z" fill="black"/>
<path d="M113.664 194.454C112.253 192.921 110.701 191.512 109.024 190.242C109.927 202.057 110.667 219.558 109.846 231.99C110.95 229.607 111.87 227.15 112.598 224.64C114.633 217.515 114.419 205.209 113.664 194.454Z" fill="#FF441F"/>
<path opacity="0.3" d="M113.664 194.454C112.253 192.921 110.701 191.512 109.024 190.242C109.927 202.057 110.667 219.558 109.846 231.99C110.95 229.607 111.87 227.15 112.598 224.64C114.633 217.515 114.419 205.209 113.664 194.454Z" fill="black"/>
<path d="M84.1453 265.405C84.1823 265.405 80.8227 267.511 80.8227 267.511L71.4543 261.684L74.4143 259.361L84.1453 265.405Z" fill="#FF441F"/>
<path opacity="0.3" d="M84.1453 265.405C84.1823 265.405 80.8227 267.511 80.8227 267.511L71.4543 261.684L74.4143 259.361L84.1453 265.405Z" fill="black"/>
<path d="M121.789 173.647C121.789 173.647 129.973 206.571 130.551 222.303C131.202 239.937 124.712 281.537 124.712 281.537H115.499C115.499 281.537 114.367 239.614 113.96 223.552C113.508 206.037 102.675 173.647 102.675 173.647H121.789Z" fill="#FF441F"/>
<path opacity="0.1" d="M121.789 173.647C121.789 173.647 129.973 206.571 130.551 222.303C131.202 239.937 124.712 281.537 124.712 281.537H115.499C115.499 281.537 114.367 239.614 113.96 223.552C113.508 206.037 102.675 173.647 102.675 173.647H121.789Z" fill="black"/>
<path d="M126.481 278.062C126.525 278.062 125.963 281.684 125.963 281.684H114.759L114.456 278.448L126.481 278.062Z" fill="#FF441F"/>
<path opacity="0.3" d="M126.481 278.062C126.525 278.062 125.963 281.684 125.963 281.684H114.759L114.456 278.448L126.481 278.062Z" fill="black"/>
<path d="M263.44 142.008C264.069 142.569 264.565 143.047 265.083 143.58C265.601 144.114 266.089 144.633 266.563 145.174C267.525 146.248 268.428 147.378 269.301 148.515C271.045 150.797 272.596 153.205 273.941 155.718L274.214 156.23C274.348 156.478 274.46 156.737 274.547 157.003C274.726 157.516 274.836 158.049 274.873 158.589C274.921 159.541 274.783 160.493 274.466 161.397C273.926 162.899 273.123 164.304 272.091 165.553C270.231 167.818 268.038 169.818 265.579 171.492L263.736 169.484C264.602 168.522 265.505 167.49 266.311 166.458C267.132 165.459 267.874 164.403 268.531 163.299C269.145 162.337 269.6 161.29 269.878 160.197C269.974 159.805 269.991 159.401 269.93 159.003C269.903 158.87 269.859 158.74 269.797 158.617C269.769 158.563 269.737 158.512 269.7 158.463L269.464 158.084C268.037 155.876 266.488 153.741 264.824 151.688C264.002 150.656 263.122 149.667 262.234 148.691C261.797 148.199 261.346 147.722 260.894 147.245C260.443 146.767 259.955 146.29 259.562 145.918L263.44 142.008Z" fill="#E4897B"/>
<path d="M264.446 168.895L258.918 168.038L261.812 172.629C261.812 172.629 265.371 172.51 266.385 170.523L264.446 168.895Z" fill="#E4897B"/>
<path d="M254.833 170.158L257.468 173.886L261.812 172.629L258.918 168.038L254.833 170.158Z" fill="#E4897B"/>
<path d="M264.18 288.719C263.804 288.749 263.429 288.652 263.122 288.445C263.029 288.362 262.961 288.257 262.923 288.142C262.885 288.026 262.88 287.903 262.907 287.785C262.913 287.71 262.939 287.637 262.985 287.575C263.031 287.513 263.093 287.465 263.166 287.434C263.81 287.16 265.497 288.185 265.69 288.304C265.712 288.317 265.728 288.337 265.738 288.359C265.747 288.382 265.748 288.407 265.741 288.431C265.739 288.455 265.728 288.477 265.71 288.495C265.693 288.513 265.67 288.525 265.645 288.529C265.166 288.645 264.674 288.708 264.18 288.719ZM263.44 287.631C263.386 287.623 263.331 287.623 263.277 287.631C263.245 287.645 263.217 287.668 263.197 287.696C263.178 287.725 263.167 287.758 263.166 287.792C263.147 287.87 263.149 287.952 263.172 288.03C263.195 288.107 263.239 288.178 263.299 288.234C263.581 288.473 264.306 288.508 265.275 288.326C264.72 287.977 264.095 287.741 263.44 287.631Z" fill="#FF441F"/>
<path d="M265.66 288.522H265.593C265.068 288.234 264.054 287.118 264.18 286.507C264.204 286.411 264.26 286.325 264.34 286.262C264.42 286.198 264.52 286.161 264.624 286.156C264.724 286.143 264.825 286.151 264.922 286.18C265.018 286.209 265.106 286.259 265.179 286.325C265.785 286.83 265.793 288.347 265.793 288.431C265.791 288.452 265.785 288.473 265.773 288.491C265.761 288.51 265.745 288.525 265.726 288.536L265.66 288.522ZM264.712 286.416H264.653C264.49 286.416 264.453 286.5 264.439 286.564C264.365 286.922 264.994 287.778 265.519 288.178C265.532 287.589 265.354 287.011 265.008 286.521C264.964 286.482 264.912 286.452 264.854 286.434C264.797 286.416 264.736 286.41 264.675 286.416H264.712Z" fill="#FF441F"/>
<path d="M238.961 288.718C238.488 288.761 238.015 288.647 237.621 288.396C237.533 288.321 237.464 288.227 237.422 288.122C237.379 288.017 237.364 287.904 237.377 287.792C237.382 287.724 237.405 287.658 237.444 287.6C237.482 287.542 237.536 287.495 237.599 287.462C238.287 287.097 240.493 288.164 240.744 288.297C240.767 288.311 240.786 288.331 240.797 288.355C240.809 288.379 240.814 288.405 240.811 288.431C240.807 288.455 240.794 288.478 240.776 288.496C240.757 288.513 240.733 288.525 240.707 288.529C240.133 288.645 239.548 288.708 238.961 288.718ZM237.977 287.63C237.892 287.625 237.807 287.642 237.732 287.68C237.706 287.691 237.683 287.71 237.668 287.734C237.652 287.758 237.644 287.785 237.644 287.813C237.632 287.886 237.64 287.961 237.666 288.03C237.691 288.1 237.735 288.163 237.792 288.213C238.132 288.501 239.042 288.55 240.271 288.353C239.554 287.992 238.779 287.747 237.977 287.63Z" fill="#FF441F"/>
<path d="M240.685 288.522H240.625C239.967 288.241 238.657 287.118 238.761 286.507C238.761 286.367 238.894 286.191 239.256 286.156C239.389 286.143 239.523 286.155 239.65 286.192C239.777 286.23 239.895 286.292 239.996 286.374C240.692 286.921 240.825 288.339 240.825 288.403C240.828 288.424 240.825 288.446 240.816 288.466C240.807 288.485 240.792 288.502 240.773 288.515C240.745 288.526 240.714 288.529 240.685 288.522ZM239.36 286.416H239.279C239.042 286.416 239.027 286.528 239.02 286.556C238.96 286.914 239.848 287.806 240.5 288.192C240.435 287.592 240.177 287.025 239.76 286.57C239.647 286.48 239.507 286.425 239.36 286.416Z" fill="#FF441F"/>
<path d="M249.432 125.869C249.217 129.042 248.64 135.486 251.208 137.269C251.208 137.269 250.741 140.519 244.681 141.278C238.021 142.099 241.062 138.533 241.062 138.533C244.592 137.255 244.141 134.707 243.179 132.376L249.432 125.869Z" fill="#E4897B"/>
<path d="M235.645 120.26C235.609 120.26 235.573 120.252 235.539 120.238C235.506 120.223 235.477 120.202 235.453 120.175C235.241 119.937 234.974 119.75 234.672 119.628C234.37 119.506 234.042 119.453 233.714 119.473C233.679 119.479 233.644 119.479 233.61 119.471C233.575 119.464 233.543 119.45 233.515 119.43C233.486 119.41 233.462 119.385 233.444 119.356C233.427 119.328 233.415 119.296 233.411 119.263C233.402 119.197 233.422 119.13 233.465 119.078C233.507 119.025 233.571 118.991 233.64 118.982C234.058 118.948 234.478 119.011 234.865 119.165C235.251 119.319 235.593 119.56 235.86 119.866C235.892 119.903 235.913 119.947 235.919 119.995C235.926 120.042 235.918 120.09 235.897 120.133C235.876 120.176 235.843 120.213 235.801 120.239C235.759 120.265 235.71 120.28 235.66 120.281L235.645 120.26Z" fill="#263238"/>
<path d="M234.491 123.37C234.229 124.377 233.823 125.345 233.285 126.248C233.532 126.374 233.805 126.447 234.085 126.461C234.365 126.476 234.645 126.432 234.906 126.332L234.491 123.37Z" fill="#DE5753"/>
<path d="M234.787 122.597C234.846 123.019 234.661 123.384 234.373 123.426C234.084 123.468 233.796 123.145 233.744 122.724C233.692 122.303 233.87 121.937 234.158 121.902C234.447 121.867 234.735 122.148 234.787 122.597Z" fill="#263238"/>
<path d="M234.291 121.91L233.189 121.748C233.189 121.748 233.84 122.471 234.291 121.91Z" fill="#263238"/>
<path d="M246.782 288.41H241.232L240.862 276.23H246.412L246.782 288.41Z" fill="#E4897B"/>
<path d="M271.979 288.41H266.429L264.646 276.23H270.196L271.979 288.41Z" fill="#E4897B"/>
<path d="M266.089 287.82H272.32C272.426 287.819 272.529 287.855 272.609 287.921C272.69 287.987 272.742 288.079 272.756 288.178L273.496 292.861C273.51 292.979 273.497 293.098 273.459 293.211C273.42 293.324 273.357 293.428 273.273 293.516C273.189 293.604 273.087 293.675 272.972 293.723C272.857 293.771 272.734 293.795 272.608 293.794C270.44 293.759 269.389 293.64 266.651 293.64C264.964 293.64 262.5 293.801 260.176 293.801C257.853 293.801 257.727 291.618 258.696 291.422C263.04 290.537 263.728 289.316 265.186 288.143C265.441 287.943 265.758 287.829 266.089 287.82Z" fill="#263238"/>
<path d="M241.048 287.82H247.271C247.378 287.819 247.482 287.855 247.564 287.921C247.645 287.986 247.699 288.078 247.715 288.178L248.455 292.861C248.469 292.979 248.456 293.098 248.417 293.211C248.379 293.324 248.315 293.428 248.231 293.516C248.148 293.604 248.045 293.675 247.931 293.723C247.816 293.771 247.692 293.795 247.567 293.794C245.399 293.759 244.348 293.64 241.61 293.64C239.923 293.64 236.43 293.801 234.106 293.801C231.783 293.801 231.657 291.618 232.626 291.422C236.97 290.537 238.68 289.316 240.145 288.143C240.399 287.943 240.717 287.829 241.048 287.82Z" fill="#263238"/>
<path d="M240.862 276.23L241.055 282.513H246.605L246.412 276.23H240.862Z" fill="#CE6F64"/>
<path d="M270.196 276.23H264.646L265.571 282.513H271.114L270.196 276.23Z" fill="#CE6F64"/>
<path d="M249.506 119.298C249.883 124.507 250.157 126.704 247.774 129.702C244.185 134.202 237.362 133.507 235.349 128.508C233.536 124.009 233.226 116.252 238.272 113.528C239.383 112.924 240.637 112.6 241.917 112.585C243.196 112.57 244.458 112.866 245.584 113.444C246.709 114.022 247.66 114.863 248.346 115.888C249.033 116.912 249.432 118.086 249.506 119.298Z" fill="#E4897B"/>
<path d="M252.703 124.135C255.781 125.763 258.068 121.748 258.068 121.748C258.068 121.748 252.547 122.317 253.043 119.2C253.694 115.065 250.571 110.039 242.742 110.684C242.306 110.72 241.891 110.769 241.484 110.832C240.665 110.463 239.738 110.368 238.854 110.562C237.97 110.756 237.181 111.227 236.615 111.899C234.395 112.074 231.398 114.588 233.433 117.908C233.576 117.527 233.797 117.176 234.084 116.876C234.254 118.821 236.045 121.909 238.28 122.113C238.761 124.774 236.896 127.855 237.54 130.635C238.495 134.644 245.621 135.549 245.621 135.549C245.375 135.049 245.284 134.492 245.357 133.945C245.43 133.397 245.665 132.88 246.035 132.453C250.875 134.559 254.064 132.503 254.064 132.503C250.764 131.337 251.763 129.259 251.763 129.259C252.902 129.739 254.194 129.782 255.365 129.377C256.537 128.972 257.498 128.153 258.045 127.09C256.949 127.14 255.861 126.887 254.913 126.362C253.965 125.838 253.197 125.064 252.703 124.135Z" fill="#263238"/>
<path d="M240.211 122.913C240.224 123.413 240.133 123.911 239.942 124.377C239.752 124.843 239.466 125.269 239.101 125.63C238.125 126.592 236.926 125.918 236.6 124.69C236.312 123.58 236.474 121.748 237.747 121.243C238.027 121.138 238.33 121.102 238.629 121.137C238.928 121.172 239.213 121.277 239.457 121.443C239.702 121.609 239.9 121.831 240.031 122.088C240.163 122.344 240.225 122.628 240.211 122.913Z" fill="#E4897B"/>
<path d="M244.821 171.442C244.821 171.442 246.227 206.093 249.572 226.437C252.266 242.878 264.231 281.291 264.231 281.291H271.794C271.794 281.291 265.556 244.191 264.187 227.939C260.724 186.809 269.715 177.978 261.227 169.414L244.821 171.442Z" fill="#263238"/>
<path d="M251.141 182.401C251.141 182.401 247.722 181.839 245.724 188.017C246.464 199.719 247.73 215.248 249.572 226.437C249.979 228.93 250.601 231.934 251.363 235.226C249.92 215.458 251.141 182.401 251.141 182.401Z" fill="#161F33"/>
<path d="M238.924 172.172C238.924 172.172 232.693 210.509 233.056 226.549C233.433 243.236 239.878 281.305 239.878 281.305H247.375C247.375 281.305 246.191 244.226 246.849 227.841C247.589 209.975 255.278 170.158 255.278 170.158L238.924 172.172Z" fill="#263238"/>
<path d="M272.89 281.628H262.833L262.049 278.427L272.816 278.497L272.89 281.628Z" fill="#FF441F"/>
<path opacity="0.2" d="M272.89 281.628H262.833L262.049 278.427L272.816 278.497L272.89 281.628Z" fill="black"/>
<path d="M260.85 137.276C263.743 137.543 268.139 145.342 268.139 145.342L260.835 150.656C260.835 150.656 254.789 145.623 255.507 142.794C256.254 139.853 258.075 137.03 260.85 137.276Z" fill="#FF441F"/>
<path opacity="0.1" d="M260.85 137.276C263.743 137.543 268.139 145.342 268.139 145.342L260.835 150.656C260.835 150.656 254.789 145.623 255.507 142.794C256.254 139.853 258.075 137.03 260.85 137.276Z" fill="black"/>
<path d="M258.667 140.632C257.929 140.443 257.166 140.363 256.402 140.393C256.014 141.16 255.714 141.965 255.507 142.794C254.767 145.602 260.835 150.656 260.835 150.656L261.375 150.263L258.667 140.632Z" fill="#FF441F"/>
<path opacity="0.3" d="M258.667 140.632C257.929 140.443 257.166 140.363 256.402 140.393C256.014 141.16 255.714 141.965 255.507 142.794C254.767 145.602 260.835 150.656 260.835 150.656L261.375 150.263L258.667 140.632Z" fill="black"/>
<path d="M236.445 148.122C234.336 153.184 232.116 158.329 230.347 163.405C230.229 163.728 230.133 164.036 230.029 164.352L229.777 165.132C229.709 165.361 229.709 165.604 229.777 165.834C230.195 166.711 230.858 167.464 231.694 168.01C233.906 169.516 236.317 170.741 238.865 171.653L238.199 174.237C235.065 173.845 232.034 172.907 229.259 171.471C227.552 170.605 226.161 169.269 225.271 167.638C224.76 166.595 224.582 165.433 224.76 164.296C224.777 164.157 224.802 164.019 224.834 163.882L224.908 163.587L225.034 163.054C225.123 162.696 225.211 162.352 225.308 162.001C226.048 159.193 226.995 156.525 227.994 153.879C228.993 151.232 230.036 148.621 231.213 146.016L236.445 148.122Z" fill="#E4897B"/>
<path d="M231.953 141.018C231.953 141.018 229.452 142.219 238.924 172.173L261.257 169.407C259.688 160.829 258.948 155.514 260.85 137.276C257.647 137.059 254.432 137.059 251.23 137.276C247.82 137.465 244.43 137.887 241.084 138.54C236.8 139.446 231.953 141.018 231.953 141.018Z" fill="#FF441F"/>
<path opacity="0.1" d="M231.953 141.018C231.953 141.018 229.452 142.219 238.924 172.173L261.257 169.407C259.688 160.829 258.948 155.514 260.85 137.276C257.647 137.059 254.432 137.059 251.23 137.276C247.82 137.465 244.43 137.887 241.084 138.54C236.8 139.446 231.953 141.018 231.953 141.018Z" fill="black"/>
<path d="M261.419 168.122L262.7 169.884C262.796 170.024 262.633 170.193 262.382 170.228L238.961 173.134C238.761 173.134 238.576 173.085 238.546 172.966L238.087 171.091C238.05 170.965 238.213 170.832 238.435 170.804L261.049 167.996C261.117 167.985 261.187 167.991 261.252 168.014C261.316 168.036 261.374 168.073 261.419 168.122Z" fill="#FF441F"/>
<path opacity="0.2" d="M261.419 168.122L262.7 169.884C262.796 170.024 262.633 170.193 262.382 170.228L238.961 173.134C238.761 173.134 238.576 173.085 238.546 172.966L238.087 171.091C238.05 170.965 238.213 170.832 238.435 170.804L261.049 167.996C261.117 167.985 261.187 167.991 261.252 168.014C261.316 168.036 261.374 168.073 261.419 168.122Z" fill="black"/>
<path d="M258.711 170.895L259.318 170.818C259.437 170.818 259.518 170.734 259.503 170.664L258.882 168.235C258.858 168.193 258.82 168.161 258.774 168.143C258.728 168.125 258.677 168.123 258.63 168.136L258.023 168.207C257.897 168.207 257.816 168.291 257.838 168.368L258.46 170.79C258.475 170.867 258.593 170.909 258.711 170.895Z" fill="#263238"/>
<path d="M244.03 172.692L244.637 172.615C244.755 172.615 244.844 172.531 244.822 172.461L244.2 170.032C244.176 169.991 244.138 169.958 244.093 169.939C244.047 169.92 243.997 169.916 243.949 169.926L243.342 170.004C243.223 170.004 243.135 170.088 243.157 170.158L243.778 172.587C243.793 172.692 243.912 172.734 244.03 172.692Z" fill="#263238"/>
<path d="M232.996 151.183C233.611 153.892 234.476 157.325 235.742 161.671L236.016 150.656L232.996 151.183Z" fill="#FF441F"/>
<path opacity="0.3" d="M232.996 151.183C233.611 153.892 234.476 157.325 235.742 161.671L236.016 150.656L232.996 151.183Z" fill="black"/>
<path d="M231.953 141.018C229.178 142.078 226.773 151.084 226.773 151.084L236.319 155.493C236.319 155.493 240.929 144.479 238.865 142.33C236.8 140.182 235.15 139.803 231.953 141.018Z" fill="#FF441F"/>
<path opacity="0.1" d="M231.953 141.018C229.178 142.078 226.773 151.084 226.773 151.084L236.319 155.493C236.319 155.493 240.929 144.479 238.865 142.33C236.8 140.182 235.15 139.803 231.953 141.018Z" fill="black"/>
<path d="M248.654 281.628H238.598L237.813 278.427L249.01 278.497L248.654 281.628Z" fill="#FF441F"/>
<path opacity="0.2" d="M248.654 281.628H238.598L237.813 278.427L249.01 278.497L248.654 281.628Z" fill="black"/>
<path d="M239.02 170.783L238.213 170.467C238.015 170.39 237.799 170.365 237.587 170.393C237.375 170.421 237.175 170.502 237.006 170.628C236.838 170.753 236.708 170.919 236.628 171.107C236.549 171.296 236.524 171.501 236.556 171.702L237.14 175.36C237.168 175.543 237.239 175.718 237.347 175.872C237.455 176.026 237.598 176.155 237.765 176.25C237.932 176.346 238.119 176.405 238.313 176.423C238.507 176.441 238.703 176.419 238.887 176.356C239.18 176.255 239.455 176.111 239.701 175.928C239.968 175.718 240.18 175.45 240.319 175.148C240.458 174.846 240.52 174.517 240.5 174.187L240.418 172.671C240.404 172.261 240.265 171.864 240.016 171.529C239.768 171.193 239.421 170.934 239.02 170.783Z" fill="#E4897B"/>
</svg>
