<svg width="48" height="40" viewBox="0 0 48 40" fill="none" xmlns="http://www.w3.org/2000/svg">
<path d="M24 32.4738C27.1826 32.4738 30.2348 31.2095 32.4853 28.959C34.7357 26.7086 36 23.6564 36 20.4738H12C12 23.6564 13.2643 26.7086 15.5147 28.959C17.7652 31.2095 20.8174 32.4738 24 32.4738Z" stroke="#FF441F" stroke-width="3.33333" stroke-linecap="round" stroke-linejoin="round"/>
<path d="M17.334 32.4738H30.6673" stroke="#FF441F" stroke-width="3.33333" stroke-linecap="round" stroke-linejoin="round"/>
<path d="M34 20.4738L37.3333 12.4738" stroke="#FF441F" stroke-width="3.33333" stroke-linecap="round" stroke-linejoin="round"/>
<path d="M29.6673 8.47375C30.0273 8.60709 30.7339 9.18042 30.6673 10.2871C30.5873 11.3938 29.4273 11.8871 29.3339 12.9804C29.2673 14.0204 29.7873 14.6338 30.3073 15.1404" stroke="#FF441F" stroke-width="3.33333" stroke-linecap="round" stroke-linejoin="round"/>
<path d="M23.0001 8.47375C23.3601 8.60709 24.0667 9.18042 23.9867 10.2871C23.9201 11.3938 22.7467 11.8871 22.6801 12.9804C22.6001 14.0204 23.1201 14.6338 23.6401 15.1404" stroke="#FF441F" stroke-width="3.33333" stroke-linecap="round" stroke-linejoin="round"/>
<path d="M16.3333 8.47375C16.6933 8.60709 17.3999 9.18042 17.3333 10.2871C17.2533 11.3938 16.0933 11.8871 15.9999 12.9804C15.9333 14.0204 16.4533 14.6338 16.9866 15.1404" stroke="#FF441F" stroke-width="3.33333" stroke-linecap="round" stroke-linejoin="round"/>
</svg>
